<?xml version="1.0" encoding="UTF-8" standalone="no"?>
<!-- Created with Inkscape (http://www.inkscape.org/) -->

<svg
   xmlns:dc="http://purl.org/dc/elements/1.1/"
   xmlns:cc="http://creativecommons.org/ns#"
   xmlns:rdf="http://www.w3.org/1999/02/22-rdf-syntax-ns#"
   xmlns:svg="http://www.w3.org/2000/svg"
   xmlns="http://www.w3.org/2000/svg"
   xmlns:sodipodi="http://sodipodi.sourceforge.net/DTD/sodipodi-0.dtd"
   xmlns:inkscape="http://www.inkscape.org/namespaces/inkscape"
   width="48"
   height="48"
   id="svg6050"
   version="1.1"
   inkscape:version="0.91 r13725"
   viewBox="0 0 48 48"
   sodipodi:docname="arrow_forward.svg">
  <defs
     id="defs6052" />
  <sodipodi:namedview
     id="base"
     pagecolor="#ffffff"
     bordercolor="#666666"
     borderopacity="1.0"
     inkscape:pageopacity="0.0"
     inkscape:pageshadow="2"
     inkscape:zoom="7"
     inkscape:cx="30.949391"
     inkscape:cy="10.428037"
     inkscape:current-layer="layer1"
     showgrid="true"
     inkscape:grid-bbox="true"
     inkscape:document-units="px"
     inkscape:window-width="1086"
     inkscape:window-height="1001"
     inkscape:window-x="772"
     inkscape:window-y="0"
     inkscape:window-maximized="0" />
  <metadata
     id="metadata6055">
    <rdf:RDF>
      <cc:Work
         rdf:about="">
        <dc:format>image/svg+xml</dc:format>
        <dc:type
           rdf:resource="http://purl.org/dc/dcmitype/StillImage" />
        <dc:title></dc:title>
      </cc:Work>
    </rdf:RDF>
  </metadata>
  <g
     id="layer1"
     inkscape:label="Layer 1"
     inkscape:groupmode="layer">
    <g
       id="g3930"
       transform="matrix(3.0061024,0,0,-3.0061024,28.117639,43.106035)">
      <path
         d="m 0,0 c 0.256,0 0.512,0.098 0.707,0.293 l 5.907,6.063 -5.907,6.063 c -0.391,0.39 -1.023,0.39 -1.414,0 -0.391,-0.391 -0.391,-1.024 0,-1.415 L 3.942,6.356 -0.707,1.707 C -1.098,1.316 -1.098,0.684 -0.707,0.293 -0.512,0.098 -0.256,0 0,0"
         style="fill:#31353a;fill-opacity:1;fill-rule:nonzero;stroke:none"
         id="path3932"
         inkscape:connector-curvature="0" />
    </g>
    <g
       id="g3934"
       transform="matrix(3.0061024,0,0,-3.0061024,3.0061021,26.912787)">
      <path
         d="m 0,0 12.862,0 c 0.552,0 1,0.448 1,1 0,0.552 -0.448,1 -1,1 L 0,2 C -0.553,2 -1,1.552 -1,1 -1,0.448 -0.553,0 0,0"
         style="fill:#31353a;fill-opacity:1;fill-rule:nonzero;stroke:none"
         id="path3936"
         inkscape:connector-curvature="0" />
    </g>
    <g
       id="g5604"
       transform="matrix(3.0061024,0,0,-3.0061024,28.117639,43.106035)">
      <path
         d="m 0,0 c 0.256,0 0.512,0.098 0.707,0.293 l 5.907,6.063 -5.907,6.063 c -0.391,0.39 -1.023,0.39 -1.414,0 -0.391,-0.391 -0.391,-1.024 0,-1.415 L 3.942,6.356 -0.707,1.707 C -1.098,1.316 -1.098,0.684 -0.707,0.293 -0.512,0.098 -0.256,0 0,0"
         style="fill:#31353a;fill-opacity:1;fill-rule:nonzero;stroke:none"
         id="path5606"
         inkscape:connector-curvature="0" />
    </g>
    <g
       id="g5608"
       transform="matrix(3.0061024,0,0,-3.0061024,3.0061021,26.912787)">
      <path
         d="m 0,0 12.862,0 c 0.552,0 1,0.448 1,1 0,0.552 -0.448,1 -1,1 L 0,2 C -0.553,2 -1,1.552 -1,1 -1,0.448 -0.553,0 0,0"
         style="fill:#31353a;fill-opacity:1;fill-rule:nonzero;stroke:none"
         id="path5610"
         inkscape:connector-curvature="0" />
    </g>
  </g>
</svg>
