<?xml version="1.0" encoding="UTF-8" standalone="no"?>
<!-- Created with Inkscape (http://www.inkscape.org/) -->

<svg
   xmlns:dc="http://purl.org/dc/elements/1.1/"
   xmlns:cc="http://creativecommons.org/ns#"
   xmlns:rdf="http://www.w3.org/1999/02/22-rdf-syntax-ns#"
   xmlns:svg="http://www.w3.org/2000/svg"
   xmlns="http://www.w3.org/2000/svg"
   xmlns:sodipodi="http://sodipodi.sourceforge.net/DTD/sodipodi-0.dtd"
   xmlns:inkscape="http://www.inkscape.org/namespaces/inkscape"
   width="48"
   height="48"
   id="svg6050"
   version="1.1"
   inkscape:version="0.91 r13725"
   viewBox="0 0 48 48"
   sodipodi:docname="award_cup.svg">
  <defs
     id="defs6052" />
  <sodipodi:namedview
     id="base"
     pagecolor="#ffffff"
     bordercolor="#666666"
     borderopacity="1.0"
     inkscape:pageopacity="0.0"
     inkscape:pageshadow="2"
     inkscape:zoom="7"
     inkscape:cx="30.437678"
     inkscape:cy="23.054"
     inkscape:current-layer="layer1"
     showgrid="true"
     inkscape:grid-bbox="true"
     inkscape:document-units="px"
     inkscape:window-width="1086"
     inkscape:window-height="1001"
     inkscape:window-x="772"
     inkscape:window-y="0"
     inkscape:window-maximized="0" />
  <metadata
     id="metadata6055">
    <rdf:RDF>
      <cc:Work
         rdf:about="">
        <dc:format>image/svg+xml</dc:format>
        <dc:type
           rdf:resource="http://purl.org/dc/dcmitype/StillImage" />
        <dc:title></dc:title>
      </cc:Work>
    </rdf:RDF>
  </metadata>
  <g
     id="layer1"
     inkscape:label="Layer 1"
     inkscape:groupmode="layer">
    <g
       id="g5300"
       transform="matrix(1.5069512,0,0,-1.5069512,11.841586,4.4155117)">
      <path
         d="m 0,0 0,-5.374 c 0,-4.784 3.586,-8.677 7.994,-8.677 4.406,0 7.991,3.893 7.991,8.677 L 15.985,0 0,0 Z M 7.994,-16.051 C 2.483,-16.051 -2,-11.261 -2,-5.374 L -2,1 c 0,0.553 0.447,1 1,1 l 17.985,0 c 0.553,0 1,-0.447 1,-1 l 0,-6.374 c 0,-5.887 -4.482,-10.677 -9.991,-10.677"
         style="fill:#31353a;fill-opacity:1;fill-rule:nonzero;stroke:none"
         id="path5302"
         inkscape:connector-curvature="0" />
    </g>
    <g
       id="g5304"
       transform="matrix(1.5069512,0,0,-1.5069512,23.87212,42.015752)">
      <path
         d="m 0,0 c -0.553,0 -1,0.447 -1,1 l 0,8.279 c 0,0.553 0.447,1 1,1 0.553,0 1,-0.447 1,-1 L 1,1 C 1,0.447 0.553,0 0,0"
         style="fill:#31353a;fill-opacity:1;fill-rule:nonzero;stroke:none"
         id="path5306"
         inkscape:connector-curvature="0" />
    </g>
    <g
       id="g5308"
       transform="matrix(1.5069512,0,0,-1.5069512,30.036756,42.031883)">
      <path
         d="m 0,0 -8.084,0 c -0.553,0 -1,0.447 -1,1 0,0.553 0.447,1 1,1 L 0,2 C 0.553,2 1,1.553 1,1 1,0.447 0.553,0 0,0"
         style="fill:#31353a;fill-opacity:1;fill-rule:nonzero;stroke:none"
         id="path5310"
         inkscape:connector-curvature="0" />
    </g>
    <g
       id="g5312"
       transform="matrix(1.5069512,0,0,-1.5069512,34.540009,46.598391)">
      <path
         d="m 0,0 -14.061,0 c -0.552,0 -1,0.447 -1,1 0,0.553 0.448,1 1,1 L 0,2 C 0.553,2 1,1.553 1,1 1,0.447 0.553,0 0,0"
         style="fill:#31353a;fill-opacity:1;fill-rule:nonzero;stroke:none"
         id="path5314"
         inkscape:connector-curvature="0" />
    </g>
    <g
       id="g5316"
       transform="matrix(1.5069512,0,0,-1.5069512,37.780556,17.979579)">
      <path
         d="m 0,0 c -0.553,0 -1,0.447 -1,1 0,0.553 0.447,1 1,1 1.774,0 3.067,0.479 3.843,1.425 0.886,1.078 0.974,2.668 0.929,3.578 l -4.605,0 c -0.553,0 -1,0.447 -1,1 0,0.553 0.447,1 1,1 l 5.5,0 C 6.142,9.003 6.552,8.669 6.646,8.204 6.676,8.06 7.347,4.556 5.399,2.168 4.226,0.729 2.409,0 0,0"
         style="fill:#31353a;fill-opacity:1;fill-rule:nonzero;stroke:none"
         id="path5318"
         inkscape:connector-curvature="0" />
    </g>
    <g
       id="g5320"
       transform="matrix(1.5069512,0,0,-1.5069512,10.219745,17.979579)">
      <path
         d="m 0,0 c -2.409,0 -4.226,0.729 -5.399,2.168 -1.948,2.388 -1.277,5.892 -1.248,6.036 0.095,0.465 0.505,0.799 0.98,0.799 l 5.5,0 c 0.553,0 1,-0.447 1,-1 0,-0.553 -0.447,-1 -1,-1 l -4.605,0 C -4.818,6.094 -4.729,4.503 -3.843,3.425 -3.068,2.479 -1.774,2 0,2 0.553,2 1,1.553 1,1 1,0.447 0.553,0 0,0"
         style="fill:#31353a;fill-opacity:1;fill-rule:nonzero;stroke:none"
         id="path5322"
         inkscape:connector-curvature="0" />
    </g>
  </g>
</svg>
