<?xml version="1.0" encoding="UTF-8" standalone="no"?>
<!-- Created with Inkscape (http://www.inkscape.org/) -->

<svg
   xmlns:dc="http://purl.org/dc/elements/1.1/"
   xmlns:cc="http://creativecommons.org/ns#"
   xmlns:rdf="http://www.w3.org/1999/02/22-rdf-syntax-ns#"
   xmlns:svg="http://www.w3.org/2000/svg"
   xmlns="http://www.w3.org/2000/svg"
   xmlns:sodipodi="http://sodipodi.sourceforge.net/DTD/sodipodi-0.dtd"
   xmlns:inkscape="http://www.inkscape.org/namespaces/inkscape"
   width="48"
   height="48"
   id="svg6050"
   version="1.1"
   inkscape:version="0.91 r13725"
   viewBox="0 0 48 48"
   sodipodi:docname="cart_full.svg">
  <defs
     id="defs6052" />
  <sodipodi:namedview
     id="base"
     pagecolor="#ffffff"
     bordercolor="#666666"
     borderopacity="1.0"
     inkscape:pageopacity="0.0"
     inkscape:pageshadow="2"
     inkscape:zoom="7"
     inkscape:cx="30.437678"
     inkscape:cy="23.054"
     inkscape:current-layer="layer1"
     showgrid="true"
     inkscape:grid-bbox="true"
     inkscape:document-units="px"
     inkscape:window-width="1086"
     inkscape:window-height="1001"
     inkscape:window-x="772"
     inkscape:window-y="0"
     inkscape:window-maximized="0" />
  <metadata
     id="metadata6055">
    <rdf:RDF>
      <cc:Work
         rdf:about="">
        <dc:format>image/svg+xml</dc:format>
        <dc:type
           rdf:resource="http://purl.org/dc/dcmitype/StillImage" />
        <dc:title></dc:title>
      </cc:Work>
    </rdf:RDF>
  </metadata>
  <g
     id="layer1"
     inkscape:label="Layer 1"
     inkscape:groupmode="layer">
    <g
       id="g4756"
       transform="matrix(1.5075427,0,0,-1.5075427,20.115142,33.807922)">
      <path
         d="m 0,0 12.047,0 4.045,12.066 -19.253,0 L 0,0 Z m 12.746,-1.986 -13.499,0 c -0.445,0 -0.836,0.296 -0.956,0.724 l -5.526,20.311 c -0.283,0.974 -0.696,0.974 -0.831,0.974 l -4.284,0 c -0.548,0 -0.993,0.445 -0.993,0.993 0,0.549 0.445,0.994 0.993,0.994 l 4.284,0 c 0.614,0 2.111,-0.236 2.741,-2.417 l 1.606,-5.54 21.223,0 c 0.323,0 0.626,-0.158 0.812,-0.422 0.186,-0.264 0.232,-0.603 0.122,-0.908 L 13.681,-1.329 c -0.142,-0.395 -0.516,-0.657 -0.935,-0.657"
         style="fill:#31353a;fill-opacity:1;fill-rule:nonzero;stroke:none"
         id="path4758"
         inkscape:connector-curvature="0" />
    </g>
    <g
       id="g4760"
       transform="matrix(1.5075427,0,0,-1.5075427,35.306831,39.835379)">
      <path
         d="M 0,0 C 1.381,0 2.5,-1.119 2.5,-2.5 2.5,-3.881 1.381,-5 0,-5 c -1.381,0 -2.5,1.119 -2.5,2.5 0,1.381 1.119,2.5 2.5,2.5"
         style="fill:#31353a;fill-opacity:1;fill-rule:evenodd;stroke:none"
         id="path4762"
         inkscape:connector-curvature="0" />
    </g>
    <g
       id="g4764"
       transform="matrix(1.5075427,0,0,-1.5075427,21.738947,39.835379)">
      <path
         d="M 0,0 C 1.381,0 2.5,-1.119 2.5,-2.5 2.5,-3.881 1.381,-5 0,-5 c -1.381,0 -2.5,1.119 -2.5,2.5 0,1.381 1.119,2.5 2.5,2.5"
         style="fill:#31353a;fill-opacity:1;fill-rule:evenodd;stroke:none"
         id="path4766"
         inkscape:connector-curvature="0" />
    </g>
    <g
       id="g4768"
       transform="matrix(1.5075427,0,0,-1.5075427,20.985175,14.207153)">
      <path
         d="M 0,0 5.985,5.1 12.757,-0.671 14.171,0.743 7.4,6.514 c -0.781,0.781 -2.048,0.781 -2.829,0 L -2.95,-0.007 0,0 Z"
         style="fill:#31353a;fill-opacity:1;fill-rule:nonzero;stroke:none"
         id="path4770"
         inkscape:connector-curvature="0" />
    </g>
  </g>
</svg>
