<?xml version="1.0" encoding="UTF-8" standalone="no"?>
<!-- Created with Inkscape (http://www.inkscape.org/) -->

<svg
   xmlns:dc="http://purl.org/dc/elements/1.1/"
   xmlns:cc="http://creativecommons.org/ns#"
   xmlns:rdf="http://www.w3.org/1999/02/22-rdf-syntax-ns#"
   xmlns:svg="http://www.w3.org/2000/svg"
   xmlns="http://www.w3.org/2000/svg"
   xmlns:sodipodi="http://sodipodi.sourceforge.net/DTD/sodipodi-0.dtd"
   xmlns:inkscape="http://www.inkscape.org/namespaces/inkscape"
   width="48"
   height="48"
   id="svg6050"
   version="1.1"
   inkscape:version="0.91 r13725"
   viewBox="0 0 48 48"
   sodipodi:docname="check_list.svg">
  <defs
     id="defs6052" />
  <sodipodi:namedview
     id="base"
     pagecolor="#ffffff"
     bordercolor="#666666"
     borderopacity="1.0"
     inkscape:pageopacity="0.0"
     inkscape:pageshadow="2"
     inkscape:zoom="7"
     inkscape:cx="30.437678"
     inkscape:cy="23.054"
     inkscape:current-layer="layer1"
     showgrid="true"
     inkscape:grid-bbox="true"
     inkscape:document-units="px"
     inkscape:window-width="1086"
     inkscape:window-height="1001"
     inkscape:window-x="772"
     inkscape:window-y="0"
     inkscape:window-maximized="0" />
  <metadata
     id="metadata6055">
    <rdf:RDF>
      <cc:Work
         rdf:about="">
        <dc:format>image/svg+xml</dc:format>
        <dc:type
           rdf:resource="http://purl.org/dc/dcmitype/StillImage" />
        <dc:title></dc:title>
      </cc:Work>
    </rdf:RDF>
  </metadata>
  <g
     id="layer1"
     inkscape:label="Layer 1"
     inkscape:groupmode="layer">
    <g
       id="g4598"
       transform="matrix(1.4997188,0,0,-1.4997188,44.996063,4.3600004e-8)">
      <path
         d="m 0,0 -28,0 c -1.1,0 -2,-0.9 -2,-2 l 0,-28.006 c 0,-1.099 0.9,-2 2,-2 l 28,0 c 1.099,0 2,0.901 2,2 L 2,-2 C 2,-0.9 1.099,0 0,0 m 0,-30.006 -28,0 0,28.006 28,0 0,-28.006 z"
         style="fill:#31353a;fill-opacity:1;fill-rule:nonzero;stroke:none"
         id="path4600"
         inkscape:connector-curvature="0" />
    </g>
    <g
       id="g4602"
       transform="matrix(1.4997188,0,0,-1.4997188,15.001687,9.016309)">
      <path
         d="m 0,0 c 0.552,0 1,-0.448 1,-1 l 0,-6 c 0,-0.552 -0.448,-1 -1,-1 -0.552,0 -1,0.448 -1,1 l 0,6 c 0,0.552 0.448,1 1,1"
         style="fill:#31353a;fill-opacity:1;fill-rule:evenodd;stroke:none"
         id="path4604"
         inkscape:connector-curvature="0" />
    </g>
    <g
       id="g4606"
       transform="matrix(1.4997188,0,0,-1.4997188,21.000562,15.015185)">
      <path
         d="m 0,0 c 0,-0.552 -0.448,-1 -1,-1 l -6,0 c -0.552,0 -1,0.448 -1,1 0,0.552 0.448,1 1,1 l 6,0 C -0.448,1 0,0.552 0,0"
         style="fill:#31353a;fill-opacity:1;fill-rule:evenodd;stroke:none"
         id="path4608"
         inkscape:connector-curvature="0" />
    </g>
    <g
       id="g4610"
       transform="matrix(1.4997188,0,0,-1.4997188,20.303733,27.709404)">
      <path
         d="m 0,0 c 0.391,-0.391 0.391,-1.024 0,-1.414 l -5.657,-5.657 c -0.39,-0.391 -1.023,-0.391 -1.414,0 -0.391,0.39 -0.391,1.024 0,1.414 L -1.414,0 C -1.024,0.391 -0.391,0.391 0,0"
         style="fill:#31353a;fill-opacity:1;fill-rule:evenodd;stroke:none"
         id="path4612"
         inkscape:connector-curvature="0" />
    </g>
    <g
       id="g4614"
       transform="matrix(1.4997188,0,0,-1.4997188,20.303733,38.31406)">
      <path
         d="m 0,0 c -0.391,-0.39 -1.024,-0.39 -1.414,0 l -5.657,5.657 c -0.391,0.39 -0.391,1.024 0,1.414 0.391,0.391 1.024,0.391 1.414,0 L 0,1.414 C 0.391,1.024 0.391,0.391 0,0"
         style="fill:#31353a;fill-opacity:1;fill-rule:evenodd;stroke:none"
         id="path4616"
         inkscape:connector-curvature="0" />
    </g>
    <g
       id="g4618"
       transform="matrix(1.4997188,0,0,-1.4997188,38.997188,15.015185)">
      <path
         d="m 0,0 c 0,-0.552 -0.448,-1 -1,-1 l -6,0 c -0.552,0 -1,0.448 -1,1 0,0.552 0.448,1 1,1 l 6,0 C -0.448,1 0,0.552 0,0"
         style="fill:#31353a;fill-opacity:1;fill-rule:evenodd;stroke:none"
         id="path4620"
         inkscape:connector-curvature="0" />
    </g>
    <g
       id="g4622"
       transform="matrix(1.4997188,0,0,-1.4997188,38.997188,30.012373)">
      <path
         d="m 0,0 c 0,-0.552 -0.448,-1 -1,-1 l -6,0 c -0.552,0 -1,0.448 -1,1 0,0.552 0.448,1 1,1 l 6,0 C -0.448,1 0,0.552 0,0"
         style="fill:#31353a;fill-opacity:1;fill-rule:evenodd;stroke:none"
         id="path4624"
         inkscape:connector-curvature="0" />
    </g>
    <g
       id="g4626"
       transform="matrix(1.4997188,0,0,-1.4997188,38.997188,36.011248)">
      <path
         d="m 0,0 c 0,-0.552 -0.448,-1 -1,-1 l -6,0 c -0.552,0 -1,0.448 -1,1 0,0.552 0.448,1 1,1 l 6,0 C -0.448,1 0,0.552 0,0"
         style="fill:#31353a;fill-opacity:1;fill-rule:evenodd;stroke:none"
         id="path4628"
         inkscape:connector-curvature="0" />
    </g>
  </g>
</svg>
