<?xml version="1.0" encoding="UTF-8" standalone="no"?>
<!-- Created with Inkscape (http://www.inkscape.org/) -->

<svg
   xmlns:dc="http://purl.org/dc/elements/1.1/"
   xmlns:cc="http://creativecommons.org/ns#"
   xmlns:rdf="http://www.w3.org/1999/02/22-rdf-syntax-ns#"
   xmlns:svg="http://www.w3.org/2000/svg"
   xmlns="http://www.w3.org/2000/svg"
   xmlns:sodipodi="http://sodipodi.sourceforge.net/DTD/sodipodi-0.dtd"
   xmlns:inkscape="http://www.inkscape.org/namespaces/inkscape"
   width="48"
   height="48"
   id="svg6050"
   version="1.1"
   inkscape:version="0.91 r13725"
   viewBox="0 0 48 48"
   sodipodi:docname="delete_mark.svg">
  <defs
     id="defs6052" />
  <sodipodi:namedview
     id="base"
     pagecolor="#ffffff"
     bordercolor="#666666"
     borderopacity="1.0"
     inkscape:pageopacity="0.0"
     inkscape:pageshadow="2"
     inkscape:zoom="7"
     inkscape:cx="30.437678"
     inkscape:cy="23.054"
     inkscape:current-layer="layer1"
     showgrid="true"
     inkscape:grid-bbox="true"
     inkscape:document-units="px"
     inkscape:window-width="1086"
     inkscape:window-height="1001"
     inkscape:window-x="772"
     inkscape:window-y="0"
     inkscape:window-maximized="0" />
  <metadata
     id="metadata6055">
    <rdf:RDF>
      <cc:Work
         rdf:about="">
        <dc:format>image/svg+xml</dc:format>
        <dc:type
           rdf:resource="http://purl.org/dc/dcmitype/StillImage" />
        <dc:title></dc:title>
      </cc:Work>
    </rdf:RDF>
  </metadata>
  <g
     id="layer1"
     inkscape:label="Layer 1"
     inkscape:groupmode="layer">
    <g
       id="g3378"
       transform="matrix(1.5,0,0,-1.5,24,0)">
      <path
         d="m 0,0 c -8.836,0 -16,-7.164 -16,-16 0,-8.837 7.164,-16 16,-16 8.837,0 16,7.163 16,16 C 16,-7.164 8.837,0 0,0 m 0,-2 c 7.72,0 14,-6.28 14,-14 0,-7.72 -6.28,-14.031 -14,-14.031 -7.72,0 -14,6.311 -14,14.031 0,7.72 6.28,14 14,14"
         style="fill:#31353a;fill-opacity:1;fill-rule:nonzero;stroke:none"
         id="path3380"
         inkscape:connector-curvature="0" />
    </g>
    <g
       id="g3382"
       transform="matrix(1.5,0,0,-1.5,17.635944,15.514644)">
      <path
         d="m 0,0 9.9,-9.9 c 0.39,-0.39 0.39,-1.023 0,-1.414 -0.391,-0.39 -1.024,-0.39 -1.415,0 l -9.899,9.9 c -0.391,0.39 -0.391,1.023 0,1.414 0.39,0.391 1.023,0.391 1.414,0"
         style="fill:#31353a;fill-opacity:1;fill-rule:evenodd;stroke:none"
         id="path3384"
         inkscape:connector-curvature="0" />
    </g>
    <g
       id="g3386"
       transform="matrix(1.5,0,0,-1.5,32.4852,17.636088)">
      <path
         d="m 0,0 -9.9,-9.899 c -0.39,-0.391 -1.023,-0.391 -1.414,0 -0.39,0.39 -0.39,1.023 0,1.414 l 9.9,9.899 c 0.39,0.391 1.023,0.391 1.414,0 C 0.391,1.024 0.391,0.391 0,0"
         style="fill:#31353a;fill-opacity:1;fill-rule:evenodd;stroke:none"
         id="path3388"
         inkscape:connector-curvature="0" />
    </g>
  </g>
</svg>
