<?xml version="1.0" encoding="UTF-8" standalone="no"?>
<!-- Created with Inkscape (http://www.inkscape.org/) -->

<svg
   xmlns:dc="http://purl.org/dc/elements/1.1/"
   xmlns:cc="http://creativecommons.org/ns#"
   xmlns:rdf="http://www.w3.org/1999/02/22-rdf-syntax-ns#"
   xmlns:svg="http://www.w3.org/2000/svg"
   xmlns="http://www.w3.org/2000/svg"
   xmlns:sodipodi="http://sodipodi.sourceforge.net/DTD/sodipodi-0.dtd"
   xmlns:inkscape="http://www.inkscape.org/namespaces/inkscape"
   width="48"
   height="48"
   id="svg6050"
   version="1.1"
   inkscape:version="0.91 r13725"
   viewBox="0 0 48 48"
   sodipodi:docname="desktop.svg">
  <defs
     id="defs6052" />
  <sodipodi:namedview
     id="base"
     pagecolor="#ffffff"
     bordercolor="#666666"
     borderopacity="1.0"
     inkscape:pageopacity="0.0"
     inkscape:pageshadow="2"
     inkscape:zoom="7"
     inkscape:cx="30.437678"
     inkscape:cy="23.054"
     inkscape:current-layer="layer1"
     showgrid="true"
     inkscape:grid-bbox="true"
     inkscape:document-units="px"
     inkscape:window-width="1086"
     inkscape:window-height="1001"
     inkscape:window-x="772"
     inkscape:window-y="0"
     inkscape:window-maximized="0" />
  <metadata
     id="metadata6055">
    <rdf:RDF>
      <cc:Work
         rdf:about="">
        <dc:format>image/svg+xml</dc:format>
        <dc:type
           rdf:resource="http://purl.org/dc/dcmitype/StillImage" />
        <dc:title></dc:title>
      </cc:Work>
    </rdf:RDF>
  </metadata>
  <g
     id="layer1"
     inkscape:label="Layer 1"
     inkscape:groupmode="layer">
    <g
       id="g5114"
       transform="matrix(1.5,0,0,-1.5,45,4.491)">
      <path
         d="m 0,0 -28,0 c -1.1,0 -2,-0.9 -2,-2 l 0,-17.006 c 0,-1.099 0.9,-2 2,-2 l 28,0 c 1.1,0 2,0.901 2,2 L 2,-2 C 2,-0.9 1.1,0 0,0 m 0,-19.006 -28,0 0,17.006 28,0 0,-17.006 z"
         style="fill:#31353a;fill-opacity:1;fill-rule:nonzero;stroke:none"
         id="path5116"
         inkscape:connector-curvature="0" />
    </g>
    <g
       id="g5118"
       transform="matrix(1.5,0,0,-1.5,25.5,34.509)">
      <path
         d="m 0,0 0,-4 5,0 C 5.552,-4 6,-4.448 6,-5 6,-5.552 5.552,-6 5,-6 l -12,0 c -0.552,0 -1,0.448 -1,1 0,0.552 0.448,1 1,1 l 5,0 0,4 2,0 z"
         style="fill:#31353a;fill-opacity:1;fill-rule:evenodd;stroke:none"
         id="path5120"
         inkscape:connector-curvature="0" />
    </g>
  </g>
</svg>
