<?xml version="1.0" encoding="UTF-8" standalone="no"?>
<!-- Created with Inkscape (http://www.inkscape.org/) -->

<svg
   xmlns:dc="http://purl.org/dc/elements/1.1/"
   xmlns:cc="http://creativecommons.org/ns#"
   xmlns:rdf="http://www.w3.org/1999/02/22-rdf-syntax-ns#"
   xmlns:svg="http://www.w3.org/2000/svg"
   xmlns="http://www.w3.org/2000/svg"
   xmlns:sodipodi="http://sodipodi.sourceforge.net/DTD/sodipodi-0.dtd"
   xmlns:inkscape="http://www.inkscape.org/namespaces/inkscape"
   width="48"
   height="48"
   id="svg6050"
   version="1.1"
   inkscape:version="0.91 r13725"
   viewBox="0 0 48 48"
   sodipodi:docname="direction_signs.svg">
  <defs
     id="defs6052" />
  <sodipodi:namedview
     id="base"
     pagecolor="#ffffff"
     bordercolor="#666666"
     borderopacity="1.0"
     inkscape:pageopacity="0.0"
     inkscape:pageshadow="2"
     inkscape:zoom="7"
     inkscape:cx="30.437678"
     inkscape:cy="23.054"
     inkscape:current-layer="layer1"
     showgrid="true"
     inkscape:grid-bbox="true"
     inkscape:document-units="px"
     inkscape:window-width="1086"
     inkscape:window-height="1001"
     inkscape:window-x="772"
     inkscape:window-y="0"
     inkscape:window-maximized="0" />
  <metadata
     id="metadata6055">
    <rdf:RDF>
      <cc:Work
         rdf:about="">
        <dc:format>image/svg+xml</dc:format>
        <dc:type
           rdf:resource="http://purl.org/dc/dcmitype/StillImage" />
        <dc:title></dc:title>
      </cc:Work>
    </rdf:RDF>
  </metadata>
  <g
     id="layer1"
     inkscape:label="Layer 1"
     inkscape:groupmode="layer">
    <g
       id="g4866"
       transform="matrix(1.4967651,0,0,-1.4967651,11.995315,13.505252)">
      <path
         d="M 0,0 19.49,0 21.718,2.51 19.49,4.989 0,4.989 0,0 Z M 19.939,-2 -1,-2 c -0.553,0 -1,0.447 -1,1 l 0,6.989 c 0,0.553 0.447,1 1,1 l 20.939,0 c 0.287,0 0.559,-0.122 0.748,-0.336 l 3.116,-3.479 c 0.336,-0.379 0.336,-0.949 0,-1.328 l -3.116,-3.51 C 20.498,-1.878 20.226,-2 19.939,-2"
         style="fill:#31353a;fill-opacity:1;fill-rule:nonzero;stroke:none"
         id="path4868"
         inkscape:connector-curvature="0" />
    </g>
    <g
       id="g4870"
       transform="matrix(1.4967651,0,0,-1.4967651,6.8312362,30.001639)">
      <path
         d="m 0,0 19.459,0 0,5.019 L 0,5.019 -2.228,2.478 0,0 Z m 20.459,-2 -20.908,0 c -0.286,0 -0.558,0.091 -0.748,0.305 l -3.115,3.508 c -0.336,0.379 -0.336,0.95 0,1.329 l 3.115,3.541 c 0.189,0.213 0.462,0.336 0.748,0.336 l 20.908,0 c 0.553,0 1,-0.448 1,-1 l 0,-7.019 c 0,-0.553 -0.447,-1 -1,-1"
         style="fill:#31353a;fill-opacity:1;fill-rule:nonzero;stroke:none"
         id="path4872"
         inkscape:connector-curvature="0" />
    </g>
    <g
       id="g4874"
       transform="matrix(1.4967651,0,0,-1.4967651,22.563794,3.4195693)">
      <path
         d="m 0,0 1.933,0 0,1.312 c 0,0.518 -0.448,0.938 -1,0.938 -0.552,0 -1,-0.42 -1,-0.938 l 0,-1.325 C -0.044,-0.011 -0.024,0 0,0"
         style="fill:#31353a;fill-opacity:1;fill-rule:nonzero;stroke:none"
         id="path4876"
         inkscape:connector-curvature="0" />
    </g>
    <g
       id="g4878"
       transform="matrix(1.4967651,0,0,-1.4967651,25.45734,21.380751)">
      <path
         d="m 0,0 0,4.375 -1.933,0 C -1.957,4.375 -1.977,4.387 -2,4.388 L -2,0 0,0 Z"
         style="fill:#31353a;fill-opacity:1;fill-rule:nonzero;stroke:none"
         id="path4880"
         inkscape:connector-curvature="0" />
    </g>
    <g
       id="g4882"
       transform="matrix(1.4967651,0,0,-1.4967651,22.46381,32.419214)">
      <path
         d="m 0,0 0,-9.438 c 0,-0.517 0.448,-0.937 1,-0.937 0.552,0 1,0.42 1,0.937 L 2,0 0,0 Z"
         style="fill:#31353a;fill-opacity:1;fill-rule:nonzero;stroke:none"
         id="path4884"
         inkscape:connector-curvature="0" />
    </g>
  </g>
</svg>
