<?xml version="1.0" encoding="UTF-8" standalone="no"?>
<!-- Created with Inkscape (http://www.inkscape.org/) -->

<svg
   xmlns:dc="http://purl.org/dc/elements/1.1/"
   xmlns:cc="http://creativecommons.org/ns#"
   xmlns:rdf="http://www.w3.org/1999/02/22-rdf-syntax-ns#"
   xmlns:svg="http://www.w3.org/2000/svg"
   xmlns="http://www.w3.org/2000/svg"
   xmlns:sodipodi="http://sodipodi.sourceforge.net/DTD/sodipodi-0.dtd"
   xmlns:inkscape="http://www.inkscape.org/namespaces/inkscape"
   width="48"
   height="48"
   id="svg6050"
   version="1.1"
   inkscape:version="0.91 r13725"
   viewBox="0 0 48 48"
   sodipodi:docname="envelope_full.svg">
  <defs
     id="defs6052" />
  <sodipodi:namedview
     id="base"
     pagecolor="#ffffff"
     bordercolor="#B0B0B0"
     borderopacity="1.0"
     inkscape:pageopacity="0.0"
     inkscape:pageshadow="2"
     inkscape:zoom="7"
     inkscape:cx="30.437678"
     inkscape:cy="23.054"
     inkscape:current-layer="layer1"
     showgrid="true"
     inkscape:grid-bbox="true"
     inkscape:document-units="px"
     inkscape:window-width="1086"
     inkscape:window-height="1001"
     inkscape:window-x="772"
     inkscape:window-y="0"
     inkscape:window-maximized="0" />
  <metadata
     id="metadata6055">
    <rdf:RDF>
      <cc:Work
         rdf:about="">
        <dc:format>image/svg+xml</dc:format>
        <dc:type
           rdf:resource="http://purl.org/dc/dcmitype/StillImage" />
        <dc:title></dc:title>
      </cc:Work>
    </rdf:RDF>
  </metadata>
  <g
     id="layer1"
     inkscape:label="Layer 1"
     inkscape:groupmode="layer">
    <g
       id="g4958"
       transform="matrix(1.4996274,0,0,-1.4996274,3.0933894,46.919225)">
      <path
         d="m 0,0 13.068,12.124 c 0.227,0.183 0.495,0.278 0.778,0.278 0.287,0 0.574,-0.1 0.766,-0.25 L 27.539,0.435 c 0.489,0.455 0.951,0.936 1.369,1.456 l -13.019,11.8 c -1.178,0.923 -2.868,0.963 -4.116,-0.043 L -1.378,1.449 C -1.127,1.081 -0.809,0.746 -0.565,0.503 -0.386,0.324 -0.189,0.166 0,0"
         style="fill:#B0B0B0;fill-opacity:1;fill-rule:nonzero;stroke:none"
         id="path4960"
         inkscape:connector-curvature="0" />
    </g>
    <g
       id="g4962"
       transform="matrix(1.4996274,0,0,-1.4996274,23.029437,3.3947822)">
      <path
         d="M 0,0 C 0.189,0.188 0.44,0.293 0.707,0.293 0.975,0.293 1.226,0.188 1.415,0 l 3.232,-2.725 c 0.999,-0.026 1.184,0.777 2.188,0.719 l -4.006,3.42 c -1.132,1.132 -3.109,1.134 -4.243,0 l -4.144,-3.55 c 0.94,0.02 1.39,-0.559 2.33,-0.589 L 0,0 Z"
         style="fill:#B0B0B0;fill-opacity:1;fill-rule:nonzero;stroke:none"
         id="path4964"
         inkscape:connector-curvature="0" />
    </g>
    <g
       id="g4966"
       transform="matrix(1.4996274,0,0,-1.4996274,47.395383,20.757768)">
      <path
         d="m 0,0 0.005,0 -0.027,0.027 c -0.103,0.135 -0.223,0.254 -0.357,0.36 l -6.513,6.56 c 0.113,-0.943 0.138,-1.903 0.08,-2.858 l 3.272,-3.271 -0.03,0 1.967,-2 0,-14.984 -28,0 0,14.984 1.2,1.182 0.046,0 3.672,3.672 c -0.055,0.64 -0.107,1.279 -0.179,1.918 -0.025,0.218 -0.055,0.433 -0.082,0.649 L -30.7,0.485 c -0.542,-0.358 -0.903,-0.971 -0.903,-1.667 l 0,-14.984 c 0,-1.1 0.901,-2 2,-2 l 28,0 c 1.1,0 2,0.9 2,2 l 0,14.984 C 0.397,-0.738 0.246,-0.332 0,0"
         style="fill:#B0B0B0;fill-opacity:1;fill-rule:nonzero;stroke:none"
         id="path4968"
         inkscape:connector-curvature="0" />
    </g>
    <g
       id="g4970"
       transform="matrix(1.4996274,0,0,-1.4996274,14.906015,35.534353)">
      <path
         d="m 0,0 c -0.235,0 -0.472,0.082 -0.661,0.25 l -8.735,7.706 c -0.415,0.365 -0.454,0.997 -0.088,1.411 0.367,0.415 1,0.453 1.411,0.089 L 0.661,1.75 C 1.076,1.385 1.115,0.753 0.75,0.339 0.552,0.114 0.276,0 0,0"
         style="fill:#B0B0B0;fill-opacity:1;fill-rule:nonzero;stroke:none"
         id="path4972"
         inkscape:connector-curvature="0" />
    </g>
    <g
       id="g4974"
       transform="matrix(1.4996274,0,0,-1.4996274,33.370147,35.628074)">
      <path
         d="m 0,0 c -0.275,0 -0.551,0.113 -0.748,0.336 -0.366,0.413 -0.329,1.046 0.084,1.412 L 8.09,9.517 C 8.502,9.883 9.136,9.847 9.502,9.433 9.868,9.02 9.831,8.387 9.418,8.021 L 0.664,0.252 C 0.474,0.083 0.236,0 0,0"
         style="fill:#B0B0B0;fill-opacity:1;fill-rule:nonzero;stroke:none"
         id="path4976"
         inkscape:connector-curvature="0" />
    </g>
    <g
       id="g4978"
       transform="matrix(1.4996274,0,0,-1.4996274,37.494123,5.9473042)">
      <path
         d="m 0,0 -18,0 c -0.553,0 -1,-0.447 -1,-1 l 0,-14.118 c 0.709,-0.443 1.371,-0.948 2,-1.497 l 0,14.615 16,0 0,-14.874 c 0.688,0.492 1.354,1.014 2,1.566 L 1,-1 C 1,-0.447 0.553,0 0,0"
         style="fill:#B0B0B0;fill-opacity:1;fill-rule:nonzero;stroke:none"
         id="path4980"
         inkscape:connector-curvature="0" />
    </g>
  </g>
</svg>
