<?xml version="1.0" encoding="UTF-8" standalone="no"?>
<!-- Created with Inkscape (http://www.inkscape.org/) -->

<svg
   xmlns:dc="http://purl.org/dc/elements/1.1/"
   xmlns:cc="http://creativecommons.org/ns#"
   xmlns:rdf="http://www.w3.org/1999/02/22-rdf-syntax-ns#"
   xmlns:svg="http://www.w3.org/2000/svg"
   xmlns="http://www.w3.org/2000/svg"
   xmlns:sodipodi="http://sodipodi.sourceforge.net/DTD/sodipodi-0.dtd"
   xmlns:inkscape="http://www.inkscape.org/namespaces/inkscape"
   width="48"
   height="48"
   id="svg6050"
   version="1.1"
   inkscape:version="0.91 r13725"
   viewBox="0 0 48 48"
   sodipodi:docname="flame.svg">
  <defs
     id="defs6052" />
  <sodipodi:namedview
     id="base"
     pagecolor="#ffffff"
     bordercolor="#666666"
     borderopacity="1.0"
     inkscape:pageopacity="0.0"
     inkscape:pageshadow="2"
     inkscape:zoom="7"
     inkscape:cx="30.437678"
     inkscape:cy="23.054"
     inkscape:current-layer="layer1"
     showgrid="true"
     inkscape:grid-bbox="true"
     inkscape:document-units="px"
     inkscape:window-width="1086"
     inkscape:window-height="1001"
     inkscape:window-x="772"
     inkscape:window-y="0"
     inkscape:window-maximized="0" />
  <metadata
     id="metadata6055">
    <rdf:RDF>
      <cc:Work
         rdf:about="">
        <dc:format>image/svg+xml</dc:format>
        <dc:type
           rdf:resource="http://purl.org/dc/dcmitype/StillImage" />
        <dc:title></dc:title>
      </cc:Work>
    </rdf:RDF>
  </metadata>
  <g
     id="layer1"
     inkscape:label="Layer 1"
     inkscape:groupmode="layer">
    <g
       id="g4982"
       transform="matrix(1.5021374,0,0,-1.5021374,9.1521229,21.91989)">
      <path
         d="m 0,0 c -0.549,-1.385 -1.114,-3.227 -1.114,-4.932 0,-6.044 4.506,-10.43 10.887,-10.43 6.437,0 11.11,4.386 11.11,10.43 0,2.611 -0.322,3.823 -1.567,5.899 C 18.483,2.353 18.073,3.6 17.876,4.592 17.678,4.271 17.494,3.88 17.36,3.408 16.75,1.277 16.904,-1.215 16.906,-1.24 16.935,-1.687 16.663,-2.099 16.241,-2.248 15.82,-2.397 15.35,-2.25 15.091,-1.884 15.016,-1.777 13.237,0.74 12.453,2.436 10.825,5.955 10.853,9.76 11.019,11.951 9.371,10.991 6.842,8.847 6.029,4.485 5.238,0.241 6.775,-4.002 6.792,-4.044 6.925,-4.391 6.854,-4.783 6.611,-5.062 6.365,-5.34 5.988,-5.463 5.625,-5.376 5.501,-5.346 2.687,-4.613 0.865,-1.742 0.538,-1.228 0.246,-0.605 0,0 m 9.773,-17.362 c -7.54,0 -12.887,5.227 -12.887,12.43 0,3.825 2.293,7.944 2.391,8.117 0.199,0.354 0.589,0.546 0.998,0.502 C 0.678,3.635 1.01,3.344 1.115,2.95 1.12,2.927 1.738,0.614 2.554,-0.67 c 0.548,-0.864 1.103,-1.475 1.728,-1.898 -0.422,1.833 -0.747,4.59 -0.22,7.42 1.449,7.768 7.563,9.627 7.825,9.702 0.337,0.096 0.694,0.009 0.951,-0.224 0.256,-0.234 0.373,-0.586 0.307,-0.927 -0.01,-0.054 -1.02,-5.493 1.123,-10.127 0.194,-0.421 0.465,-0.91 0.757,-1.399 0.083,0.672 0.212,1.387 0.411,2.08 0.786,2.749 2.818,3.687 2.904,3.726 0.339,0.154 0.734,0.103 1.027,-0.126 0.292,-0.231 0.433,-0.603 0.366,-0.969 -0.011,-0.067 -0.294,-1.939 1.298,-4.592 1.437,-2.396 1.852,-3.949 1.852,-6.928 0,-7.203 -5.514,-12.43 -13.11,-12.43"
         style="fill:#31353a;fill-opacity:1;fill-rule:nonzero;stroke:none"
         id="path4984"
         inkscape:connector-curvature="0" />
    </g>
  </g>
</svg>
