<?xml version="1.0" encoding="UTF-8" standalone="no"?>
<!-- Created with Inkscape (http://www.inkscape.org/) -->

<svg
   xmlns:dc="http://purl.org/dc/elements/1.1/"
   xmlns:cc="http://creativecommons.org/ns#"
   xmlns:rdf="http://www.w3.org/1999/02/22-rdf-syntax-ns#"
   xmlns:svg="http://www.w3.org/2000/svg"
   xmlns="http://www.w3.org/2000/svg"
   xmlns:sodipodi="http://sodipodi.sourceforge.net/DTD/sodipodi-0.dtd"
   xmlns:inkscape="http://www.inkscape.org/namespaces/inkscape"
   width="48"
   height="48"
   id="svg6050"
   version="1.1"
   inkscape:version="0.91 r13725"
   viewBox="0 0 48 48"
   sodipodi:docname="gauge.svg">
  <defs
     id="defs6052" />
  <sodipodi:namedview
     id="base"
     pagecolor="#ffffff"
     bordercolor="#666666"
     borderopacity="1.0"
     inkscape:pageopacity="0.0"
     inkscape:pageshadow="2"
     inkscape:zoom="7"
     inkscape:cx="30.437678"
     inkscape:cy="23.054"
     inkscape:current-layer="layer1"
     showgrid="true"
     inkscape:grid-bbox="true"
     inkscape:document-units="px"
     inkscape:window-width="1086"
     inkscape:window-height="1001"
     inkscape:window-x="772"
     inkscape:window-y="0"
     inkscape:window-maximized="0" />
  <metadata
     id="metadata6055">
    <rdf:RDF>
      <cc:Work
         rdf:about="">
        <dc:format>image/svg+xml</dc:format>
        <dc:type
           rdf:resource="http://purl.org/dc/dcmitype/StillImage" />
        <dc:title></dc:title>
      </cc:Work>
    </rdf:RDF>
  </metadata>
  <g
     id="layer1"
     inkscape:label="Layer 1"
     inkscape:groupmode="layer">
    <g
       id="g5232"
       transform="matrix(1.5018773,0,0,-1.5018773,35.786733,46.334417)">
      <path
         d="m 0,0 c -0.336,0 -0.663,0.169 -0.853,0.476 -0.289,0.469 -0.143,1.086 0.328,1.376 4.169,2.567 6.657,7.02 6.657,11.91 0,7.709 -6.272,13.98 -13.981,13.98 -7.708,0 -13.979,-6.271 -13.979,-13.98 0,-4.844 2.452,-9.274 6.559,-11.851 0.468,-0.293 0.61,-0.91 0.316,-1.378 -0.294,-0.468 -0.911,-0.611 -1.378,-0.315 -4.694,2.944 -7.497,8.008 -7.497,13.544 0,8.811 7.168,15.98 15.979,15.98 8.812,0 15.981,-7.169 15.981,-15.98 C 8.132,8.173 5.288,3.083 0.523,0.148 0.36,0.048 0.179,0 0,0"
         style="fill:#31353a;fill-opacity:1;fill-rule:nonzero;stroke:none"
         id="path5234"
         inkscape:connector-curvature="0" />
    </g>
    <g
       id="g5236"
       transform="matrix(1.5018773,0,0,-1.5018773,46.034583,27.191332)">
      <path
         d="m 0,0 -1.828,0 c -0.553,0 -1,0.447 -1,1 0,0.553 0.447,1 1,1 L 0,2 C 0.553,2 1,1.553 1,1 1,0.447 0.553,0 0,0"
         style="fill:#31353a;fill-opacity:1;fill-rule:nonzero;stroke:none"
         id="path5238"
         inkscape:connector-curvature="0" />
    </g>
    <g
       id="g5240"
       transform="matrix(1.5018773,0,0,-1.5018773,4.7299521,27.144329)">
      <path
         d="m 0,0 -1.828,0 c -0.553,0 -1,0.447 -1,1 0,0.553 0.447,1 1,1 L 0,2 C 0.553,2 1,1.553 1,1 1,0.447 0.553,0 0,0"
         style="fill:#31353a;fill-opacity:1;fill-rule:nonzero;stroke:none"
         id="path5242"
         inkscape:connector-curvature="0" />
    </g>
    <g
       id="g5244"
       transform="matrix(1.5018773,0,0,-1.5018773,23.966838,8.1038293)">
      <path
         d="m 0,0 c -0.553,0 -1,0.447 -1,1 l 0,1.828 c 0,0.553 0.447,1 1,1 0.553,0 1,-0.447 1,-1 L 1,1 C 1,0.447 0.553,0 0,0"
         style="fill:#31353a;fill-opacity:1;fill-rule:nonzero;stroke:none"
         id="path5246"
         inkscape:connector-curvature="0" />
    </g>
    <g
       id="g5248"
       transform="matrix(1.5018773,0,0,-1.5018773,14.452505,10.452164)">
      <path
         d="m 0,0 c -0.346,0 -0.682,0.179 -0.867,0.5 l -0.914,1.583 c -0.277,0.479 -0.113,1.09 0.366,1.366 0.476,0.277 1.089,0.114 1.366,-0.366 L 0.865,1.5 C 1.142,1.021 0.978,0.41 0.499,0.134 0.342,0.043 0.17,0 0,0"
         style="fill:#31353a;fill-opacity:1;fill-rule:nonzero;stroke:none"
         id="path5250"
         inkscape:connector-curvature="0" />
    </g>
    <g
       id="g5252"
       transform="matrix(1.5018773,0,0,-1.5018773,43.082013,38.079943)">
      <path
         d="m 0,0 c -0.17,0 -0.342,0.043 -0.499,0.134 l -1.584,0.914 c -0.479,0.276 -0.643,0.888 -0.366,1.366 0.275,0.478 0.888,0.643 1.366,0.366 L 0.501,1.866 C 0.979,1.59 1.144,0.979 0.867,0.5 0.682,0.18 0.346,0 0,0"
         style="fill:#31353a;fill-opacity:1;fill-rule:nonzero;stroke:none"
         id="path5254"
         inkscape:connector-curvature="0" />
    </g>
    <g
       id="g5256"
       transform="matrix(1.5018773,0,0,-1.5018773,7.4154289,17.487859)">
      <path
         d="m 0,0 c -0.17,0 -0.342,0.043 -0.499,0.134 l -1.584,0.914 c -0.479,0.276 -0.643,0.888 -0.366,1.366 0.276,0.478 0.888,0.643 1.366,0.366 L 0.501,1.866 C 0.979,1.59 1.144,0.978 0.867,0.5 0.682,0.18 0.346,0 0,0"
         style="fill:#31353a;fill-opacity:1;fill-rule:nonzero;stroke:none"
         id="path5258"
         inkscape:connector-curvature="0" />
    </g>
    <g
       id="g5260"
       transform="matrix(1.5018773,0,0,-1.5018773,5.0407806,38.079943)">
      <path
         d="m 0,0 c -0.346,0 -0.682,0.179 -0.867,0.5 -0.277,0.479 -0.112,1.09 0.366,1.366 L 1.082,2.78 C 1.559,3.057 2.171,2.894 2.448,2.414 2.725,1.936 2.561,1.324 2.082,1.048 L 0.499,0.134 C 0.342,0.043 0.17,0 0,0"
         style="fill:#31353a;fill-opacity:1;fill-rule:nonzero;stroke:none"
         id="path5262"
         inkscape:connector-curvature="0" />
    </g>
    <g
       id="g5264"
       transform="matrix(1.5018773,0,0,-1.5018773,40.707484,17.487859)">
      <path
         d="m 0,0 c -0.346,0 -0.682,0.179 -0.867,0.5 -0.277,0.478 -0.112,1.09 0.366,1.366 L 1.082,2.78 C 1.559,3.057 2.171,2.894 2.448,2.414 2.725,1.936 2.561,1.324 2.082,1.048 L 0.499,0.134 C 0.342,0.043 0.17,0 0,0"
         style="fill:#31353a;fill-opacity:1;fill-rule:nonzero;stroke:none"
         id="path5266"
         inkscape:connector-curvature="0" />
    </g>
    <g
       id="g5268"
       transform="matrix(1.5018773,0,0,-1.5018773,33.668966,10.452164)">
      <path
         d="M 0,0 C -0.17,0 -0.342,0.043 -0.499,0.134 -0.978,0.41 -1.142,1.021 -0.865,1.5 L 0.049,3.083 C 0.325,3.563 0.937,3.726 1.415,3.449 1.894,3.173 2.058,2.562 1.781,2.083 L 0.867,0.5 C 0.682,0.179 0.346,0 0,0"
         style="fill:#31353a;fill-opacity:1;fill-rule:nonzero;stroke:none"
         id="path5270"
         inkscape:connector-curvature="0" />
    </g>
    <g
       id="g5272"
       transform="matrix(1.5018773,0,0,-1.5018773,20.956475,25.68901)">
      <path
         d="M 0,0 C 0,-1.101 0.893,-1.995 1.995,-1.995 3.097,-1.995 3.99,-1.101 3.99,0 3.99,1.101 3.097,1.994 1.995,1.994 0.893,1.994 0,1.101 0,0"
         style="fill:#31353a;fill-opacity:1;fill-rule:nonzero;stroke:none"
         id="path5274"
         inkscape:connector-curvature="0" />
    </g>
    <g
       id="g5276"
       transform="matrix(1.5018773,0,0,-1.5018773,35.631259,18.931908)">
      <path
         d="m 0,0 c 0.276,-0.478 0.112,-1.09 -0.366,-1.366 l -6.928,-4 C -7.772,-5.642 -8.384,-5.478 -8.66,-5 c -0.277,0.478 -0.112,1.09 0.366,1.366 l 6.928,4 C -0.888,0.642 -0.276,0.478 0,0"
         style="fill:#31353a;fill-opacity:1;fill-rule:evenodd;stroke:none"
         id="path5278"
         inkscape:connector-curvature="0" />
    </g>
  </g>
</svg>
