<?xml version="1.0" encoding="UTF-8" standalone="no"?>
<!-- Created with Inkscape (http://www.inkscape.org/) -->

<svg
   xmlns:dc="http://purl.org/dc/elements/1.1/"
   xmlns:cc="http://creativecommons.org/ns#"
   xmlns:rdf="http://www.w3.org/1999/02/22-rdf-syntax-ns#"
   xmlns:svg="http://www.w3.org/2000/svg"
   xmlns="http://www.w3.org/2000/svg"
   xmlns:sodipodi="http://sodipodi.sourceforge.net/DTD/sodipodi-0.dtd"
   xmlns:inkscape="http://www.inkscape.org/namespaces/inkscape"
   width="48"
   height="48"
   id="svg6050"
   version="1.1"
   inkscape:version="0.91 r13725"
   viewBox="0 0 48 48"
   sodipodi:docname="glasses.svg">
  <defs
     id="defs6052" />
  <sodipodi:namedview
     id="base"
     pagecolor="#ffffff"
     bordercolor="#666666"
     borderopacity="1.0"
     inkscape:pageopacity="0.0"
     inkscape:pageshadow="2"
     inkscape:zoom="7"
     inkscape:cx="30.437678"
     inkscape:cy="23.054"
     inkscape:current-layer="layer1"
     showgrid="true"
     inkscape:grid-bbox="true"
     inkscape:document-units="px"
     inkscape:window-width="1086"
     inkscape:window-height="1001"
     inkscape:window-x="772"
     inkscape:window-y="0"
     inkscape:window-maximized="0" />
  <metadata
     id="metadata6055">
    <rdf:RDF>
      <cc:Work
         rdf:about="">
        <dc:format>image/svg+xml</dc:format>
        <dc:type
           rdf:resource="http://purl.org/dc/dcmitype/StillImage" />
        <dc:title></dc:title>
      </cc:Work>
    </rdf:RDF>
  </metadata>
  <g
     id="layer1"
     inkscape:label="Layer 1"
     inkscape:groupmode="layer">
    <g
       id="g5204"
       transform="matrix(1.4957348,0,0,-1.4957348,1.4967294,32.043242)">
      <path
         d="m 0,0 c -0.023,0 -0.048,0.001 -0.072,0.003 -0.551,0.039 -0.966,0.518 -0.926,1.068 0.03,0.433 1.557,9.916 1.811,11.445 0.025,0.146 0.044,0.302 0.066,0.466 0.196,1.536 0.563,4.395 5.171,4.395 0.553,0 1,-0.447 1,-1 0,-0.553 -0.447,-1 -1,-1 -2.848,0 -2.998,-1.169 -3.188,-2.649 C 2.838,12.538 2.814,12.356 2.786,12.188 2.588,10.994 1.205,3.85 0.996,0.929 0.959,0.402 0.52,0 0,0"
         style="fill:#31353a;fill-opacity:1;fill-rule:nonzero;stroke:none"
         id="path5206"
         inkscape:connector-curvature="0" />
    </g>
    <g
       id="g5208"
       transform="matrix(1.4957348,0,0,-1.4957348,46.503271,32.136732)">
      <path
         d="m 0,0 c -0.52,0 -1.059,0.402 -1.096,0.929 -0.209,2.921 -1.592,10.129 -1.79,11.321 -0.028,0.169 -0.052,0.35 -0.076,0.54 -0.189,1.481 -0.34,2.649 -3.187,2.649 -0.553,0 -1,0.448 -1,1 0,0.553 0.447,1 1,1 4.607,0 4.974,-2.858 5.17,-4.394 0.022,-0.164 0.042,-0.32 0.066,-0.467 C -0.658,11.05 0.968,1.504 0.998,1.071 1.038,0.521 0.623,0.042 0.072,0.003 0.048,0.001 0.023,0 0,0"
         style="fill:#31353a;fill-opacity:1;fill-rule:nonzero;stroke:none"
         id="path5210"
         inkscape:connector-curvature="0" />
    </g>
    <g
       id="g5212"
       transform="matrix(1.4957348,0,0,-1.4957348,10.601208,21.069179)">
      <path
         d="m 0,0 c -3.854,0 -7.084,-3.125 -7.084,-6.98 0,-3.854 3.23,-6.979 7.084,-6.979 3.854,0 6.979,3.125 6.979,6.979 C 6.979,-3.125 3.854,0 0,0 m 0,-2 c 2.746,0 4.979,-2.233 4.979,-4.98 0,-2.746 -2.233,-4.979 -4.979,-4.979 -2.756,0 -5.084,2.28 -5.084,4.979 0,2.7 2.328,4.98 5.084,4.98"
         style="fill:#31353a;fill-opacity:1;fill-rule:nonzero;stroke:none"
         id="path5214"
         inkscape:connector-curvature="0" />
    </g>
    <g
       id="g5216"
       transform="matrix(1.4957348,0,0,-1.4957348,37.522879,21.069179)">
      <path
         d="m 0,0 c -3.854,0 -7.084,-3.125 -7.084,-6.98 0,-3.854 3.23,-6.979 7.084,-6.979 3.854,0 6.979,3.125 6.979,6.979 C 6.979,-3.125 3.854,0 0,0 m 0,-2 c 2.746,0 4.979,-2.233 4.979,-4.98 0,-2.746 -2.233,-4.979 -4.979,-4.979 -2.756,0 -5.084,2.28 -5.084,4.979 0,2.7 2.328,4.98 5.084,4.98"
         style="fill:#31353a;fill-opacity:1;fill-rule:nonzero;stroke:none"
         id="path5218"
         inkscape:connector-curvature="0" />
    </g>
    <g
       id="g5220"
       transform="matrix(1.4957348,0,0,-1.4957348,20.164337,29.249054)">
      <path
         d="m 0,0 -1.09,1.677 c 0.138,0.091 1.408,0.884 3.644,0.884 2.137,0 3.442,-0.7 3.585,-0.78 L 5.156,0.039 C 5.154,0.04 4.171,0.561 2.554,0.561 0.919,0.561 0.009,0.006 0,0"
         style="fill:#31353a;fill-opacity:1;fill-rule:nonzero;stroke:none"
         id="path5222"
         inkscape:connector-curvature="0" />
    </g>
  </g>
</svg>
