<?xml version="1.0" encoding="UTF-8" standalone="no"?>
<!-- Created with Inkscape (http://www.inkscape.org/) -->

<svg
   xmlns:dc="http://purl.org/dc/elements/1.1/"
   xmlns:cc="http://creativecommons.org/ns#"
   xmlns:rdf="http://www.w3.org/1999/02/22-rdf-syntax-ns#"
   xmlns:svg="http://www.w3.org/2000/svg"
   xmlns="http://www.w3.org/2000/svg"
   xmlns:sodipodi="http://sodipodi.sourceforge.net/DTD/sodipodi-0.dtd"
   xmlns:inkscape="http://www.inkscape.org/namespaces/inkscape"
   width="48"
   height="48"
   id="svg6050"
   version="1.1"
   inkscape:version="0.91 r13725"
   viewBox="0 0 48 48"
   sodipodi:docname="image.svg">
  <defs
     id="defs6052" />
  <sodipodi:namedview
     id="base"
     pagecolor="#ffffff"
     bordercolor="#666666"
     borderopacity="1.0"
     inkscape:pageopacity="0.0"
     inkscape:pageshadow="2"
     inkscape:zoom="7"
     inkscape:cx="30.437678"
     inkscape:cy="23.054"
     inkscape:current-layer="layer1"
     showgrid="true"
     inkscape:grid-bbox="true"
     inkscape:document-units="px"
     inkscape:window-width="1086"
     inkscape:window-height="1001"
     inkscape:window-x="772"
     inkscape:window-y="0"
     inkscape:window-maximized="0" />
  <metadata
     id="metadata6055">
    <rdf:RDF>
      <cc:Work
         rdf:about="">
        <dc:format>image/svg+xml</dc:format>
        <dc:type
           rdf:resource="http://purl.org/dc/dcmitype/StillImage" />
        <dc:title></dc:title>
      </cc:Work>
    </rdf:RDF>
  </metadata>
  <g
     id="layer1"
     inkscape:label="Layer 1"
     inkscape:groupmode="layer">
    <g
       id="g4518"
       transform="matrix(1.5,0,0,-1.5,45,3.7455)">
      <path
         d="m 0,0 -28,0 c -1.099,0 -2,-0.9 -2,-2 l 0,-23.006 c 0,-1.099 0.901,-2 2,-2 l 28,0 c 1.1,0 2,0.901 2,2 L 2,-2 C 2,-0.9 1.1,0 0,0 m 0,-25.006 -28,0 0,23.006 28,0 0,-23.006 z"
         style="fill:#31353a;fill-opacity:1;fill-rule:nonzero;stroke:none"
         id="path4520"
         inkscape:connector-curvature="0" />
    </g>
    <g
       id="g4522"
       transform="matrix(1.5,0,0,-1.5,31.50732,15.763044)">
      <path
         d="M 0,0 C 0,-1.102 0.893,-1.995 1.995,-1.995 3.098,-1.995 3.99,-1.102 3.99,0 3.99,1.101 3.098,1.994 1.995,1.994 0.893,1.994 0,1.101 0,0"
         style="fill:#31353a;fill-opacity:1;fill-rule:nonzero;stroke:none"
         id="path4524"
         inkscape:connector-curvature="0" />
    </g>
    <g
       id="g4526"
       transform="matrix(1.5,0,0,-1.5,45.93744,38.8167)">
      <path
         d="m 0,0 c -0.255,0 -0.51,0.097 -0.705,0.29 l -6.588,6.762 -3.652,-3.307 c -0.431,-0.326 -1.038,-0.379 -1.379,0.035 l -8.275,8.266 -8.215,-7.962 c -0.403,-0.378 -1.034,-0.359 -1.414,0.043 -0.378,0.402 -0.36,1.035 0.043,1.414 l 8.869,8.631 c 0.202,0.189 0.473,0.279 0.749,0.269 0.276,-0.017 0.532,-0.148 0.709,-0.362 l 8.279,-8.19 3.767,3.282 c 0.396,0.302 0.955,0.266 1.311,-0.086 L 0.705,1.71 C 1.097,1.32 1.099,0.687 0.71,0.295 0.514,0.099 0.257,0 0,0"
         style="fill:#31353a;fill-opacity:1;fill-rule:nonzero;stroke:none"
         id="path4528"
         inkscape:connector-curvature="0" />
    </g>
  </g>
</svg>
