<?xml version="1.0" encoding="UTF-8" standalone="no"?>
<!-- Created with Inkscape (http://www.inkscape.org/) -->

<svg
   xmlns:dc="http://purl.org/dc/elements/1.1/"
   xmlns:cc="http://creativecommons.org/ns#"
   xmlns:rdf="http://www.w3.org/1999/02/22-rdf-syntax-ns#"
   xmlns:svg="http://www.w3.org/2000/svg"
   xmlns="http://www.w3.org/2000/svg"
   xmlns:sodipodi="http://sodipodi.sourceforge.net/DTD/sodipodi-0.dtd"
   xmlns:inkscape="http://www.inkscape.org/namespaces/inkscape"
   width="48"
   height="48"
   id="svg6050"
   version="1.1"
   inkscape:version="0.91 r13725"
   viewBox="0 0 48 48"
   sodipodi:docname="label.svg">
  <defs
     id="defs6052" />
  <sodipodi:namedview
     id="base"
     pagecolor="#ffffff"
     bordercolor="#666666"
     borderopacity="1.0"
     inkscape:pageopacity="0.0"
     inkscape:pageshadow="2"
     inkscape:zoom="7"
     inkscape:cx="30.437678"
     inkscape:cy="23.054"
     inkscape:current-layer="layer1"
     showgrid="true"
     inkscape:grid-bbox="true"
     inkscape:document-units="px"
     inkscape:window-width="1086"
     inkscape:window-height="1001"
     inkscape:window-x="772"
     inkscape:window-y="0"
     inkscape:window-maximized="0" />
  <metadata
     id="metadata6055">
    <rdf:RDF>
      <cc:Work
         rdf:about="">
        <dc:format>image/svg+xml</dc:format>
        <dc:type
           rdf:resource="http://purl.org/dc/dcmitype/StillImage" />
        <dc:title></dc:title>
      </cc:Work>
    </rdf:RDF>
  </metadata>
  <g
     id="layer1"
     inkscape:label="Layer 1"
     inkscape:groupmode="layer">
    <g
       id="g3792"
       transform="matrix(1.499972,0,0,-1.499972,44.348173,4.48e-4)">
      <path
         d="M 0,0 -10.35,-0.001 -10.793,0 c -0.678,0 -1.703,0 -2.373,-0.67 l -15.81,-15.811 c -0.38,-0.38 -0.59,-0.885 -0.59,-1.421 0,-0.538 0.209,-1.043 0.589,-1.423 L -16.89,-31.41 c 0.379,-0.381 0.884,-0.59 1.421,-0.59 0.537,0 1.043,0.209 1.422,0.589 L 1.764,-15.6 c 0.677,0.677 0.674,1.651 0.67,2.592 l 0,0.224 0,10.349 C 2.434,-1.092 1.342,0 0,0 M -10.8,-2 -10.35,-2.001 0,-2 c 0.239,0 0.434,-0.195 0.434,-0.435 l 0,-10.349 0,-0.233 c 0.001,-0.38 0.003,-1.017 -0.085,-1.168 l -15.825,-15.811 -12.086,12.1 15.793,15.797 C -11.609,-2 -11.037,-2 -10.8,-2"
         style="fill:#31353a;fill-opacity:1;fill-rule:nonzero;stroke:none"
         id="path3794"
         inkscape:connector-curvature="0" />
    </g>
    <g
       id="g3796"
       transform="matrix(1.499972,0,0,-1.499972,35.999809,6.000336)">
      <path
         d="m 0,0 c 2.209,0 4,-1.791 4,-4 0,-2.209 -1.791,-4 -4,-4 -2.209,0 -4,1.791 -4,4 0,2.209 1.791,4 4,4"
         style="fill:#31353a;fill-opacity:1;fill-rule:evenodd;stroke:none"
         id="path3798"
         inkscape:connector-curvature="0" />
    </g>
    <g
       id="g3800"
       transform="matrix(1.499972,0,0,-1.499972,35.999809,9.00028)">
      <path
         d="m 0,0 c 1.104,0 2,-0.895 2,-2 0,-1.104 -0.896,-2 -2,-2 -1.105,0 -2,0.896 -2,2 0,1.105 0.895,2 2,2"
         style="fill:#ffffff;fill-opacity:1;fill-rule:evenodd;stroke:none"
         id="path3802"
         inkscape:connector-curvature="0" />
    </g>
    <g
       id="g5470"
       transform="matrix(1.499972,0,0,-1.499972,44.348173,4.48e-4)">
      <path
         d="M 0,0 -10.35,-0.001 -10.793,0 c -0.678,0 -1.703,0 -2.373,-0.67 l -15.81,-15.811 c -0.38,-0.38 -0.59,-0.885 -0.59,-1.421 0,-0.538 0.209,-1.043 0.589,-1.423 L -16.89,-31.41 c 0.379,-0.381 0.884,-0.59 1.421,-0.59 0.537,0 1.043,0.209 1.422,0.589 L 1.764,-15.6 c 0.677,0.677 0.674,1.651 0.67,2.592 l 0,0.224 0,10.349 C 2.434,-1.092 1.342,0 0,0 M -10.8,-2 -10.35,-2.001 0,-2 c 0.239,0 0.434,-0.195 0.434,-0.435 l 0,-10.349 0,-0.233 c 0.001,-0.38 0.003,-1.017 -0.085,-1.168 l -15.825,-15.811 -12.086,12.1 15.793,15.797 C -11.609,-2 -11.037,-2 -10.8,-2"
         style="fill:#31353a;fill-opacity:1;fill-rule:nonzero;stroke:none"
         id="path5472"
         inkscape:connector-curvature="0" />
    </g>
    <g
       id="g5474"
       transform="matrix(1.499972,0,0,-1.499972,35.999809,15.000168)">
      <path
         d="M 0,0 C -1.105,0 -2,0.896 -2,2 -2,3.105 -1.105,4 0,4 1.104,4 2,3.105 2,2 2,0.896 1.104,0 0,0 m 0,6 c -2.209,0 -4,-1.791 -4,-4 0,-2.209 1.791,-4 4,-4 2.209,0 4,1.791 4,4 0,2.209 -1.791,4 -4,4"
         style="fill:#31353a;fill-opacity:1;fill-rule:evenodd;stroke:none"
         id="path5476"
         inkscape:connector-curvature="0" />
    </g>
  </g>
</svg>
