<?xml version="1.0" encoding="UTF-8" standalone="no"?>
<!-- Created with Inkscape (http://www.inkscape.org/) -->

<svg
   xmlns:dc="http://purl.org/dc/elements/1.1/"
   xmlns:cc="http://creativecommons.org/ns#"
   xmlns:rdf="http://www.w3.org/1999/02/22-rdf-syntax-ns#"
   xmlns:svg="http://www.w3.org/2000/svg"
   xmlns="http://www.w3.org/2000/svg"
   xmlns:sodipodi="http://sodipodi.sourceforge.net/DTD/sodipodi-0.dtd"
   xmlns:inkscape="http://www.inkscape.org/namespaces/inkscape"
   width="48"
   height="48"
   id="svg6050"
   version="1.1"
   inkscape:version="0.91 r13725"
   viewBox="0 0 48 48"
   sodipodi:docname="light_bulb.svg">
  <defs
     id="defs6052" />
  <sodipodi:namedview
     id="base"
     pagecolor="#ffffff"
     bordercolor="#666666"
     borderopacity="1.0"
     inkscape:pageopacity="0.0"
     inkscape:pageshadow="2"
     inkscape:zoom="7"
     inkscape:cx="30.437678"
     inkscape:cy="23.054"
     inkscape:current-layer="layer1"
     showgrid="true"
     inkscape:grid-bbox="true"
     inkscape:document-units="px"
     inkscape:window-width="1086"
     inkscape:window-height="1001"
     inkscape:window-x="772"
     inkscape:window-y="0"
     inkscape:window-maximized="0" />
  <metadata
     id="metadata6055">
    <rdf:RDF>
      <cc:Work
         rdf:about="">
        <dc:format>image/svg+xml</dc:format>
        <dc:type
           rdf:resource="http://purl.org/dc/dcmitype/StillImage" />
        <dc:title></dc:title>
      </cc:Work>
    </rdf:RDF>
  </metadata>
  <g
     id="layer1"
     inkscape:label="Layer 1"
     inkscape:groupmode="layer">
    <g
       id="g3782"
       transform="matrix(1.4999858,0,0,-1.4999858,19.519542,35.210666)">
      <path
         d="m 0,0 c 0.41,-0.238 1.233,-0.546 2.97,-0.546 1.654,0 2.529,0.315 3.004,0.58 l 0,1.264 c 0,2.146 1.53,3.373 2.888,4.559 1.646,1.438 3.161,2.924 3.161,6.394 0,5.085 -3.951,9.223 -9.037,9.223 -5.085,0 -9.035,-4.138 -9.035,-9.223 0,-3.77 1.737,-5.494 3.434,-7.015 C -1.334,4.088 0,3.004 0,1.298 L 0,0 Z m 2.987,-2.526 c -3.43,0 -4.601,1.314 -4.736,1.466 C -1.91,-0.877 -2,-0.642 -2,-0.397 l 0,1.695 c 0,0.775 -0.784,1.404 -1.949,2.449 -1.81,1.621 -4.1,3.841 -4.1,8.504 0,6.188 4.847,11.223 11.035,11.223 6.189,0 11.037,-5.035 11.037,-11.223 0,-4.378 -2.048,-6.331 -3.845,-7.9 C 8.85,3.191 7.974,2.478 7.974,1.298 l 0,-1.695 C 7.974,-0.676 7.857,-0.942 7.653,-1.131 7.497,-1.276 6.175,-2.526 2.987,-2.526"
         style="fill:#31353a;fill-opacity:1;fill-rule:nonzero;stroke:none"
         id="path3784"
         inkscape:connector-curvature="0" />
    </g>
    <g
       id="g3788"
       transform="matrix(1.4999858,0,0,-1.4999858,24.053339,48.000001)">
      <path
         d="m 0,0 c -3.059,0 -5.033,2.052 -5.033,5.105 l 0,2.895 1.968,0 0.032,-2.895 C -3.033,3.161 -1.946,2 -0.074,2 1.865,2 2.967,3.132 2.967,5.105 l 0,2.895 2,0 0,-2.895 C 4.967,2.052 2.952,0 0,0"
         style="fill:#31353a;fill-opacity:1;fill-rule:nonzero;stroke:none"
         id="path3790"
         inkscape:connector-curvature="0" />
    </g>
    <g
       id="g5460"
       transform="matrix(1.4999858,0,0,-1.4999858,19.519542,35.210666)">
      <path
         d="m 0,0 c 0.41,-0.238 1.233,-0.546 2.97,-0.546 1.654,0 2.529,0.315 3.004,0.58 l 0,1.264 c 0,2.146 1.53,3.373 2.888,4.559 1.646,1.438 3.161,2.924 3.161,6.394 0,5.085 -3.951,9.223 -9.037,9.223 -5.085,0 -9.035,-4.138 -9.035,-9.223 0,-3.77 1.737,-5.494 3.434,-7.015 C -1.334,4.088 0,3.004 0,1.298 L 0,0 Z m 2.987,-2.526 c -3.43,0 -4.601,1.314 -4.736,1.466 C -1.91,-0.877 -2,-0.642 -2,-0.397 l 0,1.695 c 0,0.775 -0.784,1.404 -1.949,2.449 -1.81,1.621 -4.1,3.841 -4.1,8.504 0,6.188 4.847,11.223 11.035,11.223 6.189,0 11.037,-5.035 11.037,-11.223 0,-4.378 -2.048,-6.331 -3.845,-7.9 C 8.85,3.191 7.974,2.478 7.974,1.298 l 0,-1.695 C 7.974,-0.676 7.857,-0.942 7.653,-1.131 7.497,-1.276 6.175,-2.526 2.987,-2.526"
         style="fill:#31353a;fill-opacity:1;fill-rule:nonzero;stroke:none"
         id="path5462"
         inkscape:connector-curvature="0" />
    </g>
    <g
       id="g5466"
       transform="matrix(1.4999858,0,0,-1.4999858,24.053339,48.000001)">
      <path
         d="m 0,0 c -3.059,0 -5.033,2.052 -5.033,5.105 l 0,2.895 1.968,0 0.032,-2.895 C -3.033,3.161 -1.946,2 -0.074,2 1.865,2 2.967,3.132 2.967,5.105 l 0,2.895 2,0 0,-2.895 C 4.967,2.052 2.952,0 0,0"
         style="fill:#31353a;fill-opacity:1;fill-rule:nonzero;stroke:none"
         id="path5468"
         inkscape:connector-curvature="0" />
    </g>
  </g>
</svg>
