<?xml version="1.0" encoding="UTF-8" standalone="no"?>
<!-- Created with Inkscape (http://www.inkscape.org/) -->

<svg
   xmlns:dc="http://purl.org/dc/elements/1.1/"
   xmlns:cc="http://creativecommons.org/ns#"
   xmlns:rdf="http://www.w3.org/1999/02/22-rdf-syntax-ns#"
   xmlns:svg="http://www.w3.org/2000/svg"
   xmlns="http://www.w3.org/2000/svg"
   xmlns:sodipodi="http://sodipodi.sourceforge.net/DTD/sodipodi-0.dtd"
   xmlns:inkscape="http://www.inkscape.org/namespaces/inkscape"
   width="48"
   height="48"
   id="svg6050"
   version="1.1"
   inkscape:version="0.91 r13725"
   viewBox="0 0 48 48"
   sodipodi:docname="line_chart.svg">
  <defs
     id="defs6052" />
  <sodipodi:namedview
     id="base"
     pagecolor="#ffffff"
     bordercolor="#666666"
     borderopacity="1.0"
     inkscape:pageopacity="0.0"
     inkscape:pageshadow="2"
     inkscape:zoom="7"
     inkscape:cx="30.437678"
     inkscape:cy="23.054"
     inkscape:current-layer="layer1"
     showgrid="true"
     inkscape:grid-bbox="true"
     inkscape:document-units="px"
     inkscape:window-width="1086"
     inkscape:window-height="1001"
     inkscape:window-x="772"
     inkscape:window-y="0"
     inkscape:window-maximized="0" />
  <metadata
     id="metadata6055">
    <rdf:RDF>
      <cc:Work
         rdf:about="">
        <dc:format>image/svg+xml</dc:format>
        <dc:type
           rdf:resource="http://purl.org/dc/dcmitype/StillImage" />
        <dc:title></dc:title>
      </cc:Work>
    </rdf:RDF>
  </metadata>
  <g
     id="layer1"
     inkscape:label="Layer 1"
     inkscape:groupmode="layer">
    <g
       id="g3816"
       transform="matrix(1.5,0,0,-1.5,3.65832,35.6508)">
      <path
         d="m 0,0 c -0.229,0 -0.458,0.078 -0.646,0.237 -0.421,0.358 -0.474,0.989 -0.116,1.41 l 8.744,10.08 9.3,-4.657 8.887,7.652 c 0.423,0.358 1.054,0.3 1.409,-0.121 0.356,-0.422 0.301,-1.053 -0.12,-1.409 L 17.594,4.719 8.52,9.269 0.763,0.354 C 0.565,0.12 0.284,0 0,0"
         style="fill:#31353a;fill-opacity:1;fill-rule:nonzero;stroke:none"
         id="path3818"
         inkscape:connector-curvature="0" />
    </g>
    <g
       id="g3820"
       transform="matrix(1.5,0,0,-1.5,33,26.25)">
      <path
         d="M 0,0 C 0,-1.381 -1.119,-2.5 -2.5,-2.5 -3.881,-2.5 -5,-1.381 -5,0 -5,1.381 -3.881,2.5 -2.5,2.5 -1.119,2.5 0,1.381 0,0"
         style="fill:#31353a;fill-opacity:1;fill-rule:nonzero;stroke:none"
         id="path3822"
         inkscape:connector-curvature="0" />
    </g>
    <g
       id="g3824"
       transform="matrix(1.5,0,0,-1.5,48,14.25)">
      <path
         d="M 0,0 C 0,-1.381 -1.119,-2.5 -2.5,-2.5 -3.881,-2.5 -5,-1.381 -5,0 -5,1.381 -3.881,2.5 -2.5,2.5 -1.119,2.5 0,1.381 0,0"
         style="fill:#31353a;fill-opacity:1;fill-rule:nonzero;stroke:none"
         id="path3826"
         inkscape:connector-curvature="0" />
    </g>
    <g
       id="g3828"
       transform="matrix(1.5,0,0,-1.5,19.5,20.25)">
      <path
         d="M 0,0 C 0,-1.381 -1.119,-2.5 -2.5,-2.5 -3.881,-2.5 -5,-1.381 -5,0 -5,1.381 -3.881,2.5 -2.5,2.5 -1.119,2.5 0,1.381 0,0"
         style="fill:#31353a;fill-opacity:1;fill-rule:nonzero;stroke:none"
         id="path3830"
         inkscape:connector-curvature="0" />
    </g>
    <g
       id="g3832"
       transform="matrix(1.5,0,0,-1.5,7.5,33.75)">
      <path
         d="M 0,0 C 0,-1.381 -1.119,-2.5 -2.5,-2.5 -3.881,-2.5 -5,-1.381 -5,0 -5,1.381 -3.881,2.5 -2.5,2.5 -1.119,2.5 0,1.381 0,0"
         style="fill:#31353a;fill-opacity:1;fill-rule:nonzero;stroke:none"
         id="path3834"
         inkscape:connector-curvature="0" />
    </g>
    <g
       id="g5490"
       transform="matrix(1.5,0,0,-1.5,3.65832,35.6508)">
      <path
         d="m 0,0 c -0.229,0 -0.458,0.078 -0.646,0.237 -0.421,0.358 -0.474,0.989 -0.116,1.41 l 8.744,10.08 9.3,-4.657 8.887,7.652 c 0.423,0.358 1.054,0.3 1.409,-0.121 0.356,-0.422 0.301,-1.053 -0.12,-1.409 L 17.594,4.719 8.52,9.269 0.763,0.354 C 0.565,0.12 0.284,0 0,0"
         style="fill:#31353a;fill-opacity:1;fill-rule:nonzero;stroke:none"
         id="path5492"
         inkscape:connector-curvature="0" />
    </g>
    <g
       id="g5494"
       transform="matrix(1.5,0,0,-1.5,33,26.25)">
      <path
         d="M 0,0 C 0,-1.381 -1.119,-2.5 -2.5,-2.5 -3.881,-2.5 -5,-1.381 -5,0 -5,1.381 -3.881,2.5 -2.5,2.5 -1.119,2.5 0,1.381 0,0"
         style="fill:#31353a;fill-opacity:1;fill-rule:nonzero;stroke:none"
         id="path5496"
         inkscape:connector-curvature="0" />
    </g>
    <g
       id="g5498"
       transform="matrix(1.5,0,0,-1.5,48,14.25)">
      <path
         d="M 0,0 C 0,-1.381 -1.119,-2.5 -2.5,-2.5 -3.881,-2.5 -5,-1.381 -5,0 -5,1.381 -3.881,2.5 -2.5,2.5 -1.119,2.5 0,1.381 0,0"
         style="fill:#31353a;fill-opacity:1;fill-rule:nonzero;stroke:none"
         id="path5500"
         inkscape:connector-curvature="0" />
    </g>
    <g
       id="g5502"
       transform="matrix(1.5,0,0,-1.5,19.5,20.25)">
      <path
         d="M 0,0 C 0,-1.381 -1.119,-2.5 -2.5,-2.5 -3.881,-2.5 -5,-1.381 -5,0 -5,1.381 -3.881,2.5 -2.5,2.5 -1.119,2.5 0,1.381 0,0"
         style="fill:#31353a;fill-opacity:1;fill-rule:nonzero;stroke:none"
         id="path5504"
         inkscape:connector-curvature="0" />
    </g>
    <g
       id="g5506"
       transform="matrix(1.5,0,0,-1.5,7.5,33.75)">
      <path
         d="M 0,0 C 0,-1.381 -1.119,-2.5 -2.5,-2.5 -3.881,-2.5 -5,-1.381 -5,0 -5,1.381 -3.881,2.5 -2.5,2.5 -1.119,2.5 0,1.381 0,0"
         style="fill:#31353a;fill-opacity:1;fill-rule:nonzero;stroke:none"
         id="path5508"
         inkscape:connector-curvature="0" />
    </g>
  </g>
</svg>
