<?xml version="1.0" encoding="UTF-8" standalone="no"?>
<!-- Created with Inkscape (http://www.inkscape.org/) -->

<svg
   xmlns:dc="http://purl.org/dc/elements/1.1/"
   xmlns:cc="http://creativecommons.org/ns#"
   xmlns:rdf="http://www.w3.org/1999/02/22-rdf-syntax-ns#"
   xmlns:svg="http://www.w3.org/2000/svg"
   xmlns="http://www.w3.org/2000/svg"
   xmlns:sodipodi="http://sodipodi.sourceforge.net/DTD/sodipodi-0.dtd"
   xmlns:inkscape="http://www.inkscape.org/namespaces/inkscape"
   width="48"
   height="48"
   id="svg6050"
   version="1.1"
   inkscape:version="0.91 r13725"
   viewBox="0 0 48 48"
   sodipodi:docname="magic_wand.svg">
  <defs
     id="defs6052" />
  <sodipodi:namedview
     id="base"
     pagecolor="#ffffff"
     bordercolor="#666666"
     borderopacity="1.0"
     inkscape:pageopacity="0.0"
     inkscape:pageshadow="2"
     inkscape:zoom="7"
     inkscape:cx="30.437678"
     inkscape:cy="23.054"
     inkscape:current-layer="layer1"
     showgrid="true"
     inkscape:grid-bbox="true"
     inkscape:document-units="px"
     inkscape:window-width="1086"
     inkscape:window-height="1001"
     inkscape:window-x="772"
     inkscape:window-y="0"
     inkscape:window-maximized="0" />
  <metadata
     id="metadata6055">
    <rdf:RDF>
      <cc:Work
         rdf:about="">
        <dc:format>image/svg+xml</dc:format>
        <dc:type
           rdf:resource="http://purl.org/dc/dcmitype/StillImage" />
        <dc:title></dc:title>
      </cc:Work>
    </rdf:RDF>
  </metadata>
  <g
     id="layer1"
     inkscape:label="Layer 1"
     inkscape:groupmode="layer">
    <g
       id="g5224"
       transform="matrix(1.4939253,0,0,-1.4939253,22.485145,16.265492)">
      <path
         d="m 0,0 4.206,-1.508 c 0.28,-0.1 0.501,-0.319 0.603,-0.599 l 1.53,-4.197 2.733,3.534 c 0.182,0.236 0.459,0.378 0.756,0.388 l 4.466,0.158 -2.518,3.692 C 11.609,1.714 11.56,2.021 11.641,2.307 L 12.87,6.603 8.581,5.35 C 8.298,5.267 7.989,5.314 7.742,5.48 L 4.036,7.977 3.903,3.51 C 3.894,3.213 3.754,2.935 3.52,2.752 L 0,0 Z m 6.021,-9.351 c -0.051,0 -0.103,0.004 -0.154,0.012 -0.36,0.057 -0.661,0.304 -0.786,0.646 l -1.991,5.46 -5.471,1.961 c -0.344,0.124 -0.593,0.423 -0.65,0.783 -0.058,0.359 0.084,0.722 0.371,0.947 L 1.918,4.039 2.091,9.85 c 0.012,0.363 0.22,0.693 0.544,0.859 0.322,0.168 0.711,0.144 1.014,-0.061 L 8.471,7.401 14.05,9.03 c 0.352,0.103 0.727,0.007 0.985,-0.251 0.259,-0.257 0.357,-0.633 0.257,-0.984 l -1.599,-5.588 3.212,-4.803 c 0.205,-0.301 0.231,-0.69 0.067,-1.014 -0.165,-0.326 -0.493,-0.536 -0.858,-0.548 L 10.367,-4.363 6.812,-8.962 C 6.62,-9.209 6.327,-9.351 6.021,-9.351"
         style="fill:#31353a;fill-opacity:1;fill-rule:nonzero;stroke:none"
         id="path5226"
         inkscape:connector-curvature="0" />
    </g>
    <g
       id="g5228"
       transform="matrix(1.4939253,0,0,-1.4939253,1.4942992,47.899062)">
      <path
         d="m 0,0 c -0.256,0 -0.512,0.098 -0.707,0.293 -0.391,0.391 -0.391,1.023 0,1.414 l 16.586,16.586 c 0.391,0.391 1.023,0.391 1.414,0 0.391,-0.391 0.391,-1.023 0,-1.414 L 0.707,0.293 C 0.512,0.098 0.256,0 0,0"
         style="fill:#31353a;fill-opacity:1;fill-rule:nonzero;stroke:none"
         id="path5230"
         inkscape:connector-curvature="0" />
    </g>
  </g>
</svg>
