<?xml version="1.0" encoding="UTF-8" standalone="no"?>
<!-- Created with Inkscape (http://www.inkscape.org/) -->

<svg
   xmlns:dc="http://purl.org/dc/elements/1.1/"
   xmlns:cc="http://creativecommons.org/ns#"
   xmlns:rdf="http://www.w3.org/1999/02/22-rdf-syntax-ns#"
   xmlns:svg="http://www.w3.org/2000/svg"
   xmlns="http://www.w3.org/2000/svg"
   xmlns:sodipodi="http://sodipodi.sourceforge.net/DTD/sodipodi-0.dtd"
   xmlns:inkscape="http://www.inkscape.org/namespaces/inkscape"
   width="48"
   height="48"
   id="svg6050"
   version="1.1"
   inkscape:version="0.91 r13725"
   viewBox="0 0 48 48"
   sodipodi:docname="magnifying_glass.svg">
  <defs
     id="defs6052" />
  <sodipodi:namedview
     id="base"
     pagecolor="#ffffff"
     bordercolor="#666666"
     borderopacity="1.0"
     inkscape:pageopacity="0.0"
     inkscape:pageshadow="2"
     inkscape:zoom="7"
     inkscape:cx="30.437678"
     inkscape:cy="23.054"
     inkscape:current-layer="layer1"
     showgrid="true"
     inkscape:grid-bbox="true"
     inkscape:document-units="px"
     inkscape:window-width="1086"
     inkscape:window-height="1001"
     inkscape:window-x="772"
     inkscape:window-y="0"
     inkscape:window-maximized="0" />
  <metadata
     id="metadata6055">
    <rdf:RDF>
      <cc:Work
         rdf:about="">
        <dc:format>image/svg+xml</dc:format>
        <dc:type
           rdf:resource="http://purl.org/dc/dcmitype/StillImage" />
        <dc:title></dc:title>
      </cc:Work>
    </rdf:RDF>
  </metadata>
  <g
     id="layer1"
     inkscape:label="Layer 1"
     inkscape:groupmode="layer">
    <g
       id="g3486"
       transform="matrix(1.4950036,0,0,-1.4950036,47.56159,47.474809)">
      <path
         d="m 0,0 c -0.391,-0.391 -1.024,-0.391 -1.414,0 l -10.075,10.137 c -0.39,0.391 -0.39,1.024 0,1.415 0.391,0.39 1.024,0.39 1.414,0 L 0,1.414 C 0.391,1.024 0.391,0.391 0,0"
         style="fill:#31353a;fill-opacity:1;fill-rule:evenodd;stroke:none"
         id="path3488"
         inkscape:connector-curvature="0" />
    </g>
    <g
       id="g3490"
       transform="matrix(1.4950036,0,0,-1.4950036,18.687545,34.49728)">
      <path
         d="m 0,0 c -5.808,0 -10.517,4.708 -10.517,10.516 0,5.809 4.709,10.517 10.517,10.517 5.808,0 10.517,-4.708 10.517,-10.517 C 10.517,4.708 5.808,0 0,0 m 0,23.017 c -6.904,0 -12.5,-5.597 -12.5,-12.501 0,-6.903 5.596,-12.499 12.5,-12.499 6.904,0 12.5,5.596 12.5,12.499 0,6.904 -5.596,12.501 -12.5,12.501"
         style="fill:#31353a;fill-opacity:1;fill-rule:evenodd;stroke:none"
         id="path3492"
         inkscape:connector-curvature="0" />
    </g>
  </g>
</svg>
