<?xml version="1.0" encoding="UTF-8" standalone="no"?>
<!-- Created with Inkscape (http://www.inkscape.org/) -->

<svg
   xmlns:dc="http://purl.org/dc/elements/1.1/"
   xmlns:cc="http://creativecommons.org/ns#"
   xmlns:rdf="http://www.w3.org/1999/02/22-rdf-syntax-ns#"
   xmlns:svg="http://www.w3.org/2000/svg"
   xmlns="http://www.w3.org/2000/svg"
   xmlns:sodipodi="http://sodipodi.sourceforge.net/DTD/sodipodi-0.dtd"
   xmlns:inkscape="http://www.inkscape.org/namespaces/inkscape"
   width="48"
   height="48"
   id="svg6050"
   version="1.1"
   inkscape:version="0.91 r13725"
   viewBox="0 0 48 48"
   sodipodi:docname="on_off.svg">
  <defs
     id="defs6052" />
  <sodipodi:namedview
     id="base"
     pagecolor="#ffffff"
     bordercolor="#666666"
     borderopacity="1.0"
     inkscape:pageopacity="0.0"
     inkscape:pageshadow="2"
     inkscape:zoom="7"
     inkscape:cx="30.437678"
     inkscape:cy="23.054"
     inkscape:current-layer="layer1"
     showgrid="true"
     inkscape:grid-bbox="true"
     inkscape:document-units="px"
     inkscape:window-width="1086"
     inkscape:window-height="1001"
     inkscape:window-x="772"
     inkscape:window-y="0"
     inkscape:window-maximized="0" />
  <metadata
     id="metadata6055">
    <rdf:RDF>
      <cc:Work
         rdf:about="">
        <dc:format>image/svg+xml</dc:format>
        <dc:type
           rdf:resource="http://purl.org/dc/dcmitype/StillImage" />
        <dc:title></dc:title>
      </cc:Work>
    </rdf:RDF>
  </metadata>
  <g
     id="layer1"
     inkscape:label="Layer 1"
     inkscape:groupmode="layer">
    <g
       id="g3390"
       transform="matrix(1.5015864,0,0,-1.5015864,23.91073,48)">
      <path
         d="m 0,0 c -0.936,0 -1.885,0.094 -2.836,0.289 -3.685,0.757 -6.73,2.904 -8.801,6.044 -2.07,3.142 -2.794,6.901 -2.037,10.587 0.9,4.379 3.737,7.988 7.784,9.902 0.5,0.235 1.095,0.023 1.331,-0.476 0.237,-0.499 0.023,-1.095 -0.476,-1.331 -3.473,-1.643 -5.908,-4.74 -6.68,-8.497 -0.649,-3.162 -0.029,-6.389 1.748,-9.084 1.777,-2.695 4.372,-4.536 7.533,-5.186 6.528,-1.337 12.927,2.88 14.268,9.407 1.129,5.498 -1.626,10.997 -6.699,13.372 -0.5,0.234 -0.716,0.829 -0.482,1.329 0.235,0.501 0.829,0.715 1.329,0.482 5.915,-2.769 9.126,-9.178 7.811,-15.585 C 12.426,4.598 6.545,0 0,0"
         style="fill:#31353a;fill-opacity:1;fill-rule:nonzero;stroke:none"
         id="path3392"
         inkscape:connector-curvature="0" />
    </g>
    <g
       id="g3394"
       transform="matrix(1.5015864,0,0,-1.5015864,24.000681,0)">
      <path
         d="m 0,0 c 0.552,0 1,-0.448 1,-1 l 0,-11 c 0,-0.552 -0.448,-1 -1,-1 -0.552,0 -1,0.448 -1,1 l 0,11 c 0,0.552 0.448,1 1,1"
         style="fill:#31353a;fill-opacity:1;fill-rule:evenodd;stroke:none"
         id="path3396"
         inkscape:connector-curvature="0" />
    </g>
  </g>
</svg>
