<?xml version="1.0" encoding="UTF-8" standalone="no"?>
<!-- Created with Inkscape (http://www.inkscape.org/) -->

<svg
   xmlns:dc="http://purl.org/dc/elements/1.1/"
   xmlns:cc="http://creativecommons.org/ns#"
   xmlns:rdf="http://www.w3.org/1999/02/22-rdf-syntax-ns#"
   xmlns:svg="http://www.w3.org/2000/svg"
   xmlns="http://www.w3.org/2000/svg"
   xmlns:sodipodi="http://sodipodi.sourceforge.net/DTD/sodipodi-0.dtd"
   xmlns:inkscape="http://www.inkscape.org/namespaces/inkscape"
   width="48"
   height="48"
   id="svg6050"
   version="1.1"
   inkscape:version="0.91 r13725"
   viewBox="0 0 48 48"
   sodipodi:docname="pencil.svg">
  <defs
     id="defs6052" />
  <sodipodi:namedview
     id="base"
     pagecolor="#ffffff"
     bordercolor="#666666"
     borderopacity="1.0"
     inkscape:pageopacity="0.0"
     inkscape:pageshadow="2"
     inkscape:zoom="7"
     inkscape:cx="30.437678"
     inkscape:cy="23.054"
     inkscape:current-layer="layer1"
     showgrid="true"
     inkscape:grid-bbox="true"
     inkscape:document-units="px"
     inkscape:window-width="1086"
     inkscape:window-height="1001"
     inkscape:window-x="772"
     inkscape:window-y="0"
     inkscape:window-maximized="0" />
  <metadata
     id="metadata6055">
    <rdf:RDF>
      <cc:Work
         rdf:about="">
        <dc:format>image/svg+xml</dc:format>
        <dc:type
           rdf:resource="http://purl.org/dc/dcmitype/StillImage" />
        <dc:title></dc:title>
      </cc:Work>
    </rdf:RDF>
  </metadata>
  <g
     id="layer1"
     inkscape:label="Layer 1"
     inkscape:groupmode="layer">
    <g
       id="g3950"
       transform="matrix(1.4968654,0,0,-1.4968654,6.8202959,34.060432)">
      <path
         d="m 0,0 c -0.378,-1.345 -1.504,-4.741 -2.14,-6.836 2.109,0.68 5.543,1.87 6.707,2.228 1.916,1.896 18.559,18.356 19.673,19.505 0.837,0.863 1.254,1.69 1.24,2.458 -0.014,0.752 -0.441,1.537 -1.27,2.331 -0.698,0.67 -1.43,1.01 -2.175,1.01 -1.294,0 -2.333,-0.993 -2.447,-1.105 C 19.058,19.065 1.997,1.998 0,0 m -3.542,-9.3 c -0.263,0 -0.52,0.103 -0.713,0.295 -0.269,0.268 -0.368,0.665 -0.256,1.029 0.021,0.071 2.192,7.179 2.627,8.781 0.047,0.173 0.138,0.33 0.264,0.457 0,0 19.222,19.229 19.785,19.787 0.4,0.397 1.864,1.693 3.87,1.693 1.283,0 2.486,-0.529 3.575,-1.573 1.237,-1.186 1.876,-2.457 1.9,-3.776 0.023,-1.336 -0.588,-2.657 -1.819,-3.926 C 24.501,12.239 6.573,-5.49 5.81,-6.245 5.692,-6.361 5.546,-6.448 5.387,-6.495 4.179,-6.855 -3.157,-9.227 -3.231,-9.251 -3.333,-9.284 -3.438,-9.3 -3.542,-9.3"
         style="fill:#31353a;fill-opacity:1;fill-rule:nonzero;stroke:none"
         id="path3952"
         inkscape:connector-curvature="0" />
    </g>
    <g
       id="g3954"
       transform="matrix(1.4968654,0,0,-1.4968654,14.865888,43.310461)">
      <path
         d="m 0,0 c -0.503,0 -0.94,0.377 -1.005,0.894 -0.002,0.01 -0.245,1.66 -1.651,3.078 -1.582,1.595 -3.128,1.807 -3.193,1.815 -0.552,0.07 -0.951,0.576 -0.886,1.133 0.064,0.559 0.557,0.961 1.111,0.9 C -5.531,7.81 -3.336,7.551 -1.221,5.418 0.695,3.487 0.996,1.246 1.008,1.152 1.079,0.591 0.685,0.08 0.129,0.008 0.086,0.003 0.043,0 0,0"
         style="fill:#31353a;fill-opacity:1;fill-rule:nonzero;stroke:none"
         id="path3956"
         inkscape:connector-curvature="0" />
    </g>
    <g
       id="g3958"
       transform="matrix(1.4968654,0,0,-1.4968654,41.908857,15.925452)">
      <path
         d="m 0,0 c -0.504,0 -0.941,0.377 -1.006,0.894 -10e-4,0.01 -0.245,1.659 -1.65,3.077 -1.583,1.596 -3.128,1.808 -3.193,1.816 -0.553,0.07 -0.951,0.576 -0.886,1.133 0.063,0.558 0.553,0.963 1.111,0.9 C -5.532,7.81 -3.337,7.551 -1.221,5.417 0.694,3.486 0.996,1.246 1.008,1.152 1.078,0.591 0.685,0.079 0.129,0.008 0.085,0.003 0.043,0 0,0"
         style="fill:#31353a;fill-opacity:1;fill-rule:nonzero;stroke:none"
         id="path3960"
         inkscape:connector-curvature="0" />
    </g>
    <g
       id="g5624"
       transform="matrix(1.4968654,0,0,-1.4968654,6.8202959,34.060432)">
      <path
         d="m 0,0 c -0.378,-1.345 -1.504,-4.741 -2.14,-6.836 2.109,0.68 5.543,1.87 6.707,2.228 1.916,1.896 18.559,18.356 19.673,19.505 0.837,0.863 1.254,1.69 1.24,2.458 -0.014,0.752 -0.441,1.537 -1.27,2.331 -0.698,0.67 -1.43,1.01 -2.175,1.01 -1.294,0 -2.333,-0.993 -2.447,-1.105 C 19.058,19.065 1.997,1.998 0,0 m -3.542,-9.3 c -0.263,0 -0.52,0.103 -0.713,0.295 -0.269,0.268 -0.368,0.665 -0.256,1.029 0.021,0.071 2.192,7.179 2.627,8.781 0.047,0.173 0.138,0.33 0.264,0.457 0,0 19.222,19.229 19.785,19.787 0.4,0.397 1.864,1.693 3.87,1.693 1.283,0 2.486,-0.529 3.575,-1.573 1.237,-1.186 1.876,-2.457 1.9,-3.776 0.023,-1.336 -0.588,-2.657 -1.819,-3.926 C 24.501,12.239 6.573,-5.49 5.81,-6.245 5.692,-6.361 5.546,-6.448 5.387,-6.495 4.179,-6.855 -3.157,-9.227 -3.231,-9.251 -3.333,-9.284 -3.438,-9.3 -3.542,-9.3"
         style="fill:#31353a;fill-opacity:1;fill-rule:nonzero;stroke:none"
         id="path5626"
         inkscape:connector-curvature="0" />
    </g>
    <g
       id="g5628"
       transform="matrix(1.4968654,0,0,-1.4968654,14.865888,43.310461)">
      <path
         d="m 0,0 c -0.503,0 -0.94,0.377 -1.005,0.894 -0.002,0.01 -0.245,1.66 -1.651,3.078 -1.582,1.595 -3.128,1.807 -3.193,1.815 -0.552,0.07 -0.951,0.576 -0.886,1.133 0.064,0.559 0.557,0.961 1.111,0.9 C -5.531,7.81 -3.336,7.551 -1.221,5.418 0.695,3.487 0.996,1.246 1.008,1.152 1.079,0.591 0.685,0.08 0.129,0.008 0.086,0.003 0.043,0 0,0"
         style="fill:#31353a;fill-opacity:1;fill-rule:nonzero;stroke:none"
         id="path5630"
         inkscape:connector-curvature="0" />
    </g>
    <g
       id="g5632"
       transform="matrix(1.4968654,0,0,-1.4968654,41.908857,15.925452)">
      <path
         d="m 0,0 c -0.504,0 -0.941,0.377 -1.006,0.894 -10e-4,0.01 -0.245,1.659 -1.65,3.077 -1.583,1.596 -3.128,1.808 -3.193,1.816 -0.553,0.07 -0.951,0.576 -0.886,1.133 0.063,0.558 0.553,0.963 1.111,0.9 C -5.532,7.81 -3.337,7.551 -1.221,5.417 0.694,3.486 0.996,1.246 1.008,1.152 1.078,0.591 0.685,0.079 0.129,0.008 0.085,0.003 0.043,0 0,0"
         style="fill:#31353a;fill-opacity:1;fill-rule:nonzero;stroke:none"
         id="path5634"
         inkscape:connector-curvature="0" />
    </g>
  </g>
</svg>
