<?xml version="1.0" encoding="UTF-8" standalone="no"?>
<!-- Created with Inkscape (http://www.inkscape.org/) -->

<svg
   xmlns:dc="http://purl.org/dc/elements/1.1/"
   xmlns:cc="http://creativecommons.org/ns#"
   xmlns:rdf="http://www.w3.org/1999/02/22-rdf-syntax-ns#"
   xmlns:svg="http://www.w3.org/2000/svg"
   xmlns="http://www.w3.org/2000/svg"
   xmlns:sodipodi="http://sodipodi.sourceforge.net/DTD/sodipodi-0.dtd"
   xmlns:inkscape="http://www.inkscape.org/namespaces/inkscape"
   width="48"
   height="48"
   id="svg6050"
   version="1.1"
   inkscape:version="0.91 r13725"
   viewBox="0 0 48 48"
   sodipodi:docname="pie_chart.svg">
  <defs
     id="defs6052" />
  <sodipodi:namedview
     id="base"
     pagecolor="#ffffff"
     bordercolor="#666666"
     borderopacity="1.0"
     inkscape:pageopacity="0.0"
     inkscape:pageshadow="2"
     inkscape:zoom="7"
     inkscape:cx="30.437678"
     inkscape:cy="23.054"
     inkscape:current-layer="layer1"
     showgrid="true"
     inkscape:grid-bbox="true"
     inkscape:document-units="px"
     inkscape:window-width="1086"
     inkscape:window-height="1001"
     inkscape:window-x="772"
     inkscape:window-y="0"
     inkscape:window-maximized="0" />
  <metadata
     id="metadata6055">
    <rdf:RDF>
      <cc:Work
         rdf:about="">
        <dc:format>image/svg+xml</dc:format>
        <dc:type
           rdf:resource="http://purl.org/dc/dcmitype/StillImage" />
        <dc:title></dc:title>
      </cc:Work>
    </rdf:RDF>
  </metadata>
  <g
     id="layer1"
     inkscape:label="Layer 1"
     inkscape:groupmode="layer">
    <g
       id="g3836"
       transform="matrix(1.4999906,0,0,-1.4999906,25.750069,48)">
      <path
         d="m 0,0 c -8.179,0 -14.247,6.009 -14.247,14.189 0,0.552 0.448,1 1,1 0.552,0 1,-0.448 1,-1 C -12.247,7.112 -7.076,2 0,2 c 7.077,0 12.833,5.757 12.833,12.834 0,7.076 -4.936,12.247 -12.012,12.247 -0.553,0 -1,0.448 -1,1 0,0.552 0.447,1 1,1 C 9,29.081 14.833,23.013 14.833,14.834 14.833,6.654 8.179,0 0,0"
         style="fill:#31353a;fill-opacity:1;fill-rule:nonzero;stroke:none"
         id="path3838"
         inkscape:connector-curvature="0" />
    </g>
    <g
       id="g3840"
       transform="matrix(1.4999906,0,0,-1.4999906,3.0620511,19.511878)">
      <path
         d="m 0,0 10.967,0 0,10.967 C 5.077,10.484 0.483,5.89 0,0 m 11.967,-2 -13.008,0 c -0.552,0 -1,0.448 -1,1 0,7.789 6.219,14.008 14.008,14.008 0.552,0 1,-0.448 1,-1 l 0,-13.008 c 0,-0.552 -0.448,-1 -1,-1"
         style="fill:#31353a;fill-opacity:1;fill-rule:nonzero;stroke:none"
         id="path3842"
         inkscape:connector-curvature="0" />
    </g>
    <g
       id="g5510"
       transform="matrix(1.4999906,0,0,-1.4999906,25.750069,48)">
      <path
         d="m 0,0 c -8.179,0 -14.247,6.009 -14.247,14.189 0,0.552 0.448,1 1,1 0.552,0 1,-0.448 1,-1 C -12.247,7.112 -7.076,2 0,2 c 7.077,0 12.833,5.757 12.833,12.834 0,7.076 -4.936,12.247 -12.012,12.247 -0.553,0 -1,0.448 -1,1 0,0.552 0.447,1 1,1 C 9,29.081 14.833,23.013 14.833,14.834 14.833,6.654 8.179,0 0,0"
         style="fill:#31353a;fill-opacity:1;fill-rule:nonzero;stroke:none"
         id="path5512"
         inkscape:connector-curvature="0" />
    </g>
    <g
       id="g5514"
       transform="matrix(1.4999906,0,0,-1.4999906,3.0620511,19.511878)">
      <path
         d="m 0,0 10.967,0 0,10.967 C 5.077,10.484 0.483,5.89 0,0 m 11.967,-2 -13.008,0 c -0.552,0 -1,0.448 -1,1 0,7.789 6.219,14.008 14.008,14.008 0.552,0 1,-0.448 1,-1 l 0,-13.008 c 0,-0.552 -0.448,-1 -1,-1"
         style="fill:#31353a;fill-opacity:1;fill-rule:nonzero;stroke:none"
         id="path5516"
         inkscape:connector-curvature="0" />
    </g>
  </g>
</svg>
