<?xml version="1.0" encoding="UTF-8" standalone="no"?>
<!-- Created with Inkscape (http://www.inkscape.org/) -->

<svg
   xmlns:dc="http://purl.org/dc/elements/1.1/"
   xmlns:cc="http://creativecommons.org/ns#"
   xmlns:rdf="http://www.w3.org/1999/02/22-rdf-syntax-ns#"
   xmlns:svg="http://www.w3.org/2000/svg"
   xmlns="http://www.w3.org/2000/svg"
   xmlns:sodipodi="http://sodipodi.sourceforge.net/DTD/sodipodi-0.dtd"
   xmlns:inkscape="http://www.inkscape.org/namespaces/inkscape"
   width="48"
   height="48"
   id="svg6050"
   version="1.1"
   inkscape:version="0.91 r13725"
   viewBox="0 0 48 48"
   sodipodi:docname="plane.svg">
  <defs
     id="defs6052" />
  <sodipodi:namedview
     id="base"
     pagecolor="#ffffff"
     bordercolor="#666666"
     borderopacity="1.0"
     inkscape:pageopacity="0.0"
     inkscape:pageshadow="2"
     inkscape:zoom="7"
     inkscape:cx="30.437678"
     inkscape:cy="23.054"
     inkscape:current-layer="layer1"
     showgrid="true"
     inkscape:grid-bbox="true"
     inkscape:document-units="px"
     inkscape:window-width="1086"
     inkscape:window-height="1001"
     inkscape:window-x="772"
     inkscape:window-y="0"
     inkscape:window-maximized="0" />
  <metadata
     id="metadata6055">
    <rdf:RDF>
      <cc:Work
         rdf:about="">
        <dc:format>image/svg+xml</dc:format>
        <dc:type
           rdf:resource="http://purl.org/dc/dcmitype/StillImage" />
        <dc:title></dc:title>
      </cc:Work>
    </rdf:RDF>
  </metadata>
  <g
     id="layer1"
     inkscape:label="Layer 1"
     inkscape:groupmode="layer">
    <g
       id="g5162"
       transform="matrix(1.5027762,0,0,-1.5027762,43.832379,0.04499598)">
      <path
         d="m 0,0 c -1.182,0 -2.632,-0.454 -3.928,-1.75 l -6.581,-6.581 c -3.707,0.234 -13.201,0.862 -13.436,0.869 -0.042,0.002 -0.094,0.004 -0.153,0.004 -0.32,0 -0.874,-0.062 -1.504,-0.582 -0.739,-0.611 -2.281,-2.062 -2.281,-2.062 -0.372,-0.373 -0.56,-0.834 -0.515,-1.269 0.027,-0.263 0.169,-0.741 0.814,-0.993 0.392,-0.154 6.622,-2.485 9.499,-3.543 l -3.93,-4.054 c -0.173,-0.004 -0.389,-0.006 -0.632,-0.006 -1.199,0 -3.056,0.039 -3.8,0.039 -0.099,0 -0.178,0 -0.234,-0.002 -0.226,-0.006 -0.695,0.105 -1.932,-0.929 l -0.088,-0.082 c -0.371,-0.372 -0.458,-0.742 -0.466,-0.986 -0.008,-0.252 0.06,-0.615 0.424,-0.907 0.219,-0.177 3.026,-1.975 5.329,-3.365 0.552,-0.901 3.092,-4.938 3.225,-5.156 0.193,-0.328 0.509,-0.514 0.888,-0.526 l 0.031,0 c 0.369,0 0.747,0.183 1.117,0.542 1.047,1.225 0.902,1.732 0.907,1.944 0.017,0.668 -0.012,3.498 0.013,4.621 l 4.081,3.924 c 1.043,-2.865 3.323,-9.031 3.475,-9.423 0.254,-0.645 0.733,-0.787 0.995,-0.813 0.043,-0.005 0.087,-0.007 0.13,-0.007 0.395,0 0.804,0.186 1.139,0.521 0,0 1.445,1.534 2.059,2.28 0.616,0.746 0.591,1.383 0.58,1.684 -0.005,0.208 -0.584,9.65 -0.799,13.337 l 6.583,6.583 c 2.333,2.334 1.962,5.147 1.095,6.012 C 1.721,-0.291 0.946,0 0,0 m 0,-2 0,0 c 0.326,0 0.556,-0.06 0.675,-0.106 0.143,-0.382 0.336,-1.751 -1.079,-3.167 l -6.583,-6.584 -0.635,-0.634 0.052,-0.896 c 0.109,-1.874 0.312,-5.232 0.487,-8.111 0.154,-2.562 0.301,-4.982 0.311,-5.188 0.004,-0.142 0.006,-0.175 -0.125,-0.335 -0.295,-0.358 -0.846,-0.965 -1.31,-1.469 -0.72,1.938 -2.231,6.033 -3.066,8.325 l -1.074,2.949 -2.219,-2.22 -4.081,-3.924 -0.569,-0.568 -0.017,-0.802 c -0.014,-0.641 -0.011,-1.791 -0.009,-2.804 0.002,-0.706 0.004,-1.348 -10e-4,-1.701 -0.009,-0.017 0.137,-0.037 0.123,-0.06 -0.087,0.14 -0.181,0.29 -0.279,0.446 -0.824,1.313 -1.962,3.128 -2.31,3.695 l -0.254,0.415 -0.417,0.252 c -1.516,0.916 -3.196,1.973 -4.222,2.634 0.036,0.021 0.065,-0.087 0.088,-0.075 l 0.067,0 c 0.322,0 0.855,-0.007 1.453,-0.015 0.781,-0.011 1.668,-0.024 2.347,-0.024 0.259,0 0.491,0.002 0.676,0.006 l 0.803,0.019 0.567,0.567 3.93,4.054 2.212,2.211 -2.936,1.08 c -2.206,0.811 -6.431,2.389 -8.408,3.132 0.507,0.466 1.118,1.021 1.475,1.316 0.099,0.082 0.177,0.124 0.23,0.124 l 0.071,-0.002 c 0.22,-0.011 2.959,-0.19 5.606,-0.362 2.811,-0.184 5.983,-0.391 7.786,-0.505 l 0.902,-0.057 0.638,0.639 6.581,6.581 C -1.5,-2.151 -0.504,-2 0,-2"
         style="fill:#31353a;fill-opacity:1;fill-rule:nonzero;stroke:none"
         id="path5164"
         inkscape:connector-curvature="0" />
    </g>
  </g>
</svg>
