<?xml version="1.0" encoding="UTF-8" standalone="no"?>
<!-- Created with Inkscape (http://www.inkscape.org/) -->

<svg
   xmlns:dc="http://purl.org/dc/elements/1.1/"
   xmlns:cc="http://creativecommons.org/ns#"
   xmlns:rdf="http://www.w3.org/1999/02/22-rdf-syntax-ns#"
   xmlns:svg="http://www.w3.org/2000/svg"
   xmlns="http://www.w3.org/2000/svg"
   xmlns:sodipodi="http://sodipodi.sourceforge.net/DTD/sodipodi-0.dtd"
   xmlns:inkscape="http://www.inkscape.org/namespaces/inkscape"
   width="48"
   height="48"
   id="svg6050"
   version="1.1"
   inkscape:version="0.91 r13725"
   viewBox="0 0 48 48"
   sodipodi:docname="refresh.svg">
  <defs
     id="defs6052" />
  <sodipodi:namedview
     id="base"
     pagecolor="#ffffff"
     bordercolor="#666666"
     borderopacity="1.0"
     inkscape:pageopacity="0.0"
     inkscape:pageshadow="2"
     inkscape:zoom="7"
     inkscape:cx="30.437678"
     inkscape:cy="23.054"
     inkscape:current-layer="layer1"
     showgrid="true"
     inkscape:grid-bbox="true"
     inkscape:document-units="px"
     inkscape:window-width="1086"
     inkscape:window-height="1001"
     inkscape:window-x="772"
     inkscape:window-y="0"
     inkscape:window-maximized="0" />
  <metadata
     id="metadata6055">
    <rdf:RDF>
      <cc:Work
         rdf:about="">
        <dc:format>image/svg+xml</dc:format>
        <dc:type
           rdf:resource="http://purl.org/dc/dcmitype/StillImage" />
        <dc:title></dc:title>
      </cc:Work>
    </rdf:RDF>
  </metadata>
  <g
     id="layer1"
     inkscape:label="Layer 1"
     inkscape:groupmode="layer">
    <g
       id="g3458"
       transform="matrix(1.4591163,0,0,-1.4591163,20.681815,42.574234)">
      <path
         d="m 0,0 -2.589,4.017 c -0.21,0.344 -0.218,0.844 0.137,1.038 l 0.264,0.162 c 0.355,0.193 0.811,0.071 1.021,-0.275 L 1.792,0.318 C 1.796,0.313 1.802,0.309 1.805,0.303 L 1.995,-0.01 C 2.101,-0.182 2.123,-0.379 2.074,-0.557 2.028,-0.734 1.91,-0.893 1.732,-0.991 L 1.411,-1.167 C 1.405,-1.171 1.398,-1.17 1.393,-1.174 l -4.791,-2.453 c -0.354,-0.193 -0.717,-0.071 -0.928,0.274 l -0.102,0.263 c -0.21,0.346 -0.092,0.783 0.262,0.978 L 0,0 Z"
         style="fill:#31353a;fill-opacity:1;fill-rule:evenodd;stroke:none"
         id="path3460"
         inkscape:connector-curvature="0" />
    </g>
    <g
       id="g3462"
       transform="matrix(1.4591163,0,0,-1.4591163,21.675614,44.266961)">
      <path
         d="m 0,0 c -0.031,0 -0.063,0.001 -0.095,0.005 -0.762,0.071 -1.525,0.206 -2.268,0.399 -3.87,1.014 -7.143,3.632 -8.983,7.184 -1.737,3.356 -2.063,7.188 -0.919,10.789 1.145,3.601 3.725,6.541 7.081,8.278 0.491,0.255 1.095,0.063 1.348,-0.428 0.254,-0.491 0.062,-1.094 -0.429,-1.348 -2.881,-1.491 -5.111,-4.016 -6.093,-7.108 -0.983,-3.092 -0.703,-6.381 0.789,-9.263 C -7.99,5.457 -5.18,3.209 -1.858,2.34 -1.22,2.173 -0.562,2.058 0.093,1.995 0.643,1.943 1.047,1.456 0.995,0.906 0.946,0.388 0.51,0 0,0"
         style="fill:#31353a;fill-opacity:1;fill-rule:nonzero;stroke:none"
         id="path3464"
         inkscape:connector-curvature="0" />
    </g>
    <g
       id="g3466"
       transform="matrix(1.4591163,0,0,-1.4591163,33.366497,42.977686)">
      <path
         d="m 0,0 c -0.362,0 -0.711,0.197 -0.889,0.54 -0.254,0.491 -0.062,1.094 0.428,1.348 2.882,1.492 5.011,4.016 5.993,7.108 0.984,3.092 0.703,6.382 -0.788,9.263 -1.578,3.049 -4.287,5.297 -7.61,6.167 -0.637,0.168 -1.293,0.284 -1.952,0.346 -0.55,0.052 -0.953,0.54 -0.901,1.09 0.051,0.55 0.533,0.951 1.089,0.901 0.767,-0.072 1.531,-0.208 2.271,-0.402 3.87,-1.014 7.042,-3.632 8.878,-7.183 C 8.257,15.823 8.583,11.991 7.438,8.39 6.294,4.789 3.815,1.849 0.459,0.112 0.311,0.036 0.154,0 0,0"
         style="fill:#31353a;fill-opacity:1;fill-rule:nonzero;stroke:none"
         id="path3468"
         inkscape:connector-curvature="0" />
    </g>
    <g
       id="g3470"
       transform="matrix(1.4591163,0,0,-1.4591163,26.372953,5.4257171)">
      <path
         d="M 0,0 2.589,-4.017 C 2.799,-4.361 2.775,-4.861 2.421,-5.055 L 2.189,-5.217 C 1.833,-5.41 1.377,-5.288 1.167,-4.942 l -2.959,4.624 c -0.004,0.006 -0.01,0.009 -0.013,0.015 l -0.19,0.313 c -0.106,0.172 -0.128,0.369 -0.079,0.547 0.047,0.177 0.164,0.336 0.342,0.434 l 0.321,0.176 c 0.006,0.004 0.013,0.003 0.018,0.007 L 3.398,3.627 C 3.752,3.82 4.209,3.698 4.42,3.352 L 4.521,3.09 C 4.732,2.744 4.521,2.307 4.166,2.112 L 0,0 Z"
         style="fill:#31353a;fill-opacity:1;fill-rule:evenodd;stroke:none"
         id="path3472"
         inkscape:connector-curvature="0" />
    </g>
  </g>
</svg>
