<?xml version="1.0" encoding="UTF-8" standalone="no"?>
<!-- Created with Inkscape (http://www.inkscape.org/) -->

<svg
   xmlns:dc="http://purl.org/dc/elements/1.1/"
   xmlns:cc="http://creativecommons.org/ns#"
   xmlns:rdf="http://www.w3.org/1999/02/22-rdf-syntax-ns#"
   xmlns:svg="http://www.w3.org/2000/svg"
   xmlns="http://www.w3.org/2000/svg"
   xmlns:sodipodi="http://sodipodi.sourceforge.net/DTD/sodipodi-0.dtd"
   xmlns:inkscape="http://www.inkscape.org/namespaces/inkscape"
   width="48"
   height="48"
   id="svg6050"
   version="1.1"
   inkscape:version="0.91 r13725"
   viewBox="0 0 48 48"
   sodipodi:docname="rejected_deleted_customer.svg">
  <defs
     id="defs6052" />
  <sodipodi:namedview
     id="base"
     pagecolor="#ffffff"
     bordercolor="#666666"
     borderopacity="1.0"
     inkscape:pageopacity="0.0"
     inkscape:pageshadow="2"
     inkscape:zoom="7"
     inkscape:cx="30.437678"
     inkscape:cy="23.054"
     inkscape:current-layer="layer1"
     showgrid="true"
     inkscape:grid-bbox="true"
     inkscape:document-units="px"
     inkscape:window-width="1086"
     inkscape:window-height="1001"
     inkscape:window-x="772"
     inkscape:window-y="0"
     inkscape:window-maximized="0" />
  <metadata
     id="metadata6055">
    <rdf:RDF>
      <cc:Work
         rdf:about="">
        <dc:format>image/svg+xml</dc:format>
        <dc:type
           rdf:resource="http://purl.org/dc/dcmitype/StillImage" />
        <dc:title></dc:title>
      </cc:Work>
    </rdf:RDF>
  </metadata>
  <g
     id="layer1"
     inkscape:label="Layer 1"
     inkscape:groupmode="layer">
    <g
       id="g5032"
       transform="matrix(1.4985436,0,0,-1.4985436,32.801621,31.970344)">
      <path
         d="m 0,0 -0.877,-1.619 -0.566,0.261 c -0.633,0.291 -1.069,0.89 -1.151,1.582 C -2.677,0.916 -2.392,1.6 -1.845,2.031 0.3,3.72 1.1,7.4 1.1,9.324 l 0,4.997 c 0,2.136 -3.602,4.996 -6.998,4.996 -3.366,0 -7.004,-2.906 -7.004,-4.996 l 0,-4.997 c 0,-1.953 0.968,-5.619 3.046,-7.287 0.54,-0.434 0.818,-1.117 0.733,-1.804 -0.085,-0.688 -0.519,-1.283 -1.149,-1.572 l -8.782,-4.145 c -0.238,-0.11 -0.835,-0.359 -0.835,-1.154 l 0,-2.029 18.996,0 0,-1.999 -18.998,0 c -1.103,0 -1.998,0.894 -1.998,1.999 l 0,3.001 c 0,1.108 1.998,1.998 1.998,1.998 l 8.783,4.145 c -2.797,2.245 -3.794,6.663 -3.794,8.847 l 0,4.997 c 0,3.31 4.588,6.996 9.004,6.996 4.416,0 8.998,-3.686 8.998,-6.996 l 0,-4.997 C 3.1,6.923 2.162,2.64 -0.608,0.46 L 0,0 Z"
         style="fill:#31353a;fill-opacity:1;fill-rule:evenodd;stroke:none"
         id="path5034"
         inkscape:connector-curvature="0" />
    </g>
    <g
       id="g5036"
       transform="matrix(1.4985436,0,0,-1.4985436,47.561676,34.81892)">
      <path
         d="m 0,0 0,0 c 0.39,-0.391 0.39,-1.024 0,-1.414 l -7.071,-7.071 c -0.391,-0.391 -1.024,-0.391 -1.414,0 -0.391,0.39 -0.391,1.023 0,1.414 L -1.414,0 C -1.024,0.391 -0.391,0.391 0,0"
         style="fill:#31353a;fill-opacity:1;fill-rule:evenodd;stroke:none"
         id="path5038"
         inkscape:connector-curvature="0" />
    </g>
    <g
       id="g5040"
       transform="matrix(1.4985436,0,0,-1.4985436,47.561676,47.534662)">
      <path
         d="m 0,0 0,0 c -0.391,-0.391 -1.024,-0.391 -1.414,0 l -7.071,7.071 c -0.391,0.391 -0.391,1.024 0,1.414 0.39,0.391 1.023,0.391 1.414,0 L 0,1.414 C 0.39,1.024 0.39,0.391 0,0"
         style="fill:#31353a;fill-opacity:1;fill-rule:evenodd;stroke:none"
         id="path5042"
         inkscape:connector-curvature="0" />
    </g>
  </g>
</svg>
