<?xml version="1.0" encoding="UTF-8" standalone="no"?>
<!-- Created with Inkscape (http://www.inkscape.org/) -->

<svg
   xmlns:dc="http://purl.org/dc/elements/1.1/"
   xmlns:cc="http://creativecommons.org/ns#"
   xmlns:rdf="http://www.w3.org/1999/02/22-rdf-syntax-ns#"
   xmlns:svg="http://www.w3.org/2000/svg"
   xmlns="http://www.w3.org/2000/svg"
   xmlns:sodipodi="http://sodipodi.sourceforge.net/DTD/sodipodi-0.dtd"
   xmlns:inkscape="http://www.inkscape.org/namespaces/inkscape"
   width="48"
   height="48"
   id="svg6050"
   version="1.1"
   inkscape:version="0.91 r13725"
   viewBox="0 0 48 48"
   sodipodi:docname="reload.svg">
  <defs
     id="defs6052" />
  <sodipodi:namedview
     id="base"
     pagecolor="#ffffff"
     bordercolor="#666666"
     borderopacity="1.0"
     inkscape:pageopacity="0.0"
     inkscape:pageshadow="2"
     inkscape:zoom="7"
     inkscape:cx="30.437678"
     inkscape:cy="23.054"
     inkscape:current-layer="layer1"
     showgrid="true"
     inkscape:grid-bbox="true"
     inkscape:document-units="px"
     inkscape:window-width="1086"
     inkscape:window-height="1001"
     inkscape:window-x="772"
     inkscape:window-y="0"
     inkscape:window-maximized="0" />
  <metadata
     id="metadata6055">
    <rdf:RDF>
      <cc:Work
         rdf:about="">
        <dc:format>image/svg+xml</dc:format>
        <dc:type
           rdf:resource="http://purl.org/dc/dcmitype/StillImage" />
        <dc:title></dc:title>
      </cc:Work>
    </rdf:RDF>
  </metadata>
  <g
     id="layer1"
     inkscape:label="Layer 1"
     inkscape:groupmode="layer">
    <g
       id="g3450"
       transform="matrix(1.5000034,0,0,-1.5000034,22.625997,43.450598)">
      <path
         d="m 0,0 c -0.022,0 -0.045,0.001 -0.066,0.002 -7.588,0.499 -13.532,6.854 -13.532,14.467 0,7.994 6.504,14.498 14.498,14.498 7.994,0 14.53,-6.504 14.53,-14.498 C 15.43,9.866 13.316,5.639 9.631,2.87 9.189,2.539 8.562,2.627 8.23,3.069 7.899,3.511 7.988,4.138 8.43,4.47 c 3.177,2.386 5,6.031 5,9.999 0,6.891 -5.638,12.498 -12.53,12.498 -6.891,0 -12.498,-5.607 -12.498,-12.498 0,-6.563 5.123,-12.041 11.662,-12.471 C 0.616,1.962 1.033,1.485 0.997,0.935 0.962,0.405 0.522,0 0,0"
         style="fill:#31353a;fill-opacity:1;fill-rule:nonzero;stroke:none"
         id="path3452"
         inkscape:connector-curvature="0" />
    </g>
    <g
       id="g3454"
       transform="matrix(1.5000034,0,0,-1.5000034,24.0276,42.422195)">
      <path
         d="m 0,0 -2.589,4.017 c -0.21,0.344 -0.186,0.844 0.168,1.038 l 0.233,0.162 c 0.355,0.193 0.811,0.071 1.021,-0.275 L 1.792,0.318 C 1.796,0.312 1.802,0.309 1.805,0.303 L 1.995,-0.01 C 2.101,-0.182 2.123,-0.379 2.074,-0.557 2.027,-0.734 1.91,-0.893 1.733,-0.991 L 1.411,-1.167 C 1.405,-1.171 1.398,-1.17 1.393,-1.174 L -3.398,-3.627 C -3.752,-3.82 -4.209,-3.698 -4.42,-3.353 l -0.101,0.263 c -0.21,0.346 0,0.783 0.355,0.978 L 0,0 Z"
         style="fill:#31353a;fill-opacity:1;fill-rule:evenodd;stroke:none"
         id="path3456"
         inkscape:connector-curvature="0" />
    </g>
  </g>
</svg>
