<?xml version="1.0" encoding="UTF-8" standalone="no"?>
<!-- Created with Inkscape (http://www.inkscape.org/) -->

<svg
   xmlns:dc="http://purl.org/dc/elements/1.1/"
   xmlns:cc="http://creativecommons.org/ns#"
   xmlns:rdf="http://www.w3.org/1999/02/22-rdf-syntax-ns#"
   xmlns:svg="http://www.w3.org/2000/svg"
   xmlns="http://www.w3.org/2000/svg"
   xmlns:sodipodi="http://sodipodi.sourceforge.net/DTD/sodipodi-0.dtd"
   xmlns:inkscape="http://www.inkscape.org/namespaces/inkscape"
   width="48"
   height="48"
   id="svg6050"
   version="1.1"
   inkscape:version="0.91 r13725"
   viewBox="0 0 48 48"
   sodipodi:docname="rescue_tire.svg">
  <defs
     id="defs6052" />
  <sodipodi:namedview
     id="base"
     pagecolor="#ffffff"
     bordercolor="#666666"
     borderopacity="1.0"
     inkscape:pageopacity="0.0"
     inkscape:pageshadow="2"
     inkscape:zoom="7"
     inkscape:cx="30.437678"
     inkscape:cy="23.054"
     inkscape:current-layer="layer1"
     showgrid="true"
     inkscape:grid-bbox="true"
     inkscape:document-units="px"
     inkscape:window-width="1086"
     inkscape:window-height="1001"
     inkscape:window-x="772"
     inkscape:window-y="0"
     inkscape:window-maximized="0" />
  <metadata
     id="metadata6055">
    <rdf:RDF>
      <cc:Work
         rdf:about="">
        <dc:format>image/svg+xml</dc:format>
        <dc:type
           rdf:resource="http://purl.org/dc/dcmitype/StillImage" />
        <dc:title></dc:title>
      </cc:Work>
    </rdf:RDF>
  </metadata>
  <g
     id="layer1"
     inkscape:label="Layer 1"
     inkscape:groupmode="layer">
    <g
       id="g4232"
       transform="matrix(1.5,0,0,-1.5,24,0)">
      <path
         d="m 0,0 c 8.837,0 16,-7.163 16,-16 0,-8.837 -7.163,-16 -16,-16 -8.837,0 -16,7.163 -16,16 0,8.837 7.163,16 16,16"
         style="fill:#31353a;fill-opacity:1;fill-rule:evenodd;stroke:none"
         id="path4234"
         inkscape:connector-curvature="0" />
    </g>
    <g
       id="g4236"
       transform="matrix(1.5,0,0,-1.5,24,3.01428)">
      <path
         d="m 0,0 c 7.727,0 13.991,-6.266 13.991,-13.995 0,-7.73 -6.264,-13.995 -13.991,-13.995 -7.727,0 -13.99,6.265 -13.99,13.995 C -13.99,-6.266 -7.727,0 0,0"
         style="fill:#ffffff;fill-opacity:1;fill-rule:evenodd;stroke:none"
         id="path4238"
         inkscape:connector-curvature="0" />
    </g>
    <g
       id="g4240"
       transform="matrix(1.5,0,0,-1.5,24,12.0156)">
      <path
         d="m 0,0 c 4.413,0 7.99,-3.579 7.99,-7.995 0,-4.415 -3.577,-7.995 -7.99,-7.995 -4.412,0 -7.99,3.58 -7.99,7.995 C -7.99,-3.579 -4.412,0 0,0"
         style="fill:#31353a;fill-opacity:1;fill-rule:evenodd;stroke:none"
         id="path4242"
         inkscape:connector-curvature="0" />
    </g>
    <g
       id="g4244"
       transform="matrix(1.5,0,0,-1.5,24,15.01872)">
      <path
         d="m 0,0 c 3.307,0 5.988,-2.684 5.988,-5.994 0,-3.31 -2.681,-5.994 -5.988,-5.994 -3.307,0 -5.988,2.684 -5.988,5.994 C -5.988,-2.684 -3.307,0 0,0"
         style="fill:#ffffff;fill-opacity:1;fill-rule:evenodd;stroke:none"
         id="path4246"
         inkscape:connector-curvature="0" />
    </g>
    <path
       d="m 27,2.9994 3,0 0,12 -3,0 0,-12 z"
       style="fill:#31353a;fill-opacity:1;fill-rule:evenodd;stroke:none"
       id="path4248"
       inkscape:connector-curvature="0" />
    <path
       d="m 18,2.9994 3,0 0,12 -3,0 0,-12 z"
       style="fill:#31353a;fill-opacity:1;fill-rule:evenodd;stroke:none"
       id="path4250"
       inkscape:connector-curvature="0" />
    <path
       d="m 27,33.9369 3,0 0,12 -3,0 0,-12 z"
       style="fill:#31353a;fill-opacity:1;fill-rule:evenodd;stroke:none"
       id="path4252"
       inkscape:connector-curvature="0" />
    <path
       d="m 18,33.9369 3,0 0,12 -3,0 0,-12 z"
       style="fill:#31353a;fill-opacity:1;fill-rule:evenodd;stroke:none"
       id="path4254"
       inkscape:connector-curvature="0" />
    <path
       d="m 46.032,29.9994 -12,0 0,-3 12,0 0,3 z"
       style="fill:#31353a;fill-opacity:1;fill-rule:evenodd;stroke:none"
       id="path4256"
       inkscape:connector-curvature="0" />
    <path
       d="m 46.032,20.9994 -12,0 0,-3 12,0 0,3 z"
       style="fill:#31353a;fill-opacity:1;fill-rule:evenodd;stroke:none"
       id="path4258"
       inkscape:connector-curvature="0" />
    <path
       d="m 14.532,29.9994 -12,0 0,-3 12,0 0,3 z"
       style="fill:#31353a;fill-opacity:1;fill-rule:evenodd;stroke:none"
       id="path4260"
       inkscape:connector-curvature="0" />
    <path
       d="m 14.532,20.9994 -12,0 0,-3 12,0 0,3 z"
       style="fill:#31353a;fill-opacity:1;fill-rule:evenodd;stroke:none"
       id="path4262"
       inkscape:connector-curvature="0" />
    <g
       id="g5906"
       transform="matrix(1.5,0,0,-1.5,24,0)">
      <path
         d="m 0,0 c 8.837,0 16,-7.163 16,-16 0,-8.837 -7.163,-16 -16,-16 -8.837,0 -16,7.163 -16,16 0,8.837 7.163,16 16,16"
         style="fill:#31353a;fill-opacity:1;fill-rule:evenodd;stroke:none"
         id="path5908"
         inkscape:connector-curvature="0" />
    </g>
    <g
       id="g5910"
       transform="matrix(1.5,0,0,-1.5,24,3.01428)">
      <path
         d="m 0,0 c 7.727,0 13.991,-6.266 13.991,-13.995 0,-7.73 -6.264,-13.995 -13.991,-13.995 -7.727,0 -13.99,6.265 -13.99,13.995 C -13.99,-6.266 -7.727,0 0,0"
         style="fill:#ffffff;fill-opacity:1;fill-rule:evenodd;stroke:none"
         id="path5912"
         inkscape:connector-curvature="0" />
    </g>
    <g
       id="g5914"
       transform="matrix(1.5,0,0,-1.5,24,12.0156)">
      <path
         d="m 0,0 c 4.413,0 7.99,-3.579 7.99,-7.995 0,-4.415 -3.577,-7.995 -7.99,-7.995 -4.412,0 -7.99,3.58 -7.99,7.995 C -7.99,-3.579 -4.412,0 0,0"
         style="fill:#31353a;fill-opacity:1;fill-rule:evenodd;stroke:none"
         id="path5916"
         inkscape:connector-curvature="0" />
    </g>
    <g
       id="g5918"
       transform="matrix(1.5,0,0,-1.5,24,15.01872)">
      <path
         d="m 0,0 c 3.307,0 5.988,-2.684 5.988,-5.994 0,-3.31 -2.681,-5.994 -5.988,-5.994 -3.307,0 -5.988,2.684 -5.988,5.994 C -5.988,-2.684 -3.307,0 0,0"
         style="fill:#ffffff;fill-opacity:1;fill-rule:evenodd;stroke:none"
         id="path5920"
         inkscape:connector-curvature="0" />
    </g>
    <path
       d="m 27,2.9994 3,0 0,12 -3,0 0,-12 z"
       style="fill:#31353a;fill-opacity:1;fill-rule:evenodd;stroke:none"
       id="path5922"
       inkscape:connector-curvature="0" />
    <path
       d="m 18,2.9994 3,0 0,12 -3,0 0,-12 z"
       style="fill:#31353a;fill-opacity:1;fill-rule:evenodd;stroke:none"
       id="path5924"
       inkscape:connector-curvature="0" />
    <path
       d="m 27,33.9369 3,0 0,12 -3,0 0,-12 z"
       style="fill:#31353a;fill-opacity:1;fill-rule:evenodd;stroke:none"
       id="path5926"
       inkscape:connector-curvature="0" />
    <path
       d="m 18,33.9369 3,0 0,12 -3,0 0,-12 z"
       style="fill:#31353a;fill-opacity:1;fill-rule:evenodd;stroke:none"
       id="path5928"
       inkscape:connector-curvature="0" />
    <path
       d="m 46.032,29.9994 -12,0 0,-3 12,0 0,3 z"
       style="fill:#31353a;fill-opacity:1;fill-rule:evenodd;stroke:none"
       id="path5930"
       inkscape:connector-curvature="0" />
    <path
       d="m 46.032,20.9994 -12,0 0,-3 12,0 0,3 z"
       style="fill:#31353a;fill-opacity:1;fill-rule:evenodd;stroke:none"
       id="path5932"
       inkscape:connector-curvature="0" />
    <path
       d="m 14.532,29.9994 -12,0 0,-3 12,0 0,3 z"
       style="fill:#31353a;fill-opacity:1;fill-rule:evenodd;stroke:none"
       id="path5934"
       inkscape:connector-curvature="0" />
    <path
       d="m 14.532,20.9994 -12,0 0,-3 12,0 0,3 z"
       style="fill:#31353a;fill-opacity:1;fill-rule:evenodd;stroke:none"
       id="path5936"
       inkscape:connector-curvature="0" />
  </g>
</svg>
