<?xml version="1.0" encoding="UTF-8" standalone="no"?>
<!-- Created with Inkscape (http://www.inkscape.org/) -->

<svg
   xmlns:dc="http://purl.org/dc/elements/1.1/"
   xmlns:cc="http://creativecommons.org/ns#"
   xmlns:rdf="http://www.w3.org/1999/02/22-rdf-syntax-ns#"
   xmlns:svg="http://www.w3.org/2000/svg"
   xmlns="http://www.w3.org/2000/svg"
   xmlns:sodipodi="http://sodipodi.sourceforge.net/DTD/sodipodi-0.dtd"
   xmlns:inkscape="http://www.inkscape.org/namespaces/inkscape"
   width="48"
   height="48"
   id="svg6050"
   version="1.1"
   inkscape:version="0.91 r13725"
   viewBox="0 0 48 48"
   sodipodi:docname="star.svg">
  <defs
     id="defs6052" />
  <sodipodi:namedview
     id="base"
     pagecolor="#ffffff"
     bordercolor="#666666"
     borderopacity="1.0"
     inkscape:pageopacity="0.0"
     inkscape:pageshadow="2"
     inkscape:zoom="7"
     inkscape:cx="32.104093"
     inkscape:cy="23.054"
     inkscape:current-layer="layer1"
     showgrid="true"
     inkscape:grid-bbox="true"
     inkscape:document-units="px"
     inkscape:window-width="1086"
     inkscape:window-height="1001"
     inkscape:window-x="772"
     inkscape:window-y="0"
     inkscape:window-maximized="0" />
  <metadata
     id="metadata6055">
    <rdf:RDF>
      <cc:Work
         rdf:about="">
        <dc:format>image/svg+xml</dc:format>
        <dc:type
           rdf:resource="http://purl.org/dc/dcmitype/StillImage" />
        <dc:title></dc:title>
      </cc:Work>
    </rdf:RDF>
  </metadata>
  <g
     id="layer1"
     inkscape:label="Layer 1"
     inkscape:groupmode="layer">
    <g
       id="g3554"
       transform="matrix(1.4987732,0,0,-1.4987732,23.999096,0.74728319)">
      <path
         d="m 0,0 c -0.895,0 -1.712,-0.505 -2.093,-1.295 l -3.622,-7.52 -8.334,-1.24 c -0.856,-0.128 -1.567,-0.712 -1.844,-1.513 -0.275,-0.801 -0.067,-1.684 0.538,-2.286 l 6.107,-6.1 -1.417,-8.458 c -0.142,-0.852 0.226,-1.707 0.949,-2.205 0.398,-0.273 0.865,-0.412 1.332,-0.412 0.385,0 0.77,0.093 1.119,0.28 L 0,-26.836 7.267,-30.749 c 0.349,-0.187 0.734,-0.28 1.118,-0.28 0.467,0 0.934,0.139 1.333,0.412 0.722,0.498 1.091,1.353 0.947,2.205 l -1.416,8.458 6.108,6.1 c 0.605,0.602 0.812,1.485 0.537,2.286 -0.276,0.801 -0.987,1.385 -1.843,1.513 l -8.333,1.24 -3.624,7.52 C 1.714,-0.505 0.898,0 0,0 m 0.001,-1.935 3.654,-7.58 0.642,-1.329 1.462,-0.218 8.307,-1.234 -6.058,-6.043 -1.018,-1.015 0.238,-1.417 1.415,-8.442 -7.321,3.937 -1.323,0.712 -1.323,-0.712 -7.321,-3.938 1.416,8.443 0.237,1.417 -1.018,1.015 -6.055,6.043 8.307,1.234 1.462,0.218 0.642,1.329 3.655,7.58"
         style="fill:#31353a;fill-opacity:1;fill-rule:nonzero;stroke:none"
         id="path3556"
         inkscape:connector-curvature="0" />
    </g>
  </g>
</svg>
