<?xml version="1.0" encoding="UTF-8" standalone="no"?>
<!-- Created with Inkscape (http://www.inkscape.org/) -->

<svg
   xmlns:dc="http://purl.org/dc/elements/1.1/"
   xmlns:cc="http://creativecommons.org/ns#"
   xmlns:rdf="http://www.w3.org/1999/02/22-rdf-syntax-ns#"
   xmlns:svg="http://www.w3.org/2000/svg"
   xmlns="http://www.w3.org/2000/svg"
   xmlns:sodipodi="http://sodipodi.sourceforge.net/DTD/sodipodi-0.dtd"
   xmlns:inkscape="http://www.inkscape.org/namespaces/inkscape"
   width="48"
   height="48"
   id="svg6050"
   version="1.1"
   inkscape:version="0.91 r13725"
   viewBox="0 0 48 48"
   sodipodi:docname="trash_bin.svg">
  <defs
     id="defs6052" />
  <sodipodi:namedview
     id="base"
     pagecolor="#ffffff"
     bordercolor="#666666"
     borderopacity="1.0"
     inkscape:pageopacity="0.0"
     inkscape:pageshadow="2"
     inkscape:zoom="7"
     inkscape:cx="30.437678"
     inkscape:cy="23.054"
     inkscape:current-layer="layer1"
     showgrid="true"
     inkscape:grid-bbox="true"
     inkscape:document-units="px"
     inkscape:window-width="1086"
     inkscape:window-height="1001"
     inkscape:window-x="772"
     inkscape:window-y="0"
     inkscape:window-maximized="0" />
  <metadata
     id="metadata6055">
    <rdf:RDF>
      <cc:Work
         rdf:about="">
        <dc:format>image/svg+xml</dc:format>
        <dc:type
           rdf:resource="http://purl.org/dc/dcmitype/StillImage" />
        <dc:title></dc:title>
      </cc:Work>
    </rdf:RDF>
  </metadata>
  <g
     id="layer1"
     inkscape:label="Layer 1"
     inkscape:groupmode="layer">
    <g
       id="g3938"
       transform="matrix(1.497833,0,0,-1.497833,29.968865,10.385974)">
      <path
         d="m 0,0 c -0.553,0 -1,0.448 -1,1 l 0,3.668 c 0,0.164 -0.134,0.297 -0.298,0.297 l -5.374,0 c -0.164,0 -0.298,-0.133 -0.298,-0.297 l 0,-3.418 c 0,-0.552 -0.448,-1 -1,-1 -0.552,0 -1,0.448 -1,1 l 0,3.418 c 0,1.267 1.031,2.266 2.298,2.266 l 5.374,0 C -0.031,6.934 1,5.935 1,4.668 L 1,1 C 1,0.448 0.553,0 0,0"
         style="fill:#31353a;fill-opacity:1;fill-rule:nonzero;stroke:none"
         id="path3940"
         inkscape:connector-curvature="0" />
    </g>
    <g
       id="g3942"
       transform="matrix(1.497833,0,0,-1.497833,33.333238,48)">
      <path
         d="m 0,0 -12.462,0 c -1.079,0 -2.001,0.849 -2.099,1.931 l -2.393,23.856 c -0.055,0.549 0.346,1.04 0.895,1.095 0.549,0.05 1.04,-0.346 1.095,-0.896 L -12.569,2.12 C -12.563,2.055 -12.498,2 -12.462,2 L 0,2 c 0.035,0 0.101,0.055 0.105,0.11 l 2.397,23.877 c 0.056,0.549 0.542,0.945 1.095,0.895 0.549,-0.055 0.95,-0.546 0.895,-1.095 L 2.097,1.921 C 2,0.849 1.079,0 0,0"
         style="fill:#31353a;fill-opacity:1;fill-rule:nonzero;stroke:none"
         id="path3944"
         inkscape:connector-curvature="0" />
    </g>
    <g
       id="g3946"
       transform="matrix(1.497833,0,0,-1.497833,42.011442,10.474346)">
      <path
         d="m 0,0 -24.05,0 c -0.552,0 -1,0.448 -1,1 0,0.552 0.448,1 1,1 L 0,2 C 0.553,2 1,1.552 1,1 1,0.448 0.553,0 0,0"
         style="fill:#31353a;fill-opacity:1;fill-rule:nonzero;stroke:none"
         id="path3948"
         inkscape:connector-curvature="0" />
    </g>
    <g
       id="g5612"
       transform="matrix(1.497833,0,0,-1.497833,29.968865,10.385974)">
      <path
         d="m 0,0 c -0.553,0 -1,0.448 -1,1 l 0,3.668 c 0,0.164 -0.134,0.297 -0.298,0.297 l -5.374,0 c -0.164,0 -0.298,-0.133 -0.298,-0.297 l 0,-3.418 c 0,-0.552 -0.448,-1 -1,-1 -0.552,0 -1,0.448 -1,1 l 0,3.418 c 0,1.267 1.031,2.266 2.298,2.266 l 5.374,0 C -0.031,6.934 1,5.935 1,4.668 L 1,1 C 1,0.448 0.553,0 0,0"
         style="fill:#31353a;fill-opacity:1;fill-rule:nonzero;stroke:none"
         id="path5614"
         inkscape:connector-curvature="0" />
    </g>
    <g
       id="g5616"
       transform="matrix(1.497833,0,0,-1.497833,33.333238,48)">
      <path
         d="m 0,0 -12.462,0 c -1.079,0 -2.001,0.849 -2.099,1.931 l -2.393,23.856 c -0.055,0.549 0.346,1.04 0.895,1.095 0.549,0.05 1.04,-0.346 1.095,-0.896 L -12.569,2.12 C -12.563,2.055 -12.498,2 -12.462,2 L 0,2 c 0.035,0 0.101,0.055 0.105,0.11 l 2.397,23.877 c 0.056,0.549 0.542,0.945 1.095,0.895 0.549,-0.055 0.95,-0.546 0.895,-1.095 L 2.097,1.921 C 2,0.849 1.079,0 0,0"
         style="fill:#31353a;fill-opacity:1;fill-rule:nonzero;stroke:none"
         id="path5618"
         inkscape:connector-curvature="0" />
    </g>
    <g
       id="g5620"
       transform="matrix(1.497833,0,0,-1.497833,42.011442,10.474346)">
      <path
         d="m 0,0 -24.05,0 c -0.552,0 -1,0.448 -1,1 0,0.552 0.448,1 1,1 L 0,2 C 0.553,2 1,1.552 1,1 1,0.448 0.553,0 0,0"
         style="fill:#31353a;fill-opacity:1;fill-rule:nonzero;stroke:none"
         id="path5622"
         inkscape:connector-curvature="0" />
    </g>
  </g>
</svg>
