<?xml version="1.0" encoding="UTF-8" standalone="no"?>
<!-- Created with Inkscape (http://www.inkscape.org/) -->

<svg
   xmlns:dc="http://purl.org/dc/elements/1.1/"
   xmlns:cc="http://creativecommons.org/ns#"
   xmlns:rdf="http://www.w3.org/1999/02/22-rdf-syntax-ns#"
   xmlns:svg="http://www.w3.org/2000/svg"
   xmlns="http://www.w3.org/2000/svg"
   xmlns:sodipodi="http://sodipodi.sourceforge.net/DTD/sodipodi-0.dtd"
   xmlns:inkscape="http://www.inkscape.org/namespaces/inkscape"
   width="48"
   height="48"
   id="svg6050"
   version="1.1"
   inkscape:version="0.91 r13725"
   viewBox="0 0 48 48"
   sodipodi:docname="umbrella.svg">
  <defs
     id="defs6052" />
  <sodipodi:namedview
     id="base"
     pagecolor="#ffffff"
     bordercolor="#666666"
     borderopacity="1.0"
     inkscape:pageopacity="0.0"
     inkscape:pageshadow="2"
     inkscape:zoom="7"
     inkscape:cx="30.437678"
     inkscape:cy="23.054"
     inkscape:current-layer="layer1"
     showgrid="true"
     inkscape:grid-bbox="true"
     inkscape:document-units="px"
     inkscape:window-width="1086"
     inkscape:window-height="1001"
     inkscape:window-x="772"
     inkscape:window-y="0"
     inkscape:window-maximized="0" />
  <metadata
     id="metadata6055">
    <rdf:RDF>
      <cc:Work
         rdf:about="">
        <dc:format>image/svg+xml</dc:format>
        <dc:type
           rdf:resource="http://purl.org/dc/dcmitype/StillImage" />
        <dc:title></dc:title>
      </cc:Work>
    </rdf:RDF>
  </metadata>
  <g
     id="layer1"
     inkscape:label="Layer 1"
     inkscape:groupmode="layer">
    <g
       id="g3804"
       transform="matrix(1.4978936,0,0,-1.4978936,23.977382,6.2009081)">
      <path
         d="m 0,0 c -0.552,0 -1,0.448 -1,1 l 0,2.125 c 0,0.552 0.448,1 1,1 0.553,0 1,-0.448 1,-1 L 1,1 C 1,0.448 0.553,0 0,0"
         style="fill:#31353a;fill-opacity:1;fill-rule:nonzero;stroke:none"
         id="path3806"
         inkscape:connector-curvature="0" />
    </g>
    <g
       id="g3808"
       transform="matrix(1.4978936,0,0,-1.4978936,18.068371,47.977903)">
      <path
         d="m 0,0 c -2.727,0 -4.945,2.218 -4.945,4.943 0,0.553 0.448,1 1,1 0.553,0 1,-0.447 1,-1 C -2.945,3.32 -1.624,2 0,2 1.624,2 2.945,3.32 2.945,4.943 l 0,10.508 c 0,0.552 0.448,1 1,1 0.553,0 1,-0.448 1,-1 l 0,-10.508 C 4.945,2.218 2.727,0 0,0"
         style="fill:#31353a;fill-opacity:1;fill-rule:nonzero;stroke:none"
         id="path3810"
         inkscape:connector-curvature="0" />
    </g>
    <g
       id="g3812"
       transform="matrix(1.4978936,0,0,-1.4978936,3.0542048,22.389387)">
      <path
         d="m 0,0 27.968,0 c -0.493,6.271 -5.595,9.98 -14,9.98 C 5.564,9.98 0.493,6.271 0,0 m 29.006,-2 -30.045,0 c -0.552,0 -1,0.448 -1,1 0,8.006 6.063,12.98 16.007,12.98 9.945,0 16.038,-4.974 16.038,-12.98 0,-0.552 -0.447,-1 -1,-1"
         style="fill:#31353a;fill-opacity:1;fill-rule:nonzero;stroke:none"
         id="path3814"
         inkscape:connector-curvature="0" />
    </g>
    <g
       id="g5478"
       transform="matrix(1.4978936,0,0,-1.4978936,23.977382,6.2009081)">
      <path
         d="m 0,0 c -0.552,0 -1,0.448 -1,1 l 0,2.125 c 0,0.552 0.448,1 1,1 0.553,0 1,-0.448 1,-1 L 1,1 C 1,0.448 0.553,0 0,0"
         style="fill:#31353a;fill-opacity:1;fill-rule:nonzero;stroke:none"
         id="path5480"
         inkscape:connector-curvature="0" />
    </g>
    <g
       id="g5482"
       transform="matrix(1.4978936,0,0,-1.4978936,18.068371,47.977903)">
      <path
         d="m 0,0 c -2.727,0 -4.945,2.218 -4.945,4.943 0,0.553 0.448,1 1,1 0.553,0 1,-0.447 1,-1 C -2.945,3.32 -1.624,2 0,2 1.624,2 2.945,3.32 2.945,4.943 l 0,10.508 c 0,0.552 0.448,1 1,1 0.553,0 1,-0.448 1,-1 l 0,-10.508 C 4.945,2.218 2.727,0 0,0"
         style="fill:#31353a;fill-opacity:1;fill-rule:nonzero;stroke:none"
         id="path5484"
         inkscape:connector-curvature="0" />
    </g>
    <g
       id="g5486"
       transform="matrix(1.4978936,0,0,-1.4978936,3.0542048,22.389387)">
      <path
         d="m 0,0 27.968,0 c -0.493,6.271 -5.595,9.98 -14,9.98 C 5.564,9.98 0.493,6.271 0,0 m 29.006,-2 -30.045,0 c -0.552,0 -1,0.448 -1,1 0,8.006 6.063,12.98 16.007,12.98 9.945,0 16.038,-4.974 16.038,-12.98 0,-0.552 -0.447,-1 -1,-1"
         style="fill:#31353a;fill-opacity:1;fill-rule:nonzero;stroke:none"
         id="path5488"
         inkscape:connector-curvature="0" />
    </g>
  </g>
</svg>
