<?xml version="1.0" encoding="UTF-8" standalone="no"?>
<!-- Created with Inkscape (http://www.inkscape.org/) -->

<svg
   xmlns:dc="http://purl.org/dc/elements/1.1/"
   xmlns:cc="http://creativecommons.org/ns#"
   xmlns:rdf="http://www.w3.org/1999/02/22-rdf-syntax-ns#"
   xmlns:svg="http://www.w3.org/2000/svg"
   xmlns="http://www.w3.org/2000/svg"
   xmlns:sodipodi="http://sodipodi.sourceforge.net/DTD/sodipodi-0.dtd"
   xmlns:inkscape="http://www.inkscape.org/namespaces/inkscape"
   width="48"
   height="48"
   id="svg6050"
   version="1.1"
   inkscape:version="0.91 r13725"
   viewBox="0 0 48 48"
   sodipodi:docname="unlock.svg">
  <defs
     id="defs6052" />
  <sodipodi:namedview
     id="base"
     pagecolor="#ffffff"
     bordercolor="#666666"
     borderopacity="1.0"
     inkscape:pageopacity="0.0"
     inkscape:pageshadow="2"
     inkscape:zoom="7"
     inkscape:cx="30.437678"
     inkscape:cy="23.054"
     inkscape:current-layer="layer1"
     showgrid="true"
     inkscape:grid-bbox="true"
     inkscape:document-units="px"
     inkscape:window-width="1086"
     inkscape:window-height="1001"
     inkscape:window-x="772"
     inkscape:window-y="0"
     inkscape:window-maximized="0" />
  <metadata
     id="metadata6055">
    <rdf:RDF>
      <cc:Work
         rdf:about="">
        <dc:format>image/svg+xml</dc:format>
        <dc:type
           rdf:resource="http://purl.org/dc/dcmitype/StillImage" />
        <dc:title></dc:title>
      </cc:Work>
    </rdf:RDF>
  </metadata>
  <g
     id="layer1"
     inkscape:label="Layer 1"
     inkscape:groupmode="layer">
    <g
       id="g3710"
       transform="matrix(1.4967643,0,0,-1.4967643,35.141458,13.524728)">
      <path
         d="M 0,0 C -0.534,-0.143 -1.082,0.173 -1.225,0.707 L -1.65,2.394 c -0.898,3.349 -3.959,5.34 -7.432,4.41 -3.509,-0.94 -5.041,-4.223 -4.159,-7.516 l 0.675,-3.03 c 0.143,-0.534 -0.173,-1.082 -0.707,-1.225 -0.534,-0.143 -1.082,0.173 -1.225,0.707 l -0.675,3.03 c -1.168,4.359 1,8.74 5.574,9.966 4.556,1.22 8.693,-1.392 9.881,-5.825 L 0.707,1.225 C 0.85,0.691 0.534,0.143 0,0"
         style="fill:#31353a;fill-opacity:1;fill-rule:nonzero;stroke:none"
         id="path3712"
         inkscape:connector-curvature="0" />
    </g>
    <g
       id="g3714"
       transform="matrix(1.4967643,0,0,-1.4967643,10.529121,21.058242)">
      <path
         d="m 0,0 c -1.103,0 -2,-0.898 -2,-2 l 0,-12 c 0,-1.103 0.897,-2 2,-2 l 18,0 c 1.102,0 2,0.897 2,2 l 0,12 c 0,1.102 -0.898,2 -2,2 L 0,0 Z m 18,-18 -18,0 c -2.206,0 -4,1.794 -4,4 l 0,12 c 0,2.206 1.794,4 4,4 l 18,0 c 2.206,0 4,-1.794 4,-4 l 0,-12 c 0,-2.206 -1.794,-4 -4,-4"
         style="fill:#31353a;fill-opacity:1;fill-rule:nonzero;stroke:none"
         id="path3716"
         inkscape:connector-curvature="0" />
    </g>
    <g
       id="g3718"
       transform="matrix(1.4967643,0,0,-1.4967643,24,27.0453)">
      <path
         d="m 0,0 c 1.104,0 2,-0.896 2,-2 0,-1.105 -0.896,-2 -2,-2 -1.105,0 -2,0.895 -2,2 0,1.104 0.895,2 2,2"
         style="fill:#31353a;fill-opacity:1;fill-rule:evenodd;stroke:none"
         id="path3720"
         inkscape:connector-curvature="0" />
    </g>
    <g
       id="g3722"
       transform="matrix(1.4967643,0,0,-1.4967643,24,30.038828)">
      <path
         d="m 0,0 c 0.552,0 1,-0.448 1,-1 l 0,-4 c 0,-0.552 -0.448,-1 -1,-1 -0.552,0 -1,0.448 -1,1 l 0,4 c 0,0.552 0.448,1 1,1"
         style="fill:#31353a;fill-opacity:1;fill-rule:evenodd;stroke:none"
         id="path3724"
         inkscape:connector-curvature="0" />
    </g>
  </g>
</svg>
