<?xml version="1.0" encoding="UTF-8" standalone="no"?>
<!-- Created with Inkscape (http://www.inkscape.org/) -->

<svg
   xmlns:dc="http://purl.org/dc/elements/1.1/"
   xmlns:cc="http://creativecommons.org/ns#"
   xmlns:rdf="http://www.w3.org/1999/02/22-rdf-syntax-ns#"
   xmlns:svg="http://www.w3.org/2000/svg"
   xmlns="http://www.w3.org/2000/svg"
   xmlns:sodipodi="http://sodipodi.sourceforge.net/DTD/sodipodi-0.dtd"
   xmlns:inkscape="http://www.inkscape.org/namespaces/inkscape"
   width="48"
   height="48"
   id="svg6050"
   version="1.1"
   inkscape:version="0.91 r13725"
   viewBox="0 0 48 48"
   sodipodi:docname="wifi.svg">
  <defs
     id="defs6052" />
  <sodipodi:namedview
     id="base"
     pagecolor="#ffffff"
     bordercolor="#666666"
     borderopacity="1.0"
     inkscape:pageopacity="0.0"
     inkscape:pageshadow="2"
     inkscape:zoom="7"
     inkscape:cx="30.437678"
     inkscape:cy="23.054"
     inkscape:current-layer="layer1"
     showgrid="true"
     inkscape:grid-bbox="true"
     inkscape:document-units="px"
     inkscape:window-width="1086"
     inkscape:window-height="1001"
     inkscape:window-x="772"
     inkscape:window-y="0"
     inkscape:window-maximized="0" />
  <metadata
     id="metadata6055">
    <rdf:RDF>
      <cc:Work
         rdf:about="">
        <dc:format>image/svg+xml</dc:format>
        <dc:type
           rdf:resource="http://purl.org/dc/dcmitype/StillImage" />
        <dc:title></dc:title>
      </cc:Work>
    </rdf:RDF>
  </metadata>
  <g
     id="layer1"
     inkscape:label="Layer 1"
     inkscape:groupmode="layer">
    <g
       id="g4700"
       transform="matrix(1.5439294,0,0,-1.5439294,30.972355,44.915686)">
      <path
         d="m 0,0 c -0.553,0 -1,0.447 -1,1 0,9.246 -6.785,16.094 -16.032,16.094 -0.553,0 -1,0.447 -1,1 0,0.552 0.447,1 1,1 C -6.645,19.094 1,11.387 1,1 1,0.447 0.553,0 0,0"
         style="fill:#31353a;fill-opacity:1;fill-rule:nonzero;stroke:none"
         id="path4702"
         inkscape:connector-curvature="0" />
    </g>
    <g
       id="g4704"
       transform="matrix(1.5439294,0,0,-1.5439294,46.408685,44.804832)">
      <path
         d="m 0,0 c -0.553,0 -1,0.447 -1,1 0,14.348 -11.673,26.02 -26.021,26.02 -0.553,0 -1,0.448 -1,1 0,0.553 0.447,1 1,1 C -11.57,29.02 1,16.45 1,1 1,0.447 0.553,0 0,0"
         style="fill:#31353a;fill-opacity:1;fill-rule:nonzero;stroke:none"
         id="path4706"
         inkscape:connector-curvature="0" />
    </g>
    <g
       id="g4708"
       transform="matrix(1.5439294,0,0,-1.5439294,8.5467165,33.939434)">
      <path
         d="m 0,0 c -1.972,0 -3.576,-1.608 -3.576,-3.586 0,-1.978 1.604,-3.587 3.576,-3.587 1.972,0 3.577,1.609 3.577,3.587 C 3.577,-1.608 1.972,0 0,0 m 0,-9.107 c -3.035,0 -5.505,2.477 -5.505,5.521 0,3.044 2.47,5.52 5.505,5.52 3.035,0 5.506,-2.476 5.506,-5.52 C 5.506,-6.63 3.035,-9.107 0,-9.107"
         style="fill:#31353a;fill-opacity:1;fill-rule:nonzero;stroke:none"
         id="path4710"
         inkscape:connector-curvature="0" />
    </g>
  </g>
</svg>
