<?xml version="1.0" encoding="UTF-8" standalone="no"?>
<!-- Created with Inkscape (http://www.inkscape.org/) -->

<svg
   xmlns:dc="http://purl.org/dc/elements/1.1/"
   xmlns:cc="http://creativecommons.org/ns#"
   xmlns:rdf="http://www.w3.org/1999/02/22-rdf-syntax-ns#"
   xmlns:svg="http://www.w3.org/2000/svg"
   xmlns="http://www.w3.org/2000/svg"
   xmlns:sodipodi="http://sodipodi.sourceforge.net/DTD/sodipodi-0.dtd"
   xmlns:inkscape="http://www.inkscape.org/namespaces/inkscape"
   width="48"
   height="48"
   id="svg6050"
   version="1.1"
   inkscape:version="0.91 r13725"
   viewBox="0 0 48 48"
   sodipodi:docname="writing.svg">
  <defs
     id="defs6052" />
  <sodipodi:namedview
     id="base"
     pagecolor="#ffffff"
     bordercolor="#666666"
     borderopacity="1.0"
     inkscape:pageopacity="0.0"
     inkscape:pageshadow="2"
     inkscape:zoom="7"
     inkscape:cx="30.437678"
     inkscape:cy="23.054"
     inkscape:current-layer="layer1"
     showgrid="true"
     inkscape:grid-bbox="true"
     inkscape:document-units="px"
     inkscape:window-width="1086"
     inkscape:window-height="1001"
     inkscape:window-x="772"
     inkscape:window-y="0"
     inkscape:window-maximized="0" />
  <metadata
     id="metadata6055">
    <rdf:RDF>
      <cc:Work
         rdf:about="">
        <dc:format>image/svg+xml</dc:format>
        <dc:type
           rdf:resource="http://purl.org/dc/dcmitype/StillImage" />
        <dc:title></dc:title>
      </cc:Work>
    </rdf:RDF>
  </metadata>
  <g
     id="layer1"
     inkscape:label="Layer 1"
     inkscape:groupmode="layer">
    <g
       id="g3988"
       transform="matrix(1.4981082,0,0,-1.4981082,24.044637,7.5340713)">
      <path
         d="m 0,0 -14.05,0 0,-25 23,0 0,12.736 2,1.909 0,-14.645 c 0,-1.104 -0.896,-2 -2,-2 l -23,0 c -1.105,0 -2,0.896 -2,2 l 0,25 c 0,1.104 0.895,2 2,2 L 1.97,2 2.022,1.948 0,0 Z"
         style="fill:#31353a;fill-opacity:1;fill-rule:evenodd;stroke:none"
         id="path3990"
         inkscape:connector-curvature="0" />
    </g>
    <g
       id="g3992"
       transform="matrix(1.4981082,0,0,-1.4981082,41.203728,0.0170073)">
      <path
         d="m 0,0 c -1.663,0 -2.876,-1.074 -3.206,-1.403 -0.468,-0.462 -13.724,-13.699 -13.724,-13.699 -0.104,-0.106 -0.18,-0.235 -0.219,-0.379 -0.359,-1.327 -2.159,-7.218 -2.176,-7.277 -0.093,-0.302 -0.01,-0.631 0.212,-0.85 0.16,-0.161 0.373,-0.246 0.591,-0.246 0.086,0 0.172,0.013 0.257,0.039 0.061,0.021 6.141,1.987 7.142,2.286 0.131,0.039 0.251,0.11 0.35,0.207 0.631,0.623 12.816,12.618 13.802,13.637 1.02,1.052 1.527,2.146 1.507,3.253 C 4.518,-3.339 3.985,-2.286 2.961,-1.304 2.059,-0.438 1.062,0 0,0 m 0,-2 c 0.536,0 1.053,-0.245 1.577,-0.747 0.627,-0.602 0.95,-1.18 0.959,-1.72 0.01,-0.556 -0.307,-1.17 -0.943,-1.827 -0.557,-0.574 -4.914,-4.88 -12.952,-12.798 l -0.615,-0.606 c -0.922,-0.285 -3.128,-0.994 -4.796,-1.533 0.537,1.774 1.182,3.916 1.469,4.93 1.718,1.715 13.074,13.055 13.506,13.481 C -1.711,-2.736 -0.944,-2 0,-2"
         style="fill:#31353a;fill-opacity:1;fill-rule:nonzero;stroke:none"
         id="path3994"
         inkscape:connector-curvature="0" />
    </g>
    <g
       id="g5662"
       transform="matrix(1.4981082,0,0,-1.4981082,24.044637,7.5340713)">
      <path
         d="m 0,0 -14.05,0 0,-25 23,0 0,12.736 2,1.909 0,-14.645 c 0,-1.104 -0.896,-2 -2,-2 l -23,0 c -1.105,0 -2,0.896 -2,2 l 0,25 c 0,1.104 0.895,2 2,2 L 1.97,2 2.022,1.948 0,0 Z"
         style="fill:#31353a;fill-opacity:1;fill-rule:evenodd;stroke:none"
         id="path5664"
         inkscape:connector-curvature="0" />
    </g>
    <g
       id="g5666"
       transform="matrix(1.4981082,0,0,-1.4981082,41.203728,0.0170073)">
      <path
         d="m 0,0 c -1.663,0 -2.876,-1.074 -3.206,-1.403 -0.468,-0.462 -13.724,-13.699 -13.724,-13.699 -0.104,-0.106 -0.18,-0.235 -0.219,-0.379 -0.359,-1.327 -2.159,-7.218 -2.176,-7.277 -0.093,-0.302 -0.01,-0.631 0.212,-0.85 0.16,-0.161 0.373,-0.246 0.591,-0.246 0.086,0 0.172,0.013 0.257,0.039 0.061,0.021 6.141,1.987 7.142,2.286 0.131,0.039 0.251,0.11 0.35,0.207 0.631,0.623 12.816,12.618 13.802,13.637 1.02,1.052 1.527,2.146 1.507,3.253 C 4.518,-3.339 3.985,-2.286 2.961,-1.304 2.059,-0.438 1.062,0 0,0 m 0,-2 c 0.536,0 1.053,-0.245 1.577,-0.747 0.627,-0.602 0.95,-1.18 0.959,-1.72 0.01,-0.556 -0.307,-1.17 -0.943,-1.827 -0.557,-0.574 -4.914,-4.88 -12.952,-12.798 l -0.615,-0.606 c -0.922,-0.285 -3.128,-0.994 -4.796,-1.533 0.537,1.774 1.182,3.916 1.469,4.93 1.718,1.715 13.074,13.055 13.506,13.481 C -1.711,-2.736 -0.944,-2 0,-2"
         style="fill:#31353a;fill-opacity:1;fill-rule:nonzero;stroke:none"
         id="path5668"
         inkscape:connector-curvature="0" />
    </g>
  </g>
</svg>
