<?xml version="1.0" encoding="UTF-8" standalone="no"?>
<!-- Created with Inkscape (http://www.inkscape.org/) -->

<svg
   xmlns:dc="http://purl.org/dc/elements/1.1/"
   xmlns:cc="http://creativecommons.org/ns#"
   xmlns:rdf="http://www.w3.org/1999/02/22-rdf-syntax-ns#"
   xmlns:svg="http://www.w3.org/2000/svg"
   xmlns="http://www.w3.org/2000/svg"
   xmlns:sodipodi="http://sodipodi.sourceforge.net/DTD/sodipodi-0.dtd"
   xmlns:inkscape="http://www.inkscape.org/namespaces/inkscape"
   width="48"
   height="48"
   id="svg6050"
   version="1.1"
   inkscape:version="0.91 r13725"
   viewBox="0 0 48 48"
   sodipodi:docname="approved_added_customer.svg">
  <defs
     id="defs6052" />
  <sodipodi:namedview
     id="base"
     pagecolor="#ffffff"
     bordercolor="#666666"
     borderopacity="1.0"
     inkscape:pageopacity="0.0"
     inkscape:pageshadow="2"
     inkscape:zoom="7"
     inkscape:cx="30.437678"
     inkscape:cy="23.054"
     inkscape:current-layer="layer1"
     showgrid="true"
     inkscape:grid-bbox="true"
     inkscape:document-units="px"
     inkscape:window-width="1086"
     inkscape:window-height="1001"
     inkscape:window-x="772"
     inkscape:window-y="0"
     inkscape:window-maximized="0" />
  <metadata
     id="metadata6055">
    <rdf:RDF>
      <cc:Work
         rdf:about="">
        <dc:format>image/svg+xml</dc:format>
        <dc:type
           rdf:resource="http://purl.org/dc/dcmitype/StillImage" />
        <dc:title></dc:title>
      </cc:Work>
    </rdf:RDF>
  </metadata>
  <g
     id="layer1"
     inkscape:label="Layer 1"
     inkscape:groupmode="layer">
    <g
       id="g5020"
       transform="matrix(1.4985803,0,0,-1.4985803,31.891286,31.291342)">
      <path
         d="m 0,0 5.427,-2.542 -1.192,-1.69 -5.07,2.415 c -0.633,0.291 -1.069,0.889 -1.151,1.582 -0.082,0.691 0.202,1.376 0.749,1.806 2.145,1.69 2.945,5.37 2.945,7.293 l 0,4.998 c 0,2.135 -3.602,4.995 -6.998,4.995 -3.366,0 -7.003,-2.906 -7.003,-4.995 l 0,-4.998 c 0,-1.952 0.967,-5.619 3.045,-7.287 0.54,-0.434 0.818,-1.116 0.733,-1.804 C -8.6,-0.914 -9.034,-1.51 -9.664,-1.799 l -8.782,-4.144 c -0.238,-0.11 -0.835,-0.36 -0.835,-1.155 l 0,-2.029 18.364,0.001 1.625,-2 -19.991,0 c -1.103,0 -1.998,0.894 -1.998,1.999 l 0,3.001 c 0,1.108 1.998,1.999 1.998,1.999 l 8.783,4.145 c -2.797,2.245 -3.793,6.663 -3.793,8.846 l 0,4.998 c 0,3.31 4.587,6.995 9.003,6.995 4.416,0 8.998,-3.685 8.998,-6.995 l 0,-4.998 C 3.708,6.464 2.771,2.181 0,0"
         style="fill:#31353a;fill-opacity:1;fill-rule:evenodd;stroke:none"
         id="path5022"
         inkscape:connector-curvature="0" />
    </g>
    <g
       id="g5024"
       transform="matrix(1.4985803,0,0,-1.4985803,47.42533,33.904279)">
      <path
         d="m 0,0 0,0 c 0.435,-0.34 0.511,-0.969 0.171,-1.404 l -4.86,-7.413 c -0.341,-0.435 -0.969,-0.512 -1.404,-0.172 -0.435,0.341 -0.512,0.969 -0.171,1.404 l 4.86,7.414 C -1.063,0.264 -0.435,0.34 0,0"
         style="fill:#31353a;fill-opacity:1;fill-rule:evenodd;stroke:none"
         id="path5026"
         inkscape:connector-curvature="0" />
    </g>
    <g
       id="g5028"
       transform="matrix(1.4985803,0,0,-1.4985803,32.810096,39.950295)">
      <path
         d="M 0,0 0,0 C 0.391,0.391 1.024,0.391 1.414,0 L 4.95,-3.536 c 0.39,-0.39 0.39,-1.023 0,-1.414 -0.391,-0.39 -1.024,-0.39 -1.414,0 L 0,-1.414 C -0.391,-1.024 -0.391,-0.391 0,0"
         style="fill:#31353a;fill-opacity:1;fill-rule:evenodd;stroke:none"
         id="path5030"
         inkscape:connector-curvature="0" />
    </g>
  </g>
</svg>
