<?xml version="1.0" encoding="UTF-8" standalone="no"?>
<!-- Created with Inkscape (http://www.inkscape.org/) -->

<svg
   xmlns:dc="http://purl.org/dc/elements/1.1/"
   xmlns:cc="http://creativecommons.org/ns#"
   xmlns:rdf="http://www.w3.org/1999/02/22-rdf-syntax-ns#"
   xmlns:svg="http://www.w3.org/2000/svg"
   xmlns="http://www.w3.org/2000/svg"
   xmlns:sodipodi="http://sodipodi.sourceforge.net/DTD/sodipodi-0.dtd"
   xmlns:inkscape="http://www.inkscape.org/namespaces/inkscape"
   width="48"
   height="48"
   id="svg6050"
   version="1.1"
   inkscape:version="0.91 r13725"
   viewBox="0 0 48 48"
   sodipodi:docname="arrow.svg">
  <defs
     id="defs6052" />
  <sodipodi:namedview
     id="base"
     pagecolor="#ffffff"
     bordercolor="#666666"
     borderopacity="1.0"
     inkscape:pageopacity="0.0"
     inkscape:pageshadow="2"
     inkscape:zoom="7"
     inkscape:cx="30.437678"
     inkscape:cy="23.054"
     inkscape:current-layer="layer1"
     showgrid="true"
     inkscape:grid-bbox="true"
     inkscape:document-units="px"
     inkscape:window-width="1086"
     inkscape:window-height="1001"
     inkscape:window-x="772"
     inkscape:window-y="0"
     inkscape:window-maximized="0" />
  <metadata
     id="metadata6055">
    <rdf:RDF>
      <cc:Work
         rdf:about="">
        <dc:format>image/svg+xml</dc:format>
        <dc:type
           rdf:resource="http://purl.org/dc/dcmitype/StillImage" />
        <dc:title></dc:title>
      </cc:Work>
    </rdf:RDF>
  </metadata>
  <g
     id="layer1"
     inkscape:label="Layer 1"
     inkscape:groupmode="layer">
    <g
       id="g4224"
       transform="matrix(1.5012587,0,0,-1.5012587,47.10357,0.01589101)">
      <path
         d="m 0,0 c -0.19,0 -0.422,-0.054 -0.691,-0.168 l -29.833,-12.659 c -1.074,-0.455 -1.142,-1.334 -0.151,-1.951 l 12.353,-3.863 4.043,-12.601 c 0.29,-0.475 0.64,-0.71 0.977,-0.71 0.373,0 0.728,0.286 0.97,0.851 L 0.426,-1.297 C 0.772,-0.488 0.575,0 0,0 m -2.605,-3.202 -10.509,-24.556 -3.728,10.766 -10.756,3.251 24.993,10.539"
         style="fill:#31353a;fill-opacity:1;fill-rule:nonzero;stroke:none"
         id="path4226"
         inkscape:connector-curvature="0" />
    </g>
    <g
       id="g5898"
       transform="matrix(1.5012587,0,0,-1.5012587,47.10357,0.01589101)">
      <path
         d="m 0,0 c -0.19,0 -0.422,-0.054 -0.691,-0.168 l -29.833,-12.659 c -1.074,-0.455 -1.142,-1.334 -0.151,-1.951 l 12.353,-3.863 4.043,-12.601 c 0.29,-0.475 0.64,-0.71 0.977,-0.71 0.373,0 0.728,0.286 0.97,0.851 L 0.426,-1.297 C 0.772,-0.488 0.575,0 0,0 m -2.605,-3.202 -10.509,-24.556 -3.728,10.766 -10.756,3.251 24.993,10.539"
         style="fill:#31353a;fill-opacity:1;fill-rule:nonzero;stroke:none"
         id="path5900"
         inkscape:connector-curvature="0" />
    </g>
  </g>
</svg>
