<?xml version="1.0" encoding="UTF-8" standalone="no"?>
<!-- Created with Inkscape (http://www.inkscape.org/) -->

<svg
   xmlns:dc="http://purl.org/dc/elements/1.1/"
   xmlns:cc="http://creativecommons.org/ns#"
   xmlns:rdf="http://www.w3.org/1999/02/22-rdf-syntax-ns#"
   xmlns:svg="http://www.w3.org/2000/svg"
   xmlns="http://www.w3.org/2000/svg"
   xmlns:sodipodi="http://sodipodi.sourceforge.net/DTD/sodipodi-0.dtd"
   xmlns:inkscape="http://www.inkscape.org/namespaces/inkscape"
   width="48"
   height="48"
   id="svg6050"
   version="1.1"
   inkscape:version="0.91 r13725"
   viewBox="0 0 48 48"
   sodipodi:docname="bag.svg">
  <defs
     id="defs6052" />
  <sodipodi:namedview
     id="base"
     pagecolor="#ffffff"
     bordercolor="#666666"
     borderopacity="1.0"
     inkscape:pageopacity="0.0"
     inkscape:pageshadow="2"
     inkscape:zoom="7"
     inkscape:cx="30.437678"
     inkscape:cy="23.054"
     inkscape:current-layer="layer1"
     showgrid="true"
     inkscape:grid-bbox="true"
     inkscape:document-units="px"
     inkscape:window-width="1086"
     inkscape:window-height="1001"
     inkscape:window-x="772"
     inkscape:window-y="0"
     inkscape:window-maximized="0" />
  <metadata
     id="metadata6055">
    <rdf:RDF>
      <cc:Work
         rdf:about="">
        <dc:format>image/svg+xml</dc:format>
        <dc:type
           rdf:resource="http://purl.org/dc/dcmitype/StillImage" />
        <dc:title></dc:title>
      </cc:Work>
    </rdf:RDF>
  </metadata>
  <g
     id="layer1"
     inkscape:label="Layer 1"
     inkscape:groupmode="layer">
    <g
       id="g4412"
       transform="matrix(1.5038823,0,0,-1.5038823,31.557549,13.498847)">
      <path
         d="M 0,0 C 0,0 -0.004,-1.004 -1.004,-1.004 -2.066,-1.004 -2,0 -2,0 l 0,5.976 c 0,0.551 -0.448,1 -1,1 l -3.988,0 c -0.552,0 -1,-0.449 -1,-1 l 0,-5.976 c 0,0 0.119,-0.999 -1.006,-0.999 -1.021,0 -0.994,0.999 -0.994,0.999 l 0,5.976 c 0,1.654 1.345,3 3,3 l 3.988,0 c 1.654,0 3,-1.346 3,-3 L 0,0 Z"
         style="fill:#31353a;fill-opacity:1;fill-rule:nonzero;stroke:none"
         id="path4414"
         inkscape:connector-curvature="0" />
    </g>
    <g
       id="g4416"
       transform="matrix(1.5038823,0,0,-1.5038823,40.542705,7.3966827)">
      <path
         d="m 0,0 -22,0 c -1.105,0 -2,-0.896 -2,-2 l 0,-22.999 c 0,-1.104 0.895,-2 2,-2 l 22,0 c 1.104,0 2,0.896 2,2 L 2,-2 C 2,-0.896 1.104,0 0,0 m 0,-24.999 -22,0 0,22.999 22,0 0,-22.999 z"
         style="fill:#31353a;fill-opacity:1;fill-rule:nonzero;stroke:none"
         id="path4418"
         inkscape:connector-curvature="0" />
    </g>
  </g>
</svg>
