<?xml version="1.0" encoding="UTF-8" standalone="no"?>
<!-- Created with Inkscape (http://www.inkscape.org/) -->

<svg
   xmlns:dc="http://purl.org/dc/elements/1.1/"
   xmlns:cc="http://creativecommons.org/ns#"
   xmlns:rdf="http://www.w3.org/1999/02/22-rdf-syntax-ns#"
   xmlns:svg="http://www.w3.org/2000/svg"
   xmlns="http://www.w3.org/2000/svg"
   xmlns:sodipodi="http://sodipodi.sourceforge.net/DTD/sodipodi-0.dtd"
   xmlns:inkscape="http://www.inkscape.org/namespaces/inkscape"
   width="48"
   height="48"
   id="svg6050"
   version="1.1"
   inkscape:version="0.91 r13725"
   viewBox="0 0 48 48"
   sodipodi:docname="bell.svg">
  <defs
     id="defs6052" />
  <sodipodi:namedview
     id="base"
     pagecolor="#ffffff"
     bordercolor="#666666"
     borderopacity="1.0"
     inkscape:pageopacity="0.0"
     inkscape:pageshadow="2"
     inkscape:zoom="7"
     inkscape:cx="30.437678"
     inkscape:cy="23.054"
     inkscape:current-layer="layer1"
     showgrid="true"
     inkscape:grid-bbox="true"
     inkscape:document-units="px"
     inkscape:window-width="1086"
     inkscape:window-height="1001"
     inkscape:window-x="772"
     inkscape:window-y="0"
     inkscape:window-maximized="0" />
  <metadata
     id="metadata6055">
    <rdf:RDF>
      <cc:Work
         rdf:about="">
        <dc:format>image/svg+xml</dc:format>
        <dc:type
           rdf:resource="http://purl.org/dc/dcmitype/StillImage" />
        <dc:title></dc:title>
      </cc:Work>
    </rdf:RDF>
  </metadata>
  <g
     id="layer1"
     inkscape:label="Layer 1"
     inkscape:groupmode="layer">
    <g
       id="g5052"
       transform="matrix(1.6003683,0,0,-1.6003683,6.743509,36.768462)">
      <path
         d="m 0,0 c 0.1,-0.007 0.22,-0.011 0.363,-0.011 l 20.91,0 c 0.072,0 0.137,10e-4 0.197,0.003 -0.202,0.27 -0.462,0.586 -0.679,0.85 -1.288,1.566 -3.052,3.774 -3.052,6.417 l 0,6.133 c 0,4.181 -3.054,7.583 -7.002,7.583 -3.947,0 -6.971,-3.402 -6.971,-7.583 l 0,-6.133 C 3.766,4.703 1.854,2.532 0.709,0.993 0.478,0.683 0.193,0.3 0,0 m 21.273,-2.011 -20.91,0 c -0.9,0 -1.99,0.112 -2.426,0.979 -0.495,0.985 0.239,1.971 1.167,3.219 1.033,1.388 2.662,3.178 2.662,5.072 l 0,6.133 c 0,5.284 3.921,9.583 8.971,9.583 5.05,0 9.002,-4.299 9.002,-9.583 l 0,-6.133 c 0,-1.926 1.501,-3.815 2.597,-5.148 1.031,-1.254 1.776,-2.16 1.31,-3.147 -0.46,-0.975 -1.8,-0.975 -2.373,-0.975"
         style="fill:#31353a;fill-opacity:1;fill-rule:nonzero;stroke:none"
         id="path5054"
         inkscape:connector-curvature="0" />
    </g>
    <g
       id="g5056"
       transform="matrix(1.6003683,0,0,-1.6003683,19.366318,38.39779)">
      <path
         d="m 0,0 c -0.107,-0.311 -0.178,-0.64 -0.178,-0.988 0,-1.681 1.363,-3.044 3.044,-3.044 1.682,0 3.045,1.363 3.045,3.044 0,0.348 -0.071,0.677 -0.178,0.988 l 2.045,0 c 0.064,-0.32 0.1,-0.651 0.1,-0.99 0,-2.767 -2.243,-5.01 -5.01,-5.01 -2.767,0 -5.01,2.243 -5.01,5.01 0,0.339 0.035,0.67 0.099,0.99 L 0,0 Z"
         style="fill:#31353a;fill-opacity:1;fill-rule:evenodd;stroke:none"
         id="path5058"
         inkscape:connector-curvature="0" />
    </g>
  </g>
</svg>
