<?xml version="1.0" encoding="UTF-8" standalone="no"?>
<!-- Created with Inkscape (http://www.inkscape.org/) -->

<svg
   xmlns:dc="http://purl.org/dc/elements/1.1/"
   xmlns:cc="http://creativecommons.org/ns#"
   xmlns:rdf="http://www.w3.org/1999/02/22-rdf-syntax-ns#"
   xmlns:svg="http://www.w3.org/2000/svg"
   xmlns="http://www.w3.org/2000/svg"
   xmlns:sodipodi="http://sodipodi.sourceforge.net/DTD/sodipodi-0.dtd"
   xmlns:inkscape="http://www.inkscape.org/namespaces/inkscape"
   width="48"
   height="48"
   id="svg6050"
   version="1.1"
   inkscape:version="0.91 r13725"
   viewBox="0 0 48 48"
   sodipodi:docname="book.svg">
  <defs
     id="defs6052" />
  <sodipodi:namedview
     id="base"
     pagecolor="#ffffff"
     bordercolor="#666666"
     borderopacity="1.0"
     inkscape:pageopacity="0.0"
     inkscape:pageshadow="2"
     inkscape:zoom="7"
     inkscape:cx="30.437678"
     inkscape:cy="23.054"
     inkscape:current-layer="layer1"
     showgrid="true"
     inkscape:grid-bbox="true"
     inkscape:document-units="px"
     inkscape:window-width="1086"
     inkscape:window-height="1001"
     inkscape:window-x="772"
     inkscape:window-y="0"
     inkscape:window-maximized="0" />
  <metadata
     id="metadata6055">
    <rdf:RDF>
      <cc:Work
         rdf:about="">
        <dc:format>image/svg+xml</dc:format>
        <dc:type
           rdf:resource="http://purl.org/dc/dcmitype/StillImage" />
        <dc:title></dc:title>
      </cc:Work>
    </rdf:RDF>
  </metadata>
  <g
     id="layer1"
     inkscape:label="Layer 1"
     inkscape:groupmode="layer">
    <g
       id="g4336"
       transform="matrix(1.4983792,0,0,-1.4983792,3.0069582,3.1235437)">
      <path
         d="m 0,0 0,-24.001 c 0,-0.1 0.135,-0.277 0.231,-0.304 l 12.912,-3.569 c 0.336,-0.095 1.064,-0.096 1.399,-0.005 l 13.221,3.581 c 0.095,0.027 0.258,0.199 0.258,0.297 l 0,24.013 -12.954,-3.504 c -0.431,-0.117 -0.897,-0.142 -1.213,-0.142 -0.458,0 -0.901,0.053 -1.246,0.149 L 0,0 Z m 13.857,-29.95 c -0.461,0 -0.904,0.053 -1.249,0.148 l -12.879,3.57 C -1.239,-25.963 -2,-25.004 -2,-24.001 l 0,24.316 c 0,1.184 1.113,2.013 2.263,1.697 l 12.88,-3.569 c 0.335,-0.094 1.064,-0.095 1.4,-0.005 l 13.22,3.581 c 1.144,0.311 2.258,-0.521 2.258,-1.704 l 0,-24.316 c 0,-1.007 -0.764,-1.964 -1.735,-2.226 l -13.219,-3.581 c -0.429,-0.118 -0.895,-0.142 -1.21,-0.142"
         style="fill:#31353a;fill-opacity:1;fill-rule:nonzero;stroke:none"
         id="path4338"
         inkscape:connector-curvature="0" />
    </g>
    <g
       id="g4340"
       transform="matrix(1.4983792,0,0,-1.4983792,30.086865,17.178052)">
      <path
         d="m 0,0 c -0.437,0 -0.838,0.288 -0.962,0.729 -0.149,0.532 0.16,1.083 0.692,1.234 l 6.998,1.97 C 7.257,4.08 7.812,3.771 7.962,3.24 8.111,2.709 7.802,2.157 7.269,2.007 L 0.271,0.037 C 0.182,0.012 0.09,0 0,0"
         style="fill:#31353a;fill-opacity:1;fill-rule:nonzero;stroke:none"
         id="path4342"
         inkscape:connector-curvature="0" />
    </g>
    <g
       id="g4344"
       transform="matrix(1.4983792,0,0,-1.4983792,30.086865,26.168327)">
      <path
         d="m 0,0 c -0.437,0 -0.838,0.288 -0.962,0.729 -0.149,0.532 0.16,1.083 0.692,1.234 l 6.998,1.97 C 7.257,4.08 7.812,3.771 7.962,3.24 8.111,2.709 7.802,2.157 7.269,2.007 L 0.271,0.037 C 0.182,0.012 0.09,0 0,0"
         style="fill:#31353a;fill-opacity:1;fill-rule:nonzero;stroke:none"
         id="path4346"
         inkscape:connector-curvature="0" />
    </g>
    <g
       id="g4348"
       transform="matrix(1.4983792,0,0,-1.4983792,30.086865,35.158602)">
      <path
         d="m 0,0 c -0.437,0 -0.838,0.288 -0.962,0.729 -0.149,0.532 0.16,1.083 0.692,1.234 l 6.998,1.97 C 7.257,4.08 7.812,3.771 7.962,3.24 8.111,2.709 7.802,2.157 7.269,2.007 L 0.271,0.037 C 0.182,0.012 0.09,0 0,0"
         style="fill:#31353a;fill-opacity:1;fill-rule:nonzero;stroke:none"
         id="path4350"
         inkscape:connector-curvature="0" />
    </g>
    <g
       id="g4352"
       transform="matrix(1.4983792,0,0,-1.4983792,18.099832,17.178052)">
      <path
         d="M 0,0 C 0.436,0 0.838,0.288 0.962,0.729 1.111,1.261 0.802,1.812 0.269,1.963 l -6.998,1.97 C -7.257,4.08 -7.812,3.771 -7.962,3.24 -8.111,2.709 -7.802,2.157 -7.27,2.007 l 6.998,-1.97 C -0.182,0.012 -0.09,0 0,0"
         style="fill:#31353a;fill-opacity:1;fill-rule:nonzero;stroke:none"
         id="path4354"
         inkscape:connector-curvature="0" />
    </g>
    <g
       id="g4356"
       transform="matrix(1.4983792,0,0,-1.4983792,18.099832,26.168327)">
      <path
         d="M 0,0 C 0.436,0 0.838,0.288 0.962,0.729 1.111,1.261 0.802,1.812 0.269,1.963 l -6.998,1.97 C -7.257,4.08 -7.812,3.771 -7.962,3.24 -8.111,2.709 -7.802,2.157 -7.27,2.007 l 6.998,-1.97 C -0.182,0.012 -0.09,0 0,0"
         style="fill:#31353a;fill-opacity:1;fill-rule:nonzero;stroke:none"
         id="path4358"
         inkscape:connector-curvature="0" />
    </g>
    <g
       id="g4360"
       transform="matrix(1.4983792,0,0,-1.4983792,18.099832,35.158602)">
      <path
         d="M 0,0 C 0.436,0 0.838,0.288 0.962,0.729 1.111,1.261 0.802,1.812 0.269,1.963 l -6.998,1.97 C -7.257,4.08 -7.812,3.771 -7.962,3.24 -8.111,2.709 -7.802,2.157 -7.27,2.007 l 6.998,-1.97 C -0.182,0.012 -0.09,0 0,0"
         style="fill:#31353a;fill-opacity:1;fill-rule:nonzero;stroke:none"
         id="path4362"
         inkscape:connector-curvature="0" />
    </g>
    <path
       d="m 22.50177,6.4614897 2.996758,0 0,40.2060063 -2.996758,0 0,-40.2060063 z"
       style="fill:#31353a;fill-opacity:1;fill-rule:evenodd;stroke:none"
       id="path4364"
       inkscape:connector-curvature="0" />
  </g>
</svg>
