<?xml version="1.0" encoding="UTF-8" standalone="no"?>
<!-- Created with Inkscape (http://www.inkscape.org/) -->

<svg
   xmlns:dc="http://purl.org/dc/elements/1.1/"
   xmlns:cc="http://creativecommons.org/ns#"
   xmlns:rdf="http://www.w3.org/1999/02/22-rdf-syntax-ns#"
   xmlns:svg="http://www.w3.org/2000/svg"
   xmlns="http://www.w3.org/2000/svg"
   xmlns:sodipodi="http://sodipodi.sourceforge.net/DTD/sodipodi-0.dtd"
   xmlns:inkscape="http://www.inkscape.org/namespaces/inkscape"
   width="48"
   height="48"
   id="svg6050"
   version="1.1"
   inkscape:version="0.91 r13725"
   viewBox="0 0 48 48"
   sodipodi:docname="compass.svg">
  <defs
     id="defs6052" />
  <sodipodi:namedview
     id="base"
     pagecolor="#ffffff"
     bordercolor="#666666"
     borderopacity="1.0"
     inkscape:pageopacity="0.0"
     inkscape:pageshadow="2"
     inkscape:zoom="7"
     inkscape:cx="30.437678"
     inkscape:cy="23.054"
     inkscape:current-layer="layer1"
     showgrid="true"
     inkscape:grid-bbox="true"
     inkscape:document-units="px"
     inkscape:window-width="1086"
     inkscape:window-height="1001"
     inkscape:window-x="772"
     inkscape:window-y="0"
     inkscape:window-maximized="0" />
  <metadata
     id="metadata6055">
    <rdf:RDF>
      <cc:Work
         rdf:about="">
        <dc:format>image/svg+xml</dc:format>
        <dc:type
           rdf:resource="http://purl.org/dc/dcmitype/StillImage" />
        <dc:title></dc:title>
      </cc:Work>
    </rdf:RDF>
  </metadata>
  <g
     id="layer1"
     inkscape:label="Layer 1"
     inkscape:groupmode="layer">
    <g
       id="g4498"
       transform="matrix(1.5,0,0,-1.5,21.38076,21.7575)">
      <path
         d="M 0,0 -3.071,-6.27 3.692,-3.652 6.768,2.67 0,0 Z m -5.183,-9.279 c -0.247,0 -0.491,0.097 -0.673,0.282 -0.283,0.289 -0.35,0.727 -0.166,1.087 l 4.483,9.038 c 0.091,0.178 0.234,0.321 0.411,0.411 L 8.659,5.747 C 9.027,5.934 9.476,5.861 9.764,5.562 10.051,5.264 10.111,4.813 9.91,4.451 L 5.194,-4.827 C 5.101,-4.997 4.956,-5.134 4.781,-5.218 l -9.554,-3.967 c -0.131,-0.064 -0.271,-0.094 -0.41,-0.094"
         style="fill:#31353a;fill-opacity:1;fill-rule:nonzero;stroke:none"
         id="path4500"
         inkscape:connector-curvature="0" />
    </g>
    <g
       id="g4502"
       transform="matrix(1.5,0,0,-1.5,24,0)">
      <path
         d="m 0,0 c -8.836,0 -16,-7.164 -16,-16 0,-8.837 7.164,-16 16,-16 8.837,0 16,7.163 16,16 C 16,-7.164 8.837,0 0,0 m 0,-2 c 7.72,0 14,-6.28 14,-14 0,-7.72 -6.28,-14.031 -14,-14.031 -7.72,0 -14,6.311 -14,14.031 0,7.72 6.28,14 14,14"
         style="fill:#31353a;fill-opacity:1;fill-rule:nonzero;stroke:none"
         id="path4504"
         inkscape:connector-curvature="0" />
    </g>
    <g
       id="g4506"
       transform="matrix(1.5,0,0,-1.5,22.60164,20.215944)">
      <path
         d="M 0,0 3.698,-4.628 C 3.99,-4.994 3.877,-5.569 3.445,-5.914 3.014,-6.259 2.427,-6.242 2.136,-5.877 l -3.698,4.629 c -0.292,0.365 -0.179,0.94 0.252,1.285 C -0.878,0.382 -0.292,0.365 0,0"
         style="fill:#31353a;fill-opacity:1;fill-rule:evenodd;stroke:none"
         id="path4508"
         inkscape:connector-curvature="0" />
    </g>
  </g>
</svg>
