<?xml version="1.0" encoding="UTF-8" standalone="no"?>
<!-- Created with Inkscape (http://www.inkscape.org/) -->

<svg
   xmlns:dc="http://purl.org/dc/elements/1.1/"
   xmlns:cc="http://creativecommons.org/ns#"
   xmlns:rdf="http://www.w3.org/1999/02/22-rdf-syntax-ns#"
   xmlns:svg="http://www.w3.org/2000/svg"
   xmlns="http://www.w3.org/2000/svg"
   xmlns:sodipodi="http://sodipodi.sourceforge.net/DTD/sodipodi-0.dtd"
   xmlns:inkscape="http://www.inkscape.org/namespaces/inkscape"
   width="48"
   height="48"
   id="svg6050"
   version="1.1"
   inkscape:version="0.91 r13725"
   viewBox="0 0 48 48"
   sodipodi:docname="comparison.svg">
  <defs
     id="defs6052" />
  <sodipodi:namedview
     id="base"
     pagecolor="#ffffff"
     bordercolor="#666666"
     borderopacity="1.0"
     inkscape:pageopacity="0.0"
     inkscape:pageshadow="2"
     inkscape:zoom="7"
     inkscape:cx="30.437678"
     inkscape:cy="23.054"
     inkscape:current-layer="layer1"
     showgrid="true"
     inkscape:grid-bbox="true"
     inkscape:document-units="px"
     inkscape:window-width="1086"
     inkscape:window-height="1001"
     inkscape:window-x="772"
     inkscape:window-y="0"
     inkscape:window-maximized="0" />
  <metadata
     id="metadata6055">
    <rdf:RDF>
      <cc:Work
         rdf:about="">
        <dc:format>image/svg+xml</dc:format>
        <dc:type
           rdf:resource="http://purl.org/dc/dcmitype/StillImage" />
        <dc:title></dc:title>
      </cc:Work>
    </rdf:RDF>
  </metadata>
  <g
     id="layer1"
     inkscape:label="Layer 1"
     inkscape:groupmode="layer">
    <g
       id="g4134"
       transform="matrix(1.4989695,0,0,-1.4989695,6.012366,20.998619)">
      <path
         d="m 0,0 c -1.104,0 -2.002,-0.898 -2.002,-2.002 0,-1.104 0.898,-2.003 2.002,-2.003 1.104,0 2.002,0.899 2.002,2.003 C 2.002,-0.898 1.104,0 0,0 m 0,-6.013 c -2.211,0 -4.011,1.799 -4.011,4.011 0,2.211 1.8,4.011 4.011,4.011 2.211,0 4.011,-1.8 4.011,-4.011 0,-2.212 -1.8,-4.011 -4.011,-4.011"
         style="fill:#31353a;fill-opacity:1;fill-rule:nonzero;stroke:none"
         id="path4136"
         inkscape:connector-curvature="0" />
    </g>
    <g
       id="g4138"
       transform="matrix(1.4989695,0,0,-1.4989695,24,29.99258)">
      <path
         d="m 0,0 c -1.104,0 -2.002,-0.898 -2.002,-2.002 0,-1.104 0.898,-2.003 2.002,-2.003 1.104,0 2.002,0.899 2.002,2.003 C 2.002,-0.898 1.104,0 0,0 m 0,-6.013 c -2.211,0 -4.011,1.799 -4.011,4.011 0,2.211 1.8,4.011 4.011,4.011 2.211,0 4.011,-1.8 4.011,-4.011 0,-2.212 -1.8,-4.011 -4.011,-4.011"
         style="fill:#31353a;fill-opacity:1;fill-rule:nonzero;stroke:none"
         id="path4140"
         inkscape:connector-curvature="0" />
    </g>
    <g
       id="g4142"
       transform="matrix(1.4989695,0,0,-1.4989695,41.987634,12.004946)">
      <path
         d="m 0,0 c -1.104,0 -2.002,-0.898 -2.002,-2.002 0,-1.104 0.898,-2.003 2.002,-2.003 1.104,0 2.002,0.899 2.002,2.003 C 2.002,-0.898 1.104,0 0,0 m 0,-6.013 c -2.211,0 -4.011,1.799 -4.011,4.011 0,2.211 1.8,4.011 4.011,4.011 2.211,0 4.011,-1.8 4.011,-4.011 0,-2.212 -1.8,-4.011 -4.011,-4.011"
         style="fill:#31353a;fill-opacity:1;fill-rule:nonzero;stroke:none"
         id="path4144"
         inkscape:connector-curvature="0" />
    </g>
    <g
       id="g4146"
       transform="matrix(1.4989695,0,0,-1.4989695,6.014765,0.016488)">
      <path
         d="m 0,0 c 0.552,0 1,-0.448 1,-1 l 0,-12 c 0,-0.552 -0.448,-1 -1,-1 -0.552,0 -1,0.448 -1,1 l 0,12 c 0,0.552 0.448,1 1,1"
         style="fill:#31353a;fill-opacity:1;fill-rule:evenodd;stroke:none"
         id="path4148"
         inkscape:connector-curvature="0" />
    </g>
    <g
       id="g4150"
       transform="matrix(1.4989695,0,0,-1.4989695,6.014765,26.997939)">
      <path
         d="m 0,0 c 0.552,0 1,-0.448 1,-1 l 0,-12 c 0,-0.552 -0.448,-1 -1,-1 -0.552,0 -1,0.448 -1,1 l 0,12 c 0,0.552 0.448,1 1,1"
         style="fill:#31353a;fill-opacity:1;fill-rule:evenodd;stroke:none"
         id="path4152"
         inkscape:connector-curvature="0" />
    </g>
    <g
       id="g4154"
       transform="matrix(1.4989695,0,0,-1.4989695,24.002398,0.016488)">
      <path
         d="m 0,0 c 0.552,0 1,-0.448 1,-1 l 0,-18 c 0,-0.552 -0.448,-1 -1,-1 -0.552,0 -1,0.448 -1,1 l 0,18 c 0,0.552 0.448,1 1,1"
         style="fill:#31353a;fill-opacity:1;fill-rule:evenodd;stroke:none"
         id="path4156"
         inkscape:connector-curvature="0" />
    </g>
    <g
       id="g4158"
       transform="matrix(1.4989695,0,0,-1.4989695,24.002398,35.991755)">
      <path
         d="m 0,0 c 0.552,0 1,-0.448 1,-1 l 0,-6 c 0,-0.552 -0.448,-1 -1,-1 -0.552,0 -1,0.448 -1,1 l 0,6 c 0,0.552 0.448,1 1,1"
         style="fill:#31353a;fill-opacity:1;fill-rule:evenodd;stroke:none"
         id="path4160"
         inkscape:connector-curvature="0" />
    </g>
    <g
       id="g4162"
       transform="matrix(1.4989695,0,0,-1.4989695,41.990032,0.016488)">
      <path
         d="m 0,0 c 0.552,0 1,-0.448 1,-1 l 0,-6 c 0,-0.552 -0.448,-1 -1,-1 -0.552,0 -1,0.448 -1,1 l 0,6 c 0,0.552 0.448,1 1,1"
         style="fill:#31353a;fill-opacity:1;fill-rule:evenodd;stroke:none"
         id="path4164"
         inkscape:connector-curvature="0" />
    </g>
    <g
       id="g4166"
       transform="matrix(1.4989695,0,0,-1.4989695,41.990032,18.004122)">
      <path
         d="m 0,0 c 0.552,0 1,-0.448 1,-1 l 0,-18 c 0,-0.552 -0.448,-1 -1,-1 -0.552,0 -1,0.448 -1,1 l 0,18 c 0,0.552 0.448,1 1,1"
         style="fill:#31353a;fill-opacity:1;fill-rule:evenodd;stroke:none"
         id="path4168"
         inkscape:connector-curvature="0" />
    </g>
    <g
       id="g5808"
       transform="matrix(1.4989695,0,0,-1.4989695,6.012366,20.998619)">
      <path
         d="m 0,0 c -1.104,0 -2.002,-0.898 -2.002,-2.002 0,-1.104 0.898,-2.003 2.002,-2.003 1.104,0 2.002,0.899 2.002,2.003 C 2.002,-0.898 1.104,0 0,0 m 0,-6.013 c -2.211,0 -4.011,1.799 -4.011,4.011 0,2.211 1.8,4.011 4.011,4.011 2.211,0 4.011,-1.8 4.011,-4.011 0,-2.212 -1.8,-4.011 -4.011,-4.011"
         style="fill:#31353a;fill-opacity:1;fill-rule:nonzero;stroke:none"
         id="path5810"
         inkscape:connector-curvature="0" />
    </g>
    <g
       id="g5812"
       transform="matrix(1.4989695,0,0,-1.4989695,24,29.99258)">
      <path
         d="m 0,0 c -1.104,0 -2.002,-0.898 -2.002,-2.002 0,-1.104 0.898,-2.003 2.002,-2.003 1.104,0 2.002,0.899 2.002,2.003 C 2.002,-0.898 1.104,0 0,0 m 0,-6.013 c -2.211,0 -4.011,1.799 -4.011,4.011 0,2.211 1.8,4.011 4.011,4.011 2.211,0 4.011,-1.8 4.011,-4.011 0,-2.212 -1.8,-4.011 -4.011,-4.011"
         style="fill:#31353a;fill-opacity:1;fill-rule:nonzero;stroke:none"
         id="path5814"
         inkscape:connector-curvature="0" />
    </g>
    <g
       id="g5816"
       transform="matrix(1.4989695,0,0,-1.4989695,41.987634,12.004946)">
      <path
         d="m 0,0 c -1.104,0 -2.002,-0.898 -2.002,-2.002 0,-1.104 0.898,-2.003 2.002,-2.003 1.104,0 2.002,0.899 2.002,2.003 C 2.002,-0.898 1.104,0 0,0 m 0,-6.013 c -2.211,0 -4.011,1.799 -4.011,4.011 0,2.211 1.8,4.011 4.011,4.011 2.211,0 4.011,-1.8 4.011,-4.011 0,-2.212 -1.8,-4.011 -4.011,-4.011"
         style="fill:#31353a;fill-opacity:1;fill-rule:nonzero;stroke:none"
         id="path5818"
         inkscape:connector-curvature="0" />
    </g>
    <g
       id="g5820"
       transform="matrix(1.4989695,0,0,-1.4989695,6.014765,0.016488)">
      <path
         d="m 0,0 c 0.552,0 1,-0.448 1,-1 l 0,-12 c 0,-0.552 -0.448,-1 -1,-1 -0.552,0 -1,0.448 -1,1 l 0,12 c 0,0.552 0.448,1 1,1"
         style="fill:#31353a;fill-opacity:1;fill-rule:evenodd;stroke:none"
         id="path5822"
         inkscape:connector-curvature="0" />
    </g>
    <g
       id="g5824"
       transform="matrix(1.4989695,0,0,-1.4989695,6.014765,26.997939)">
      <path
         d="m 0,0 c 0.552,0 1,-0.448 1,-1 l 0,-12 c 0,-0.552 -0.448,-1 -1,-1 -0.552,0 -1,0.448 -1,1 l 0,12 c 0,0.552 0.448,1 1,1"
         style="fill:#31353a;fill-opacity:1;fill-rule:evenodd;stroke:none"
         id="path5826"
         inkscape:connector-curvature="0" />
    </g>
    <g
       id="g5828"
       transform="matrix(1.4989695,0,0,-1.4989695,24.002398,0.016488)">
      <path
         d="m 0,0 c 0.552,0 1,-0.448 1,-1 l 0,-18 c 0,-0.552 -0.448,-1 -1,-1 -0.552,0 -1,0.448 -1,1 l 0,18 c 0,0.552 0.448,1 1,1"
         style="fill:#31353a;fill-opacity:1;fill-rule:evenodd;stroke:none"
         id="path5830"
         inkscape:connector-curvature="0" />
    </g>
    <g
       id="g5832"
       transform="matrix(1.4989695,0,0,-1.4989695,24.002398,35.991755)">
      <path
         d="m 0,0 c 0.552,0 1,-0.448 1,-1 l 0,-6 c 0,-0.552 -0.448,-1 -1,-1 -0.552,0 -1,0.448 -1,1 l 0,6 c 0,0.552 0.448,1 1,1"
         style="fill:#31353a;fill-opacity:1;fill-rule:evenodd;stroke:none"
         id="path5834"
         inkscape:connector-curvature="0" />
    </g>
    <g
       id="g5836"
       transform="matrix(1.4989695,0,0,-1.4989695,41.990032,0.016488)">
      <path
         d="m 0,0 c 0.552,0 1,-0.448 1,-1 l 0,-6 c 0,-0.552 -0.448,-1 -1,-1 -0.552,0 -1,0.448 -1,1 l 0,6 c 0,0.552 0.448,1 1,1"
         style="fill:#31353a;fill-opacity:1;fill-rule:evenodd;stroke:none"
         id="path5838"
         inkscape:connector-curvature="0" />
    </g>
    <g
       id="g5840"
       transform="matrix(1.4989695,0,0,-1.4989695,41.990032,18.004122)">
      <path
         d="m 0,0 c 0.552,0 1,-0.448 1,-1 l 0,-18 c 0,-0.552 -0.448,-1 -1,-1 -0.552,0 -1,0.448 -1,1 l 0,18 c 0,0.552 0.448,1 1,1"
         style="fill:#31353a;fill-opacity:1;fill-rule:evenodd;stroke:none"
         id="path5842"
         inkscape:connector-curvature="0" />
    </g>
  </g>
</svg>
