<?xml version="1.0" encoding="UTF-8" standalone="no"?>
<!-- Created with Inkscape (http://www.inkscape.org/) -->

<svg
   xmlns:dc="http://purl.org/dc/elements/1.1/"
   xmlns:cc="http://creativecommons.org/ns#"
   xmlns:rdf="http://www.w3.org/1999/02/22-rdf-syntax-ns#"
   xmlns:svg="http://www.w3.org/2000/svg"
   xmlns="http://www.w3.org/2000/svg"
   xmlns:sodipodi="http://sodipodi.sourceforge.net/DTD/sodipodi-0.dtd"
   xmlns:inkscape="http://www.inkscape.org/namespaces/inkscape"
   width="48"
   height="48"
   id="svg6050"
   version="1.1"
   inkscape:version="0.91 r13725"
   viewBox="0 0 48 48"
   sodipodi:docname="crop.svg">
  <defs
     id="defs6052" />
  <sodipodi:namedview
     id="base"
     pagecolor="#ffffff"
     bordercolor="#666666"
     borderopacity="1.0"
     inkscape:pageopacity="0.0"
     inkscape:pageshadow="2"
     inkscape:zoom="7"
     inkscape:cx="30.437678"
     inkscape:cy="23.054"
     inkscape:current-layer="layer1"
     showgrid="true"
     inkscape:grid-bbox="true"
     inkscape:document-units="px"
     inkscape:window-width="1086"
     inkscape:window-height="1001"
     inkscape:window-x="772"
     inkscape:window-y="0"
     inkscape:window-maximized="0" />
  <metadata
     id="metadata6055">
    <rdf:RDF>
      <cc:Work
         rdf:about="">
        <dc:format>image/svg+xml</dc:format>
        <dc:type
           rdf:resource="http://purl.org/dc/dcmitype/StillImage" />
        <dc:title></dc:title>
      </cc:Work>
    </rdf:RDF>
  </metadata>
  <g
     id="layer1"
     inkscape:label="Layer 1"
     inkscape:groupmode="layer">
    <g
       id="g5122"
       transform="matrix(1.5,0,0,-1.5,46.09932,1.9476)">
      <path
         d="m 0,0 c 0.39,-0.391 0.39,-1.024 0,-1.414 l -23.026,-22.995 c -0.39,-0.39 -1.024,-0.39 -1.414,0 -0.391,0.391 -0.391,1.024 0,1.414 L -1.414,0 C -1.024,0.391 -0.391,0.391 0,0"
         style="fill:#31353a;fill-opacity:1;fill-rule:evenodd;stroke:none"
         id="path5124"
         inkscape:connector-curvature="0" />
    </g>
    <g
       id="g5126"
       transform="matrix(1.5,0,0,-1.5,37.5,37.5)">
      <path
         d="M 0,0 -17.348,0 -18,0 -18,0.587 -18,18 0,18 0,0 Z m 6,0 -4,0 0,20 -20,0 0,4 c 0,0.553 -0.447,1 -1,1 -0.553,0 -1,-0.447 -1,-1 l 0,-4 -4,0 c -0.553,0 -1,-0.447 -1,-1 0,-0.552 0.447,-1 1,-1 l 4,0 0,-19 c 0,-0.092 0.029,-0.175 0.053,-0.259 0.01,-0.038 0.008,-0.077 0.022,-0.113 0.101,-0.252 0.3,-0.451 0.552,-0.553 0.043,-0.017 0.09,-0.015 0.134,-0.026 C -19.16,-1.972 -19.085,-2 -19,-2 l 19,0 0,-4 c 0,-0.553 0.447,-1 1,-1 0.553,0 1,0.447 1,1 l 0,4 4,0 c 0.553,0 1,0.447 1,1 0,0.553 -0.447,1 -1,1"
         style="fill:#31353a;fill-opacity:1;fill-rule:nonzero;stroke:none"
         id="path5128"
         inkscape:connector-curvature="0" />
    </g>
  </g>
</svg>
