<?xml version="1.0" encoding="UTF-8" standalone="no"?>
<!-- Created with Inkscape (http://www.inkscape.org/) -->

<svg
   xmlns:dc="http://purl.org/dc/elements/1.1/"
   xmlns:cc="http://creativecommons.org/ns#"
   xmlns:rdf="http://www.w3.org/1999/02/22-rdf-syntax-ns#"
   xmlns:svg="http://www.w3.org/2000/svg"
   xmlns="http://www.w3.org/2000/svg"
   xmlns:sodipodi="http://sodipodi.sourceforge.net/DTD/sodipodi-0.dtd"
   xmlns:inkscape="http://www.inkscape.org/namespaces/inkscape"
   width="48"
   height="48"
   id="svg6050"
   version="1.1"
   inkscape:version="0.91 r13725"
   viewBox="0 0 48 48"
   sodipodi:docname="database.svg">
  <defs
     id="defs6052" />
  <sodipodi:namedview
     id="base"
     pagecolor="#ffffff"
     bordercolor="#666666"
     borderopacity="1.0"
     inkscape:pageopacity="0.0"
     inkscape:pageshadow="2"
     inkscape:zoom="7"
     inkscape:cx="30.437678"
     inkscape:cy="23.054"
     inkscape:current-layer="layer1"
     showgrid="true"
     inkscape:grid-bbox="true"
     inkscape:document-units="px"
     inkscape:window-width="1086"
     inkscape:window-height="1001"
     inkscape:window-x="772"
     inkscape:window-y="0"
     inkscape:window-maximized="0" />
  <metadata
     id="metadata6055">
    <rdf:RDF>
      <cc:Work
         rdf:about="">
        <dc:format>image/svg+xml</dc:format>
        <dc:type
           rdf:resource="http://purl.org/dc/dcmitype/StillImage" />
        <dc:title></dc:title>
      </cc:Work>
    </rdf:RDF>
  </metadata>
  <g
     id="layer1"
     inkscape:label="Layer 1"
     inkscape:groupmode="layer">
    <g
       id="g4732"
       transform="matrix(1.4989891,0,0,-1.4989891,4.9893715,12.890223)">
      <path
         d="M 0,0 12.693,-6.912 25.536,0.009 12.844,6.455 0,0 Z m 12.691,-9.05 c -0.166,0 -0.33,0.041 -0.479,0.122 l -14.847,8.085 c -0.326,0.178 -0.527,0.523 -0.521,0.895 0.006,0.372 0.218,0.71 0.551,0.877 l 15.001,7.54 c 0.286,0.142 0.62,0.141 0.903,-0.002 l 14.847,-7.54 c 0.332,-0.169 0.542,-0.507 0.547,-0.88 0.005,-0.372 -0.198,-0.716 -0.525,-0.892 L 13.165,-8.93 c -0.148,-0.08 -0.311,-0.12 -0.474,-0.12"
         style="fill:#31353a;fill-opacity:1;fill-rule:nonzero;stroke:none"
         id="path4734"
         inkscape:connector-curvature="0" />
    </g>
    <g
       id="g4736"
       transform="matrix(1.4989891,0,0,-1.4989891,46.923051,22.515088)">
      <path
         d="m 0,0 -2.968,1.507 -2.142,-1.155 2.5,-1.27 -12.843,-6.921 -12.693,6.912 2.666,1.34 -2.137,1.164 -3.135,-1.575 c -0.332,-0.167 -0.545,-0.505 -0.551,-0.877 -0.006,-0.372 0.195,-0.717 0.522,-0.895 l 14.846,-8.084 c 0.15,-0.081 0.314,-0.123 0.479,-0.123 0.163,0 0.326,0.041 0.475,0.121 L 0.021,-1.771 C 0.349,-1.596 0.552,-1.252 0.547,-0.88 0.542,-0.507 0.331,-0.169 0,0"
         style="fill:#31353a;fill-opacity:1;fill-rule:nonzero;stroke:none"
         id="path4738"
         inkscape:connector-curvature="0" />
    </g>
    <g
       id="g4740"
       transform="matrix(1.4989891,0,0,-1.4989891,46.923051,33.008011)">
      <path
         d="m 0,0 -2.812,1.382 -2.142,-1.155 2.344,-1.145 -12.843,-6.921 -12.693,6.912 2.478,1.121 -2.137,1.164 -2.947,-1.356 c -0.332,-0.167 -0.545,-0.505 -0.551,-0.877 -0.006,-0.372 0.195,-0.717 0.522,-0.895 l 14.846,-8.084 c 0.15,-0.081 0.314,-0.123 0.479,-0.123 0.163,0 0.326,0.041 0.475,0.121 L 0.021,-1.771 C 0.349,-1.596 0.552,-1.252 0.547,-0.88 0.542,-0.507 0.331,-0.169 0,0"
         style="fill:#31353a;fill-opacity:1;fill-rule:nonzero;stroke:none"
         id="path4742"
         inkscape:connector-curvature="0" />
    </g>
  </g>
</svg>
