<?xml version="1.0" encoding="UTF-8" standalone="no"?>
<!-- Created with Inkscape (http://www.inkscape.org/) -->

<svg
   xmlns:dc="http://purl.org/dc/elements/1.1/"
   xmlns:cc="http://creativecommons.org/ns#"
   xmlns:rdf="http://www.w3.org/1999/02/22-rdf-syntax-ns#"
   xmlns:svg="http://www.w3.org/2000/svg"
   xmlns="http://www.w3.org/2000/svg"
   xmlns:sodipodi="http://sodipodi.sourceforge.net/DTD/sodipodi-0.dtd"
   xmlns:inkscape="http://www.inkscape.org/namespaces/inkscape"
   width="48"
   height="48"
   id="svg6050"
   version="1.1"
   inkscape:version="0.91 r13725"
   viewBox="0 0 48 48"
   sodipodi:docname="diamond_gem.svg">
  <defs
     id="defs6052" />
  <sodipodi:namedview
     id="base"
     pagecolor="#ffffff"
     bordercolor="#666666"
     borderopacity="1.0"
     inkscape:pageopacity="0.0"
     inkscape:pageshadow="2"
     inkscape:zoom="7"
     inkscape:cx="30.437678"
     inkscape:cy="23.054"
     inkscape:current-layer="layer1"
     showgrid="true"
     inkscape:grid-bbox="true"
     inkscape:document-units="px"
     inkscape:window-width="1086"
     inkscape:window-height="1001"
     inkscape:window-x="772"
     inkscape:window-y="0"
     inkscape:window-maximized="0" />
  <metadata
     id="metadata6055">
    <rdf:RDF>
      <cc:Work
         rdf:about="">
        <dc:format>image/svg+xml</dc:format>
        <dc:type
           rdf:resource="http://purl.org/dc/dcmitype/StillImage" />
        <dc:title></dc:title>
      </cc:Work>
    </rdf:RDF>
  </metadata>
  <g
     id="layer1"
     inkscape:label="Layer 1"
     inkscape:groupmode="layer">
    <g
       id="g4456"
       transform="matrix(1.4987493,0,0,-1.4987493,38.987455,0.00555126)">
      <path
         d="m 0,0 -20,0 c -0.55,0 -1.211,-0.397 -1.47,-0.883 l -4.359,-8.196 c -0.259,-0.485 -0.207,-1.248 0.113,-1.695 l 15.001,-20.911 c 0.161,-0.225 0.375,-0.338 0.589,-0.338 0.212,0 0.424,0.11 0.586,0.331 l 15.247,20.757 c 0.325,0.444 0.383,1.205 0.128,1.692 L 1.464,-0.886 C 1.209,-0.398 0.55,0 0,0 M -0.21,-2 3.948,-9.951 -10.113,-29.094 -23.95,-9.805 -19.799,-2 -0.21,-2"
         style="fill:#31353a;fill-opacity:1;fill-rule:nonzero;stroke:none"
         id="path4458"
         inkscape:connector-curvature="0" />
    </g>
    <path
       d="m 45.169795,16.488197 -43.4637291,0 0,-2.997499 43.4637291,0 0,2.997499 z"
       style="fill:#31353a;fill-opacity:1;fill-rule:nonzero;stroke:none"
       id="path4460"
       inkscape:connector-curvature="0" />
    <g
       id="g4462"
       transform="matrix(1.4987493,0,0,-1.4987493,22.390065,44.688507)">
      <path
         d="M 0,0 -9.375,28.25 -7.477,28.881 1.898,0.631 0,0 Z"
         style="fill:#31353a;fill-opacity:1;fill-rule:nonzero;stroke:none"
         id="path4464"
         inkscape:connector-curvature="0" />
    </g>
    <g
       id="g4466"
       transform="matrix(1.4987493,0,0,-1.4987493,25.342122,44.370928)">
      <path
         d="M 0,0 -1.889,0.66 8.16,29.434 10.049,28.773 0,0 Z"
         style="fill:#31353a;fill-opacity:1;fill-rule:nonzero;stroke:none"
         id="path4468"
         inkscape:connector-curvature="0" />
    </g>
    <g
       id="g4470"
       transform="matrix(1.4987493,0,0,-1.4987493,15.737776,15.846276)">
      <path
         d="m 0,0 -1.641,1.143 6.267,9.001 c 0.182,0.261 0.476,0.42 0.794,0.429 0.306,-0.005 0.621,-0.135 0.816,-0.386 L 12.97,1.518 11.39,0.291 5.49,7.887 0,0 Z"
         style="fill:#31353a;fill-opacity:1;fill-rule:nonzero;stroke:none"
         id="path4472"
         inkscape:connector-curvature="0" />
    </g>
  </g>
</svg>
