<?xml version="1.0" encoding="UTF-8" standalone="no"?>
<!-- Created with Inkscape (http://www.inkscape.org/) -->

<svg
   xmlns:dc="http://purl.org/dc/elements/1.1/"
   xmlns:cc="http://creativecommons.org/ns#"
   xmlns:rdf="http://www.w3.org/1999/02/22-rdf-syntax-ns#"
   xmlns:svg="http://www.w3.org/2000/svg"
   xmlns="http://www.w3.org/2000/svg"
   xmlns:sodipodi="http://sodipodi.sourceforge.net/DTD/sodipodi-0.dtd"
   xmlns:inkscape="http://www.inkscape.org/namespaces/inkscape"
   width="48"
   height="48"
   id="svg6050"
   version="1.1"
   inkscape:version="0.91 r13725"
   viewBox="0 0 48 48"
   sodipodi:docname="dowload.svg">
  <defs
     id="defs6052" />
  <sodipodi:namedview
     id="base"
     pagecolor="#ffffff"
     bordercolor="#666666"
     borderopacity="1.0"
     inkscape:pageopacity="0.0"
     inkscape:pageshadow="2"
     inkscape:zoom="7"
     inkscape:cx="30.437678"
     inkscape:cy="23.054"
     inkscape:current-layer="layer1"
     showgrid="true"
     inkscape:grid-bbox="true"
     inkscape:document-units="px"
     inkscape:window-width="1086"
     inkscape:window-height="1001"
     inkscape:window-x="772"
     inkscape:window-y="0"
     inkscape:window-maximized="0" />
  <metadata
     id="metadata6055">
    <rdf:RDF>
      <cc:Work
         rdf:about="">
        <dc:format>image/svg+xml</dc:format>
        <dc:type
           rdf:resource="http://purl.org/dc/dcmitype/StillImage" />
        <dc:title></dc:title>
      </cc:Work>
    </rdf:RDF>
  </metadata>
  <g
     id="layer1"
     inkscape:label="Layer 1"
     inkscape:groupmode="layer">
    <g
       id="g3438"
       transform="matrix(1.5007035,0,0,-1.5007035,36.171456,39.189214)">
      <path
         d="m 0,0 0,0 c -0.552,0 -1,0.447 -1,1 0,0.553 0.448,1 1,1 l 0.285,0 c 3.421,0 5.679,3.798 5.679,7.206 0,3.745 -3.258,6.759 -6.972,6.837 l -0.721,0.016 -0.214,0.688 c -1.032,3.338 -3.264,5.295 -7.236,5.295 -4.955,0 -8.161,-3.674 -8.161,-8.545 l 0.008,-0.012 0.081,-0.917 -0.908,-0.156 c -2.212,-0.38 -3.975,-2.648 -3.975,-5.163 0,-2.846 2.204,-5.249 4.776,-5.249 l 0.889,0 c 0.552,0 1,-0.447 1,-1 0,-0.553 -0.448,-1 -1,-1 l -0.889,0 c -3.656,0 -6.745,3.319 -6.745,7.249 0,3.21 2.006,6.044 4.784,6.933 0.347,5.582 4.378,9.86 10.14,9.86 4.529,0 7.527,-2.344 8.922,-6.045 C 4.265,17.511 7.882,13.822 7.882,9.206 7.882,4.912 5,0.135 0,0.003 L 0,0 Z"
         style="fill:#31353a;fill-opacity:1;fill-rule:nonzero;stroke:none"
         id="path3440"
         inkscape:connector-curvature="0" />
    </g>
    <g
       id="g3442"
       transform="matrix(1.5007035,0,0,-1.5007035,23.978985,41.667188)">
      <path
         d="m 0,0 3.21,3.54 c 0.279,0.292 0.732,0.292 1.011,0 L 4.473,3.339 c 0.279,-0.293 0.279,-0.641 0,-0.933 L 0.772,-1.648 C 0.767,-1.654 0.765,-1.66 0.76,-1.665 L 0.507,-1.93 C 0.368,-2.076 0.184,-2.148 0,-2.148 c -0.184,0 -0.368,0.072 -0.509,0.218 l -0.253,0.265 c -0.005,0.005 -0.005,0.011 -0.01,0.017 l -3.61,3.992 c -0.279,0.292 -0.279,0.764 0,1.057 L -4.13,3.54 c 0.279,0.292 0.733,0.229 1.012,-0.063 L 0,0 Z"
         style="fill:#31353a;fill-opacity:1;fill-rule:evenodd;stroke:none"
         id="path3444"
         inkscape:connector-curvature="0" />
    </g>
    <g
       id="g3446"
       transform="matrix(1.5007035,0,0,-1.5007035,23.994448,23.387707)">
      <path
         d="m 0,0 c 0.552,0 1,-0.448 1,-1 l 0,-11 c 0,-0.552 -0.448,-1 -1,-1 -0.552,0 -1,0.448 -1,1 l 0,11 c 0,0.552 0.448,1 1,1"
         style="fill:#31353a;fill-opacity:1;fill-rule:evenodd;stroke:none"
         id="path3448"
         inkscape:connector-curvature="0" />
    </g>
  </g>
</svg>
