<?xml version="1.0" encoding="UTF-8" standalone="no"?>
<!-- Created with Inkscape (http://www.inkscape.org/) -->

<svg
   xmlns:dc="http://purl.org/dc/elements/1.1/"
   xmlns:cc="http://creativecommons.org/ns#"
   xmlns:rdf="http://www.w3.org/1999/02/22-rdf-syntax-ns#"
   xmlns:svg="http://www.w3.org/2000/svg"
   xmlns="http://www.w3.org/2000/svg"
   xmlns:sodipodi="http://sodipodi.sourceforge.net/DTD/sodipodi-0.dtd"
   xmlns:inkscape="http://www.inkscape.org/namespaces/inkscape"
   width="48"
   height="48"
   id="svg6050"
   version="1.1"
   inkscape:version="0.91 r13725"
   viewBox="0 0 48 48"
   sodipodi:docname="envelope.svg">
  <defs
     id="defs6052" />
  <sodipodi:namedview
     id="base"
     pagecolor="#ffffff"
     bordercolor="#666666"
     borderopacity="1.0"
     inkscape:pageopacity="0.0"
     inkscape:pageshadow="2"
     inkscape:zoom="7"
     inkscape:cx="30.437678"
     inkscape:cy="23.054"
     inkscape:current-layer="layer1"
     showgrid="true"
     inkscape:grid-bbox="true"
     inkscape:document-units="px"
     inkscape:window-width="1086"
     inkscape:window-height="1001"
     inkscape:window-x="772"
     inkscape:window-y="0"
     inkscape:window-maximized="0" />
  <metadata
     id="metadata6055">
    <rdf:RDF>
      <cc:Work
         rdf:about="">
        <dc:format>image/svg+xml</dc:format>
        <dc:type
           rdf:resource="http://purl.org/dc/dcmitype/StillImage" />
        <dc:title></dc:title>
      </cc:Work>
    </rdf:RDF>
  </metadata>
  <g
     id="layer1"
     inkscape:label="Layer 1"
     inkscape:groupmode="layer">
    <g
       id="g3590"
       transform="matrix(1.5,0,0,-1.5,44.25,7.5)">
      <path
         d="m 0,0 -26,0 c -1.657,0 -3.5,-0.843 -3.5,-2.5 l 0,-16 c 0,-1.657 1.843,-3.5 3.5,-3.5 l 26,0 c 1.657,0 2.5,1.843 2.5,3.5 l 0,16 C 2.5,-0.843 1.657,0 0,0 m 0,-2 c 0.552,0 0.5,0.051 0.5,-0.5 l 0,-16 C 0.5,-19.052 0.552,-20 0,-20 l -26,0 c -0.551,0 -1.5,0.948 -1.5,1.5 l 0,16 c 0,0.551 0.949,0.5 1.5,0.5 l 25.5,0"
         style="fill:#31353a;fill-opacity:1;fill-rule:nonzero;stroke:none"
         id="path3592"
         inkscape:connector-curvature="0" />
    </g>
    <g
       id="g3594"
       transform="matrix(1.5,0,0,-1.5,24.000156,30.1407)">
      <path
         d="m 0,0 c -0.233,0 -0.467,0.081 -0.655,0.244 l -15,12 c -0.417,0.362 -0.462,0.994 -0.101,1.411 0.362,0.418 0.994,0.462 1.411,0.101 L 0,2.323 14.345,13.756 c 0.417,0.36 1.047,0.317 1.411,-0.101 0.361,-0.417 0.316,-1.049 -0.101,-1.411 l -15,-12 C 0.467,0.081 0.233,0 0,0"
         style="fill:#31353a;fill-opacity:1;fill-rule:nonzero;stroke:none"
         id="path3596"
         inkscape:connector-curvature="0" />
    </g>
  </g>
</svg>
