<?xml version="1.0" encoding="UTF-8" standalone="no"?>
<!-- Created with Inkscape (http://www.inkscape.org/) -->

<svg
   xmlns:dc="http://purl.org/dc/elements/1.1/"
   xmlns:cc="http://creativecommons.org/ns#"
   xmlns:rdf="http://www.w3.org/1999/02/22-rdf-syntax-ns#"
   xmlns:svg="http://www.w3.org/2000/svg"
   xmlns="http://www.w3.org/2000/svg"
   xmlns:sodipodi="http://sodipodi.sourceforge.net/DTD/sodipodi-0.dtd"
   xmlns:inkscape="http://www.inkscape.org/namespaces/inkscape"
   width="48"
   height="48"
   id="svg6050"
   version="1.1"
   inkscape:version="0.91 r13725"
   viewBox="0 0 48 48"
   sodipodi:docname="expand.svg">
  <defs
     id="defs6052" />
  <sodipodi:namedview
     id="base"
     pagecolor="#ffffff"
     bordercolor="#666666"
     borderopacity="1.0"
     inkscape:pageopacity="0.0"
     inkscape:pageshadow="2"
     inkscape:zoom="7"
     inkscape:cx="30.437678"
     inkscape:cy="23.054"
     inkscape:current-layer="layer1"
     showgrid="true"
     inkscape:grid-bbox="true"
     inkscape:document-units="px"
     inkscape:window-width="1086"
     inkscape:window-height="1001"
     inkscape:window-x="772"
     inkscape:window-y="0"
     inkscape:window-maximized="0" />
  <metadata
     id="metadata6055">
    <rdf:RDF>
      <cc:Work
         rdf:about="">
        <dc:format>image/svg+xml</dc:format>
        <dc:type
           rdf:resource="http://purl.org/dc/dcmitype/StillImage" />
        <dc:title></dc:title>
      </cc:Work>
    </rdf:RDF>
  </metadata>
  <g
     id="layer1"
     inkscape:label="Layer 1"
     inkscape:groupmode="layer">
    <g
       id="g3996"
       transform="matrix(1.4982628,0,0,-1.4982628,47.330825,0.7549805)">
      <path
         d="m 0,0 c 0.391,-0.391 0.391,-1.024 0,-1.414 l -10.137,-10.075 c -0.391,-0.39 -1.024,-0.39 -1.414,0 -0.391,0.391 -0.391,1.024 0,1.414 L -1.414,0 C -1.024,0.391 -0.391,0.391 0,0"
         style="fill:#31353a;fill-opacity:1;fill-rule:evenodd;stroke:none"
         id="path3998"
         inkscape:connector-curvature="0" />
    </g>
    <g
       id="g4000"
       transform="matrix(1.4982628,0,0,-1.4982628,45.042079,3.0921145)">
      <path
         d="m 0,0 -6.179,0.017 c -0.404,-0.009 -0.779,0.269 -0.84,0.746 l 0.001,0.513 c 0.01,0.404 0.344,0.739 0.748,0.748 L 0.901,1.992 c 0.008,0.001 0.014,0.004 0.02,0.004 L 1.287,2.004 C 1.489,2.01 1.671,1.93 1.8,1.8 1.931,1.67 1.978,1.489 1.974,1.286 L 1.935,0.92 c 0,-0.007 0.027,-0.012 0.027,-0.019 L 1.941,-6.318 C 1.932,-6.722 1.598,-6.963 1.193,-6.972 L 0.68,-6.973 C 0.276,-6.982 -0.044,-6.63 -0.035,-6.226 L 0,0 Z"
         style="fill:#31353a;fill-opacity:1;fill-rule:evenodd;stroke:none"
         id="path4002"
         inkscape:connector-curvature="0" />
    </g>
    <g
       id="g4004"
       transform="matrix(1.4982628,0,0,-1.4982628,0.66905018,47.245163)">
      <path
         d="m 0,0 c -0.391,0.391 -0.391,1.024 0,1.414 l 10.169,10.075 c 0.39,0.39 1.023,0.39 1.414,0 0.39,-0.39 0.39,-1.024 0,-1.414 L 1.445,0 C 1.055,-0.391 0.391,-0.391 0,0"
         style="fill:#31353a;fill-opacity:1;fill-rule:evenodd;stroke:none"
         id="path4006"
         inkscape:connector-curvature="0" />
    </g>
    <g
       id="g4008"
       transform="matrix(1.4982628,0,0,-1.4982628,3.0045425,44.907885)">
      <path
         d="m 0,0 6.179,-0.017 c 0.404,0.009 0.779,-0.269 0.84,-0.746 L 7.018,-1.276 C 7.009,-1.681 6.674,-2.015 6.27,-2.024 l -7.203,0.032 C -0.94,-1.993 -0.946,-1.996 -0.953,-1.996 L -1.319,-2.004 C -1.52,-2.01 -1.702,-1.93 -1.831,-1.8 c -0.131,0.13 -0.179,0.311 -0.174,0.514 l 0.039,0.366 c 0,0.007 -0.027,0.012 -0.027,0.019 l 0.021,7.219 c 0.008,0.404 0.343,0.645 0.747,0.654 L -0.68,6.973 C -0.276,6.982 0.044,6.63 0.035,6.226 L 0,0 Z"
         style="fill:#31353a;fill-opacity:1;fill-rule:evenodd;stroke:none"
         id="path4010"
         inkscape:connector-curvature="0" />
    </g>
    <g
       id="g4012"
       transform="matrix(1.4982628,0,0,-1.4982628,47.330825,47.245163)">
      <path
         d="m 0,0 c 0.391,0.391 0.391,1.024 0,1.414 l -10.137,10.075 c -0.391,0.39 -1.024,0.39 -1.414,0 -0.391,-0.39 -0.391,-1.024 0,-1.414 L -1.414,0 C -1.024,-0.391 -0.391,-0.391 0,0"
         style="fill:#31353a;fill-opacity:1;fill-rule:evenodd;stroke:none"
         id="path4014"
         inkscape:connector-curvature="0" />
    </g>
    <g
       id="g4016"
       transform="matrix(1.4982628,0,0,-1.4982628,45.042079,44.907885)">
      <path
         d="m 0,0 -6.179,-0.017 c -0.404,0.009 -0.779,-0.269 -0.84,-0.746 l 0.001,-0.513 c 0.01,-0.405 0.344,-0.739 0.748,-0.748 l 7.171,0.032 c 0.008,-0.001 0.014,-0.004 0.02,-0.004 L 1.287,-2.004 C 1.489,-2.01 1.671,-1.93 1.8,-1.8 c 0.131,0.13 0.178,0.311 0.174,0.514 L 1.935,-0.92 c 0,0.007 0.027,0.012 0.027,0.019 L 1.941,6.318 C 1.932,6.722 1.598,6.963 1.193,6.972 L 0.68,6.973 C 0.276,6.982 -0.044,6.63 -0.035,6.226 L 0,0 Z"
         style="fill:#31353a;fill-opacity:1;fill-rule:evenodd;stroke:none"
         id="path4018"
         inkscape:connector-curvature="0" />
    </g>
    <g
       id="g4020"
       transform="matrix(1.4982628,0,0,-1.4982628,0.66905018,0.7549805)">
      <path
         d="m 0,0 c -0.391,-0.391 -0.391,-1.024 0,-1.414 l 10.169,-10.075 c 0.39,-0.39 1.023,-0.39 1.414,0 0.39,0.391 0.39,1.024 0,1.414 L 1.445,0 C 1.055,0.391 0.391,0.391 0,0"
         style="fill:#31353a;fill-opacity:1;fill-rule:evenodd;stroke:none"
         id="path4022"
         inkscape:connector-curvature="0" />
    </g>
    <g
       id="g4024"
       transform="matrix(1.4982628,0,0,-1.4982628,3.0045425,3.0921145)">
      <path
         d="M 0,0 6.179,0.017 C 6.583,0.008 6.958,0.286 7.019,0.763 L 7.018,1.276 C 7.009,1.68 6.674,2.015 6.27,2.024 L -0.933,1.992 C -0.94,1.993 -0.946,1.996 -0.953,1.996 L -1.319,2.004 C -1.52,2.01 -1.702,1.93 -1.831,1.8 -1.962,1.67 -2.01,1.489 -2.005,1.286 L -1.966,0.92 c 0,-0.007 -0.027,-0.012 -0.027,-0.019 l 0.021,-7.219 c 0.008,-0.404 0.343,-0.645 0.747,-0.654 l 0.545,-10e-4 c 0.404,-0.009 0.724,0.343 0.715,0.747 L 0,0 Z"
         style="fill:#31353a;fill-opacity:1;fill-rule:evenodd;stroke:none"
         id="path4026"
         inkscape:connector-curvature="0" />
    </g>
    <g
       id="g5670"
       transform="matrix(1.4982628,0,0,-1.4982628,47.330825,0.7549805)">
      <path
         d="m 0,0 c 0.391,-0.391 0.391,-1.024 0,-1.414 l -10.137,-10.075 c -0.391,-0.39 -1.024,-0.39 -1.414,0 -0.391,0.391 -0.391,1.024 0,1.414 L -1.414,0 C -1.024,0.391 -0.391,0.391 0,0"
         style="fill:#31353a;fill-opacity:1;fill-rule:evenodd;stroke:none"
         id="path5672"
         inkscape:connector-curvature="0" />
    </g>
    <g
       id="g5674"
       transform="matrix(1.4982628,0,0,-1.4982628,45.042079,3.0921145)">
      <path
         d="m 0,0 -6.179,0.017 c -0.404,-0.009 -0.779,0.269 -0.84,0.746 l 0.001,0.513 c 0.01,0.404 0.344,0.739 0.748,0.748 L 0.901,1.992 c 0.008,0.001 0.014,0.004 0.02,0.004 L 1.287,2.004 C 1.489,2.01 1.671,1.93 1.8,1.8 1.931,1.67 1.978,1.489 1.974,1.286 L 1.935,0.92 c 0,-0.007 0.027,-0.012 0.027,-0.019 L 1.941,-6.318 C 1.932,-6.722 1.598,-6.963 1.193,-6.972 L 0.68,-6.973 C 0.276,-6.982 -0.044,-6.63 -0.035,-6.226 L 0,0 Z"
         style="fill:#31353a;fill-opacity:1;fill-rule:evenodd;stroke:none"
         id="path5676"
         inkscape:connector-curvature="0" />
    </g>
    <g
       id="g5678"
       transform="matrix(1.4982628,0,0,-1.4982628,0.66905018,47.245163)">
      <path
         d="m 0,0 c -0.391,0.391 -0.391,1.024 0,1.414 l 10.169,10.075 c 0.39,0.39 1.023,0.39 1.414,0 0.39,-0.39 0.39,-1.024 0,-1.414 L 1.445,0 C 1.055,-0.391 0.391,-0.391 0,0"
         style="fill:#31353a;fill-opacity:1;fill-rule:evenodd;stroke:none"
         id="path5680"
         inkscape:connector-curvature="0" />
    </g>
    <g
       id="g5682"
       transform="matrix(1.4982628,0,0,-1.4982628,3.0045425,44.907885)">
      <path
         d="m 0,0 6.179,-0.017 c 0.404,0.009 0.779,-0.269 0.84,-0.746 L 7.018,-1.276 C 7.009,-1.681 6.674,-2.015 6.27,-2.024 l -7.203,0.032 C -0.94,-1.993 -0.946,-1.996 -0.953,-1.996 L -1.319,-2.004 C -1.52,-2.01 -1.702,-1.93 -1.831,-1.8 c -0.131,0.13 -0.179,0.311 -0.174,0.514 l 0.039,0.366 c 0,0.007 -0.027,0.012 -0.027,0.019 l 0.021,7.219 c 0.008,0.404 0.343,0.645 0.747,0.654 L -0.68,6.973 C -0.276,6.982 0.044,6.63 0.035,6.226 L 0,0 Z"
         style="fill:#31353a;fill-opacity:1;fill-rule:evenodd;stroke:none"
         id="path5684"
         inkscape:connector-curvature="0" />
    </g>
    <g
       id="g5686"
       transform="matrix(1.4982628,0,0,-1.4982628,47.330825,47.245163)">
      <path
         d="m 0,0 c 0.391,0.391 0.391,1.024 0,1.414 l -10.137,10.075 c -0.391,0.39 -1.024,0.39 -1.414,0 -0.391,-0.39 -0.391,-1.024 0,-1.414 L -1.414,0 C -1.024,-0.391 -0.391,-0.391 0,0"
         style="fill:#31353a;fill-opacity:1;fill-rule:evenodd;stroke:none"
         id="path5688"
         inkscape:connector-curvature="0" />
    </g>
    <g
       id="g5690"
       transform="matrix(1.4982628,0,0,-1.4982628,45.042079,44.907885)">
      <path
         d="m 0,0 -6.179,-0.017 c -0.404,0.009 -0.779,-0.269 -0.84,-0.746 l 0.001,-0.513 c 0.01,-0.405 0.344,-0.739 0.748,-0.748 l 7.171,0.032 c 0.008,-0.001 0.014,-0.004 0.02,-0.004 L 1.287,-2.004 C 1.489,-2.01 1.671,-1.93 1.8,-1.8 c 0.131,0.13 0.178,0.311 0.174,0.514 L 1.935,-0.92 c 0,0.007 0.027,0.012 0.027,0.019 L 1.941,6.318 C 1.932,6.722 1.598,6.963 1.193,6.972 L 0.68,6.973 C 0.276,6.982 -0.044,6.63 -0.035,6.226 L 0,0 Z"
         style="fill:#31353a;fill-opacity:1;fill-rule:evenodd;stroke:none"
         id="path5692"
         inkscape:connector-curvature="0" />
    </g>
    <g
       id="g5694"
       transform="matrix(1.4982628,0,0,-1.4982628,0.66905018,0.7549805)">
      <path
         d="m 0,0 c -0.391,-0.391 -0.391,-1.024 0,-1.414 l 10.169,-10.075 c 0.39,-0.39 1.023,-0.39 1.414,0 0.39,0.391 0.39,1.024 0,1.414 L 1.445,0 C 1.055,0.391 0.391,0.391 0,0"
         style="fill:#31353a;fill-opacity:1;fill-rule:evenodd;stroke:none"
         id="path5696"
         inkscape:connector-curvature="0" />
    </g>
    <g
       id="g5698"
       transform="matrix(1.4982628,0,0,-1.4982628,3.0045425,3.0921145)">
      <path
         d="M 0,0 6.179,0.017 C 6.583,0.008 6.958,0.286 7.019,0.763 L 7.018,1.276 C 7.009,1.68 6.674,2.015 6.27,2.024 L -0.933,1.992 C -0.94,1.993 -0.946,1.996 -0.953,1.996 L -1.319,2.004 C -1.52,2.01 -1.702,1.93 -1.831,1.8 -1.962,1.67 -2.01,1.489 -2.005,1.286 L -1.966,0.92 c 0,-0.007 -0.027,-0.012 -0.027,-0.019 l 0.021,-7.219 c 0.008,-0.404 0.343,-0.645 0.747,-0.654 l 0.545,-10e-4 c 0.404,-0.009 0.724,0.343 0.715,0.747 L 0,0 Z"
         style="fill:#31353a;fill-opacity:1;fill-rule:evenodd;stroke:none"
         id="path5700"
         inkscape:connector-curvature="0" />
    </g>
  </g>
</svg>
