<?xml version="1.0" encoding="UTF-8" standalone="no"?>
<!-- Created with Inkscape (http://www.inkscape.org/) -->

<svg
   xmlns:dc="http://purl.org/dc/elements/1.1/"
   xmlns:cc="http://creativecommons.org/ns#"
   xmlns:rdf="http://www.w3.org/1999/02/22-rdf-syntax-ns#"
   xmlns:svg="http://www.w3.org/2000/svg"
   xmlns="http://www.w3.org/2000/svg"
   xmlns:sodipodi="http://sodipodi.sourceforge.net/DTD/sodipodi-0.dtd"
   xmlns:inkscape="http://www.inkscape.org/namespaces/inkscape"
   width="48"
   height="48"
   id="svg6050"
   version="1.1"
   inkscape:version="0.91 r13725"
   viewBox="0 0 48 48"
   sodipodi:docname="files.svg">
  <defs
     id="defs6052" />
  <sodipodi:namedview
     id="base"
     pagecolor="#ffffff"
     bordercolor="#666666"
     borderopacity="1.0"
     inkscape:pageopacity="0.0"
     inkscape:pageshadow="2"
     inkscape:zoom="7"
     inkscape:cx="30.437678"
     inkscape:cy="23.054"
     inkscape:current-layer="layer1"
     showgrid="true"
     inkscape:grid-bbox="true"
     inkscape:document-units="px"
     inkscape:window-width="1086"
     inkscape:window-height="1001"
     inkscape:window-x="772"
     inkscape:window-y="0"
     inkscape:window-maximized="0" />
  <metadata
     id="metadata6055">
    <rdf:RDF>
      <cc:Work
         rdf:about="">
        <dc:format>image/svg+xml</dc:format>
        <dc:type
           rdf:resource="http://purl.org/dc/dcmitype/StillImage" />
        <dc:title></dc:title>
      </cc:Work>
    </rdf:RDF>
  </metadata>
  <g
     id="layer1"
     inkscape:label="Layer 1"
     inkscape:groupmode="layer">
    <g
       id="g4800"
       transform="matrix(1.5000094,0,0,-1.5000094,36.000075,4.2420267)">
      <path
         d="m 0,0 0,-5.172 5.171,0 L 0,0 Z m 6,-25.172 -7,0 0,2 7,0 0,16 -8,0 0,8 -9,0 -2,0 c 0,1.105 0.896,2 2,2 l 11,0 8,-8 0,-18 c 0,-1.104 -0.896,-2 -2,-2"
         style="fill:#31353a;fill-opacity:1;fill-rule:evenodd;stroke:none"
         id="path4802"
         inkscape:connector-curvature="0" />
    </g>
    <g
       id="g4804"
       transform="matrix(1.5000094,0,0,-1.5000094,19.499972,5.9997367)">
      <path
         d="m 0,0 -11,0 c -1.104,0 -2,-0.896 -2,-2 l 0,-24 c 0,-1.104 0.896,-2 2,-2 l 17,0 c 1.104,0 2,0.896 2,2 L 8,-8 0,0 Z M -0.828,-2 6,-8.829 6,-26 l -17,0 0,24 10.172,0"
         style="fill:#31353a;fill-opacity:1;fill-rule:nonzero;stroke:none"
         id="path4806"
         inkscape:connector-curvature="0" />
    </g>
    <g
       id="g4808"
       transform="matrix(1.5000094,0,0,-1.5000094,30.000038,20.999831)">
      <path
         d="m 0,0 -9,0 0,9 2,0 0,-7 7,0 0,-2 z"
         style="fill:#31353a;fill-opacity:1;fill-rule:nonzero;stroke:none"
         id="path4810"
         inkscape:connector-curvature="0" />
    </g>
  </g>
</svg>
