<?xml version="1.0" encoding="UTF-8" standalone="no"?>
<!-- Created with Inkscape (http://www.inkscape.org/) -->

<svg
   xmlns:dc="http://purl.org/dc/elements/1.1/"
   xmlns:cc="http://creativecommons.org/ns#"
   xmlns:rdf="http://www.w3.org/1999/02/22-rdf-syntax-ns#"
   xmlns:svg="http://www.w3.org/2000/svg"
   xmlns="http://www.w3.org/2000/svg"
   xmlns:sodipodi="http://sodipodi.sourceforge.net/DTD/sodipodi-0.dtd"
   xmlns:inkscape="http://www.inkscape.org/namespaces/inkscape"
   width="48"
   height="48"
   id="svg6050"
   version="1.1"
   inkscape:version="0.91 r13725"
   viewBox="0 0 48 48"
   sodipodi:docname="finger_up.svg">
  <defs
     id="defs6052" />
  <sodipodi:namedview
     id="base"
     pagecolor="#ffffff"
     bordercolor="#666666"
     borderopacity="1.0"
     inkscape:pageopacity="0.0"
     inkscape:pageshadow="2"
     inkscape:zoom="7"
     inkscape:cx="30.437678"
     inkscape:cy="23.054"
     inkscape:current-layer="layer1"
     showgrid="true"
     inkscape:grid-bbox="true"
     inkscape:document-units="px"
     inkscape:window-width="1086"
     inkscape:window-height="1001"
     inkscape:window-x="772"
     inkscape:window-y="0"
     inkscape:window-maximized="0" />
  <metadata
     id="metadata6055">
    <rdf:RDF>
      <cc:Work
         rdf:about="">
        <dc:format>image/svg+xml</dc:format>
        <dc:type
           rdf:resource="http://purl.org/dc/dcmitype/StillImage" />
        <dc:title></dc:title>
      </cc:Work>
    </rdf:RDF>
  </metadata>
  <g
     id="layer1"
     inkscape:label="Layer 1"
     inkscape:groupmode="layer">
    <g
       id="g4264"
       transform="matrix(1.4979759,0,0,-1.4979759,5.1635235,41.543545)">
      <path
         d="m 0,0 c 3.584,-0.296 5.5,-0.698 6.51,-1.459 0.783,-0.589 0.662,-0.822 9.082,-0.822 2.568,0 7.59,0.107 7.975,1.87 0.153,0.705 -0.59,1.398 -0.593,1.403 -0.203,0.501 0.024,1.089 0.519,1.306 0.008,0.004 2.004,0.72 2.05,1.835 0.029,0.714 -0.46,1.143 -0.472,1.16 -0.291,0.452 -0.185,1.072 0.257,1.38 0.005,0.004 1.299,0.788 1.267,1.857 -0.024,0.849 -1.143,1.447 -1.177,1.466 -0.25,0.144 -0.432,0.391 -0.489,0.674 -0.056,0.283 0.007,0.579 0.183,0.808 0,0 0.508,0.809 0.49,1.566 -0.037,1.623 -1.782,1.674 -2.156,1.674 -2.522,0 -9.001,-0.026 -9.001,-0.026 -0.349,-10e-4 -0.651,0.164 -0.839,0.443 -0.188,0.279 -0.202,0.627 -0.092,0.944 0.977,2.814 1.523,7.228 0.617,8.736 -0.267,0.444 -0.328,0.889 -1.328,0.889 -0.139,0 -0.469,-0.11 -0.813,-0.93 C 8.647,16.779 3.656,12.155 -0.432,11.738 -0.784,10.933 -1.447,9.268 -1.447,6.244 -1.447,3.159 -0.47,0.772 0,0 m 15.592,-4.281 c -9.089,0 -9.159,0.377 -10.285,1.225 -0.597,0.449 -1.723,0.76 -5.838,1.028 -0.298,0.019 -0.582,0.134 -0.773,0.365 -0.087,0.106 -2.143,3.105 -2.143,7.907 0,4.733 1.471,6.89 1.534,6.991 0.183,0.292 0.503,0.469 0.848,0.469 3.378,0 8.062,4.313 11.211,11.841 0.544,1.302 0.657,2.159 2.657,2.159 1.137,0 2.413,-0.815 3.042,-1.86 1.291,-2.134 0.636,-6.72 0.029,-9.171 2.062,0.017 5.796,0.045 7.572,0.045 2.472,0 4.106,-1.474 4.156,-3.628 0.017,-0.711 -0.077,-1.619 -0.283,-2.088 0.544,-0.543 1.246,-1.361 1.276,-2.415 0.039,-1.359 -0.852,-2.395 -1.42,-2.989 0.13,-0.396 0.391,-0.92 0.366,-1.547 C 27.478,2.509 26.288,1.515 25.546,0.996 25.607,0.574 25.655,-0.221 25.52,-0.837 24.985,-3.294 21.383,-4.281 15.592,-4.281"
         style="fill:#31353a;fill-opacity:1;fill-rule:nonzero;stroke:none"
         id="path4266"
         inkscape:connector-curvature="0" />
    </g>
    <g
       id="g5938"
       transform="matrix(1.4979759,0,0,-1.4979759,5.1635235,41.543545)">
      <path
         d="m 0,0 c 3.584,-0.296 5.5,-0.698 6.51,-1.459 0.783,-0.589 0.662,-0.822 9.082,-0.822 2.568,0 7.59,0.107 7.975,1.87 0.153,0.705 -0.59,1.398 -0.593,1.403 -0.203,0.501 0.024,1.089 0.519,1.306 0.008,0.004 2.004,0.72 2.05,1.835 0.029,0.714 -0.46,1.143 -0.472,1.16 -0.291,0.452 -0.185,1.072 0.257,1.38 0.005,0.004 1.299,0.788 1.267,1.857 -0.024,0.849 -1.143,1.447 -1.177,1.466 -0.25,0.144 -0.432,0.391 -0.489,0.674 -0.056,0.283 0.007,0.579 0.183,0.808 0,0 0.508,0.809 0.49,1.566 -0.037,1.623 -1.782,1.674 -2.156,1.674 -2.522,0 -9.001,-0.026 -9.001,-0.026 -0.349,-10e-4 -0.651,0.164 -0.839,0.443 -0.188,0.279 -0.202,0.627 -0.092,0.944 0.977,2.814 1.523,7.228 0.617,8.736 -0.267,0.444 -0.328,0.889 -1.328,0.889 -0.139,0 -0.469,-0.11 -0.813,-0.93 C 8.647,16.779 3.656,12.155 -0.432,11.738 -0.784,10.933 -1.447,9.268 -1.447,6.244 -1.447,3.159 -0.47,0.772 0,0 m 15.592,-4.281 c -9.089,0 -9.159,0.377 -10.285,1.225 -0.597,0.449 -1.723,0.76 -5.838,1.028 -0.298,0.019 -0.582,0.134 -0.773,0.365 -0.087,0.106 -2.143,3.105 -2.143,7.907 0,4.733 1.471,6.89 1.534,6.991 0.183,0.292 0.503,0.469 0.848,0.469 3.378,0 8.062,4.313 11.211,11.841 0.544,1.302 0.657,2.159 2.657,2.159 1.137,0 2.413,-0.815 3.042,-1.86 1.291,-2.134 0.636,-6.72 0.029,-9.171 2.062,0.017 5.796,0.045 7.572,0.045 2.472,0 4.106,-1.474 4.156,-3.628 0.017,-0.711 -0.077,-1.619 -0.283,-2.088 0.544,-0.543 1.246,-1.361 1.276,-2.415 0.039,-1.359 -0.852,-2.395 -1.42,-2.989 0.13,-0.396 0.391,-0.92 0.366,-1.547 C 27.478,2.509 26.288,1.515 25.546,0.996 25.607,0.574 25.655,-0.221 25.52,-0.837 24.985,-3.294 21.383,-4.281 15.592,-4.281"
         style="fill:#31353a;fill-opacity:1;fill-rule:nonzero;stroke:none"
         id="path5940"
         inkscape:connector-curvature="0" />
    </g>
  </g>
</svg>
