<?xml version="1.0" encoding="UTF-8" standalone="no"?>
<!-- Created with Inkscape (http://www.inkscape.org/) -->

<svg
   xmlns:dc="http://purl.org/dc/elements/1.1/"
   xmlns:cc="http://creativecommons.org/ns#"
   xmlns:rdf="http://www.w3.org/1999/02/22-rdf-syntax-ns#"
   xmlns:svg="http://www.w3.org/2000/svg"
   xmlns="http://www.w3.org/2000/svg"
   xmlns:sodipodi="http://sodipodi.sourceforge.net/DTD/sodipodi-0.dtd"
   xmlns:inkscape="http://www.inkscape.org/namespaces/inkscape"
   width="48"
   height="48"
   id="svg6050"
   version="1.1"
   inkscape:version="0.91 r13725"
   viewBox="0 0 48 48"
   sodipodi:docname="frame_crop.svg">
  <defs
     id="defs6052" />
  <sodipodi:namedview
     id="base"
     pagecolor="#ffffff"
     bordercolor="#666666"
     borderopacity="1.0"
     inkscape:pageopacity="0.0"
     inkscape:pageshadow="2"
     inkscape:zoom="7"
     inkscape:cx="30.437678"
     inkscape:cy="23.054"
     inkscape:current-layer="layer1"
     showgrid="true"
     inkscape:grid-bbox="true"
     inkscape:document-units="px"
     inkscape:window-width="1086"
     inkscape:window-height="1001"
     inkscape:window-x="772"
     inkscape:window-y="0"
     inkscape:window-maximized="0" />
  <metadata
     id="metadata6055">
    <rdf:RDF>
      <cc:Work
         rdf:about="">
        <dc:format>image/svg+xml</dc:format>
        <dc:type
           rdf:resource="http://purl.org/dc/dcmitype/StillImage" />
        <dc:title></dc:title>
      </cc:Work>
    </rdf:RDF>
  </metadata>
  <g
     id="layer1"
     inkscape:label="Layer 1"
     inkscape:groupmode="layer">
    <g
       id="g4566"
       transform="matrix(1.5,0,0,-1.5,1.4999998,5.249928)">
      <path
         d="M 0,0 6,0 C 6.552,0 7,-0.448 7,-1 7,-1.552 6.552,-2 6,-2 l -6,0 c -0.552,0 -1,0.448 -1,1 0,0.552 0.448,1 1,1"
         style="fill:#31353a;fill-opacity:1;fill-rule:evenodd;stroke:none"
         id="path4568"
         inkscape:connector-curvature="0" />
    </g>
    <g
       id="g4570"
       transform="matrix(1.5,0,0,-1.5,2.9999999,6.749928)">
      <path
         d="m 0,0 0,-6 c 0,-0.552 -0.448,-1 -1,-1 -0.552,0 -1,0.448 -1,1 l 0,6 c 0,0.552 0.448,1 1,1 0.552,0 1,-0.448 1,-1"
         style="fill:#31353a;fill-opacity:1;fill-rule:evenodd;stroke:none"
         id="path4572"
         inkscape:connector-curvature="0" />
    </g>
    <g
       id="g4574"
       transform="matrix(1.5,0,0,-1.5,46.5,42.750072)">
      <path
         d="m 0,0 -6,0 c -0.552,0 -1,0.448 -1,1 0,0.552 0.448,1 1,1 L 0,2 C 0.552,2 1,1.552 1,1 1,0.448 0.552,0 0,0"
         style="fill:#31353a;fill-opacity:1;fill-rule:evenodd;stroke:none"
         id="path4576"
         inkscape:connector-curvature="0" />
    </g>
    <g
       id="g4578"
       transform="matrix(1.5,0,0,-1.5,45,41.250072)">
      <path
         d="M 0,0 0,6 C 0,6.552 0.448,7 1,7 1.552,7 2,6.552 2,6 L 2,0 C 2,-0.552 1.552,-1 1,-1 0.448,-1 0,-0.552 0,0"
         style="fill:#31353a;fill-opacity:1;fill-rule:evenodd;stroke:none"
         id="path4580"
         inkscape:connector-curvature="0" />
    </g>
    <g
       id="g4582"
       transform="matrix(1.5,0,0,-1.5,1.4999998,42.750072)">
      <path
         d="M 0,0 6,0 C 6.552,0 7,0.448 7,1 7,1.552 6.552,2 6,2 L 0,2 C -0.552,2 -1,1.552 -1,1 -1,0.448 -0.552,0 0,0"
         style="fill:#31353a;fill-opacity:1;fill-rule:evenodd;stroke:none"
         id="path4584"
         inkscape:connector-curvature="0" />
    </g>
    <g
       id="g4586"
       transform="matrix(1.5,0,0,-1.5,2.9999999,41.250072)">
      <path
         d="M 0,0 0,6 C 0,6.552 -0.448,7 -1,7 -1.552,7 -2,6.552 -2,6 l 0,-6 c 0,-0.552 0.448,-1 1,-1 0.552,0 1,0.448 1,1"
         style="fill:#31353a;fill-opacity:1;fill-rule:evenodd;stroke:none"
         id="path4588"
         inkscape:connector-curvature="0" />
    </g>
    <g
       id="g4590"
       transform="matrix(1.5,0,0,-1.5,46.5,5.249928)">
      <path
         d="m 0,0 -6,0 c -0.552,0 -1,-0.448 -1,-1 0,-0.552 0.448,-1 1,-1 l 6,0 c 0.552,0 1,0.448 1,1 0,0.552 -0.448,1 -1,1"
         style="fill:#31353a;fill-opacity:1;fill-rule:evenodd;stroke:none"
         id="path4592"
         inkscape:connector-curvature="0" />
    </g>
    <g
       id="g4594"
       transform="matrix(1.5,0,0,-1.5,45,6.749928)">
      <path
         d="m 0,0 0,-6 c 0,-0.552 0.448,-1 1,-1 0.552,0 1,0.448 1,1 L 2,0 C 2,0.552 1.552,1 1,1 0.448,1 0,0.552 0,0"
         style="fill:#31353a;fill-opacity:1;fill-rule:evenodd;stroke:none"
         id="path4596"
         inkscape:connector-curvature="0" />
    </g>
  </g>
</svg>
