<?xml version="1.0" encoding="UTF-8" standalone="no"?>
<!-- Created with Inkscape (http://www.inkscape.org/) -->

<svg
   xmlns:dc="http://purl.org/dc/elements/1.1/"
   xmlns:cc="http://creativecommons.org/ns#"
   xmlns:rdf="http://www.w3.org/1999/02/22-rdf-syntax-ns#"
   xmlns:svg="http://www.w3.org/2000/svg"
   xmlns="http://www.w3.org/2000/svg"
   xmlns:sodipodi="http://sodipodi.sourceforge.net/DTD/sodipodi-0.dtd"
   xmlns:inkscape="http://www.inkscape.org/namespaces/inkscape"
   width="48"
   height="48"
   id="svg6050"
   version="1.1"
   inkscape:version="0.91 r13725"
   viewBox="0 0 48 48"
   sodipodi:docname="ghost.svg">
  <defs
     id="defs6052" />
  <sodipodi:namedview
     id="base"
     pagecolor="#ffffff"
     bordercolor="#666666"
     borderopacity="1.0"
     inkscape:pageopacity="0.0"
     inkscape:pageshadow="2"
     inkscape:zoom="7"
     inkscape:cx="30.437678"
     inkscape:cy="23.054"
     inkscape:current-layer="layer1"
     showgrid="true"
     inkscape:grid-bbox="true"
     inkscape:document-units="px"
     inkscape:window-width="1086"
     inkscape:window-height="1001"
     inkscape:window-x="772"
     inkscape:window-y="0"
     inkscape:window-maximized="0" />
  <metadata
     id="metadata6055">
    <rdf:RDF>
      <cc:Work
         rdf:about="">
        <dc:format>image/svg+xml</dc:format>
        <dc:type
           rdf:resource="http://purl.org/dc/dcmitype/StillImage" />
        <dc:title></dc:title>
      </cc:Work>
    </rdf:RDF>
  </metadata>
  <g
     id="layer1"
     inkscape:label="Layer 1"
     inkscape:groupmode="layer">
    <g
       id="g5130"
       transform="matrix(1.4995998,0,0,-1.4995998,12.911959,37.391022)">
      <path
         d="m 0,0 c 0.019,0 0.036,-0.001 0.055,-0.002 0.3,-0.016 0.578,-0.167 0.755,-0.411 l 2.875,-3.972 2.959,3.974 c 0.188,0.254 0.485,0.403 0.801,0.403 l 0.004,0 c 0.318,-10e-4 0.615,-0.153 0.803,-0.409 l 2.906,-3.966 2.91,3.969 c 0.179,0.243 0.458,0.392 0.76,0.407 0.3,0.02 0.593,-0.108 0.794,-0.334 l 2.763,-3.105 0,14.455 c 0,6.575 -4.931,11.925 -10.991,11.925 -6.06,0 -10.991,-5.35 -10.991,-11.925 l 0,-14.489 2.856,3.151 C -0.551,-0.119 -0.281,0 0,0 m -4.597,-7.074 c -0.121,0 -0.243,0.021 -0.359,0.067 -0.386,0.149 -0.641,0.52 -0.641,0.933 l 0,17.083 c 0,7.677 5.827,13.925 12.991,13.925 7.163,0 12.991,-6.248 12.991,-13.925 l 0,-17.083 c 0,-0.415 -0.257,-0.787 -0.645,-0.935 -0.386,-0.148 -0.827,-0.04 -1.102,0.27 l -3.688,4.144 -2.986,-4.071 c -0.189,-0.257 -0.488,-0.408 -0.807,-0.408 -0.319,0 -0.618,0.152 -0.806,0.409 L 7.438,-2.691 4.476,-6.671 C 4.287,-6.925 3.989,-7.074 3.674,-7.074 l -0.007,0 c -0.318,0.002 -0.616,0.155 -0.803,0.413 l -2.951,4.076 -3.768,-4.16 C -4.049,-6.959 -4.32,-7.074 -4.597,-7.074"
         style="fill:#31353a;fill-opacity:1;fill-rule:nonzero;stroke:none"
         id="path5132"
         inkscape:connector-curvature="0" />
    </g>
    <g
       id="g5134"
       transform="matrix(1.4995998,0,0,-1.4995998,28.506117,19.500797)">
      <path
         d="M 0,0 C 0,-1.101 0.893,-1.995 1.995,-1.995 3.097,-1.995 3.99,-1.101 3.99,0 3.99,1.101 3.097,1.994 1.995,1.994 0.893,1.994 0,1.101 0,0"
         style="fill:#31353a;fill-opacity:1;fill-rule:nonzero;stroke:none"
         id="path5136"
         inkscape:connector-curvature="0" />
    </g>
    <g
       id="g5138"
       transform="matrix(1.4995998,0,0,-1.4995998,13.510119,19.500797)">
      <path
         d="M 0,0 C 0,-1.101 0.893,-1.995 1.995,-1.995 3.097,-1.995 3.99,-1.101 3.99,0 3.99,1.101 3.097,1.994 1.995,1.994 0.893,1.994 0,1.101 0,0"
         style="fill:#31353a;fill-opacity:1;fill-rule:nonzero;stroke:none"
         id="path5140"
         inkscape:connector-curvature="0" />
    </g>
  </g>
</svg>
