<?xml version="1.0" encoding="UTF-8" standalone="no"?>
<!-- Created with Inkscape (http://www.inkscape.org/) -->

<svg
   xmlns:dc="http://purl.org/dc/elements/1.1/"
   xmlns:cc="http://creativecommons.org/ns#"
   xmlns:rdf="http://www.w3.org/1999/02/22-rdf-syntax-ns#"
   xmlns:svg="http://www.w3.org/2000/svg"
   xmlns="http://www.w3.org/2000/svg"
   xmlns:sodipodi="http://sodipodi.sourceforge.net/DTD/sodipodi-0.dtd"
   xmlns:inkscape="http://www.inkscape.org/namespaces/inkscape"
   width="48"
   height="48"
   id="svg6050"
   version="1.1"
   inkscape:version="0.91 r13725"
   viewBox="0 0 48 48"
   sodipodi:docname="graduation_hat.svg">
  <defs
     id="defs6052" />
  <sodipodi:namedview
     id="base"
     pagecolor="#ffffff"
     bordercolor="#666666"
     borderopacity="1.0"
     inkscape:pageopacity="0.0"
     inkscape:pageshadow="2"
     inkscape:zoom="7"
     inkscape:cx="30.437678"
     inkscape:cy="23.054"
     inkscape:current-layer="layer1"
     showgrid="true"
     inkscape:grid-bbox="true"
     inkscape:document-units="px"
     inkscape:window-width="1086"
     inkscape:window-height="1001"
     inkscape:window-x="772"
     inkscape:window-y="0"
     inkscape:window-maximized="0" />
  <metadata
     id="metadata6055">
    <rdf:RDF>
      <cc:Work
         rdf:about="">
        <dc:format>image/svg+xml</dc:format>
        <dc:type
           rdf:resource="http://purl.org/dc/dcmitype/StillImage" />
        <dc:title></dc:title>
      </cc:Work>
    </rdf:RDF>
  </metadata>
  <g
     id="layer1"
     inkscape:label="Layer 1"
     inkscape:groupmode="layer">
    <g
       id="g5166"
       transform="matrix(1.4996216,0,0,-1.4996216,4.6203572,18.810041)">
      <path
         d="M 0,0 12.862,-6.83 25.81,0.02 12.885,6.905 0,0 Z m 12.854,-8.963 c -0.163,0 -0.327,0.04 -0.474,0.12 l -14.936,7.95 c -0.322,0.174 -0.523,0.509 -0.525,0.874 -0.002,0.366 0.195,0.703 0.514,0.88 l 14.963,8.061 c 0.302,0.167 0.667,0.168 0.967,0.003 l 15.045,-8.05 c 0.323,-0.178 0.523,-0.519 0.519,-0.887 -0.004,-0.369 -0.21,-0.706 -0.537,-0.876 L 13.317,-8.849 c -0.144,-0.076 -0.303,-0.114 -0.463,-0.114"
         style="fill:#31353a;fill-opacity:1;fill-rule:nonzero;stroke:none"
         id="path5168"
         inkscape:connector-curvature="0" />
    </g>
    <g
       id="g5170"
       transform="matrix(1.4996216,0,0,-1.4996216,23.919289,42.758543)">
      <path
         d="M 0,0 C -6.354,0 -8.432,1.686 -8.648,1.878 -8.861,2.067 -8.983,2.34 -8.983,2.625 l 0,8.462 c 0,0.553 0.447,1 1,1 0.552,0 1,-0.447 1,-1 l 0,-7.914 C -6.248,2.792 -4.215,2 0,2 4.188,2 6.269,2.744 7.055,3.122 l 0,8.106 c 0,0.553 0.447,1 1,1 0.552,0 1,-0.447 1,-1 l 0,-8.679 C 9.055,2.248 8.92,1.964 8.688,1.774 8.465,1.593 6.331,0 0,0"
         style="fill:#31353a;fill-opacity:1;fill-rule:nonzero;stroke:none"
         id="path5172"
         inkscape:connector-curvature="0" />
    </g>
    <g
       id="g5174"
       transform="matrix(1.4996216,0,0,-1.4996216,44.940265,34.668696)">
      <path
         d="m 0,0 c -0.553,0 -1,0.447 -1,1 l 0,8.49 c 0,0.553 0.447,1 1,1 0.553,0 1,-0.447 1,-1 L 1,1 C 1,0.447 0.553,0 0,0"
         style="fill:#31353a;fill-opacity:1;fill-rule:nonzero;stroke:none"
         id="path5176"
         inkscape:connector-curvature="0" />
    </g>
    <g
       id="g5178"
       transform="matrix(1.4996216,0,0,-1.4996216,44.947583,32.224601)">
      <path
         d="m 0,0 c 1.104,0 2,-0.895 2,-2 0,-1.104 -0.896,-2 -2,-2 -1.104,0 -2,0.896 -2,2 0,1.105 0.896,2 2,2"
         style="fill:#31353a;fill-opacity:1;fill-rule:evenodd;stroke:none"
         id="path5180"
         inkscape:connector-curvature="0" />
    </g>
  </g>
</svg>
