<?xml version="1.0" encoding="UTF-8" standalone="no"?>
<!-- Created with Inkscape (http://www.inkscape.org/) -->

<svg
   xmlns:dc="http://purl.org/dc/elements/1.1/"
   xmlns:cc="http://creativecommons.org/ns#"
   xmlns:rdf="http://www.w3.org/1999/02/22-rdf-syntax-ns#"
   xmlns:svg="http://www.w3.org/2000/svg"
   xmlns="http://www.w3.org/2000/svg"
   xmlns:sodipodi="http://sodipodi.sourceforge.net/DTD/sodipodi-0.dtd"
   xmlns:inkscape="http://www.inkscape.org/namespaces/inkscape"
   width="48"
   height="48"
   id="svg6050"
   version="1.1"
   inkscape:version="0.91 r13725"
   viewBox="0 0 48 48"
   sodipodi:docname="headset.svg">
  <defs
     id="defs6052" />
  <sodipodi:namedview
     id="base"
     pagecolor="#ffffff"
     bordercolor="#B0B0B0"
     borderopacity="1.0"
     inkscape:pageopacity="0.0"
     inkscape:pageshadow="2"
     inkscape:zoom="7"
     inkscape:cx="30.437678"
     inkscape:cy="23.054"
     inkscape:current-layer="layer1"
     showgrid="true"
     inkscape:grid-bbox="true"
     inkscape:document-units="px"
     inkscape:window-width="1086"
     inkscape:window-height="1001"
     inkscape:window-x="772"
     inkscape:window-y="0"
     inkscape:window-maximized="0" />
  <metadata
     id="metadata6055">
    <rdf:RDF>
      <cc:Work
         rdf:about="">
        <dc:format>image/svg+xml</dc:format>
        <dc:type
           rdf:resource="http://purl.org/dc/dcmitype/StillImage" />
        <dc:title></dc:title>
      </cc:Work>
    </rdf:RDF>
  </metadata>
  <g
     id="layer1"
     inkscape:label="Layer 1"
     inkscape:groupmode="layer">
    <g
       id="g4834"
       transform="matrix(1.4980282,0,0,-1.4980282,0.13645308,27.283588)">
      <path
         d="m 0,0 0.003,0.557 c 0.005,0.804 0.075,2.156 0.085,2.346 0.47,8.728 7.391,15.31 15.933,15.31 8.201,0 14.814,-5.914 15.724,-14.063 0.079,-0.71 0.183,-3.192 0.18,-3.85 -0.002,-0.551 -0.45,-0.996 -1,-0.996 l -0.004,0 c -0.553,0.002 -0.998,0.452 -0.996,1.004 0.003,0.65 -0.102,3.032 -0.168,3.62 C 28.962,11.046 23.186,16.213 16.021,16.213 8.559,16.213 2.497,10.445 2.086,2.796 2.076,2.602 2.008,1.314 2.003,0.547 2.003,0.547 -0.023,-2.128 0,0"
         style="fill:#B0B0B0;fill-opacity:1;fill-rule:nonzero;stroke:none"
         id="path4836"
         inkscape:connector-curvature="0" />
    </g>
    <g
       id="g4838"
       transform="matrix(1.4980282,0,0,-1.4980282,39.987719,26.995367)">
      <path
         d="m 0,0 c -0.362,0 -0.656,-0.294 -0.656,-0.656 l 0,-6.677 c 0,-0.362 0.294,-0.656 0.656,-0.656 l 2.665,0 c 0.362,0 0.657,0.294 0.657,0.656 l 0,6.677 C 3.322,-0.294 3.027,0 2.665,0 L 0,0 Z m 2.665,-9.989 -2.665,0 c -1.465,0 -2.656,1.191 -2.656,2.656 l 0,6.677 C -2.656,0.809 -1.465,2 0,2 L 2.665,2 C 4.13,2 5.322,0.809 5.322,-0.656 l 0,-6.677 c 0,-1.465 -1.192,-2.656 -2.657,-2.656"
         style="fill:#B0B0B0;fill-opacity:1;fill-rule:nonzero;stroke:none"
         id="path4840"
         inkscape:connector-curvature="0" />
    </g>
    <g
       id="g4842"
       transform="matrix(1.4980282,0,0,-1.4980282,4.0176645,26.995367)">
      <path
         d="m 0,0 c -0.362,0 -0.656,-0.294 -0.656,-0.656 l 0,-6.708 c 0,-0.363 0.294,-0.656 0.656,-0.656 l 2.696,0 c 0.362,0 0.657,0.293 0.657,0.656 l 0,6.708 C 3.353,-0.294 3.058,0 2.696,0 L 0,0 Z m 2.696,-10.02 -2.696,0 c -1.465,0 -2.656,1.191 -2.656,2.656 l 0,6.708 C -2.656,0.809 -1.465,2 0,2 L 2.696,2 C 4.161,2 5.353,0.809 5.353,-0.656 l 0,-6.708 c 0,-1.465 -1.192,-2.656 -2.657,-2.656"
         style="fill:#B0B0B0;fill-opacity:1;fill-rule:nonzero;stroke:none"
         id="path4844"
         inkscape:connector-curvature="0" />
    </g>
    <g
       id="g4846"
       transform="matrix(1.4980282,0,0,-1.4980282,22.510284,43.505915)">
      <path
         d="M 0,0 3,0 C 3.552,0 4,-0.448 4,-1 L 4,-2 C 4,-2.552 3.552,-3 3,-3 l -3,0 c -0.552,0 -1,0.448 -1,1 l 0,1 c 0,0.552 0.448,1 1,1"
         style="fill:#B0B0B0;fill-opacity:1;fill-rule:evenodd;stroke:none"
         id="path4848"
         inkscape:connector-curvature="0" />
    </g>
    <g
       id="g4850"
       transform="matrix(1.4980282,0,0,-1.4980282,26.299815,46.113563)">
      <path
         d="m 0,0 11.817,4.64 c 0.51,0.212 1.095,-0.029 1.307,-0.539 0.213,-0.51 -0.029,-1.096 -0.539,-1.308 L 2.287,-1.25 -0.161,-1.259 c 0,0 -1.081,0.742 0.161,1.259"
         style="fill:#B0B0B0;fill-opacity:1;fill-rule:evenodd;stroke:none"
         id="path4852"
         inkscape:connector-curvature="0" />
    </g>
  </g>
</svg>
