<?xml version="1.0" encoding="UTF-8" standalone="no"?>
<!-- Created with Inkscape (http://www.inkscape.org/) -->

<svg
   xmlns:dc="http://purl.org/dc/elements/1.1/"
   xmlns:cc="http://creativecommons.org/ns#"
   xmlns:rdf="http://www.w3.org/1999/02/22-rdf-syntax-ns#"
   xmlns:svg="http://www.w3.org/2000/svg"
   xmlns="http://www.w3.org/2000/svg"
   xmlns:sodipodi="http://sodipodi.sourceforge.net/DTD/sodipodi-0.dtd"
   xmlns:inkscape="http://www.inkscape.org/namespaces/inkscape"
   width="48"
   height="48"
   id="svg6050"
   version="1.1"
   inkscape:version="0.91 r13725"
   viewBox="0 0 48 48"
   sodipodi:docname="headphone.svg">
  <defs
     id="defs6052" />
  <sodipodi:namedview
     id="base"
     pagecolor="#ffffff"
     bordercolor="#666666"
     borderopacity="1.0"
     inkscape:pageopacity="0.0"
     inkscape:pageshadow="2"
     inkscape:zoom="7"
     inkscape:cx="30.437678"
     inkscape:cy="23.054"
     inkscape:current-layer="layer1"
     showgrid="true"
     inkscape:grid-bbox="true"
     inkscape:document-units="px"
     inkscape:window-width="1086"
     inkscape:window-height="1001"
     inkscape:window-x="772"
     inkscape:window-y="0"
     inkscape:window-maximized="0" />
  <metadata
     id="metadata6055">
    <rdf:RDF>
      <cc:Work
         rdf:about="">
        <dc:format>image/svg+xml</dc:format>
        <dc:type
           rdf:resource="http://purl.org/dc/dcmitype/StillImage" />
        <dc:title></dc:title>
      </cc:Work>
    </rdf:RDF>
  </metadata>
  <g
     id="layer1"
     inkscape:label="Layer 1"
     inkscape:groupmode="layer">
    <g
       id="g4822"
       transform="matrix(1.5004603,0,0,-1.5004603,0.09770964,28.79052)">
      <path
         d="m 0,0 0.003,0.557 c 0.005,0.804 0.075,2.156 0.085,2.346 0.47,8.728 7.391,15.31 15.933,15.31 8.201,0 14.814,-5.914 15.724,-14.063 0.079,-0.71 0.183,-3.192 0.18,-3.85 -0.002,-0.551 -0.45,-0.996 -1,-0.996 l -0.004,0 c -0.553,0.002 -0.998,0.452 -0.996,1.004 0.003,0.65 -0.102,3.032 -0.168,3.62 C 28.962,11.046 23.186,16.213 16.021,16.213 8.559,16.213 2.497,10.445 2.086,2.796 2.076,2.602 2.008,1.314 2.003,0.547 2.003,0.547 -0.023,-2.128 0,0"
         style="fill:#31353a;fill-opacity:1;fill-rule:nonzero;stroke:none"
         id="path4824"
         inkscape:connector-curvature="0" />
    </g>
    <g
       id="g4826"
       transform="matrix(1.5004603,0,0,-1.5004603,40.013795,28.501831)">
      <path
         d="m 0,0 c -0.362,0 -0.656,-0.294 -0.656,-0.656 l 0,-8.677 c 0,-0.362 0.294,-0.656 0.656,-0.656 l 2.665,0 c 0.362,0 0.657,0.294 0.657,0.656 l 0,8.677 C 3.322,-0.294 3.027,0 2.665,0 L 0,0 Z m 2.665,-11.989 -2.665,0 c -1.465,0 -2.656,1.191 -2.656,2.656 l 0,8.677 C -2.656,0.809 -1.465,2 0,2 L 2.665,2 C 4.13,2 5.322,0.809 5.322,-0.656 l 0,-8.677 c 0,-1.465 -1.192,-2.656 -2.657,-2.656"
         style="fill:#31353a;fill-opacity:1;fill-rule:nonzero;stroke:none"
         id="path4828"
         inkscape:connector-curvature="0" />
    </g>
    <g
       id="g4830"
       transform="matrix(1.5004603,0,0,-1.5004603,3.9852226,28.501831)">
      <path
         d="m 0,0 c -0.362,0 -0.656,-0.294 -0.656,-0.656 l 0,-8.708 c 0,-0.363 0.294,-0.657 0.656,-0.657 l 2.696,0 c 0.363,0 0.658,0.294 0.658,0.657 l 0,8.708 C 3.354,-0.294 3.059,0 2.696,0 L 0,0 Z m 2.696,-12.02 -2.696,0 c -1.465,0 -2.656,1.191 -2.656,2.656 l 0,8.708 C -2.656,0.809 -1.465,2 0,2 L 2.696,2 C 4.161,2 5.354,0.809 5.354,-0.656 l 0,-8.708 c 0,-1.465 -1.193,-2.656 -2.658,-2.656"
         style="fill:#31353a;fill-opacity:1;fill-rule:nonzero;stroke:none"
         id="path4832"
         inkscape:connector-curvature="0" />
    </g>
  </g>
</svg>
