<?xml version="1.0" encoding="UTF-8" standalone="no"?>
<!-- Created with Inkscape (http://www.inkscape.org/) -->

<svg
   xmlns:dc="http://purl.org/dc/elements/1.1/"
   xmlns:cc="http://creativecommons.org/ns#"
   xmlns:rdf="http://www.w3.org/1999/02/22-rdf-syntax-ns#"
   xmlns:svg="http://www.w3.org/2000/svg"
   xmlns="http://www.w3.org/2000/svg"
   xmlns:sodipodi="http://sodipodi.sourceforge.net/DTD/sodipodi-0.dtd"
   xmlns:inkscape="http://www.inkscape.org/namespaces/inkscape"
   width="48"
   height="48"
   id="svg6050"
   version="1.1"
   inkscape:version="0.91 r13725"
   viewBox="0 0 48 48"
   sodipodi:docname="house.svg">
  <defs
     id="defs6052" />
  <sodipodi:namedview
     id="base"
     pagecolor="#ffffff"
     bordercolor="#666666"
     borderopacity="1.0"
     inkscape:pageopacity="0.0"
     inkscape:pageshadow="2"
     inkscape:zoom="7"
     inkscape:cx="30.437678"
     inkscape:cy="23.054"
     inkscape:current-layer="layer1"
     showgrid="true"
     inkscape:grid-bbox="true"
     inkscape:document-units="px"
     inkscape:window-width="1086"
     inkscape:window-height="1001"
     inkscape:window-x="772"
     inkscape:window-y="0"
     inkscape:window-maximized="0" />
  <metadata
     id="metadata6055">
    <rdf:RDF>
      <cc:Work
         rdf:about="">
        <dc:format>image/svg+xml</dc:format>
        <dc:type
           rdf:resource="http://purl.org/dc/dcmitype/StillImage" />
        <dc:title></dc:title>
      </cc:Work>
    </rdf:RDF>
  </metadata>
  <g
     id="layer1"
     inkscape:label="Layer 1"
     inkscape:groupmode="layer">
    <g
       id="g3746"
       transform="matrix(1.4952948,0,0,-1.4952948,41.921423,47.90834)">
      <path
         d="m 0,0 -6.983,0 c -0.553,0 -1,0.447 -1,1 l 0,9.986 -7.969,0 -0.031,-9.989 C -15.985,0.445 -16.433,0 -16.983,0 l -6.986,0 c -0.553,0 -1,0.447 -1,1 l 0,16.776 c 0,0.552 0.447,1 1,1 0.552,0 1,-0.448 1,-1 l 0,-15.776 4.989,0 0.032,9.989 c 0.002,0.552 0.449,0.997 1,0.997 l 9.965,0 c 0.553,0 1,-0.447 1,-1 L -5.983,2 -1,2 -1,17.776 c 0,0.552 0.447,1 1,1 0.553,0 1,-0.448 1,-1 L 1,1 C 1,0.447 0.553,0 0,0"
         style="fill:#31353a;fill-opacity:1;fill-rule:nonzero;stroke:none"
         id="path3748"
         inkscape:connector-curvature="0" />
    </g>
    <g
       id="g3750"
       transform="matrix(1.4952948,0,0,-1.4952948,46.504561,26.59576)">
      <path
         d="M 0,0 C -0.263,0 -0.525,0.103 -0.722,0.308 L -15.011,15.28 -29.379,0.309 c -0.383,-0.401 -1.015,-0.412 -1.414,-0.03 -0.398,0.383 -0.412,1.016 -0.029,1.414 l 15.089,15.724 c 0.189,0.197 0.449,0.308 0.722,0.308 0.272,0 0.533,-0.111 0.722,-0.308 L 0.722,1.693 C 1.104,1.294 1.091,0.661 0.692,0.279 0.499,0.093 0.249,0.001 0,0"
         style="fill:#31353a;fill-opacity:1;fill-rule:nonzero;stroke:none"
         id="path3752"
         inkscape:connector-curvature="0" />
    </g>
    <g
       id="g5428"
       transform="matrix(1.4952948,0,0,-1.4952948,41.921423,47.90834)">
      <path
         d="m 0,0 -6.983,0 c -0.553,0 -1,0.447 -1,1 l 0,9.986 -7.969,0 -0.031,-9.989 C -15.985,0.445 -16.433,0 -16.983,0 l -6.986,0 c -0.553,0 -1,0.447 -1,1 l 0,16.776 c 0,0.552 0.447,1 1,1 0.552,0 1,-0.448 1,-1 l 0,-15.776 4.989,0 0.032,9.989 c 0.002,0.552 0.449,0.997 1,0.997 l 9.965,0 c 0.553,0 1,-0.447 1,-1 L -5.983,2 -1,2 -1,17.776 c 0,0.552 0.447,1 1,1 0.553,0 1,-0.448 1,-1 L 1,1 C 1,0.447 0.553,0 0,0"
         style="fill:#31353a;fill-opacity:1;fill-rule:nonzero;stroke:none"
         id="path5430"
         inkscape:connector-curvature="0" />
    </g>
    <g
       id="g5432"
       transform="matrix(1.4952948,0,0,-1.4952948,46.504561,26.59576)">
      <path
         d="M 0,0 C -0.263,0 -0.525,0.103 -0.722,0.308 L -15.011,15.28 -29.379,0.309 c -0.383,-0.401 -1.015,-0.412 -1.414,-0.03 -0.398,0.383 -0.412,1.016 -0.029,1.414 l 15.089,15.724 c 0.189,0.197 0.449,0.308 0.722,0.308 0.272,0 0.533,-0.111 0.722,-0.308 L 0.722,1.693 C 1.104,1.294 1.091,0.661 0.692,0.279 0.499,0.093 0.249,0.001 0,0"
         style="fill:#31353a;fill-opacity:1;fill-rule:nonzero;stroke:none"
         id="path5434"
         inkscape:connector-curvature="0" />
    </g>
  </g>
</svg>
