<?xml version="1.0" encoding="UTF-8" standalone="no"?>
<!-- Created with Inkscape (http://www.inkscape.org/) -->

<svg
   xmlns:dc="http://purl.org/dc/elements/1.1/"
   xmlns:cc="http://creativecommons.org/ns#"
   xmlns:rdf="http://www.w3.org/1999/02/22-rdf-syntax-ns#"
   xmlns:svg="http://www.w3.org/2000/svg"
   xmlns="http://www.w3.org/2000/svg"
   xmlns:sodipodi="http://sodipodi.sourceforge.net/DTD/sodipodi-0.dtd"
   xmlns:inkscape="http://www.inkscape.org/namespaces/inkscape"
   width="48"
   height="48"
   id="svg6050"
   version="1.1"
   inkscape:version="0.91 r13725"
   viewBox="0 0 48 48"
   sodipodi:docname="hyperlink.svg">
  <defs
     id="defs6052" />
  <sodipodi:namedview
     id="base"
     pagecolor="#ffffff"
     bordercolor="#666666"
     borderopacity="1.0"
     inkscape:pageopacity="0.0"
     inkscape:pageshadow="2"
     inkscape:zoom="7"
     inkscape:cx="30.437678"
     inkscape:cy="23.054"
     inkscape:current-layer="layer1"
     showgrid="true"
     inkscape:grid-bbox="true"
     inkscape:document-units="px"
     inkscape:window-width="1086"
     inkscape:window-height="1001"
     inkscape:window-x="772"
     inkscape:window-y="0"
     inkscape:window-maximized="0" />
  <metadata
     id="metadata6055">
    <rdf:RDF>
      <cc:Work
         rdf:about="">
        <dc:format>image/svg+xml</dc:format>
        <dc:type
           rdf:resource="http://purl.org/dc/dcmitype/StillImage" />
        <dc:title></dc:title>
      </cc:Work>
    </rdf:RDF>
  </metadata>
  <g
     id="layer1"
     inkscape:label="Layer 1"
     inkscape:groupmode="layer">
    <g
       id="g3634"
       transform="matrix(1.4995876,0,0,-1.4995876,14.921791,34.770482)">
      <path
         d="m 0,0 c -0.256,0 -0.512,0.098 -0.707,0.293 -0.391,0.391 -0.391,1.023 0,1.414 l 12.115,12.209 c 0.39,0.391 1.023,0.391 1.414,0 0.39,-0.391 0.39,-1.023 0,-1.414 L 0.707,0.293 C 0.512,0.098 0.256,0 0,0"
         style="fill:#31353a;fill-opacity:1;fill-rule:nonzero;stroke:none"
         id="path3636"
         inkscape:connector-curvature="0" />
    </g>
    <g
       id="g3638"
       transform="matrix(1.4995876,0,0,-1.4995876,22.306971,31.137137)">
      <path
         d="m 0,0 c 0.331,-1.457 -0.026,-2.888 -1.152,-4.014 l -4.039,-3.914 c -0.85,-0.849 -1.98,-1.317 -3.182,-1.317 -1.202,0 -2.332,0.468 -3.182,1.317 -1.754,1.755 -1.754,4.61 -0.01,6.355 l 3.945,4.07 c 0.85,0.85 1.98,1.318 3.183,1.318 0.411,0 0.807,-0.074 1.192,-0.18 l 1.561,1.561 c -0.871,0.407 -1.811,0.619 -2.753,0.619 -1.664,0 -3.328,-0.635 -4.597,-1.904 l -3.935,-4.061 c -2.538,-2.538 -2.538,-6.653 0,-9.192 1.269,-1.269 2.932,-1.903 4.596,-1.903 1.663,0 3.327,0.634 4.596,1.903 l 4.029,3.904 c 1.942,1.942 2.362,4.648 1.334,7.023 L 0,0 Z"
         style="fill:#31353a;fill-opacity:1;fill-rule:nonzero;stroke:none"
         id="path3640"
         inkscape:connector-curvature="0" />
    </g>
    <g
       id="g3642"
       transform="matrix(1.4995876,0,0,-1.4995876,45.14118,2.8552151)">
      <path
         d="M 0,0 C -1.27,1.269 -2.933,1.904 -4.596,1.904 -6.26,1.904 -7.924,1.269 -9.192,0 l -4.029,-3.904 c -2.013,-2.013 -2.423,-5.015 -1.244,-7.439 l 1.552,1.551 c -0.459,1.535 -0.107,3.261 1.096,4.464 l 4.039,3.914 c 0.85,0.85 1.979,1.318 3.182,1.318 1.201,0 2.332,-0.468 3.182,-1.318 1.754,-1.755 1.754,-4.61 0.01,-6.355 l -4.039,-4.039 c -0.85,-0.849 -1.981,-1.317 -3.182,-1.317 -0.307,0 -0.576,-0.031 -0.87,0.029 l -1.593,-1.594 c 0.796,-0.331 1.613,-0.435 2.463,-0.435 1.663,0 3.326,0.634 4.596,1.903 L 0,-9.192 C 2.538,-6.654 2.538,-2.539 0,0"
         style="fill:#31353a;fill-opacity:1;fill-rule:nonzero;stroke:none"
         id="path3644"
         inkscape:connector-curvature="0" />
    </g>
  </g>
</svg>
