<?xml version="1.0" encoding="UTF-8" standalone="no"?>
<!-- Created with Inkscape (http://www.inkscape.org/) -->

<svg
   xmlns:dc="http://purl.org/dc/elements/1.1/"
   xmlns:cc="http://creativecommons.org/ns#"
   xmlns:rdf="http://www.w3.org/1999/02/22-rdf-syntax-ns#"
   xmlns:svg="http://www.w3.org/2000/svg"
   xmlns="http://www.w3.org/2000/svg"
   xmlns:sodipodi="http://sodipodi.sourceforge.net/DTD/sodipodi-0.dtd"
   xmlns:inkscape="http://www.inkscape.org/namespaces/inkscape"
   width="48"
   height="48"
   id="svg6050"
   version="1.1"
   inkscape:version="0.91 r13725"
   viewBox="0 0 48 48"
   sodipodi:docname="incoming_call.svg">
  <defs
     id="defs6052" />
  <sodipodi:namedview
     id="base"
     pagecolor="#ffffff"
     bordercolor="#666666"
     borderopacity="1.0"
     inkscape:pageopacity="0.0"
     inkscape:pageshadow="2"
     inkscape:zoom="7"
     inkscape:cx="30.437678"
     inkscape:cy="23.054"
     inkscape:current-layer="layer1"
     showgrid="true"
     inkscape:grid-bbox="true"
     inkscape:document-units="px"
     inkscape:window-width="1086"
     inkscape:window-height="1001"
     inkscape:window-x="772"
     inkscape:window-y="0"
     inkscape:window-maximized="0" />
  <metadata
     id="metadata6055">
    <rdf:RDF>
      <cc:Work
         rdf:about="">
        <dc:format>image/svg+xml</dc:format>
        <dc:type
           rdf:resource="http://purl.org/dc/dcmitype/StillImage" />
        <dc:title></dc:title>
      </cc:Work>
    </rdf:RDF>
  </metadata>
  <g
     id="layer1"
     inkscape:label="Layer 1"
     inkscape:groupmode="layer">
    <g
       id="g4784"
       transform="matrix(1.4969119,0,0,-1.4969119,9.3835823,0.01647754)">
      <path
         d="m 0,0 c -0.529,0 -1.091,-0.16 -1.578,-0.499 -0.047,-0.033 -4.753,-3.445 -4.69,-5.386 0.173,-5.451 5.47,-11.857 9.883,-16.271 4.413,-4.414 10.82,-9.713 16.292,-9.888 l 0.045,0 c 1.916,0 5.284,4.647 5.317,4.692 0.883,1.263 0.561,2.653 -0.244,3.217 -0.489,0.344 -5.845,3.906 -6.501,4.307 -0.287,0.175 -0.635,0.261 -1.015,0.261 -0.489,0 -1.031,-0.143 -1.561,-0.421 -0.515,-0.272 -2.077,-1.16 -2.84,-1.597 -0.673,0.473 -2.254,1.684 -4.746,4.177 -2.475,2.474 -3.697,4.068 -4.172,4.745 0.435,0.764 1.323,2.325 1.592,2.839 0.512,0.969 0.57,1.936 0.155,2.589 C 5.547,-6.62 2,-1.241 1.634,-0.735 1.289,-0.258 0.671,0 0,0 m 0,-2 c 0.033,0 0.061,-0.003 0.082,-0.007 0.563,-0.817 3.582,-5.389 4.13,-6.243 0.002,-0.09 -0.028,-0.318 -0.2,-0.645 -0.183,-0.347 -0.751,-1.36 -1.56,-2.777 l -0.629,-1.102 0.73,-1.04 c 0.544,-0.772 1.838,-2.452 4.394,-5.008 2.568,-2.569 4.241,-3.859 5.011,-4.4 l 1.039,-0.729 1.102,0.63 c 1.069,0.61 2.36,1.342 2.78,1.562 0.337,0.178 0.567,0.192 0.63,0.192 0.01,0 0.018,0 0.025,-0.001 0.766,-0.481 5.436,-3.581 6.26,-4.147 0.014,-0.08 0.001,-0.254 -0.15,-0.471 -1.269,-1.757 -3.07,-3.592 -3.775,-3.855 -3.751,0.176 -9.015,3.473 -14.84,9.299 -5.825,5.827 -9.121,11.085 -9.295,14.823 0.253,0.707 2.088,2.52 3.829,3.778 C -0.308,-2.052 -0.148,-2 0,-2"
         style="fill:#31353a;fill-opacity:1;fill-rule:nonzero;stroke:none"
         id="path4786"
         inkscape:connector-curvature="0" />
    </g>
    <g
       id="g4788"
       transform="matrix(1.4969119,0,0,-1.4969119,30.574226,17.303272)">
      <path
         d="m 0,0 c -0.391,0.391 -0.391,1.024 0,1.414 l 9.745,9.731 c 0.39,0.391 1.023,0.391 1.414,0 0.39,-0.39 0.39,-1.023 0,-1.414 L 1.414,0 C 1.024,-0.391 0.391,-0.391 0,0"
         style="fill:#31353a;fill-opacity:1;fill-rule:evenodd;stroke:none"
         id="path4790"
         inkscape:connector-curvature="0" />
    </g>
    <g
       id="g4792"
       transform="matrix(1.4969119,0,0,-1.4969119,32.861148,14.968233)">
      <path
         d="m 0,0 6.179,-0.017 c 0.404,0.009 0.779,-0.269 0.84,-0.746 L 7.018,-1.276 C 7.008,-1.68 6.674,-2.015 6.27,-2.024 l -7.171,0.032 C -0.909,-1.993 -0.915,-1.996 -0.922,-1.996 L -1.287,-2.004 C -1.489,-2.01 -1.671,-1.93 -1.8,-1.8 c -0.131,0.13 -0.178,0.311 -0.174,0.514 l 0.039,0.366 c 0,0.007 -0.027,0.012 -0.027,0.019 l 0.021,7.219 c 0.009,0.404 0.343,0.645 0.748,0.654 L -0.68,6.973 C -0.276,6.982 0.044,6.63 0.035,6.226 L 0,0 Z"
         style="fill:#31353a;fill-opacity:1;fill-rule:evenodd;stroke:none"
         id="path4794"
         inkscape:connector-curvature="0" />
    </g>
  </g>
</svg>
