<?xml version="1.0" encoding="UTF-8" standalone="no"?>
<!-- Created with Inkscape (http://www.inkscape.org/) -->

<svg
   xmlns:dc="http://purl.org/dc/elements/1.1/"
   xmlns:cc="http://creativecommons.org/ns#"
   xmlns:rdf="http://www.w3.org/1999/02/22-rdf-syntax-ns#"
   xmlns:svg="http://www.w3.org/2000/svg"
   xmlns="http://www.w3.org/2000/svg"
   xmlns:sodipodi="http://sodipodi.sourceforge.net/DTD/sodipodi-0.dtd"
   xmlns:inkscape="http://www.inkscape.org/namespaces/inkscape"
   width="48"
   height="48"
   id="svg6050"
   version="1.1"
   inkscape:version="0.91 r13725"
   viewBox="0 0 48 48"
   sodipodi:docname="info.svg">
  <defs
     id="defs6052" />
  <sodipodi:namedview
     id="base"
     pagecolor="#ffffff"
     bordercolor="#666666"
     borderopacity="1.0"
     inkscape:pageopacity="0.0"
     inkscape:pageshadow="2"
     inkscape:zoom="7"
     inkscape:cx="6.3571429"
     inkscape:cy="24"
     inkscape:current-layer="layer1"
     showgrid="true"
     inkscape:grid-bbox="true"
     inkscape:document-units="px"
     inkscape:window-width="1086"
     inkscape:window-height="1001"
     inkscape:window-x="772"
     inkscape:window-y="0"
     inkscape:window-maximized="0" />
  <metadata
     id="metadata6055">
    <rdf:RDF>
      <cc:Work
         rdf:about="">
        <dc:format>image/svg+xml</dc:format>
        <dc:type
           rdf:resource="http://purl.org/dc/dcmitype/StillImage" />
        <dc:title></dc:title>
      </cc:Work>
    </rdf:RDF>
  </metadata>
  <g
     id="layer1"
     inkscape:label="Layer 1"
     inkscape:groupmode="layer">
    <g
       id="g3406"
       transform="matrix(1.5,0,0,-1.5,24,19.5939)">
      <path
         d="m 0,0 c 0.552,0 1,-0.448 1,-1 l 0,-9.937 c 0,-0.553 -0.448,-1 -1,-1 -0.552,0 -1,0.447 -1,1 L -1,-1 c 0,0.552 0.448,1 1,1"
         style="fill:#31353a;fill-opacity:1;fill-rule:evenodd;stroke:none"
         id="path3408"
         inkscape:connector-curvature="0" />
    </g>
    <g
       id="g3410"
       transform="matrix(1.5,0,0,-1.5,21,19.5)">
      <path
         d="M 0,0 2,0 C 2.552,0 3,-0.448 3,-1 3,-1.552 2.552,-2 2,-2 l -2,0 c -0.552,0 -1,0.448 -1,1 0,0.552 0.448,1 1,1"
         style="fill:#31353a;fill-opacity:1;fill-rule:evenodd;stroke:none"
         id="path3412"
         inkscape:connector-curvature="0" />
    </g>
    <g
       id="g3414"
       transform="matrix(1.5,0,0,-1.5,21,34.5)">
      <path
         d="M 0,0 4,0 C 4.552,0 5,-0.448 5,-1 5,-1.552 4.552,-2 4,-2 l -4,0 c -0.552,0 -1,0.448 -1,1 0,0.552 0.448,1 1,1"
         style="fill:#31353a;fill-opacity:1;fill-rule:evenodd;stroke:none"
         id="path3416"
         inkscape:connector-curvature="0" />
    </g>
    <g
       id="g3418"
       transform="matrix(1.5,0,0,-1.5,24,10.5)">
      <path
         d="m 0,0 c 1.105,0 2,-0.896 2,-2 0,-1.105 -0.895,-2 -2,-2 -1.105,0 -2,0.895 -2,2 0,1.104 0.895,2 2,2"
         style="fill:#31353a;fill-opacity:1;fill-rule:evenodd;stroke:none"
         id="path3420"
         inkscape:connector-curvature="0" />
    </g>
    <g
       id="g3422"
       transform="matrix(1.5,0,0,-1.5,24,0)">
      <path
         d="m 0,0 c -8.837,0 -16,-7.164 -16,-16 0,-8.837 7.163,-16 16,-16 8.837,0 16,7.163 16,16 C 16,-7.164 8.837,0 0,0 m 0,-2 c 7.72,0 14,-6.28 14,-14 0,-7.72 -6.28,-14.031 -14,-14.031 -7.72,0 -14,6.311 -14,14.031 0,7.72 6.28,14 14,14"
         style="fill:#31353a;fill-opacity:1;fill-rule:nonzero;stroke:none"
         id="path3424"
         inkscape:connector-curvature="0" />
    </g>
  </g>
</svg>
