<?xml version="1.0" encoding="UTF-8" standalone="no"?>
<!-- Created with Inkscape (http://www.inkscape.org/) -->

<svg
   xmlns:dc="http://purl.org/dc/elements/1.1/"
   xmlns:cc="http://creativecommons.org/ns#"
   xmlns:rdf="http://www.w3.org/1999/02/22-rdf-syntax-ns#"
   xmlns:svg="http://www.w3.org/2000/svg"
   xmlns="http://www.w3.org/2000/svg"
   xmlns:sodipodi="http://sodipodi.sourceforge.net/DTD/sodipodi-0.dtd"
   xmlns:inkscape="http://www.inkscape.org/namespaces/inkscape"
   width="48"
   height="48"
   id="svg6050"
   version="1.1"
   inkscape:version="0.91 r13725"
   viewBox="0 0 48 48"
   sodipodi:docname="intersex.svg">
  <defs
     id="defs6052" />
  <sodipodi:namedview
     id="base"
     pagecolor="#ffffff"
     bordercolor="#666666"
     borderopacity="1.0"
     inkscape:pageopacity="0.0"
     inkscape:pageshadow="2"
     inkscape:zoom="7"
     inkscape:cx="30.437678"
     inkscape:cy="23.054"
     inkscape:current-layer="layer1"
     showgrid="true"
     inkscape:grid-bbox="true"
     inkscape:document-units="px"
     inkscape:window-width="1086"
     inkscape:window-height="1001"
     inkscape:window-x="772"
     inkscape:window-y="0"
     inkscape:window-maximized="0" />
  <metadata
     id="metadata6055">
    <rdf:RDF>
      <cc:Work
         rdf:about="">
        <dc:format>image/svg+xml</dc:format>
        <dc:type
           rdf:resource="http://purl.org/dc/dcmitype/StillImage" />
        <dc:title></dc:title>
      </cc:Work>
    </rdf:RDF>
  </metadata>
  <g
     id="layer1"
     inkscape:label="Layer 1"
     inkscape:groupmode="layer">
    <g
       id="g3670"
       transform="matrix(1.5,0,0,-1.5,23.999856,39.003456)">
      <path
         d="m 0,0 c -5.524,0 -10.002,4.478 -10.002,10.002 0,5.524 4.478,10.002 10.002,10.002 5.524,0 10.002,-4.478 10.002,-10.002 C 10.002,4.478 5.524,0 0,0 m 0,22.002 c -6.627,0 -12,-5.372 -12,-12 0,-6.627 5.373,-12 12,-12 6.628,0 12,5.373 12,12 0,6.628 -5.372,12 -12,12"
         style="fill:#31353a;fill-opacity:1;fill-rule:evenodd;stroke:none"
         id="path3672"
         inkscape:connector-curvature="0" />
    </g>
    <g
       id="g3674"
       transform="matrix(1.5,0,0,-1.5,1.5,22.500156)">
      <path
         d="m 0,0 30,0 c 0.552,0 1,-0.448 1,-1 0,-0.552 -0.448,-1 -1,-1 L 0,-2 c -0.552,0 -1,0.448 -1,1 0,0.552 0.448,1 1,1"
         style="fill:#31353a;fill-opacity:1;fill-rule:evenodd;stroke:none"
         id="path3676"
         inkscape:connector-curvature="0" />
    </g>
    <g
       id="g3678"
       transform="matrix(1.5,0,0,-1.5,25.5,1.5)">
      <path
         d="m 0,0 0,-30 c 0,-0.552 -0.448,-1 -1,-1 -0.552,0 -1,0.448 -1,1 l 0,30 c 0,0.552 0.448,1 1,1 0.552,0 1,-0.448 1,-1"
         style="fill:#31353a;fill-opacity:1;fill-rule:evenodd;stroke:none"
         id="path3680"
         inkscape:connector-curvature="0" />
    </g>
  </g>
</svg>
