<?xml version="1.0" encoding="UTF-8" standalone="no"?>
<!-- Created with Inkscape (http://www.inkscape.org/) -->

<svg
   xmlns:dc="http://purl.org/dc/elements/1.1/"
   xmlns:cc="http://creativecommons.org/ns#"
   xmlns:rdf="http://www.w3.org/1999/02/22-rdf-syntax-ns#"
   xmlns:svg="http://www.w3.org/2000/svg"
   xmlns="http://www.w3.org/2000/svg"
   xmlns:sodipodi="http://sodipodi.sourceforge.net/DTD/sodipodi-0.dtd"
   xmlns:inkscape="http://www.inkscape.org/namespaces/inkscape"
   width="48"
   height="48"
   id="svg6050"
   version="1.1"
   inkscape:version="0.91 r13725"
   viewBox="0 0 48 48"
   sodipodi:docname="joystick.svg">
  <defs
     id="defs6052" />
  <sodipodi:namedview
     id="base"
     pagecolor="#ffffff"
     bordercolor="#666666"
     borderopacity="1.0"
     inkscape:pageopacity="0.0"
     inkscape:pageshadow="2"
     inkscape:zoom="7"
     inkscape:cx="30.437678"
     inkscape:cy="23.054"
     inkscape:current-layer="layer1"
     showgrid="true"
     inkscape:grid-bbox="true"
     inkscape:document-units="px"
     inkscape:window-width="1086"
     inkscape:window-height="1001"
     inkscape:window-x="772"
     inkscape:window-y="0"
     inkscape:window-maximized="0" />
  <metadata
     id="metadata6055">
    <rdf:RDF>
      <cc:Work
         rdf:about="">
        <dc:format>image/svg+xml</dc:format>
        <dc:type
           rdf:resource="http://purl.org/dc/dcmitype/StillImage" />
        <dc:title></dc:title>
      </cc:Work>
    </rdf:RDF>
  </metadata>
  <g
     id="layer1"
     inkscape:label="Layer 1"
     inkscape:groupmode="layer">
    <g
       id="g5068"
       transform="matrix(1.4974263,0,0,-1.4974263,24.136418,-2.3250003e-8)">
      <path
         d="m 0,0 c -3.072,0 -5.197,-1.772 -6.53,-3.105 l -1.112,-1.113 -0.742,-0.743 -1.077,-1.078 -1.679,-1.681 -1.854,-1.856 c -3.459,-3.462 -4.012,-6.988 -1.79,-11.431 0.345,-0.69 0.699,-1.448 1.075,-2.251 2.021,-4.325 4.112,-8.797 7.532,-8.797 0.097,0 0.192,0.003 0.289,0.011 3.53,0.277 4.531,4.822 5.416,8.831 0.14,0.635 0.273,1.244 0.41,1.79 0.237,0.944 0.704,1.53 1.986,2.814 l 0.176,0.177 0.108,0.109 0.14,0.14 0.145,0.144 c 1.284,1.284 1.871,1.751 2.816,1.99 0.541,0.136 1.148,0.27 1.782,0.409 4.007,0.884 8.549,1.886 8.825,5.422 0.277,3.588 -4.327,5.744 -8.781,7.83 -0.8,0.376 -1.557,0.729 -2.245,1.074 C 3.125,-0.43 1.526,0 0,0 m -0.047,-1.968 c 1.182,0 2.489,-0.346 3.996,-1.102 3.984,-1.997 10.122,-4.265 9.913,-6.968 -0.195,-2.493 -5.776,-3.229 -9.098,-4.062 -1.469,-0.371 -2.362,-1.149 -3.712,-2.498 -0.094,-0.094 -0.188,-0.188 -0.284,-0.284 -0.095,-0.095 -0.188,-0.19 -0.283,-0.284 -1.349,-1.351 -2.125,-2.244 -2.495,-3.715 -0.833,-3.324 -1.568,-8.912 -4.058,-9.107 -0.045,-0.004 -0.09,-0.005 -0.135,-0.005 -2.642,0 -4.865,6.008 -6.827,9.927 -1.992,3.985 -1.138,6.57 1.418,9.129 0.491,0.491 1.1,1.101 1.848,1.849 0.763,0.764 1.671,1.674 2.747,2.75 0.747,0.748 1.357,1.357 1.848,1.85 1.587,1.589 3.185,2.52 5.122,2.52"
         style="fill:#31353a;fill-opacity:1;fill-rule:nonzero;stroke:none"
         id="path5070"
         inkscape:connector-curvature="0" />
    </g>
    <path
       d="m 22.446723,13.484779 2.994852,0 0,2.994852 -2.994852,0 0,-2.994852 z"
       style="fill:#31353a;fill-opacity:1;fill-rule:evenodd;stroke:none"
       id="path5072"
       inkscape:connector-curvature="0" />
    <g
       id="g5074"
       transform="matrix(1.4974263,0,0,-1.4974263,25.440856,11.986454)">
      <path
         d="m 0,0 -2,0 0,2 2,0"
         style="fill:#31353a;fill-opacity:1;fill-rule:evenodd;stroke:none"
         id="path5076"
         inkscape:connector-curvature="0" />
    </g>
    <path
       d="m 26.939002,8.9925 2.994852,0 0,2.994853 -2.994852,0 0,-2.994853 z"
       style="fill:#31353a;fill-opacity:1;fill-rule:evenodd;stroke:none"
       id="path5078"
       inkscape:connector-curvature="0" />
    <path
       d="m 26.939002,13.484779 2.994852,0 0,2.994852 -2.994852,0 0,-2.994852 z"
       style="fill:#31353a;fill-opacity:1;fill-rule:evenodd;stroke:none"
       id="path5080"
       inkscape:connector-curvature="0" />
    <g
       id="g5082"
       transform="matrix(1.4974263,0,0,-1.4974263,12.305073,22.297875)">
      <path
         d="m 0,0 2.902,-2.902 c 0.375,-0.375 0.375,-0.983 0,-1.358 -0.375,-0.375 -0.983,-0.375 -1.358,0 l -2.901,2.902 c -0.375,0.375 -0.375,0.983 0,1.358 0.374,0.375 0.982,0.375 1.357,0"
         style="fill:#31353a;fill-opacity:1;fill-rule:evenodd;stroke:none"
         id="path5084"
         inkscape:connector-curvature="0" />
    </g>
    <g
       id="g5086"
       transform="matrix(1.4974263,0,0,-1.4974263,16.617542,24.331093)">
      <path
         d="m 0,0 -2.88,-2.88 c -0.375,-0.375 -0.983,-0.375 -1.357,0 -0.375,0.375 -0.375,0.983 0,1.357 l 2.879,2.881 C -0.983,1.733 -0.375,1.733 0,1.358 0.375,0.983 0.375,0.375 0,0"
         style="fill:#31353a;fill-opacity:1;fill-rule:evenodd;stroke:none"
         id="path5088"
         inkscape:connector-curvature="0" />
    </g>
  </g>
</svg>
