<?xml version="1.0" encoding="UTF-8" standalone="no"?>
<!-- Created with Inkscape (http://www.inkscape.org/) -->

<svg
   xmlns:dc="http://purl.org/dc/elements/1.1/"
   xmlns:cc="http://creativecommons.org/ns#"
   xmlns:rdf="http://www.w3.org/1999/02/22-rdf-syntax-ns#"
   xmlns:svg="http://www.w3.org/2000/svg"
   xmlns="http://www.w3.org/2000/svg"
   xmlns:sodipodi="http://sodipodi.sourceforge.net/DTD/sodipodi-0.dtd"
   xmlns:inkscape="http://www.inkscape.org/namespaces/inkscape"
   width="48"
   height="48"
   id="svg6050"
   version="1.1"
   inkscape:version="0.91 r13725"
   viewBox="0 0 48 48"
   sodipodi:docname="key.svg">
  <defs
     id="defs6052" />
  <sodipodi:namedview
     id="base"
     pagecolor="#ffffff"
     bordercolor="#666666"
     borderopacity="1.0"
     inkscape:pageopacity="0.0"
     inkscape:pageshadow="2"
     inkscape:zoom="7"
     inkscape:cx="30.437678"
     inkscape:cy="23.054"
     inkscape:current-layer="layer1"
     showgrid="true"
     inkscape:grid-bbox="true"
     inkscape:document-units="px"
     inkscape:window-width="1086"
     inkscape:window-height="1001"
     inkscape:window-x="772"
     inkscape:window-y="0"
     inkscape:window-maximized="0" />
  <metadata
     id="metadata6055">
    <rdf:RDF>
      <cc:Work
         rdf:about="">
        <dc:format>image/svg+xml</dc:format>
        <dc:type
           rdf:resource="http://purl.org/dc/dcmitype/StillImage" />
        <dc:title></dc:title>
      </cc:Work>
    </rdf:RDF>
  </metadata>
  <g
     id="layer1"
     inkscape:label="Layer 1"
     inkscape:groupmode="layer">
    <g
       id="g3614"
       transform="matrix(1.4993327,0,0,-1.4993327,4.2121445,40.027529)">
      <path
         d="m 0,0 c 0.391,-0.391 1.024,-0.391 1.414,0 l 10.075,10.137 c 0.391,0.391 0.391,1.024 0,1.414 -0.39,0.391 -1.024,0.391 -1.414,0 L 0,1.414 C -0.391,1.024 -0.391,0.391 0,0"
         style="fill:#31353a;fill-opacity:1;fill-rule:evenodd;stroke:none"
         id="path3616"
         inkscape:connector-curvature="0" />
    </g>
    <g
       id="g3618"
       transform="matrix(1.4993327,0,0,-1.4993327,30.733541,23.989323)">
      <path
         d="m 0,0 c -3.852,0 -7,3.133 -7,7 0,3.867 3.148,7 7,7 C 3.851,14 7,10.867 7,7 7,3.133 3.851,0 0,0 m 0,16 c -4.971,0 -9,-4.036 -9,-9.015 0,-4.979 4.029,-9.015 9,-9.015 4.97,0 9,4.036 9,9.015 C 9,11.964 4.97,16 0,16"
         style="fill:#31353a;fill-opacity:1;fill-rule:evenodd;stroke:none"
         id="path3620"
         inkscape:connector-curvature="0" />
    </g>
    <g
       id="g3622"
       transform="matrix(1.4993327,0,0,-1.4993327,4.2571245,37.948098)">
      <path
         d="m 0,0 c 0.391,0.391 1.024,0.391 1.414,0 l 4.903,-4.997 c 0.391,-0.39 0.391,-1.023 0,-1.414 -0.39,-0.391 -1.023,-0.391 -1.414,0 L 0,-1.414 C -0.391,-1.024 -0.391,-0.391 0,0"
         style="fill:#31353a;fill-opacity:1;fill-rule:evenodd;stroke:none"
         id="path3624"
         inkscape:connector-curvature="0" />
    </g>
    <g
       id="g3626"
       transform="matrix(1.4993327,0,0,-1.4993327,10.254456,31.950767)">
      <path
         d="m 0,0 c 0.391,0.391 1.024,0.391 1.414,0 l 4.903,-4.997 c 0.391,-0.39 0.391,-1.024 0,-1.414 -0.39,-0.391 -1.023,-0.391 -1.414,0 L 0,-1.414 C -0.391,-1.024 -0.391,-0.391 0,0"
         style="fill:#31353a;fill-opacity:1;fill-rule:evenodd;stroke:none"
         id="path3628"
         inkscape:connector-curvature="0" />
    </g>
  </g>
</svg>
