<?xml version="1.0" encoding="UTF-8" standalone="no"?>
<!-- Created with Inkscape (http://www.inkscape.org/) -->

<svg
   xmlns:dc="http://purl.org/dc/elements/1.1/"
   xmlns:cc="http://creativecommons.org/ns#"
   xmlns:rdf="http://www.w3.org/1999/02/22-rdf-syntax-ns#"
   xmlns:svg="http://www.w3.org/2000/svg"
   xmlns="http://www.w3.org/2000/svg"
   xmlns:sodipodi="http://sodipodi.sourceforge.net/DTD/sodipodi-0.dtd"
   xmlns:inkscape="http://www.inkscape.org/namespaces/inkscape"
   width="48"
   height="48"
   id="svg6050"
   version="1.1"
   inkscape:version="0.91 r13725"
   viewBox="0 0 48 48"
   sodipodi:docname="lightning.svg">
  <defs
     id="defs6052" />
  <sodipodi:namedview
     id="base"
     pagecolor="#ffffff"
     bordercolor="#B0B0B0"
     borderopacity="1.0"
     inkscape:pageopacity="0.0"
     inkscape:pageshadow="2"
     inkscape:zoom="7"
     inkscape:cx="30.437678"
     inkscape:cy="23.054"
     inkscape:current-layer="layer1"
     showgrid="true"
     inkscape:grid-bbox="true"
     inkscape:document-units="px"
     inkscape:window-width="1086"
     inkscape:window-height="1001"
     inkscape:window-x="772"
     inkscape:window-y="0"
     inkscape:window-maximized="0" />
  <metadata
     id="metadata6055">
    <rdf:RDF>
      <cc:Work
         rdf:about="">
        <dc:format>image/svg+xml</dc:format>
        <dc:type
           rdf:resource="http://purl.org/dc/dcmitype/StillImage" />
        <dc:title></dc:title>
      </cc:Work>
    </rdf:RDF>
  </metadata>
  <g
     id="layer1"
     inkscape:label="Layer 1"
     inkscape:groupmode="layer">
    <g
       id="g4890"
       transform="matrix(1.4150048,0,0,-1.4150048,39.321108,41.50336)">
      <path
         d="m 0,0 -3.54,3.21 c -0.292,0.279 -0.387,0.731 -0.095,1.011 l 0.171,0.252 c 0.293,0.279 0.766,0.279 1.058,0 L 1.648,0.771 C 1.654,0.767 1.66,0.765 1.665,0.76 L 1.93,0.507 C 2.076,0.368 2.148,0.184 2.147,0 2.148,-0.185 2.076,-0.368 1.93,-0.509 L 1.665,-0.762 C 1.66,-0.767 1.654,-0.768 1.648,-0.772 l -3.992,-3.61 c -0.292,-0.279 -0.764,-0.279 -1.057,0 l -0.171,0.252 c -0.292,0.279 -0.198,0.732 0.094,1.012 L 0,0 Z"
         style="fill:#B0B0B0;fill-opacity:1;fill-rule:evenodd;stroke:none"
         id="path4892"
         inkscape:connector-curvature="0" />
    </g>
    <g
       id="g5284"
       transform="matrix(1.4150048,0,0,-1.4150048,24.229346,-3.94e-7)">
      <path
         d="M 0,0 C -0.054,0 -0.108,-0.002 -0.161,-0.006 -0.514,-0.034 -0.748,-0.152 -1.025,-0.339 -1.179,-0.441 -1.321,-0.566 -1.444,-0.712 -1.481,-0.755 -1.515,-0.8 -1.547,-0.846 l -11.206,-14.832 c -0.443,-0.606 -0.507,-1.407 -0.168,-2.076 0.339,-0.669 1.026,-1.093 1.778,-1.099 l 5.773,-0.042 -1.815,-10.693 c -0.173,-0.919 0.318,-1.835 1.18,-2.204 0.257,-0.11 0.527,-0.163 0.794,-0.163 0.628,0 1.145,0.294 1.532,0.825 l 11.221,16.072 c 0.443,0.607 0.507,1.409 0.168,2.077 -0.34,0.668 -1.026,1.092 -1.779,1.098 l -5.772,0.01 1.795,9.402 c 0.037,0.152 0.057,0.309 0.057,0.471 0,1.082 -0.861,1.964 -1.939,1.999 C 0.047,0 0.024,0 0,0 m -0.001,-2 -2.257,-11.855 8.175,-0.028 -11.127,-16.072 2.256,13.043 -8.174,0.028 L -0.001,-2 m 0,0 0.005,0"
         style="fill:#B0B0B0;fill-opacity:1;fill-rule:nonzero;stroke:none"
         id="path5286"
         inkscape:connector-curvature="0" />
    </g>
  </g>
</svg>
