<?xml version="1.0" encoding="UTF-8" standalone="no"?>
<!-- Created with Inkscape (http://www.inkscape.org/) -->

<svg
   xmlns:dc="http://purl.org/dc/elements/1.1/"
   xmlns:cc="http://creativecommons.org/ns#"
   xmlns:rdf="http://www.w3.org/1999/02/22-rdf-syntax-ns#"
   xmlns:svg="http://www.w3.org/2000/svg"
   xmlns="http://www.w3.org/2000/svg"
   xmlns:sodipodi="http://sodipodi.sourceforge.net/DTD/sodipodi-0.dtd"
   xmlns:inkscape="http://www.inkscape.org/namespaces/inkscape"
   width="48"
   height="48"
   id="svg6050"
   version="1.1"
   inkscape:version="0.91 r13725"
   viewBox="0 0 48 48"
   sodipodi:docname="links.svg">
  <defs
     id="defs6052" />
  <sodipodi:namedview
     id="base"
     pagecolor="#ffffff"
     bordercolor="#666666"
     borderopacity="1.0"
     inkscape:pageopacity="0.0"
     inkscape:pageshadow="2"
     inkscape:zoom="7"
     inkscape:cx="30.437678"
     inkscape:cy="23.054"
     inkscape:current-layer="layer1"
     showgrid="true"
     inkscape:grid-bbox="true"
     inkscape:document-units="px"
     inkscape:window-width="1086"
     inkscape:window-height="1001"
     inkscape:window-x="772"
     inkscape:window-y="0"
     inkscape:window-maximized="0" />
  <metadata
     id="metadata6055">
    <rdf:RDF>
      <cc:Work
         rdf:about="">
        <dc:format>image/svg+xml</dc:format>
        <dc:type
           rdf:resource="http://purl.org/dc/dcmitype/StillImage" />
        <dc:title></dc:title>
      </cc:Work>
    </rdf:RDF>
  </metadata>
  <g
     id="layer1"
     inkscape:label="Layer 1"
     inkscape:groupmode="layer">
    <g
       id="g3754"
       transform="matrix(1.4999951,0,0,-1.4999951,7.4999938,16.500102)">
      <path
         d="m 0,0 c 2.761,0 5,-2.238 5,-5 0,-2.761 -2.239,-5 -5,-5 -2.761,0 -5,2.239 -5,5 0,2.762 2.239,5 5,5"
         style="fill:#31353a;fill-opacity:1;fill-rule:evenodd;stroke:none"
         id="path3756"
         inkscape:connector-curvature="0" />
    </g>
    <g
       id="g3758"
       transform="matrix(1.4999951,0,0,-1.4999951,7.4999938,19.500093)">
      <path
         d="m 0,0 c 1.657,0 3,-1.343 3,-3 0,-1.657 -1.343,-3 -3,-3 -1.657,0 -3,1.343 -3,3 0,1.657 1.343,3 3,3"
         style="fill:#31353a;fill-opacity:1;fill-rule:evenodd;stroke:none"
         id="path3760"
         inkscape:connector-curvature="0" />
    </g>
    <g
       id="g3762"
       transform="matrix(1.4999951,0,0,-1.4999951,13.791333,25.498561)">
      <path
         d="M 0,0 -0.781,-1.841 13.656,-9.199 14.438,-7.358 0,0 Z"
         style="fill:#31353a;fill-opacity:1;fill-rule:evenodd;stroke:none"
         id="path3764"
         inkscape:connector-curvature="0" />
    </g>
    <g
       id="g3766"
       transform="matrix(1.4999951,0,0,-1.4999951,40.499886,33.000049)">
      <path
         d="m 0,0 c 2.761,0 5,-2.239 5,-5 0,-2.761 -2.239,-5 -5,-5 -2.761,0 -5,2.239 -5,5 0,2.761 2.239,5 5,5"
         style="fill:#31353a;fill-opacity:1;fill-rule:evenodd;stroke:none"
         id="path3768"
         inkscape:connector-curvature="0" />
    </g>
    <g
       id="g3770"
       transform="matrix(1.4999951,0,0,-1.4999951,40.499886,1.559e-4)">
      <path
         d="m 0,0 c 2.761,0 5,-2.238 5,-5 0,-2.761 -2.239,-5 -5,-5 -2.761,0 -5,2.239 -5,5 0,2.762 2.239,5 5,5"
         style="fill:#31353a;fill-opacity:1;fill-rule:evenodd;stroke:none"
         id="path3772"
         inkscape:connector-curvature="0" />
    </g>
    <g
       id="g3774"
       transform="matrix(1.4999951,0,0,-1.4999951,40.499886,2.9999899)">
      <path
         d="m 0,0 c 1.657,0 3,-1.343 3,-3 0,-1.657 -1.343,-3 -3,-3 -1.657,0 -3,1.343 -3,3 0,1.657 1.343,3 3,3"
         style="fill:#ffffff;fill-opacity:1;fill-rule:evenodd;stroke:none"
         id="path3776"
         inkscape:connector-curvature="0" />
    </g>
    <g
       id="g3778"
       transform="matrix(1.4999951,0,0,-1.4999951,13.791333,21.938929)">
      <path
         d="M 0,0 -0.781,1.841 13.656,8.847 14.438,7.006 0,0 Z"
         style="fill:#31353a;fill-opacity:1;fill-rule:evenodd;stroke:none"
         id="path3780"
         inkscape:connector-curvature="0" />
    </g>
    <g
       id="g5436"
       transform="matrix(1.4999951,0,0,-1.4999951,7.4999938,16.500102)">
      <path
         d="m 0,0 c 2.761,0 5,-2.238 5,-5 0,-2.761 -2.239,-5 -5,-5 -2.761,0 -5,2.239 -5,5 0,2.762 2.239,5 5,5"
         style="fill:#31353a;fill-opacity:1;fill-rule:evenodd;stroke:none"
         id="path5438"
         inkscape:connector-curvature="0" />
    </g>
    <g
       id="g5440"
       transform="matrix(1.4999951,0,0,-1.4999951,7.4999938,19.500093)">
      <path
         d="m 0,0 c 1.657,0 3,-1.343 3,-3 0,-1.657 -1.343,-3 -3,-3 -1.657,0 -3,1.343 -3,3 0,1.657 1.343,3 3,3"
         style="fill:#ffffff;fill-opacity:1;fill-rule:evenodd;stroke:none"
         id="path5442"
         inkscape:connector-curvature="0" />
    </g>
    <g
       id="g5444"
       transform="matrix(1.4999951,0,0,-1.4999951,13.791333,25.498561)">
      <path
         d="M 0,0 -0.781,-1.841 13.656,-9.199 14.438,-7.358 0,0 Z"
         style="fill:#31353a;fill-opacity:1;fill-rule:evenodd;stroke:none"
         id="path5446"
         inkscape:connector-curvature="0" />
    </g>
    <g
       id="g5448"
       transform="matrix(1.4999951,0,0,-1.4999951,40.500006,36.000039)">
      <path
         d="m 0,0 c -1.657,0 -3,-1.343 -3,-3 0,-1.657 1.343,-3 3,-3 1.657,0 3,1.343 3,3 0,1.657 -1.343,3 -3,3"
         style="fill:#ffffff;fill-opacity:1;fill-rule:evenodd;stroke:none"
         id="path5450"
         inkscape:connector-curvature="0" />
    </g>
    <g
       id="g5452"
       transform="matrix(1.4999951,0,0,-1.4999951,40.500006,11.999961)">
      <path
         d="M 0,0 C -1.657,0 -3,1.343 -3,3 -3,4.657 -1.657,6 0,6 1.657,6 3,4.657 3,3 3,1.343 1.657,0 0,0 M 0,8 C -2.761,8 -5,5.761 -5,3 -5,0.238 -2.761,-2 0,-2 2.761,-2 5,0.238 5,3 5,5.761 2.761,8 0,8"
         style="fill:#31353a;fill-opacity:1;fill-rule:evenodd;stroke:none"
         id="path5454"
         inkscape:connector-curvature="0" />
    </g>
    <g
       id="g5456"
       transform="matrix(1.4999951,0,0,-1.4999951,13.791333,21.938929)">
      <path
         d="M 0,0 -0.781,1.841 13.656,8.847 14.438,7.006 0,0 Z"
         style="fill:#31353a;fill-opacity:1;fill-rule:evenodd;stroke:none"
         id="path5458"
         inkscape:connector-curvature="0" />
    </g>
  </g>
</svg>
