<?xml version="1.0" encoding="UTF-8" standalone="no"?>
<!-- Created with Inkscape (http://www.inkscape.org/) -->

<svg
   xmlns:dc="http://purl.org/dc/elements/1.1/"
   xmlns:cc="http://creativecommons.org/ns#"
   xmlns:rdf="http://www.w3.org/1999/02/22-rdf-syntax-ns#"
   xmlns:svg="http://www.w3.org/2000/svg"
   xmlns="http://www.w3.org/2000/svg"
   xmlns:sodipodi="http://sodipodi.sourceforge.net/DTD/sodipodi-0.dtd"
   xmlns:inkscape="http://www.inkscape.org/namespaces/inkscape"
   width="48"
   height="48"
   id="svg6050"
   version="1.1"
   inkscape:version="0.91 r13725"
   viewBox="0 0 48 48"
   sodipodi:docname="lock.svg">
  <defs
     id="defs6052" />
  <sodipodi:namedview
     id="base"
     pagecolor="#ffffff"
     bordercolor="#666666"
     borderopacity="1.0"
     inkscape:pageopacity="0.0"
     inkscape:pageshadow="2"
     inkscape:zoom="7"
     inkscape:cx="30.437678"
     inkscape:cy="23.054"
     inkscape:current-layer="layer1"
     showgrid="true"
     inkscape:grid-bbox="true"
     inkscape:document-units="px"
     inkscape:window-width="1086"
     inkscape:window-height="1001"
     inkscape:window-x="772"
     inkscape:window-y="0"
     inkscape:window-maximized="0" />
  <metadata
     id="metadata6055">
    <rdf:RDF>
      <cc:Work
         rdf:about="">
        <dc:format>image/svg+xml</dc:format>
        <dc:type
           rdf:resource="http://purl.org/dc/dcmitype/StillImage" />
        <dc:title></dc:title>
      </cc:Work>
    </rdf:RDF>
  </metadata>
  <g
     id="layer1"
     inkscape:label="Layer 1"
     inkscape:groupmode="layer">
    <g
       id="g3726"
       transform="matrix(1.5,0,0,-1.5,34.5,19.5)">
      <path
         d="m 0,0 c -0.553,0 -1,0.447 -1,1 l 0,3.816 C -1,8.284 -3.441,11 -7.037,11 -10.67,11 -13,8.226 -13,4.816 L -13,1 c 0,-0.553 -0.447,-1 -1,-1 -0.553,0 -1,0.447 -1,1 l 0,3.816 C -15,9.329 -11.772,13 -7.037,13 -2.32,13 1,9.405 1,4.816 L 1,1 C 1,0.447 0.553,0 0,0"
         style="fill:#31353a;fill-opacity:1;fill-rule:nonzero;stroke:none"
         id="path3728"
         inkscape:connector-curvature="0" />
    </g>
    <g
       id="g3730"
       transform="matrix(1.5,0,0,-1.5,10.5,21)">
      <path
         d="m 0,0 c -1.102,0 -2,-0.898 -2,-2 l 0,-12 c 0,-1.103 0.898,-2 2,-2 l 18,0 c 1.103,0 2,0.897 2,2 l 0,12 c 0,1.102 -0.897,2 -2,2 L 0,0 Z m 18,-18 -18,0 c -2.206,0 -4,1.794 -4,4 l 0,12 c 0,2.206 1.794,4 4,4 l 18,0 c 2.206,0 4,-1.794 4,-4 l 0,-12 c 0,-2.206 -1.794,-4 -4,-4"
         style="fill:#31353a;fill-opacity:1;fill-rule:nonzero;stroke:none"
         id="path3732"
         inkscape:connector-curvature="0" />
    </g>
    <g
       id="g3734"
       transform="matrix(1.5,0,0,-1.5,24,27)">
      <path
         d="m 0,0 c 1.105,0 2,-0.896 2,-2 0,-1.105 -0.895,-2 -2,-2 -1.105,0 -2,0.895 -2,2 0,1.104 0.895,2 2,2"
         style="fill:#31353a;fill-opacity:1;fill-rule:evenodd;stroke:none"
         id="path3736"
         inkscape:connector-curvature="0" />
    </g>
    <g
       id="g3738"
       transform="matrix(1.5,0,0,-1.5,24,30)">
      <path
         d="m 0,0 c 0.552,0 1,-0.448 1,-1 l 0,-4 c 0,-0.552 -0.448,-1 -1,-1 -0.552,0 -1,0.448 -1,1 l 0,4 c 0,0.552 0.448,1 1,1"
         style="fill:#31353a;fill-opacity:1;fill-rule:evenodd;stroke:none"
         id="path3740"
         inkscape:connector-curvature="0" />
    </g>
  </g>
</svg>
