<?xml version="1.0" encoding="UTF-8" standalone="no"?>
<!-- Created with Inkscape (http://www.inkscape.org/) -->

<svg
   xmlns:dc="http://purl.org/dc/elements/1.1/"
   xmlns:cc="http://creativecommons.org/ns#"
   xmlns:rdf="http://www.w3.org/1999/02/22-rdf-syntax-ns#"
   xmlns:svg="http://www.w3.org/2000/svg"
   xmlns="http://www.w3.org/2000/svg"
   xmlns:sodipodi="http://sodipodi.sourceforge.net/DTD/sodipodi-0.dtd"
   xmlns:inkscape="http://www.inkscape.org/namespaces/inkscape"
   width="48"
   height="48"
   id="svg6050"
   version="1.1"
   inkscape:version="0.91 r13725"
   viewBox="0 0 48 48"
   sodipodi:docname="map.svg">
  <defs
     id="defs6052" />
  <sodipodi:namedview
     id="base"
     pagecolor="#ffffff"
     bordercolor="#666666"
     borderopacity="1.0"
     inkscape:pageopacity="0.0"
     inkscape:pageshadow="2"
     inkscape:zoom="7"
     inkscape:cx="30.437678"
     inkscape:cy="23.054"
     inkscape:current-layer="layer1"
     showgrid="true"
     inkscape:grid-bbox="true"
     inkscape:document-units="px"
     inkscape:window-width="1086"
     inkscape:window-height="1001"
     inkscape:window-x="772"
     inkscape:window-y="0"
     inkscape:window-maximized="0" />
  <metadata
     id="metadata6055">
    <rdf:RDF>
      <cc:Work
         rdf:about="">
        <dc:format>image/svg+xml</dc:format>
        <dc:type
           rdf:resource="http://purl.org/dc/dcmitype/StillImage" />
        <dc:title></dc:title>
      </cc:Work>
    </rdf:RDF>
  </metadata>
  <g
     id="layer1"
     inkscape:label="Layer 1"
     inkscape:groupmode="layer">
    <g
       id="g4510"
       transform="matrix(1.5,0,0,-1.5,31.5105,0.09075729)">
      <path
         d="m 0,0 -9.982,-3.951 -10.062,3.949 c -0.086,0.025 -0.17,0.035 -0.249,0.035 -0.41,0.002 -0.714,-0.305 -0.714,-0.765 l 0,-25.938 c 0,-0.549 0.434,-1.121 0.963,-1.267 l 10.073,-3.975 9.969,4.047 10.032,-3.942 c 0.086,-0.023 0.17,-0.035 0.249,-0.035 0.411,0 0.714,0.305 0.714,0.766 l 0,25.648 c 0,0.549 -0.433,1.121 -0.963,1.27 L 0,0 Z m 0.005,-2.069 8.988,-3.876 0,-23.307 -8.995,3.387 -10,-3.953 -9.005,3.668 0,23.502 9.025,-3.335 9.987,3.914 z"
         style="fill:#31353a;fill-opacity:1;fill-rule:nonzero;stroke:none"
         id="path4512"
         inkscape:connector-curvature="0" />
    </g>
    <path
       d="m 15.00072,6.2817133 3,0 0,40.2179997 -3,0 0,-40.2179997 z"
       style="fill:#31353a;fill-opacity:1;fill-rule:evenodd;stroke:none"
       id="path4514"
       inkscape:connector-curvature="0" />
    <path
       d="m 30.00072,1.4997133 3,0 0,39.3284997 -3,0 0,-39.3284997 z"
       style="fill:#31353a;fill-opacity:1;fill-rule:evenodd;stroke:none"
       id="path4516"
       inkscape:connector-curvature="0" />
  </g>
</svg>
