<?xml version="1.0" encoding="UTF-8" standalone="no"?>
<!-- Created with Inkscape (http://www.inkscape.org/) -->

<svg
   xmlns:dc="http://purl.org/dc/elements/1.1/"
   xmlns:cc="http://creativecommons.org/ns#"
   xmlns:rdf="http://www.w3.org/1999/02/22-rdf-syntax-ns#"
   xmlns:svg="http://www.w3.org/2000/svg"
   xmlns="http://www.w3.org/2000/svg"
   xmlns:sodipodi="http://sodipodi.sourceforge.net/DTD/sodipodi-0.dtd"
   xmlns:inkscape="http://www.inkscape.org/namespaces/inkscape"
   width="48"
   height="48"
   id="svg6050"
   version="1.1"
   inkscape:version="0.91 r13725"
   viewBox="0 0 48 48"
   sodipodi:docname="map_pin.svg">
  <defs
     id="defs6052" />
  <sodipodi:namedview
     id="base"
     pagecolor="#ffffff"
     bordercolor="#666666"
     borderopacity="1.0"
     inkscape:pageopacity="0.0"
     inkscape:pageshadow="2"
     inkscape:zoom="7"
     inkscape:cx="30.437678"
     inkscape:cy="23.054"
     inkscape:current-layer="layer1"
     showgrid="true"
     inkscape:grid-bbox="true"
     inkscape:document-units="px"
     inkscape:window-width="1086"
     inkscape:window-height="1001"
     inkscape:window-x="772"
     inkscape:window-y="0"
     inkscape:window-maximized="0" />
  <metadata
     id="metadata6055">
    <rdf:RDF>
      <cc:Work
         rdf:about="">
        <dc:format>image/svg+xml</dc:format>
        <dc:type
           rdf:resource="http://purl.org/dc/dcmitype/StillImage" />
        <dc:title></dc:title>
      </cc:Work>
    </rdf:RDF>
  </metadata>
  <g
     id="layer1"
     inkscape:label="Layer 1"
     inkscape:groupmode="layer">
    <g
       id="g3606"
       transform="matrix(1.5,0,0,-1.5,24.1725,0)">
      <path
         d="m 0,0 c -6.559,0 -12.115,-5.587 -12.115,-12.205 0,-6.93 6.439,-14.017 10.77,-18.998 0.016,-0.02 0.716,-0.797 1.579,-0.797 l 0.076,0 c 0.862,0 1.558,0.777 1.575,0.797 4.065,4.673 10,12.377 10,18.998 C 11.885,-5.587 7.552,0 0,0 m 0,-2 c 6.829,0 9.885,-5.125 9.885,-10.205 0,-4.475 -3.19,-10.415 -9.483,-17.656 -0.036,-0.035 -0.086,-0.075 -0.131,-0.107 -0.046,0.032 -0.097,0.072 -0.133,0.107 l -0.524,0.601 c -4.106,4.71 -9.729,11.161 -9.729,17.055 C -10.115,-6.673 -5.483,-2 0,-2"
         style="fill:#31353a;fill-opacity:1;fill-rule:nonzero;stroke:none"
         id="path3608"
         inkscape:connector-curvature="0" />
    </g>
    <g
       id="g3610"
       transform="matrix(1.5,0,0,-1.5,24.0537,9.0837)">
      <path
         d="m 0,0 c -3.314,0 -6,-2.686 -6,-6 0,-3.314 2.686,-6 6,-6 3.313,0 6,2.686 6,6 0,3.314 -2.687,6 -6,6 m -0.046,-1.956 c 2.206,0 4,-1.795 4,-4 C 3.954,-8.162 2.206,-10 0,-10 c -2.206,0 -4.046,1.838 -4.046,4.044 0,2.205 1.795,4 4,4"
         style="fill:#31353a;fill-opacity:1;fill-rule:nonzero;stroke:none"
         id="path3612"
         inkscape:connector-curvature="0" />
    </g>
  </g>
</svg>
