<?xml version="1.0" encoding="UTF-8" standalone="no"?>
<!-- Created with Inkscape (http://www.inkscape.org/) -->

<svg
   xmlns:dc="http://purl.org/dc/elements/1.1/"
   xmlns:cc="http://creativecommons.org/ns#"
   xmlns:rdf="http://www.w3.org/1999/02/22-rdf-syntax-ns#"
   xmlns:svg="http://www.w3.org/2000/svg"
   xmlns="http://www.w3.org/2000/svg"
   xmlns:sodipodi="http://sodipodi.sourceforge.net/DTD/sodipodi-0.dtd"
   xmlns:inkscape="http://www.inkscape.org/namespaces/inkscape"
   width="48"
   height="48"
   id="svg6050"
   version="1.1"
   inkscape:version="0.91 r13725"
   viewBox="0 0 48 48"
   sodipodi:docname="microphone.svg">
  <defs
     id="defs6052" />
  <sodipodi:namedview
     id="base"
     pagecolor="#ffffff"
     bordercolor="#666666"
     borderopacity="1.0"
     inkscape:pageopacity="0.0"
     inkscape:pageshadow="2"
     inkscape:zoom="7"
     inkscape:cx="30.437678"
     inkscape:cy="23.054"
     inkscape:current-layer="layer1"
     showgrid="true"
     inkscape:grid-bbox="true"
     inkscape:document-units="px"
     inkscape:window-width="1086"
     inkscape:window-height="1001"
     inkscape:window-x="772"
     inkscape:window-y="0"
     inkscape:window-maximized="0" />
  <metadata
     id="metadata6055">
    <rdf:RDF>
      <cc:Work
         rdf:about="">
        <dc:format>image/svg+xml</dc:format>
        <dc:type
           rdf:resource="http://purl.org/dc/dcmitype/StillImage" />
        <dc:title></dc:title>
      </cc:Work>
    </rdf:RDF>
  </metadata>
  <g
     id="layer1"
     inkscape:label="Layer 1"
     inkscape:groupmode="layer">
    <g
       id="g4170"
       transform="matrix(1.5,0,0,-1.5,23.94768,3)">
      <path
         d="m 0,0 c -1.635,0 -2.965,-1.439 -2.965,-3.207 l 0,-11.919 C -2.965,-16.818 -1.746,-18 0,-18 l 0.237,0 c 1.674,0 2.798,1.155 2.798,2.874 l 0,11.919 C 3.035,-1.379 1.832,0 0.237,0 L 0,0 Z M 0.237,-20 0,-20 c -2.831,0 -4.965,2.096 -4.965,4.874 l 0,11.919 C -4.965,-0.336 -2.738,2 0,2 l 0.237,0 c 2.691,0 4.798,-2.287 4.798,-5.207 l 0,-11.919 C 5.035,-17.95 3.018,-20 0.237,-20"
         style="fill:#31353a;fill-opacity:1;fill-rule:nonzero;stroke:none"
         id="path4172"
         inkscape:connector-curvature="0" />
    </g>
    <g
       id="g4174"
       transform="matrix(1.5,0,0,-1.5,26.262,40.499856)">
      <path
         d="m 0,0 -2.973,0 c -5.663,0 -8.535,3.951 -8.535,10.841 l 0,4.159 c 0,0.552 0.448,1 1,1 0.552,0 1,-0.448 1,-1 l 0,-4.159 C -9.508,6.807 -8.685,2 -2.973,2 L 0,2 c 4.368,0 6.492,2.892 6.492,8.841 l 0,4.159 c 0,0.552 0.448,1 1,1 0.553,0 1,-0.448 1,-1 l 0,-4.159 C 8.492,1.881 3.874,0 0,0"
         style="fill:#31353a;fill-opacity:1;fill-rule:nonzero;stroke:none"
         id="path4176"
         inkscape:connector-curvature="0" />
    </g>
    <path
       d="m 22.50036,38.999256 3,0 0,9 -3,0 0,-9 z"
       style="fill:#31353a;fill-opacity:1;fill-rule:evenodd;stroke:none"
       id="path4178"
       inkscape:connector-curvature="0" />
    <g
       id="g4180"
       transform="matrix(1.5,0,0,-1.5,15.00036,45)">
      <path
         d="m 0,0 12,0 c 0.552,0 1,-0.448 1,-1 0,-0.552 -0.448,-1 -1,-1 L 0,-2 c -0.552,0 -1,0.448 -1,1 0,0.552 0.448,1 1,1"
         style="fill:#31353a;fill-opacity:1;fill-rule:evenodd;stroke:none"
         id="path4182"
         inkscape:connector-curvature="0" />
    </g>
    <g
       id="g5844"
       transform="matrix(1.5,0,0,-1.5,23.94768,3)">
      <path
         d="m 0,0 c -1.635,0 -2.965,-1.439 -2.965,-3.207 l 0,-11.919 C -2.965,-16.818 -1.746,-18 0,-18 l 0.237,0 c 1.674,0 2.798,1.155 2.798,2.874 l 0,11.919 C 3.035,-1.379 1.832,0 0.237,0 L 0,0 Z M 0.237,-20 0,-20 c -2.831,0 -4.965,2.096 -4.965,4.874 l 0,11.919 C -4.965,-0.336 -2.738,2 0,2 l 0.237,0 c 2.691,0 4.798,-2.287 4.798,-5.207 l 0,-11.919 C 5.035,-17.95 3.018,-20 0.237,-20"
         style="fill:#31353a;fill-opacity:1;fill-rule:nonzero;stroke:none"
         id="path5846"
         inkscape:connector-curvature="0" />
    </g>
    <g
       id="g5848"
       transform="matrix(1.5,0,0,-1.5,26.262,40.499856)">
      <path
         d="m 0,0 -2.973,0 c -5.663,0 -8.535,3.951 -8.535,10.841 l 0,4.159 c 0,0.552 0.448,1 1,1 0.552,0 1,-0.448 1,-1 l 0,-4.159 C -9.508,6.807 -8.685,2 -2.973,2 L 0,2 c 4.368,0 6.492,2.892 6.492,8.841 l 0,4.159 c 0,0.552 0.448,1 1,1 0.553,0 1,-0.448 1,-1 l 0,-4.159 C 8.492,1.881 3.874,0 0,0"
         style="fill:#31353a;fill-opacity:1;fill-rule:nonzero;stroke:none"
         id="path5850"
         inkscape:connector-curvature="0" />
    </g>
    <path
       d="m 22.50036,38.999256 3,0 0,9 -3,0 0,-9 z"
       style="fill:#31353a;fill-opacity:1;fill-rule:evenodd;stroke:none"
       id="path5852"
       inkscape:connector-curvature="0" />
    <g
       id="g5854"
       transform="matrix(1.5,0,0,-1.5,15.00036,45)">
      <path
         d="m 0,0 12,0 c 0.552,0 1,-0.448 1,-1 0,-0.552 -0.448,-1 -1,-1 L 0,-2 c -0.552,0 -1,0.448 -1,1 0,0.552 0.448,1 1,1"
         style="fill:#31353a;fill-opacity:1;fill-rule:evenodd;stroke:none"
         id="path5856"
         inkscape:connector-curvature="0" />
    </g>
  </g>
</svg>
