<?xml version="1.0" encoding="UTF-8" standalone="no"?>
<!-- Created with Inkscape (http://www.inkscape.org/) -->

<svg
   xmlns:dc="http://purl.org/dc/elements/1.1/"
   xmlns:cc="http://creativecommons.org/ns#"
   xmlns:rdf="http://www.w3.org/1999/02/22-rdf-syntax-ns#"
   xmlns:svg="http://www.w3.org/2000/svg"
   xmlns="http://www.w3.org/2000/svg"
   xmlns:sodipodi="http://sodipodi.sourceforge.net/DTD/sodipodi-0.dtd"
   xmlns:inkscape="http://www.inkscape.org/namespaces/inkscape"
   width="48"
   height="48"
   id="svg6050"
   version="1.1"
   inkscape:version="0.91 r13725"
   viewBox="0 0 48 48"
   sodipodi:docname="mouse.svg">
  <defs
     id="defs6052" />
  <sodipodi:namedview
     id="base"
     pagecolor="#ffffff"
     bordercolor="#666666"
     borderopacity="1.0"
     inkscape:pageopacity="0.0"
     inkscape:pageshadow="2"
     inkscape:zoom="7"
     inkscape:cx="30.437678"
     inkscape:cy="23.054"
     inkscape:current-layer="layer1"
     showgrid="true"
     inkscape:grid-bbox="true"
     inkscape:document-units="px"
     inkscape:window-width="1086"
     inkscape:window-height="1001"
     inkscape:window-x="772"
     inkscape:window-y="0"
     inkscape:window-maximized="0" />
  <metadata
     id="metadata6055">
    <rdf:RDF>
      <cc:Work
         rdf:about="">
        <dc:format>image/svg+xml</dc:format>
        <dc:type
           rdf:resource="http://purl.org/dc/dcmitype/StillImage" />
        <dc:title></dc:title>
      </cc:Work>
    </rdf:RDF>
  </metadata>
  <g
     id="layer1"
     inkscape:label="Layer 1"
     inkscape:groupmode="layer">
    <g
       id="g5060"
       transform="matrix(1.5,0,0,-1.5,24.07425,0)">
      <path
         d="m 0,0 c -4.941,0 -9.047,-4.007 -9.047,-8.948 l 0,-14.104 C -9.047,-27.993 -4.941,-32 0,-32 c 4.941,0 8.948,4.007 8.948,8.948 l 0,14.104 C 8.948,-4.007 4.941,0 0,0 m 0,-2 c 3.831,0 6.948,-3.117 6.948,-6.948 l 0,-14.104 C 6.948,-26.883 3.831,-30 0,-30 c -3.831,0 -7.047,3.117 -7.047,6.948 l 0,14.104 C -7.047,-5.117 -3.831,-2 0,-2"
         style="fill:#31353a;fill-opacity:1;fill-rule:nonzero;stroke:none"
         id="path5062"
         inkscape:connector-curvature="0" />
    </g>
    <g
       id="g5064"
       transform="matrix(1.5,0,0,-1.5,24.01605,9)">
      <path
         d="m 0,0 c 0.552,0 1,-0.448 1,-1 l 0,-5 c 0,-0.552 -0.448,-1 -1,-1 -0.552,0 -1,0.448 -1,1 l 0,5 c 0,0.552 0.448,1 1,1"
         style="fill:#31353a;fill-opacity:1;fill-rule:evenodd;stroke:none"
         id="path5066"
         inkscape:connector-curvature="0" />
    </g>
  </g>
</svg>
