<?xml version="1.0" encoding="UTF-8" standalone="no"?>
<!-- Created with Inkscape (http://www.inkscape.org/) -->

<svg
   xmlns:dc="http://purl.org/dc/elements/1.1/"
   xmlns:cc="http://creativecommons.org/ns#"
   xmlns:rdf="http://www.w3.org/1999/02/22-rdf-syntax-ns#"
   xmlns:svg="http://www.w3.org/2000/svg"
   xmlns="http://www.w3.org/2000/svg"
   xmlns:sodipodi="http://sodipodi.sourceforge.net/DTD/sodipodi-0.dtd"
   xmlns:inkscape="http://www.inkscape.org/namespaces/inkscape"
   width="48"
   height="48"
   id="svg6050"
   version="1.1"
   inkscape:version="0.91 r13725"
   viewBox="0 0 48 48"
   sodipodi:docname="mute.svg">
  <defs
     id="defs6052" />
  <sodipodi:namedview
     id="base"
     pagecolor="#ffffff"
     bordercolor="#666666"
     borderopacity="1.0"
     inkscape:pageopacity="0.0"
     inkscape:pageshadow="2"
     inkscape:zoom="7"
     inkscape:cx="36.429368"
     inkscape:cy="23.054"
     inkscape:current-layer="layer1"
     showgrid="true"
     inkscape:grid-bbox="true"
     inkscape:document-units="px"
     inkscape:window-width="1086"
     inkscape:window-height="1001"
     inkscape:window-x="772"
     inkscape:window-y="0"
     inkscape:window-maximized="0" />
  <metadata
     id="metadata6055">
    <rdf:RDF>
      <cc:Work
         rdf:about="">
        <dc:format>image/svg+xml</dc:format>
        <dc:type
           rdf:resource="http://purl.org/dc/dcmitype/StillImage" />
        <dc:title></dc:title>
      </cc:Work>
    </rdf:RDF>
  </metadata>
  <g
     id="layer1"
     inkscape:label="Layer 1"
     inkscape:groupmode="layer">
    <g
       id="g3682"
       transform="matrix(1.548462,0,0,-1.548462,24.798619,6.6894998)">
      <path
         d="m 0,0 -8.729,-7 c -0.164,-0.111 -0.359,-0.17 -0.558,-0.17 l -3.637,-0.003 c -0.643,0 -1.091,-0.365 -1.091,-0.692 l 0.054,-6.598 c 0,-0.336 0.448,-0.703 1.09,-0.703 l 3.637,-10e-4 c 0.199,0 0.394,-0.06 0.559,-0.171 L 0,-22.355 0,0 Z m 1,-25.237 c -0.196,0 -0.392,0.058 -0.56,0.171 l -9.98,7.899 -3.332,0.002 c -1.703,0 -3.089,1.209 -3.089,2.694 l -0.054,6.598 c 0,1.492 1.387,2.7 3.09,2.7 L -9.593,-5.17 0.441,2.708 C 0.748,2.915 1.144,2.935 1.47,2.761 1.796,2.587 2,2.248 2,1.878 L 2,-24.237 C 2,-24.607 1.796,-24.947 1.469,-25.12 1.322,-25.198 1.161,-25.237 1,-25.237"
         style="fill:#31353a;fill-opacity:1;fill-rule:nonzero;stroke:none"
         id="path3684"
         inkscape:connector-curvature="0" />
    </g>
    <g
       id="g3686"
       transform="matrix(1.548462,0,0,-1.548462,33.070974,16.713624)">
      <path
         d="m 0,0 c 0.391,0.391 1.024,0.391 1.414,0 l 7.903,-7.997 c 0.391,-0.39 0.391,-1.024 0,-1.414 -0.39,-0.391 -1.023,-0.391 -1.414,0 L 0,-1.414 C -0.391,-1.024 -0.391,-0.391 0,0"
         style="fill:#31353a;fill-opacity:1;fill-rule:evenodd;stroke:none"
         id="path3688"
         inkscape:connector-curvature="0" />
    </g>
    <g
       id="g3690"
       transform="matrix(1.548462,0,0,-1.548462,47.547075,16.713624)">
      <path
         d="m 0,0 c -0.391,0.391 -1.024,0.391 -1.414,0 l -7.903,-7.997 c -0.391,-0.39 -0.391,-1.024 0,-1.414 0.39,-0.391 1.023,-0.391 1.414,0 L 0,-1.414 C 0.39,-1.024 0.39,-0.391 0,0"
         style="fill:#31353a;fill-opacity:1;fill-rule:evenodd;stroke:none"
         id="path3692"
         inkscape:connector-curvature="0" />
    </g>
  </g>
</svg>
