<?xml version="1.0" encoding="UTF-8" standalone="no"?>
<!-- Created with Inkscape (http://www.inkscape.org/) -->

<svg
   xmlns:dc="http://purl.org/dc/elements/1.1/"
   xmlns:cc="http://creativecommons.org/ns#"
   xmlns:rdf="http://www.w3.org/1999/02/22-rdf-syntax-ns#"
   xmlns:svg="http://www.w3.org/2000/svg"
   xmlns="http://www.w3.org/2000/svg"
   xmlns:sodipodi="http://sodipodi.sourceforge.net/DTD/sodipodi-0.dtd"
   xmlns:inkscape="http://www.inkscape.org/namespaces/inkscape"
   width="48"
   height="48"
   id="svg6050"
   version="1.1"
   inkscape:version="0.91 r13725"
   viewBox="0 0 48 48"
   sodipodi:docname="paper_tray.svg">
  <defs
     id="defs6052" />
  <sodipodi:namedview
     id="base"
     pagecolor="#ffffff"
     bordercolor="#666666"
     borderopacity="1.0"
     inkscape:pageopacity="0.0"
     inkscape:pageshadow="2"
     inkscape:zoom="7"
     inkscape:cx="30.437678"
     inkscape:cy="23.054"
     inkscape:current-layer="layer1"
     showgrid="true"
     inkscape:grid-bbox="true"
     inkscape:document-units="px"
     inkscape:window-width="1086"
     inkscape:window-height="1001"
     inkscape:window-x="772"
     inkscape:window-y="0"
     inkscape:window-maximized="0" />
  <metadata
     id="metadata6055">
    <rdf:RDF>
      <cc:Work
         rdf:about="">
        <dc:format>image/svg+xml</dc:format>
        <dc:type
           rdf:resource="http://purl.org/dc/dcmitype/StillImage" />
        <dc:title></dc:title>
      </cc:Work>
    </rdf:RDF>
  </metadata>
  <g
     id="layer1"
     inkscape:label="Layer 1"
     inkscape:groupmode="layer">
    <g
       id="g4304"
       transform="matrix(1.4995883,0,0,-1.4995883,44.99435,21.810523)">
      <path
         d="m 0,0 -9.842,0 c -0.045,-2.4 -1.747,-4.053 -4.158,-4.053 -2.411,0 -4.082,1.653 -4.127,4.053 L -28,0 c -1.104,0 -2,-0.896 -2,-2 l 0,-10.979 c 0,-1.104 0.896,-1.999 2,-1.999 l 28,0 c 1.105,0 2,0.895 2,1.999 L 2,-2 C 2,-0.896 1.105,0 0,0 m 0,-2 0,-10.979 -28,0 0,10.979 8.223,0 c 0.873,-2.514 2.993,-4.053 5.777,-4.053 2.784,0 4.936,1.539 5.809,4.053 L 0,-2"
         style="fill:#31353a;fill-opacity:1;fill-rule:nonzero;stroke:none"
         id="path4306"
         inkscape:connector-curvature="0" />
    </g>
    <g
       id="g4308"
       transform="matrix(1.4995883,0,0,-1.4995883,46.498377,25.805582)">
      <path
         d="m 0,0 c -0.438,0 -0.841,0.29 -0.963,0.733 l -3.469,11.989 -21.449,0 -3.159,-11.33 c -0.143,-0.534 -0.69,-0.851 -1.224,-0.71 -0.533,0.142 -0.851,0.689 -0.71,1.223 l 3.357,12.074 c 0.117,0.438 0.513,0.743 0.967,0.743 l 22.979,0 c 0.449,0 0.844,-0.3 0.964,-0.734 L 0.965,1.267 C 1.112,0.734 0.8,0.183 0.268,0.036 0.179,0.012 0.089,0 0,0"
         style="fill:#31353a;fill-opacity:1;fill-rule:nonzero;stroke:none"
         id="path4310"
         inkscape:connector-curvature="0" />
    </g>
  </g>
</svg>
