<?xml version="1.0" encoding="UTF-8" standalone="no"?>
<!-- Created with Inkscape (http://www.inkscape.org/) -->

<svg
   xmlns:dc="http://purl.org/dc/elements/1.1/"
   xmlns:cc="http://creativecommons.org/ns#"
   xmlns:rdf="http://www.w3.org/1999/02/22-rdf-syntax-ns#"
   xmlns:svg="http://www.w3.org/2000/svg"
   xmlns="http://www.w3.org/2000/svg"
   xmlns:sodipodi="http://sodipodi.sourceforge.net/DTD/sodipodi-0.dtd"
   xmlns:inkscape="http://www.inkscape.org/namespaces/inkscape"
   width="48"
   height="48"
   id="svg6050"
   version="1.1"
   inkscape:version="0.91 r13725"
   viewBox="0 0 48 48"
   sodipodi:docname="paperclip.svg">
  <defs
     id="defs6052" />
  <sodipodi:namedview
     id="base"
     pagecolor="#ffffff"
     bordercolor="#666666"
     borderopacity="1.0"
     inkscape:pageopacity="0.0"
     inkscape:pageshadow="2"
     inkscape:zoom="7"
     inkscape:cx="36.429368"
     inkscape:cy="23.054"
     inkscape:current-layer="layer1"
     showgrid="true"
     inkscape:grid-bbox="true"
     inkscape:document-units="px"
     inkscape:window-width="1086"
     inkscape:window-height="1001"
     inkscape:window-x="772"
     inkscape:window-y="0"
     inkscape:window-maximized="0" />
  <metadata
     id="metadata6055">
    <rdf:RDF>
      <cc:Work
         rdf:about="">
        <dc:format>image/svg+xml</dc:format>
        <dc:type
           rdf:resource="http://purl.org/dc/dcmitype/StillImage" />
        <dc:title></dc:title>
      </cc:Work>
    </rdf:RDF>
  </metadata>
  <g
     id="layer1"
     inkscape:label="Layer 1"
     inkscape:groupmode="layer">
    <g
       id="g3630"
       transform="matrix(1.4975536,0,0,-1.4975536,8.1219827,47.194538)">
      <path
         d="m 0,0 c -1.356,0 -2.659,0.562 -3.697,1.601 -2.302,2.308 -2.302,6.064 0,8.371 l 17.946,19.057 c 2.799,2.805 7.088,2.553 10.218,-0.581 1.403,-1.405 2.19,-3.431 2.161,-5.559 -0.03,-2.107 -0.853,-4.123 -2.259,-5.532 L 10.806,2.918 C 10.428,2.514 9.795,2.495 9.392,2.875 8.99,3.255 8.971,3.889 9.35,4.292 l 13.583,14.461 c 1.063,1.064 1.672,2.574 1.695,4.164 0.022,1.59 -0.552,3.09 -1.575,4.114 -1.92,1.924 -5.046,2.932 -7.37,0.602 L -2.262,8.576 C -3.805,7.029 -3.805,4.544 -2.282,3.018 -1.568,2.303 -0.721,1.955 0.182,2.01 1.075,2.065 1.993,2.523 2.767,3.299 l 14.279,15.197 c 0.517,0.519 1.557,1.79 0.498,2.851 -0.599,0.601 -1.02,0.563 -1.159,0.552 -0.395,-0.035 -0.857,-0.309 -1.337,-0.79 L 4.302,9.679 C 3.922,9.276 3.289,9.256 2.888,9.637 2.486,10.015 2.467,10.65 2.846,11.053 l 10.767,11.451 c 0.847,0.851 1.712,1.312 2.593,1.391 0.687,0.061 1.71,-0.085 2.753,-1.131 1.547,-1.551 1.355,-3.826 -0.478,-5.663 L 4.202,1.903 C 3.062,0.759 1.686,0.095 0.305,0.01 0.203,0.003 0.102,0 0,0"
         style="fill:#31353a;fill-opacity:1;fill-rule:nonzero;stroke:none"
         id="path3632"
         inkscape:connector-curvature="0" />
    </g>
  </g>
</svg>
