<?xml version="1.0" encoding="UTF-8" standalone="no"?>
<!-- Created with Inkscape (http://www.inkscape.org/) -->

<svg
   xmlns:dc="http://purl.org/dc/elements/1.1/"
   xmlns:cc="http://creativecommons.org/ns#"
   xmlns:rdf="http://www.w3.org/1999/02/22-rdf-syntax-ns#"
   xmlns:svg="http://www.w3.org/2000/svg"
   xmlns="http://www.w3.org/2000/svg"
   xmlns:sodipodi="http://sodipodi.sourceforge.net/DTD/sodipodi-0.dtd"
   xmlns:inkscape="http://www.inkscape.org/namespaces/inkscape"
   width="48"
   height="48"
   id="svg6050"
   version="1.1"
   inkscape:version="0.91 r13725"
   viewBox="0 0 48 48"
   sodipodi:docname="pause.svg">
  <defs
     id="defs6052" />
  <sodipodi:namedview
     id="base"
     pagecolor="#ffffff"
     bordercolor="#666666"
     borderopacity="1.0"
     inkscape:pageopacity="0.0"
     inkscape:pageshadow="2"
     inkscape:zoom="7"
     inkscape:cx="30.437678"
     inkscape:cy="23.054"
     inkscape:current-layer="layer1"
     showgrid="true"
     inkscape:grid-bbox="true"
     inkscape:document-units="px"
     inkscape:window-width="1086"
     inkscape:window-height="1001"
     inkscape:window-x="772"
     inkscape:window-y="0"
     inkscape:window-maximized="0" />
  <metadata
     id="metadata6055">
    <rdf:RDF>
      <cc:Work
         rdf:about="">
        <dc:format>image/svg+xml</dc:format>
        <dc:type
           rdf:resource="http://purl.org/dc/dcmitype/StillImage" />
        <dc:title></dc:title>
      </cc:Work>
    </rdf:RDF>
  </metadata>
  <g
     id="layer1"
     inkscape:label="Layer 1"
     inkscape:groupmode="layer">
    <g
       id="g4066"
       transform="matrix(1.5,0,0,-1.5,19.51212,0)">
      <path
         d="m 0,0 -7.006,0 c -0.553,0 -1,-0.447 -1,-1 l 0,-30 c 0,-0.552 0.447,-1 1,-1 L 0,-32 c 0.553,0 1,0.448 1,1 L 1,-1 C 1,-0.447 0.553,0 0,0 m -1,-30 -5.006,0 0,28 5.006,0 0,-28 z"
         style="fill:#BFBFBF;fill-opacity:1;fill-rule:nonzero;stroke:none"
         id="path4068"
         inkscape:connector-curvature="0" />
    </g>
    <g
       id="g4070"
       transform="matrix(1.5,0,0,-1.5,38.99688,0)">
      <path
         d="m 0,0 -6.971,0 c -0.552,0 -1,-0.447 -1,-1 l 0,-30 c 0,-0.552 0.448,-1 1,-1 L 0,-32 c 0.553,0 1,0.448 1,1 L 1,-1 C 1,-0.447 0.553,0 0,0 m -1,-30 -4.971,0 0,28 4.971,0 0,-28 z"
         style="fill:#BFBFBF;fill-opacity:1;fill-rule:nonzero;stroke:none"
         id="path4072"
         inkscape:connector-curvature="0" />
    </g>
    <g
       id="g5740"
       transform="matrix(1.5,0,0,-1.5,19.51212,0)">
      <path
         d="m 0,0 -7.006,0 c -0.553,0 -1,-0.447 -1,-1 l 0,-30 c 0,-0.552 0.447,-1 1,-1 L 0,-32 c 0.553,0 1,0.448 1,1 L 1,-1 C 1,-0.447 0.553,0 0,0 m -1,-30 -5.006,0 0,28 5.006,0 0,-28 z"
         style="fill:#BFBFBF;fill-opacity:1;fill-rule:nonzero;stroke:none"
         id="path5742"
         inkscape:connector-curvature="0" />
    </g>
    <g
       id="g5744"
       transform="matrix(1.5,0,0,-1.5,38.99688,0)">
      <path
         d="m 0,0 -6.971,0 c -0.552,0 -1,-0.447 -1,-1 l 0,-30 c 0,-0.552 0.448,-1 1,-1 L 0,-32 c 0.553,0 1,0.448 1,1 L 1,-1 C 1,-0.447 0.553,0 0,0 m -1,-30 -4.971,0 0,28 4.971,0 0,-28 z"
         style="fill:#BFBFBF;fill-opacity:1;fill-rule:nonzero;stroke:none"
         id="path5746"
         inkscape:connector-curvature="0" />
    </g>
  </g>
</svg>
