<?xml version="1.0" encoding="UTF-8" standalone="no"?>
<!-- Created with Inkscape (http://www.inkscape.org/) -->

<svg
   xmlns:dc="http://purl.org/dc/elements/1.1/"
   xmlns:cc="http://creativecommons.org/ns#"
   xmlns:rdf="http://www.w3.org/1999/02/22-rdf-syntax-ns#"
   xmlns:svg="http://www.w3.org/2000/svg"
   xmlns="http://www.w3.org/2000/svg"
   xmlns:sodipodi="http://sodipodi.sourceforge.net/DTD/sodipodi-0.dtd"
   xmlns:inkscape="http://www.inkscape.org/namespaces/inkscape"
   width="48"
   height="48"
   id="svg6050"
   version="1.1"
   inkscape:version="0.91 r13725"
   viewBox="0 0 48 48"
   sodipodi:docname="phone.svg">
  <defs
     id="defs6052" />
  <sodipodi:namedview
     id="base"
     pagecolor="#ffffff"
     bordercolor="#666666"
     borderopacity="1.0"
     inkscape:pageopacity="0.0"
     inkscape:pageshadow="2"
     inkscape:zoom="7"
     inkscape:cx="30.437678"
     inkscape:cy="23.054"
     inkscape:current-layer="layer1"
     showgrid="true"
     inkscape:grid-bbox="true"
     inkscape:document-units="px"
     inkscape:window-width="1086"
     inkscape:window-height="1001"
     inkscape:window-x="772"
     inkscape:window-y="0"
     inkscape:window-maximized="0" />
  <metadata
     id="metadata6055">
    <rdf:RDF>
      <cc:Work
         rdf:about="">
        <dc:format>image/svg+xml</dc:format>
        <dc:type
           rdf:resource="http://purl.org/dc/dcmitype/StillImage" />
        <dc:title></dc:title>
      </cc:Work>
    </rdf:RDF>
  </metadata>
  <g
     id="layer1"
     inkscape:label="Layer 1"
     inkscape:groupmode="layer">
    <g
       id="g4796"
       transform="matrix(1.4969119,0,0,-1.4969119,47.93637,9.3835823)">
      <path
         d="m 0,0 c 0,0.529 -0.16,1.091 -0.499,1.578 -0.033,0.047 -3.383,4.753 -5.323,4.69 -5.451,-0.173 -11.858,-5.47 -16.272,-9.883 -4.414,-4.413 -9.713,-10.82 -9.887,-16.292 l 0,-0.045 c 0,-1.916 4.646,-5.284 4.692,-5.317 1.263,-0.883 2.652,-0.561 3.217,0.244 0.343,0.489 3.905,5.845 4.306,6.502 0.175,0.286 0.261,0.634 0.261,1.014 0,0.489 -0.142,1.031 -0.421,1.561 -0.271,0.515 -1.16,2.077 -1.596,2.84 0.472,0.673 1.683,2.255 4.176,4.746 2.475,2.475 4.069,3.697 4.745,4.172 0.764,-0.435 2.325,-1.323 2.839,-1.592 0.969,-0.512 1.937,-0.57 2.589,-0.155 0.615,0.39 5.932,3.937 6.438,4.303 C -0.258,-1.289 0,-0.671 0,0 m -1.937,0 c 0,-0.033 -0.003,-0.061 -0.007,-0.082 -0.818,-0.563 -5.389,-3.582 -6.244,-4.13 -0.089,-0.002 -0.318,0.028 -0.644,0.2 -0.348,0.183 -1.361,0.751 -2.777,1.56 l -1.103,0.629 -1.039,-0.73 c -0.772,-0.544 -2.452,-1.838 -5.009,-4.394 -2.568,-2.568 -3.858,-4.242 -4.399,-5.011 l -0.73,-1.039 0.63,-1.103 c 0.611,-1.068 1.342,-2.359 1.563,-2.779 0.177,-0.337 0.191,-0.567 0.191,-0.63 0,-0.01 0,-0.018 -0.001,-0.025 -0.48,-0.766 -3.581,-5.436 -4.146,-6.26 -0.08,-0.014 -0.254,-0.001 -0.472,0.15 -1.757,1.269 -3.592,3.07 -3.855,3.775 0.176,3.751 3.473,9.015 9.299,14.84 5.827,5.825 11.085,9.121 14.824,9.295 0.707,-0.253 2.519,-2.088 3.778,-3.83 C -1.989,0.308 -1.937,0.148 -1.937,0"
         style="fill:#31353a;fill-opacity:1;fill-rule:nonzero;stroke:none"
         id="path4798"
         inkscape:connector-curvature="0" />
    </g>
  </g>
</svg>
