<?xml version="1.0" encoding="UTF-8" standalone="no"?>
<!-- Created with Inkscape (http://www.inkscape.org/) -->

<svg
   xmlns:dc="http://purl.org/dc/elements/1.1/"
   xmlns:cc="http://creativecommons.org/ns#"
   xmlns:rdf="http://www.w3.org/1999/02/22-rdf-syntax-ns#"
   xmlns:svg="http://www.w3.org/2000/svg"
   xmlns="http://www.w3.org/2000/svg"
   xmlns:sodipodi="http://sodipodi.sourceforge.net/DTD/sodipodi-0.dtd"
   xmlns:inkscape="http://www.inkscape.org/namespaces/inkscape"
   width="48"
   height="48"
   id="svg6050"
   version="1.1"
   inkscape:version="0.91 r13725"
   viewBox="0 0 48 48"
   sodipodi:docname="play_forward.svg">
  <defs
     id="defs6052" />
  <sodipodi:namedview
     id="base"
     pagecolor="#ffffff"
     bordercolor="#666666"
     borderopacity="1.0"
     inkscape:pageopacity="0.0"
     inkscape:pageshadow="2"
     inkscape:zoom="7"
     inkscape:cx="30.437678"
     inkscape:cy="23.054"
     inkscape:current-layer="layer1"
     showgrid="true"
     inkscape:grid-bbox="true"
     inkscape:document-units="px"
     inkscape:window-width="1086"
     inkscape:window-height="1001"
     inkscape:window-x="772"
     inkscape:window-y="0"
     inkscape:window-maximized="0" />
  <metadata
     id="metadata6055">
    <rdf:RDF>
      <cc:Work
         rdf:about="">
        <dc:format>image/svg+xml</dc:format>
        <dc:type
           rdf:resource="http://purl.org/dc/dcmitype/StillImage" />
        <dc:title></dc:title>
      </cc:Work>
    </rdf:RDF>
  </metadata>
  <g
     id="layer1"
     inkscape:label="Layer 1"
     inkscape:groupmode="layer">
    <g
       id="g4094"
       transform="matrix(1.5,0,0,-1.5,5.29977,0.065256)">
      <path
         d="M 0,0 C -0.335,0 -0.669,-0.083 -0.972,-0.252 -1.607,-0.604 -2,-1.274 -2,-2 l -0.031,-27.913 c 0,-0.727 0.393,-1.396 1.028,-1.748 0.303,-0.168 0.637,-0.252 0.972,-0.252 0.366,0 0.733,0.101 1.055,0.302 l 23.023,13.957 c 0.587,0.364 0.945,1.007 0.945,1.698 0,0.692 -0.358,1.334 -0.945,1.699 L 1.056,-0.301 C 0.733,-0.101 0.366,0 0,0 M 0,-2 22.992,-15.956 -0.031,-29.913 0,-2"
         style="fill:#31353a;fill-opacity:1;fill-rule:nonzero;stroke:none"
         id="path4096"
         inkscape:connector-curvature="0" />
    </g>
    <g
       id="g4098"
       transform="matrix(1.5,0,0,-1.5,44.24673,0)">
      <path
         d="m 0,0 c 0.552,0 1,-0.448 1,-1 l 0,-30 c 0,-0.552 -0.448,-1 -1,-1 -0.552,0 -1,0.448 -1,1 l 0,30 c 0,0.552 0.448,1 1,1"
         style="fill:#31353a;fill-opacity:1;fill-rule:evenodd;stroke:none"
         id="path4100"
         inkscape:connector-curvature="0" />
    </g>
    <g
       id="g5768"
       transform="matrix(1.5,0,0,-1.5,5.29977,0.065256)">
      <path
         d="M 0,0 C -0.335,0 -0.669,-0.083 -0.972,-0.252 -1.607,-0.604 -2,-1.274 -2,-2 l -0.031,-27.913 c 0,-0.727 0.393,-1.396 1.028,-1.748 0.303,-0.168 0.637,-0.252 0.972,-0.252 0.366,0 0.733,0.101 1.055,0.302 l 23.023,13.957 c 0.587,0.364 0.945,1.007 0.945,1.698 0,0.692 -0.358,1.334 -0.945,1.699 L 1.056,-0.301 C 0.733,-0.101 0.366,0 0,0 M 0,-2 22.992,-15.956 -0.031,-29.913 0,-2"
         style="fill:#31353a;fill-opacity:1;fill-rule:nonzero;stroke:none"
         id="path5770"
         inkscape:connector-curvature="0" />
    </g>
    <g
       id="g5772"
       transform="matrix(1.5,0,0,-1.5,44.24673,0)">
      <path
         d="m 0,0 c 0.552,0 1,-0.448 1,-1 l 0,-30 c 0,-0.552 -0.448,-1 -1,-1 -0.552,0 -1,0.448 -1,1 l 0,30 c 0,0.552 0.448,1 1,1"
         style="fill:#31353a;fill-opacity:1;fill-rule:evenodd;stroke:none"
         id="path5774"
         inkscape:connector-curvature="0" />
    </g>
  </g>
</svg>
