<?xml version="1.0" encoding="UTF-8" standalone="no"?>
<!-- Created with Inkscape (http://www.inkscape.org/) -->

<svg
   xmlns:dc="http://purl.org/dc/elements/1.1/"
   xmlns:cc="http://creativecommons.org/ns#"
   xmlns:rdf="http://www.w3.org/1999/02/22-rdf-syntax-ns#"
   xmlns:svg="http://www.w3.org/2000/svg"
   xmlns="http://www.w3.org/2000/svg"
   xmlns:sodipodi="http://sodipodi.sourceforge.net/DTD/sodipodi-0.dtd"
   xmlns:inkscape="http://www.inkscape.org/namespaces/inkscape"
   width="48"
   height="48"
   id="svg6050"
   version="1.1"
   inkscape:version="0.91 r13725"
   viewBox="0 0 48 48"
   sodipodi:docname="popup.svg">
  <defs
     id="defs6052" />
  <sodipodi:namedview
     id="base"
     pagecolor="#ffffff"
     bordercolor="#666666"
     borderopacity="1.0"
     inkscape:pageopacity="0.0"
     inkscape:pageshadow="2"
     inkscape:zoom="7"
     inkscape:cx="30.437678"
     inkscape:cy="23.054"
     inkscape:current-layer="layer1"
     showgrid="true"
     inkscape:grid-bbox="true"
     inkscape:document-units="px"
     inkscape:window-width="1086"
     inkscape:window-height="1001"
     inkscape:window-x="772"
     inkscape:window-y="0"
     inkscape:window-maximized="0" />
  <metadata
     id="metadata6055">
    <rdf:RDF>
      <cc:Work
         rdf:about="">
        <dc:format>image/svg+xml</dc:format>
        <dc:type
           rdf:resource="http://purl.org/dc/dcmitype/StillImage" />
        <dc:title></dc:title>
      </cc:Work>
    </rdf:RDF>
  </metadata>
  <g
     id="layer1"
     inkscape:label="Layer 1"
     inkscape:groupmode="layer">
    <g
       id="g4212"
       transform="matrix(1.5172972,0,0,-1.5172972,15.248837,14.391905)">
      <path
         d="m 0,0 -8.05,0 0,-20 26,0 0,13.736 2,1.909 0,-15.645 c 0,-1.104 -0.896,-2 -2,-2 l -26,0 c -1.105,0 -2,0.896 -2,2 l 0,20 c 0,1.104 0.895,2 2,2 L 1.97,2 2.022,1.948 0,0 Z"
         style="fill:#31353a;fill-opacity:1;fill-rule:evenodd;stroke:none"
         id="path4214"
         inkscape:connector-curvature="0" />
    </g>
    <g
       id="g4216"
       transform="matrix(1.5172972,0,0,-1.5172972,37.964596,19.5143)">
      <path
         d="m 0,0 c 0.256,0 0.512,0.098 0.707,0.293 l 5.907,6.062 -5.907,6.063 c -0.39,0.391 -1.023,0.391 -1.414,0 -0.391,-0.39 -0.391,-1.023 0,-1.414 L 3.942,6.355 -0.707,1.707 C -1.098,1.316 -1.098,0.684 -0.707,0.293 -0.512,0.098 -0.256,0 0,0"
         style="fill:#31353a;fill-opacity:1;fill-rule:nonzero;stroke:none"
         id="path4218"
         inkscape:connector-curvature="0" />
    </g>
    <g
       id="g4220"
       transform="matrix(1.5172972,0,0,-1.5172972,40.903783,11.357456)">
      <path
         d="m 0,0 c -8.355,0 -15.282,-6.047 -16.684,-14 l -2.015,0 c 1.442,9.064 9.271,16 18.741,16 1.032,0 2.027,-0.003 3,-0.008 l 0,-2.023 C 2.076,-0.012 1.073,0 0,0"
         style="fill:#31353a;fill-opacity:1;fill-rule:evenodd;stroke:none"
         id="path4222"
         inkscape:connector-curvature="0" />
    </g>
    <g
       id="g5886"
       transform="matrix(1.5172972,0,0,-1.5172972,15.248837,14.391905)">
      <path
         d="m 0,0 -8.05,0 0,-20 26,0 0,13.736 2,1.909 0,-15.645 c 0,-1.104 -0.896,-2 -2,-2 l -26,0 c -1.105,0 -2,0.896 -2,2 l 0,20 c 0,1.104 0.895,2 2,2 L 1.97,2 2.022,1.948 0,0 Z"
         style="fill:#31353a;fill-opacity:1;fill-rule:evenodd;stroke:none"
         id="path5888"
         inkscape:connector-curvature="0" />
    </g>
    <g
       id="g5890"
       transform="matrix(1.5172972,0,0,-1.5172972,37.964596,19.5143)">
      <path
         d="m 0,0 c 0.256,0 0.512,0.098 0.707,0.293 l 5.907,6.062 -5.907,6.063 c -0.39,0.391 -1.023,0.391 -1.414,0 -0.391,-0.39 -0.391,-1.023 0,-1.414 L 3.942,6.355 -0.707,1.707 C -1.098,1.316 -1.098,0.684 -0.707,0.293 -0.512,0.098 -0.256,0 0,0"
         style="fill:#31353a;fill-opacity:1;fill-rule:nonzero;stroke:none"
         id="path5892"
         inkscape:connector-curvature="0" />
    </g>
    <g
       id="g5894"
       transform="matrix(1.5172972,0,0,-1.5172972,40.903783,11.357456)">
      <path
         d="m 0,0 c -8.355,0 -15.282,-6.047 -16.684,-14 l -2.015,0 c 1.442,9.064 9.271,16 18.741,16 1.032,0 2.027,-0.003 3,-0.008 l 0,-2.023 C 2.076,-0.012 1.073,0 0,0"
         style="fill:#31353a;fill-opacity:1;fill-rule:evenodd;stroke:none"
         id="path5896"
         inkscape:connector-curvature="0" />
    </g>
  </g>
</svg>
