<?xml version="1.0" encoding="UTF-8" standalone="no"?>
<!-- Created with Inkscape (http://www.inkscape.org/) -->

<svg
   xmlns:dc="http://purl.org/dc/elements/1.1/"
   xmlns:cc="http://creativecommons.org/ns#"
   xmlns:rdf="http://www.w3.org/1999/02/22-rdf-syntax-ns#"
   xmlns:svg="http://www.w3.org/2000/svg"
   xmlns="http://www.w3.org/2000/svg"
   xmlns:sodipodi="http://sodipodi.sourceforge.net/DTD/sodipodi-0.dtd"
   xmlns:inkscape="http://www.inkscape.org/namespaces/inkscape"
   width="48"
   height="48"
   id="svg6050"
   version="1.1"
   inkscape:version="0.91 r13725"
   viewBox="0 0 48 48"
   sodipodi:docname="present.svg">
  <defs
     id="defs6052" />
  <sodipodi:namedview
     id="base"
     pagecolor="#ffffff"
     bordercolor="#666666"
     borderopacity="1.0"
     inkscape:pageopacity="0.0"
     inkscape:pageshadow="2"
     inkscape:zoom="7"
     inkscape:cx="30.437678"
     inkscape:cy="23.054"
     inkscape:current-layer="layer1"
     showgrid="true"
     inkscape:grid-bbox="true"
     inkscape:document-units="px"
     inkscape:window-width="1086"
     inkscape:window-height="1001"
     inkscape:window-x="772"
     inkscape:window-y="0"
     inkscape:window-maximized="0" />
  <metadata
     id="metadata6055">
    <rdf:RDF>
      <cc:Work
         rdf:about="">
        <dc:format>image/svg+xml</dc:format>
        <dc:type
           rdf:resource="http://purl.org/dc/dcmitype/StillImage" />
        <dc:title></dc:title>
      </cc:Work>
    </rdf:RDF>
  </metadata>
  <g
     id="layer1"
     inkscape:label="Layer 1"
     inkscape:groupmode="layer">
    <g
       id="g4284"
       transform="matrix(1.5,0,0,-1.5,31.83552,12.02175)">
      <path
         d="M 0,0 -3.386,0 C -1.965,2.11 0.536,5.034 3.024,5.034 4.26,5.034 4.812,4.515 4.812,3.42 4.812,1.198 2.332,0 0,0 m -10.329,0 c -2.332,0 -4.905,1.229 -4.905,3.451 0,1.095 0.552,1.583 1.788,1.583 2.487,0 5.083,-2.924 6.504,-5.034 l -3.387,0 z M 3.024,7.034 c -3.675,0 -6.746,-3.913 -8.188,-6.106 -1.443,2.193 -4.607,6.106 -8.282,6.106 -2.793,0 -3.788,-1.882 -3.788,-3.614 0,-3.521 3.603,-5.42 6.905,-5.42 l 5.165,0 c 0.006,10e-4 0.014,10e-4 0.019,0 L 0,-2 c 3.302,0 6.812,1.899 6.812,5.42 0,1.732 -0.996,3.614 -3.788,3.614"
         style="fill:#31353a;fill-opacity:1;fill-rule:nonzero;stroke:none"
         id="path4286"
         inkscape:connector-curvature="0" />
    </g>
    <g
       id="g4288"
       transform="matrix(1.5,0,0,-1.5,45,12.02325)">
      <path
         d="m 0,0 -28,0 c -1.104,0 -2,-0.896 -2,-2 l 0,-5.986 32,0 L 2,-2 C 2,-0.896 1.104,0 0,0 m 0,-5.986 -28,0 0,3.986 28,0 0,-3.986 z"
         style="fill:#31353a;fill-opacity:1;fill-rule:nonzero;stroke:none"
         id="path4290"
         inkscape:connector-curvature="0" />
    </g>
    <g
       id="g4292"
       transform="matrix(1.5,0,0,-1.5,24,46.154094)">
      <path
         d="m 0,0 c -0.553,0 -1,0.447 -1,1 l 0,20.441 c 0,0.553 0.447,1 1,1 0.553,0 1,-0.447 1,-1 L 1,1 C 1,0.447 0.553,0 0,0"
         style="fill:#31353a;fill-opacity:1;fill-rule:nonzero;stroke:none"
         id="path4294"
         inkscape:connector-curvature="0" />
    </g>
    <g
       id="g4296"
       transform="matrix(1.5,0,0,-1.5,42.01176,23.64825)">
      <path
         d="m 0,0 0,-13.254 -23.99,0 0,13.254 -2,0 0,-13.254 c 0,-1.104 0.895,-2 2,-2 l 23.99,0 c 1.104,0 2,0.896 2,2 L 2,0 0,0 Z"
         style="fill:#31353a;fill-opacity:1;fill-rule:nonzero;stroke:none"
         id="path4298"
         inkscape:connector-curvature="0" />
    </g>
  </g>
</svg>
