<?xml version="1.0" encoding="UTF-8" standalone="no"?>
<!-- Created with Inkscape (http://www.inkscape.org/) -->

<svg
   xmlns:dc="http://purl.org/dc/elements/1.1/"
   xmlns:cc="http://creativecommons.org/ns#"
   xmlns:rdf="http://www.w3.org/1999/02/22-rdf-syntax-ns#"
   xmlns:svg="http://www.w3.org/2000/svg"
   xmlns="http://www.w3.org/2000/svg"
   xmlns:sodipodi="http://sodipodi.sourceforge.net/DTD/sodipodi-0.dtd"
   xmlns:inkscape="http://www.inkscape.org/namespaces/inkscape"
   width="48"
   height="48"
   id="svg6050"
   version="1.1"
   inkscape:version="0.91 r13725"
   viewBox="0 0 48 48"
   sodipodi:docname="quote.svg">
  <defs
     id="defs6052" />
  <sodipodi:namedview
     id="base"
     pagecolor="#ffffff"
     bordercolor="#B0B0B0"
     borderopacity="1.0"
     inkscape:pageopacity="0.0"
     inkscape:pageshadow="2"
     inkscape:zoom="7"
     inkscape:cx="30.437678"
     inkscape:cy="23.054"
     inkscape:current-layer="layer1"
     showgrid="true"
     inkscape:grid-bbox="true"
     inkscape:document-units="px"
     inkscape:window-width="1086"
     inkscape:window-height="1001"
     inkscape:window-x="772"
     inkscape:window-y="0"
     inkscape:window-maximized="0" />
  <metadata
     id="metadata6055">
    <rdf:RDF>
      <cc:Work
         rdf:about="">
        <dc:format>image/svg+xml</dc:format>
        <dc:type
           rdf:resource="http://purl.org/dc/dcmitype/StillImage" />
        <dc:title></dc:title>
      </cc:Work>
    </rdf:RDF>
  </metadata>
  <g
     id="layer1"
     inkscape:label="Layer 1"
     inkscape:groupmode="layer">
    <g
       id="g3562"
       transform="matrix(1.5,0,0,-1.5,24,3)">
      <path
         d="m 0,0 c -8.837,0 -16,-5.373 -16,-12 0,-4.127 2.445,-7.724 6.674,-9.886 0,-0.025 -0.007,-0.044 -0.007,-0.072 0,-1.793 -1.005,-3.765 -1.594,-4.779 l 10e-4,0 c -0.047,-0.11 -0.074,-0.229 -0.074,-0.357 0,-0.503 0.405,-0.906 0.906,-0.906 0.076,0 0.196,0.016 0.24,0.016 0.01,0 0.017,0 0.016,-0.003 3.125,0.51 6.561,3.271 7.244,4.104 0.703,-0.104 1.177,-0.12 1.765,-0.12 0.248,0 0.515,0.003 0.829,0.003 8.836,0 16,5.372 16,12 C 16,-5.373 8.836,0 0,0 m 0,-2 c 7.72,0 14,-4.486 14,-10 0,-5.514 -6.28,-10 -14,-10 l -0.473,-0.002 -0.356,-0.001 c -0.549,0 -0.909,0.015 -1.471,0.099 l -1.12,0.16 -0.72,-0.87 c -0.33,-0.4 -2.017,-1.785 -3.878,-2.677 0.378,1.001 0.658,2.094 0.682,3.175 l 0.01,0.059 0,0.171 0,1.224 -1.089,0.556 C -11.964,-18.29 -14,-15.336 -14,-12 c 0,5.514 6.28,10 14,10"
         style="fill:#B0B0B0;fill-opacity:1;fill-rule:nonzero;stroke:none"
         id="path3564"
         inkscape:connector-curvature="0" />
    </g>
  </g>
</svg>
