<?xml version="1.0" encoding="UTF-8" standalone="no"?>
<!-- Created with Inkscape (http://www.inkscape.org/) -->

<svg
   xmlns:dc="http://purl.org/dc/elements/1.1/"
   xmlns:cc="http://creativecommons.org/ns#"
   xmlns:rdf="http://www.w3.org/1999/02/22-rdf-syntax-ns#"
   xmlns:svg="http://www.w3.org/2000/svg"
   xmlns="http://www.w3.org/2000/svg"
   xmlns:sodipodi="http://sodipodi.sourceforge.net/DTD/sodipodi-0.dtd"
   xmlns:inkscape="http://www.inkscape.org/namespaces/inkscape"
   width="48"
   height="48"
   id="svg6050"
   version="1.1"
   inkscape:version="0.91 r13725"
   viewBox="0 0 48 48"
   sodipodi:docname="rearrange.svg">
  <defs
     id="defs6052" />
  <sodipodi:namedview
     id="base"
     pagecolor="#ffffff"
     bordercolor="#666666"
     borderopacity="1.0"
     inkscape:pageopacity="0.0"
     inkscape:pageshadow="2"
     inkscape:zoom="7"
     inkscape:cx="30.437678"
     inkscape:cy="23.054"
     inkscape:current-layer="layer1"
     showgrid="true"
     inkscape:grid-bbox="true"
     inkscape:document-units="px"
     inkscape:window-width="1086"
     inkscape:window-height="1001"
     inkscape:window-x="772"
     inkscape:window-y="0"
     inkscape:window-maximized="0" />
  <metadata
     id="metadata6055">
    <rdf:RDF>
      <cc:Work
         rdf:about="">
        <dc:format>image/svg+xml</dc:format>
        <dc:type
           rdf:resource="http://purl.org/dc/dcmitype/StillImage" />
        <dc:title></dc:title>
      </cc:Work>
    </rdf:RDF>
  </metadata>
  <g
     id="layer1"
     inkscape:label="Layer 1"
     inkscape:groupmode="layer">
    <g
       id="g4192"
       transform="matrix(1.5080791,0,0,-1.5080791,28.248492,27.708976)">
      <path
         d="m 0,0 -1.228,-1.727 3.771,-5.805 9.714,-0.011 0,2 L 3.576,-5.532 0,0 Z"
         style="fill:#31353a;fill-opacity:1;fill-rule:nonzero;stroke:none"
         id="path4194"
         inkscape:connector-curvature="0" />
    </g>
    <g
       id="g4196"
       transform="matrix(1.5080791,0,0,-1.5080791,18.830117,20.147009)">
      <path
         d="m 0,0 1.227,1.727 -4.197,5.727 -9.516,0 0,-2 8.484,0 L 0,0 Z"
         style="fill:#31353a;fill-opacity:1;fill-rule:nonzero;stroke:none"
         id="path4198"
         inkscape:connector-curvature="0" />
    </g>
    <g
       id="g4200"
       transform="matrix(1.5080791,0,0,-1.5080791,14.35088,39.067369)">
      <path
         d="m 0,0 -9.516,0 0,2 8.484,0 12.79,18 9.726,0 0,-2 -8.693,0 L 0,0 Z"
         style="fill:#31353a;fill-opacity:1;fill-rule:nonzero;stroke:none"
         id="path4202"
         inkscape:connector-curvature="0" />
    </g>
    <g
       id="g4204"
       transform="matrix(1.5080791,0,0,-1.5080791,44.760631,37.64133)">
      <path
         d="m 0,0 -3.54,3.21 c -0.292,0.279 -0.387,0.731 -0.095,1.011 l 0.171,0.252 c 0.293,0.279 0.766,0.279 1.058,0 L 1.648,0.772 C 1.654,0.767 1.66,0.765 1.665,0.76 L 1.93,0.507 C 2.076,0.368 2.149,0.184 2.148,0 2.149,-0.184 2.076,-0.368 1.93,-0.509 L 1.665,-0.762 C 1.66,-0.767 1.653,-0.767 1.648,-0.772 l -3.992,-3.61 c -0.292,-0.279 -0.764,-0.279 -1.057,0 l -0.171,0.252 c -0.292,0.279 -0.197,0.733 0.095,1.012 L 0,0 Z"
         style="fill:#31353a;fill-opacity:1;fill-rule:evenodd;stroke:none"
         id="path4206"
         inkscape:connector-curvature="0" />
    </g>
    <g
       id="g4208"
       transform="matrix(1.5080791,0,0,-1.5080791,44.760631,10.495905)">
      <path
         d="m 0,0 -3.54,3.21 c -0.292,0.279 -0.387,0.731 -0.095,1.011 l 0.171,0.252 c 0.293,0.279 0.766,0.279 1.058,0 L 1.648,0.771 C 1.654,0.767 1.66,0.765 1.665,0.76 L 1.93,0.507 C 2.076,0.368 2.149,0.184 2.148,0 2.149,-0.184 2.076,-0.368 1.93,-0.509 L 1.665,-0.762 C 1.66,-0.767 1.653,-0.767 1.648,-0.772 l -3.992,-3.61 c -0.292,-0.279 -0.764,-0.279 -1.057,0 l -0.171,0.252 c -0.292,0.279 -0.197,0.733 0.095,1.012 L 0,0 Z"
         style="fill:#31353a;fill-opacity:1;fill-rule:evenodd;stroke:none"
         id="path4210"
         inkscape:connector-curvature="0" />
    </g>
    <g
       id="g5866"
       transform="matrix(1.5080791,0,0,-1.5080791,28.248492,27.708976)">
      <path
         d="m 0,0 -1.228,-1.727 3.771,-5.805 9.714,-0.011 0,2 L 3.576,-5.532 0,0 Z"
         style="fill:#31353a;fill-opacity:1;fill-rule:nonzero;stroke:none"
         id="path5868"
         inkscape:connector-curvature="0" />
    </g>
    <g
       id="g5870"
       transform="matrix(1.5080791,0,0,-1.5080791,18.830117,20.147009)">
      <path
         d="m 0,0 1.227,1.727 -4.197,5.727 -9.516,0 0,-2 8.484,0 L 0,0 Z"
         style="fill:#31353a;fill-opacity:1;fill-rule:nonzero;stroke:none"
         id="path5872"
         inkscape:connector-curvature="0" />
    </g>
    <g
       id="g5874"
       transform="matrix(1.5080791,0,0,-1.5080791,14.35088,39.067369)">
      <path
         d="m 0,0 -9.516,0 0,2 8.484,0 12.79,18 9.726,0 0,-2 -8.693,0 L 0,0 Z"
         style="fill:#31353a;fill-opacity:1;fill-rule:nonzero;stroke:none"
         id="path5876"
         inkscape:connector-curvature="0" />
    </g>
    <g
       id="g5878"
       transform="matrix(1.5080791,0,0,-1.5080791,44.760631,37.64133)">
      <path
         d="m 0,0 -3.54,3.21 c -0.292,0.279 -0.387,0.731 -0.095,1.011 l 0.171,0.252 c 0.293,0.279 0.766,0.279 1.058,0 L 1.648,0.772 C 1.654,0.767 1.66,0.765 1.665,0.76 L 1.93,0.507 C 2.076,0.368 2.149,0.184 2.148,0 2.149,-0.184 2.076,-0.368 1.93,-0.509 L 1.665,-0.762 C 1.66,-0.767 1.653,-0.767 1.648,-0.772 l -3.992,-3.61 c -0.292,-0.279 -0.764,-0.279 -1.057,0 l -0.171,0.252 c -0.292,0.279 -0.197,0.733 0.095,1.012 L 0,0 Z"
         style="fill:#31353a;fill-opacity:1;fill-rule:evenodd;stroke:none"
         id="path5880"
         inkscape:connector-curvature="0" />
    </g>
    <g
       id="g5882"
       transform="matrix(1.5080791,0,0,-1.5080791,44.760631,10.495905)">
      <path
         d="m 0,0 -3.54,3.21 c -0.292,0.279 -0.387,0.731 -0.095,1.011 l 0.171,0.252 c 0.293,0.279 0.766,0.279 1.058,0 L 1.648,0.771 C 1.654,0.767 1.66,0.765 1.665,0.76 L 1.93,0.507 C 2.076,0.368 2.149,0.184 2.148,0 2.149,-0.184 2.076,-0.368 1.93,-0.509 L 1.665,-0.762 C 1.66,-0.767 1.653,-0.767 1.648,-0.772 l -3.992,-3.61 c -0.292,-0.279 -0.764,-0.279 -1.057,0 l -0.171,0.252 c -0.292,0.279 -0.197,0.733 0.095,1.012 L 0,0 Z"
         style="fill:#31353a;fill-opacity:1;fill-rule:evenodd;stroke:none"
         id="path5884"
         inkscape:connector-curvature="0" />
    </g>
  </g>
</svg>
