<?xml version="1.0" encoding="UTF-8" standalone="no"?>
<!-- Created with Inkscape (http://www.inkscape.org/) -->

<svg
   xmlns:dc="http://purl.org/dc/elements/1.1/"
   xmlns:cc="http://creativecommons.org/ns#"
   xmlns:rdf="http://www.w3.org/1999/02/22-rdf-syntax-ns#"
   xmlns:svg="http://www.w3.org/2000/svg"
   xmlns="http://www.w3.org/2000/svg"
   xmlns:sodipodi="http://sodipodi.sourceforge.net/DTD/sodipodi-0.dtd"
   xmlns:inkscape="http://www.inkscape.org/namespaces/inkscape"
   width="48"
   height="48"
   id="svg6050"
   version="1.1"
   inkscape:version="0.91 r13725"
   viewBox="0 0 48 48"
   sodipodi:docname="recurring.svg">
  <defs
     id="defs6052" />
  <sodipodi:namedview
     id="base"
     pagecolor="#ffffff"
     bordercolor="#666666"
     borderopacity="1.0"
     inkscape:pageopacity="0.0"
     inkscape:pageshadow="2"
     inkscape:zoom="7"
     inkscape:cx="30.437678"
     inkscape:cy="23.054"
     inkscape:current-layer="layer1"
     showgrid="true"
     inkscape:grid-bbox="true"
     inkscape:document-units="px"
     inkscape:window-width="1086"
     inkscape:window-height="1001"
     inkscape:window-x="772"
     inkscape:window-y="0"
     inkscape:window-maximized="0" />
  <metadata
     id="metadata6055">
    <rdf:RDF>
      <cc:Work
         rdf:about="">
        <dc:format>image/svg+xml</dc:format>
        <dc:type
           rdf:resource="http://purl.org/dc/dcmitype/StillImage" />
        <dc:title></dc:title>
      </cc:Work>
    </rdf:RDF>
  </metadata>
  <g
     id="layer1"
     inkscape:label="Layer 1"
     inkscape:groupmode="layer">
    <g
       id="g4184"
       transform="matrix(1.5,0,0,-1.5,45,37.774241)">
      <path
         d="m 0,0 -15.101,0 -0.003,2.013 13.895,0 c 0.668,0 1.21,0.542 1.21,1.21 l 0,15.554 c 0,0.668 -0.542,1.209 -1.21,1.209 L -26.78,19.955 c -0.668,0 -1.21,-0.541 -1.21,-1.21 l 0,-15.522 c 0,-0.668 0.542,-1.21 1.21,-1.21 l 3.78,0 c 0.66,0 1,-0.831 1,-1.013 0,-0.177 -0.359,-1 -1,-1 l -5,0 c -1.105,0 -2,0.895 -2,2 l 0,18 c 0,1.105 0.895,2 2,2 l 28,0 c 1.105,0 2,-0.895 2,-2 L 2,2 C 2,0.895 1.105,0 0,0"
         style="fill:#31353a;fill-opacity:1;fill-rule:evenodd;stroke:none"
         id="path4186"
         inkscape:connector-curvature="0" />
    </g>
    <g
       id="g4188"
       transform="matrix(1.5,0,0,-1.5,22.5402,36.338884)">
      <path
         d="M 0,0 3.54,3.21 C 3.832,3.489 3.927,3.941 3.635,4.221 L 3.464,4.473 c -0.293,0.279 -0.766,0.279 -1.058,0 L -1.648,0.772 C -1.654,0.767 -1.66,0.765 -1.665,0.76 L -1.93,0.507 C -2.076,0.368 -2.149,0.184 -2.148,0 -2.149,-0.184 -2.076,-0.368 -1.93,-0.509 l 0.265,-0.253 c 0.005,-0.005 0.011,-0.005 0.017,-0.01 l 3.992,-3.61 c 0.292,-0.279 0.764,-0.279 1.057,0 l 0.171,0.252 c 0.292,0.279 0.197,0.733 -0.094,1.012 L 0,0 Z"
         style="fill:#31353a;fill-opacity:1;fill-rule:evenodd;stroke:none"
         id="path4190"
         inkscape:connector-curvature="0" />
    </g>
    <g
       id="g5858"
       transform="matrix(1.5,0,0,-1.5,45,37.774241)">
      <path
         d="m 0,0 -15.101,0 -0.003,2.013 13.895,0 c 0.668,0 1.21,0.542 1.21,1.21 l 0,15.554 c 0,0.668 -0.542,1.209 -1.21,1.209 L -26.78,19.955 c -0.668,0 -1.21,-0.541 -1.21,-1.21 l 0,-15.522 c 0,-0.668 0.542,-1.21 1.21,-1.21 l 3.78,0 c 0.66,0 1,-0.831 1,-1.013 0,-0.177 -0.359,-1 -1,-1 l -5,0 c -1.105,0 -2,0.895 -2,2 l 0,18 c 0,1.105 0.895,2 2,2 l 28,0 c 1.105,0 2,-0.895 2,-2 L 2,2 C 2,0.895 1.105,0 0,0"
         style="fill:#31353a;fill-opacity:1;fill-rule:evenodd;stroke:none"
         id="path5860"
         inkscape:connector-curvature="0" />
    </g>
    <g
       id="g5862"
       transform="matrix(1.5,0,0,-1.5,22.5402,36.338884)">
      <path
         d="M 0,0 3.54,3.21 C 3.832,3.489 3.927,3.941 3.635,4.221 L 3.464,4.473 c -0.293,0.279 -0.766,0.279 -1.058,0 L -1.648,0.772 C -1.654,0.767 -1.66,0.765 -1.665,0.76 L -1.93,0.507 C -2.076,0.368 -2.149,0.184 -2.148,0 -2.149,-0.184 -2.076,-0.368 -1.93,-0.509 l 0.265,-0.253 c 0.005,-0.005 0.011,-0.005 0.017,-0.01 l 3.992,-3.61 c 0.292,-0.279 0.764,-0.279 1.057,0 l 0.171,0.252 c 0.292,0.279 0.197,0.733 -0.094,1.012 L 0,0 Z"
         style="fill:#31353a;fill-opacity:1;fill-rule:evenodd;stroke:none"
         id="path5864"
         inkscape:connector-curvature="0" />
    </g>
  </g>
</svg>
