<?xml version="1.0" encoding="UTF-8" standalone="no"?>
<!-- Created with Inkscape (http://www.inkscape.org/) -->

<svg
   xmlns:dc="http://purl.org/dc/elements/1.1/"
   xmlns:cc="http://creativecommons.org/ns#"
   xmlns:rdf="http://www.w3.org/1999/02/22-rdf-syntax-ns#"
   xmlns:svg="http://www.w3.org/2000/svg"
   xmlns="http://www.w3.org/2000/svg"
   xmlns:sodipodi="http://sodipodi.sourceforge.net/DTD/sodipodi-0.dtd"
   xmlns:inkscape="http://www.inkscape.org/namespaces/inkscape"
   width="48"
   height="48"
   id="svg6050"
   version="1.1"
   inkscape:version="0.91 r13725"
   viewBox="0 0 48 48"
   sodipodi:docname="sand_clock.svg">
  <defs
     id="defs6052" />
  <sodipodi:namedview
     id="base"
     pagecolor="#ffffff"
     bordercolor="#666666"
     borderopacity="1.0"
     inkscape:pageopacity="0.0"
     inkscape:pageshadow="2"
     inkscape:zoom="7"
     inkscape:cx="30.437678"
     inkscape:cy="23.054"
     inkscape:current-layer="layer1"
     showgrid="true"
     inkscape:grid-bbox="true"
     inkscape:document-units="px"
     inkscape:window-width="1086"
     inkscape:window-height="1001"
     inkscape:window-x="772"
     inkscape:window-y="0"
     inkscape:window-maximized="0" />
  <metadata
     id="metadata6055">
    <rdf:RDF>
      <cc:Work
         rdf:about="">
        <dc:format>image/svg+xml</dc:format>
        <dc:type
           rdf:resource="http://purl.org/dc/dcmitype/StillImage" />
        <dc:title></dc:title>
      </cc:Work>
    </rdf:RDF>
  </metadata>
  <g
     id="layer1"
     inkscape:label="Layer 1"
     inkscape:groupmode="layer">
    <g
       id="g5182"
       transform="matrix(1.501281,0,0,-1.501281,36.051023,46.362403)">
      <path
         d="m 0,0 -2,0.018 c 0,0.002 0.025,2.747 0.025,6.366 0,2.862 -1.083,5.064 -6.47,7.195 -5.191,2.052 -7.545,4.774 -7.545,8.568 l 0,7.112 2,0 0,-7.112 c 0,-1.956 0.658,-4.486 6.279,-6.709 C -2.216,13.267 0.025,10.643 0.025,6.384 0.025,2.753 0,0 0,0"
         style="fill:#31353a;fill-opacity:1;fill-rule:nonzero;stroke:none"
         id="path5184"
         inkscape:connector-curvature="0" />
    </g>
    <g
       id="g5186"
       transform="matrix(1.501281,0,0,-1.501281,12.036412,46.362403)">
      <path
         d="m 0,0 c 0,0 -0.025,2.753 -0.025,6.384 0,4.259 2.21,6.883 7.705,9.054 5.621,2.223 6.31,4.753 6.31,6.709 l 0,7.112 2,0 0,-7.112 c 0,-3.794 -2.386,-6.516 -7.576,-8.568 C 3.026,11.448 1.975,9.246 1.975,6.384 1.975,2.765 2,0.02 2,0.018 L 0,0 Z"
         style="fill:#31353a;fill-opacity:1;fill-rule:nonzero;stroke:none"
         id="path5188"
         inkscape:connector-curvature="0" />
    </g>
    <g
       id="g5190"
       transform="matrix(1.501281,0,0,-1.501281,39.068357,3.002562)">
      <path
         d="m 0,0 -20.074,0 c -0.553,0 -1,0.447 -1,1 0,0.553 0.447,1 1,1 L 0,2 C 0.553,2 1,1.553 1,1 1,0.447 0.553,0 0,0"
         style="fill:#31353a;fill-opacity:1;fill-rule:nonzero;stroke:none"
         id="path5192"
         inkscape:connector-curvature="0" />
    </g>
    <g
       id="g5194"
       transform="matrix(1.501281,0,0,-1.501281,39.068357,48)">
      <path
         d="m 0,0 -20.074,0 c -0.553,0 -1,0.447 -1,1 0,0.553 0.447,1 1,1 L 0,2 C 0.553,2 1,1.553 1,1 1,0.447 0.553,0 0,0"
         style="fill:#31353a;fill-opacity:1;fill-rule:nonzero;stroke:none"
         id="path5196"
         inkscape:connector-curvature="0" />
    </g>
  </g>
</svg>
