<?xml version="1.0" encoding="UTF-8" standalone="no"?>
<!-- Created with Inkscape (http://www.inkscape.org/) -->

<svg
   xmlns:dc="http://purl.org/dc/elements/1.1/"
   xmlns:cc="http://creativecommons.org/ns#"
   xmlns:rdf="http://www.w3.org/1999/02/22-rdf-syntax-ns#"
   xmlns:svg="http://www.w3.org/2000/svg"
   xmlns="http://www.w3.org/2000/svg"
   xmlns:sodipodi="http://sodipodi.sourceforge.net/DTD/sodipodi-0.dtd"
   xmlns:inkscape="http://www.inkscape.org/namespaces/inkscape"
   width="48"
   height="48"
   id="svg6050"
   version="1.1"
   inkscape:version="0.91 r13725"
   viewBox="0 0 48 48"
   sodipodi:docname="settings.svg">
  <defs
     id="defs6052" />
  <sodipodi:namedview
     id="base"
     pagecolor="#ffffff"
     bordercolor="#666666"
     borderopacity="1.0"
     inkscape:pageopacity="0.0"
     inkscape:pageshadow="2"
     inkscape:zoom="7"
     inkscape:cx="30.437678"
     inkscape:cy="23.054"
     inkscape:current-layer="layer1"
     showgrid="true"
     inkscape:grid-bbox="true"
     inkscape:document-units="px"
     inkscape:window-width="1086"
     inkscape:window-height="1001"
     inkscape:window-x="772"
     inkscape:window-y="0"
     inkscape:window-maximized="0" />
  <metadata
     id="metadata6055">
    <rdf:RDF>
      <cc:Work
         rdf:about="">
        <dc:format>image/svg+xml</dc:format>
        <dc:type
           rdf:resource="http://purl.org/dc/dcmitype/StillImage" />
        <dc:title></dc:title>
      </cc:Work>
    </rdf:RDF>
  </metadata>
  <g
     id="layer1"
     inkscape:label="Layer 1"
     inkscape:groupmode="layer">
    <g
       id="g3598"
       transform="matrix(1.5,0,0,-1.5,45.0015,25.4085)">
      <path
         d="M 0,0 C -0.085,-0.061 -0.245,-0.145 -0.448,-0.192 L -4.156,-1.117 -4.5,-2.168 C -4.655,-2.642 -4.857,-3.122 -5.098,-3.597 L -5.6,-4.583 -3.641,-7.85 c 0.125,-0.2 0.184,-0.379 0.201,-0.484 l -1.315,-1.314 c -0.127,0.04 -0.271,0.092 -0.341,0.14 l -3.292,2.099 -1.023,-0.529 c -0.493,-0.256 -0.999,-0.468 -1.503,-0.631 l -1.09,-0.352 -0.824,-3.723 c -0.038,-0.199 -0.145,-0.359 -0.217,-0.417 l -1.8,0 c -0.061,0.085 -0.145,0.245 -0.191,0.447 l -0.921,3.682 -1.065,0.338 c -0.549,0.173 -1.097,0.403 -1.629,0.685 l -1.029,0.542 -3.292,-2.098 c -0.135,-0.091 -0.279,-0.143 -0.409,-0.143 l -1.312,1.277 c 0.018,0.103 0.072,0.274 0.181,0.449 l 2.046,3.408 -0.487,0.979 c -0.228,0.461 -0.408,0.895 -0.548,1.325 l -0.343,1.051 -3.672,0.918 c -0.231,0.053 -0.398,0.139 -0.485,0.201 l 0,1.859 c 0.001,-10e-4 0.002,-10e-4 0.004,-10e-4 0.034,0 0.198,0.117 0.335,0.142 l 3.773,0.836 0.346,1.102 c 0.142,0.449 0.334,0.917 0.588,1.431 l 0.487,0.98 -2.024,3.372 c -0.126,0.201 -0.184,0.38 -0.201,0.485 l 1.314,1.315 c 0.128,-0.041 0.271,-0.093 0.34,-0.141 l 3.354,-2.137 1.027,0.542 c 0.528,0.278 1.073,0.507 1.622,0.682 l 1.063,0.338 0.912,3.649 c 0.054,0.231 0.139,0.398 0.2,0.485 l 1.86,0 c -0.014,-0.02 0.115,-0.195 0.142,-0.339 l 0.839,-3.794 1.089,-0.352 c 0.511,-0.165 1.024,-0.38 1.523,-0.639 l 1.023,-0.532 3.224,2.054 c 0.135,0.091 0.279,0.143 0.409,0.143 L -3.44,10.204 C -3.457,10.1 -3.512,9.929 -3.621,9.754 l -1.98,-3.297 0.505,-0.988 c 0.273,-0.533 0.481,-1.033 0.635,-1.528 l 0.346,-1.105 3.696,-0.82 C -0.195,1.974 -0.022,1.845 0.016,1.775 L 0,0 Z m 0.015,3.968 -2.567,0.57 c -0.2,0.64 -0.462,1.252 -0.763,1.841 l 1.389,2.313 c 0.519,0.829 0.78,2.048 0,2.829 l -1.415,1.414 c -0.78,0.781 -2.099,0.641 -2.894,0.088 l -2.251,-1.434 c -0.584,0.304 -1.195,0.563 -1.83,0.768 l -0.576,2.598 c -0.172,0.953 -1.005,1.984 -2.109,1.984 l -2,0 c -1.105,0 -1.781,-1.047 -2,-2 l -0.642,-2.566 c -0.677,-0.216 -1.328,-0.493 -1.947,-0.819 l -2.308,1.469 c -0.795,0.553 -2.114,0.693 -2.895,-0.088 l -1.414,-1.414 c -0.781,-0.781 -0.519,-2 0,-2.829 l 1.461,-2.435 C -25.02,5.705 -25.263,5.134 -25.451,4.538 l -2.566,-0.57 C -28.97,3.796 -30.001,2.963 -30.001,1.859 l 0,-2 c 0,-1.104 1.047,-1.781 2,-2 l 2.599,-0.649 c 0.179,-0.551 0.403,-1.08 0.658,-1.593 l -1.463,-2.438 c -0.519,-0.828 -0.78,-2.046 0,-2.828 l 1.415,-1.414 c 0.78,-0.781 2.099,-0.64 2.894,-0.089 l 2.313,1.474 c 0.624,-0.329 1.277,-0.607 1.959,-0.823 l 0.641,-2.56 c 0.218,-0.953 0.895,-2 2,-2 l 2,0 c 1.104,0 1.937,1.031 2.109,1.984 l 0.577,2.605 c 0.628,0.203 1.231,0.459 1.808,0.758 l 2.256,-1.438 c 0.795,-0.551 2.114,-0.692 2.894,0.089 l 1.415,1.414 c 0.78,0.782 0.519,2 0,2.828 l -1.39,2.317 c 0.28,0.549 0.522,1.12 0.716,1.714 l 2.599,0.649 c 0.953,0.219 2,0.896 2,2 l 0,2 c 0,1.104 -1.031,1.937 -1.984,2.109"
         style="fill:#31353a;fill-opacity:1;fill-rule:nonzero;stroke:none"
         id="path3600"
         inkscape:connector-curvature="0" />
    </g>
    <g
       id="g3602"
       transform="matrix(1.5,0,0,-1.5,23.9997,17.999556)">
      <path
         d="m 0,0 c -2.206,0 -4,-1.794 -4,-4 0,-2.206 1.794,-4 4,-4 2.206,0 4,1.794 4,4 0,2.206 -1.794,4 -4,4 m 0.014,-10.009 c -3.321,0 -6.023,2.696 -6.023,6.009 0,3.313 2.702,6.009 6.023,6.009 3.321,0 6.023,-2.696 6.023,-6.009 0,-3.313 -2.702,-6.009 -6.023,-6.009"
         style="fill:#31353a;fill-opacity:1;fill-rule:nonzero;stroke:none"
         id="path3604"
         inkscape:connector-curvature="0" />
    </g>
  </g>
</svg>
