<?xml version="1.0" encoding="UTF-8" standalone="no"?>
<!-- Created with Inkscape (http://www.inkscape.org/) -->

<svg
   xmlns:dc="http://purl.org/dc/elements/1.1/"
   xmlns:cc="http://creativecommons.org/ns#"
   xmlns:rdf="http://www.w3.org/1999/02/22-rdf-syntax-ns#"
   xmlns:svg="http://www.w3.org/2000/svg"
   xmlns="http://www.w3.org/2000/svg"
   xmlns:sodipodi="http://sodipodi.sourceforge.net/DTD/sodipodi-0.dtd"
   xmlns:inkscape="http://www.inkscape.org/namespaces/inkscape"
   width="48"
   height="48"
   id="svg6050"
   version="1.1"
   inkscape:version="0.91 r13725"
   viewBox="0 0 48 48"
   sodipodi:docname="shrink.svg">
  <defs
     id="defs6052" />
  <sodipodi:namedview
     id="base"
     pagecolor="#ffffff"
     bordercolor="#666666"
     borderopacity="1.0"
     inkscape:pageopacity="0.0"
     inkscape:pageshadow="2"
     inkscape:zoom="7"
     inkscape:cx="30.437678"
     inkscape:cy="23.054"
     inkscape:current-layer="layer1"
     showgrid="true"
     inkscape:grid-bbox="true"
     inkscape:document-units="px"
     inkscape:window-width="1086"
     inkscape:window-height="1001"
     inkscape:window-x="772"
     inkscape:window-y="0"
     inkscape:window-maximized="0" />
  <metadata
     id="metadata6055">
    <rdf:RDF>
      <cc:Work
         rdf:about="">
        <dc:format>image/svg+xml</dc:format>
        <dc:type
           rdf:resource="http://purl.org/dc/dcmitype/StillImage" />
        <dc:title></dc:title>
      </cc:Work>
    </rdf:RDF>
  </metadata>
  <g
     id="layer1"
     inkscape:label="Layer 1"
     inkscape:groupmode="layer">
    <g
       id="g4028"
       transform="matrix(1.4978945,0,0,-1.4978945,17.320528,17.254903)">
      <path
         d="m 0,0 c 0.391,0.391 0.391,1.024 0,1.414 l -9.856,9.763 c -0.391,0.39 -1.024,0.39 -1.414,0 -0.391,-0.391 -0.391,-1.024 0,-1.415 L -1.414,0 C -1.024,-0.391 -0.391,-0.391 0,0"
         style="fill:#31353a;fill-opacity:1;fill-rule:evenodd;stroke:none"
         id="path4030"
         inkscape:connector-curvature="0" />
    </g>
    <g
       id="g4032"
       transform="matrix(1.4978945,0,0,-1.4978945,15.032343,14.918199)">
      <path
         d="m 0,0 -6.179,-0.017 c -0.404,0.009 -0.779,-0.269 -0.84,-0.746 l 0.001,-0.513 c 0.009,-0.405 0.344,-0.739 0.748,-0.748 l 7.171,0.032 c 0.008,-0.001 0.013,-0.004 0.02,-0.004 L 1.287,-2.004 C 1.489,-2.01 1.671,-1.93 1.8,-1.8 c 0.131,0.13 0.178,0.311 0.174,0.514 L 1.935,-0.92 c 0,0.007 0.027,0.012 0.027,0.019 L 1.941,6.318 C 1.932,6.722 1.598,6.963 1.193,6.972 L 0.68,6.973 C 0.276,6.982 -0.044,6.63 -0.035,6.226 L 0,0 Z"
         style="fill:#31353a;fill-opacity:1;fill-rule:evenodd;stroke:none"
         id="path4034"
         inkscape:connector-curvature="0" />
    </g>
    <g
       id="g4036"
       transform="matrix(1.4978945,0,0,-1.4978945,30.679471,17.254903)">
      <path
         d="m 0,0 c -0.391,0.391 -0.391,1.024 0,1.414 l 9.856,9.763 c 0.391,0.39 1.024,0.39 1.414,0 0.391,-0.391 0.391,-1.024 0,-1.415 L 1.414,0 C 1.024,-0.391 0.391,-0.391 0,0"
         style="fill:#31353a;fill-opacity:1;fill-rule:evenodd;stroke:none"
         id="path4038"
         inkscape:connector-curvature="0" />
    </g>
    <g
       id="g4040"
       transform="matrix(1.4978945,0,0,-1.4978945,32.967654,14.918199)">
      <path
         d="m 0,0 6.179,-0.017 c 0.404,0.009 0.779,-0.269 0.84,-0.746 L 7.018,-1.276 C 7.009,-1.681 6.674,-2.015 6.271,-2.024 l -7.172,0.032 c -0.008,-0.001 -0.013,-0.004 -0.02,-0.004 L -1.287,-2.004 C -1.489,-2.01 -1.671,-1.93 -1.8,-1.8 c -0.131,0.13 -0.178,0.311 -0.174,0.514 l 0.039,0.366 c 0,0.007 -0.027,0.012 -0.027,0.019 l 0.021,7.219 c 0.009,0.404 0.343,0.645 0.748,0.654 L -0.68,6.973 C -0.276,6.982 0.044,6.63 0.035,6.226 L 0,0 Z"
         style="fill:#31353a;fill-opacity:1;fill-rule:evenodd;stroke:none"
         id="path4042"
         inkscape:connector-curvature="0" />
    </g>
    <g
       id="g4044"
       transform="matrix(1.4978945,0,0,-1.4978945,17.320528,30.698662)">
      <path
         d="m 0,0 c 0.391,-0.391 0.391,-1.024 0,-1.414 l -9.856,-9.794 c -0.391,-0.39 -1.024,-0.39 -1.414,0 -0.391,0.391 -0.391,1.024 0,1.414 L -1.414,0 C -1.024,0.391 -0.391,0.391 0,0"
         style="fill:#31353a;fill-opacity:1;fill-rule:evenodd;stroke:none"
         id="path4046"
         inkscape:connector-curvature="0" />
    </g>
    <g
       id="g4048"
       transform="matrix(1.4978945,0,0,-1.4978945,15.032343,33.035222)">
      <path
         d="m 0,0 -6.179,0.017 c -0.404,-0.009 -0.779,0.269 -0.84,0.746 l 0.001,0.513 c 0.009,0.404 0.344,0.739 0.748,0.748 L 0.901,1.992 c 0.008,0.001 0.013,0.004 0.02,0.004 L 1.287,2.004 C 1.489,2.01 1.671,1.93 1.8,1.8 1.931,1.67 1.978,1.489 1.974,1.286 L 1.935,0.889 c 0,-0.007 0.027,-0.013 0.027,-0.02 L 1.941,-6.35 C 1.932,-6.753 1.598,-6.994 1.193,-7.004 l -0.513,0 c -0.404,-0.009 -0.724,0.342 -0.715,0.746 L 0,0 Z"
         style="fill:#31353a;fill-opacity:1;fill-rule:evenodd;stroke:none"
         id="path4050"
         inkscape:connector-curvature="0" />
    </g>
    <g
       id="g4052"
       transform="matrix(1.4978945,0,0,-1.4978945,30.585882,30.698662)">
      <path
         d="m 0,0 c -0.391,-0.391 -0.391,-1.055 0,-1.445 l 9.919,-9.763 c 0.39,-0.39 1.023,-0.39 1.414,0 0.39,0.391 0.39,1.024 0,1.414 L 1.477,0 C 1.086,0.391 0.391,0.391 0,0"
         style="fill:#31353a;fill-opacity:1;fill-rule:evenodd;stroke:none"
         id="path4054"
         inkscape:connector-curvature="0" />
    </g>
    <g
       id="g4056"
       transform="matrix(1.4978945,0,0,-1.4978945,32.92116,33.035222)">
      <path
         d="M 0,0 6.21,0.017 C 6.614,0.008 6.989,0.286 7.05,0.763 L 7.049,1.276 C 7.04,1.68 6.705,2.015 6.302,2.024 L -0.87,2.023 C -0.878,2.024 -0.883,2.027 -0.89,2.027 L -1.319,2.035 C -1.52,2.041 -1.702,1.899 -1.831,1.768 -1.962,1.639 -2.01,1.458 -2.006,1.255 l 0.04,-0.366 c 0,-0.007 -0.027,-0.013 -0.027,-0.02 l 0.021,-7.219 c 0.008,-0.403 0.343,-0.644 0.747,-0.654 l 0.545,0 c 0.404,-0.009 0.724,0.342 0.715,0.746 L 0,0 Z"
         style="fill:#31353a;fill-opacity:1;fill-rule:evenodd;stroke:none"
         id="path4058"
         inkscape:connector-curvature="0" />
    </g>
    <g
       id="g5702"
       transform="matrix(1.4978945,0,0,-1.4978945,17.320528,17.254903)">
      <path
         d="m 0,0 c 0.391,0.391 0.391,1.024 0,1.414 l -9.856,9.763 c -0.391,0.39 -1.024,0.39 -1.414,0 -0.391,-0.391 -0.391,-1.024 0,-1.415 L -1.414,0 C -1.024,-0.391 -0.391,-0.391 0,0"
         style="fill:#31353a;fill-opacity:1;fill-rule:evenodd;stroke:none"
         id="path5704"
         inkscape:connector-curvature="0" />
    </g>
    <g
       id="g5706"
       transform="matrix(1.4978945,0,0,-1.4978945,15.032343,14.918199)">
      <path
         d="m 0,0 -6.179,-0.017 c -0.404,0.009 -0.779,-0.269 -0.84,-0.746 l 0.001,-0.513 c 0.009,-0.405 0.344,-0.739 0.748,-0.748 l 7.171,0.032 c 0.008,-0.001 0.013,-0.004 0.02,-0.004 L 1.287,-2.004 C 1.489,-2.01 1.671,-1.93 1.8,-1.8 c 0.131,0.13 0.178,0.311 0.174,0.514 L 1.935,-0.92 c 0,0.007 0.027,0.012 0.027,0.019 L 1.941,6.318 C 1.932,6.722 1.598,6.963 1.193,6.972 L 0.68,6.973 C 0.276,6.982 -0.044,6.63 -0.035,6.226 L 0,0 Z"
         style="fill:#31353a;fill-opacity:1;fill-rule:evenodd;stroke:none"
         id="path5708"
         inkscape:connector-curvature="0" />
    </g>
    <g
       id="g5710"
       transform="matrix(1.4978945,0,0,-1.4978945,30.679471,17.254903)">
      <path
         d="m 0,0 c -0.391,0.391 -0.391,1.024 0,1.414 l 9.856,9.763 c 0.391,0.39 1.024,0.39 1.414,0 0.391,-0.391 0.391,-1.024 0,-1.415 L 1.414,0 C 1.024,-0.391 0.391,-0.391 0,0"
         style="fill:#31353a;fill-opacity:1;fill-rule:evenodd;stroke:none"
         id="path5712"
         inkscape:connector-curvature="0" />
    </g>
    <g
       id="g5714"
       transform="matrix(1.4978945,0,0,-1.4978945,32.967654,14.918199)">
      <path
         d="m 0,0 6.179,-0.017 c 0.404,0.009 0.779,-0.269 0.84,-0.746 L 7.018,-1.276 C 7.009,-1.681 6.674,-2.015 6.271,-2.024 l -7.172,0.032 c -0.008,-0.001 -0.013,-0.004 -0.02,-0.004 L -1.287,-2.004 C -1.489,-2.01 -1.671,-1.93 -1.8,-1.8 c -0.131,0.13 -0.178,0.311 -0.174,0.514 l 0.039,0.366 c 0,0.007 -0.027,0.012 -0.027,0.019 l 0.021,7.219 c 0.009,0.404 0.343,0.645 0.748,0.654 L -0.68,6.973 C -0.276,6.982 0.044,6.63 0.035,6.226 L 0,0 Z"
         style="fill:#31353a;fill-opacity:1;fill-rule:evenodd;stroke:none"
         id="path5716"
         inkscape:connector-curvature="0" />
    </g>
    <g
       id="g5718"
       transform="matrix(1.4978945,0,0,-1.4978945,17.320528,30.698662)">
      <path
         d="m 0,0 c 0.391,-0.391 0.391,-1.024 0,-1.414 l -9.856,-9.794 c -0.391,-0.39 -1.024,-0.39 -1.414,0 -0.391,0.391 -0.391,1.024 0,1.414 L -1.414,0 C -1.024,0.391 -0.391,0.391 0,0"
         style="fill:#31353a;fill-opacity:1;fill-rule:evenodd;stroke:none"
         id="path5720"
         inkscape:connector-curvature="0" />
    </g>
    <g
       id="g5722"
       transform="matrix(1.4978945,0,0,-1.4978945,15.032343,33.035222)">
      <path
         d="m 0,0 -6.179,0.017 c -0.404,-0.009 -0.779,0.269 -0.84,0.746 l 0.001,0.513 c 0.009,0.404 0.344,0.739 0.748,0.748 L 0.901,1.992 c 0.008,0.001 0.013,0.004 0.02,0.004 L 1.287,2.004 C 1.489,2.01 1.671,1.93 1.8,1.8 1.931,1.67 1.978,1.489 1.974,1.286 L 1.935,0.889 c 0,-0.007 0.027,-0.013 0.027,-0.02 L 1.941,-6.35 C 1.932,-6.753 1.598,-6.994 1.193,-7.004 l -0.513,0 c -0.404,-0.009 -0.724,0.342 -0.715,0.746 L 0,0 Z"
         style="fill:#31353a;fill-opacity:1;fill-rule:evenodd;stroke:none"
         id="path5724"
         inkscape:connector-curvature="0" />
    </g>
    <g
       id="g5726"
       transform="matrix(1.4978945,0,0,-1.4978945,30.585882,30.698662)">
      <path
         d="m 0,0 c -0.391,-0.391 -0.391,-1.055 0,-1.445 l 9.919,-9.763 c 0.39,-0.39 1.023,-0.39 1.414,0 0.39,0.391 0.39,1.024 0,1.414 L 1.477,0 C 1.086,0.391 0.391,0.391 0,0"
         style="fill:#31353a;fill-opacity:1;fill-rule:evenodd;stroke:none"
         id="path5728"
         inkscape:connector-curvature="0" />
    </g>
    <g
       id="g5730"
       transform="matrix(1.4978945,0,0,-1.4978945,32.92116,33.035222)">
      <path
         d="M 0,0 6.21,0.017 C 6.614,0.008 6.989,0.286 7.05,0.763 L 7.049,1.276 C 7.04,1.68 6.705,2.015 6.302,2.024 L -0.87,2.023 C -0.878,2.024 -0.883,2.027 -0.89,2.027 L -1.319,2.035 C -1.52,2.041 -1.702,1.899 -1.831,1.768 -1.962,1.639 -2.01,1.458 -2.006,1.255 l 0.04,-0.366 c 0,-0.007 -0.027,-0.013 -0.027,-0.02 l 0.021,-7.219 c 0.008,-0.403 0.343,-0.644 0.747,-0.654 l 0.545,0 c 0.404,-0.009 0.724,0.342 0.715,0.746 L 0,0 Z"
         style="fill:#31353a;fill-opacity:1;fill-rule:evenodd;stroke:none"
         id="path5732"
         inkscape:connector-curvature="0" />
    </g>
  </g>
</svg>
