<?xml version="1.0" encoding="UTF-8" standalone="no"?>
<!-- Created with Inkscape (http://www.inkscape.org/) -->

<svg
   xmlns:dc="http://purl.org/dc/elements/1.1/"
   xmlns:cc="http://creativecommons.org/ns#"
   xmlns:rdf="http://www.w3.org/1999/02/22-rdf-syntax-ns#"
   xmlns:svg="http://www.w3.org/2000/svg"
   xmlns="http://www.w3.org/2000/svg"
   xmlns:sodipodi="http://sodipodi.sourceforge.net/DTD/sodipodi-0.dtd"
   xmlns:inkscape="http://www.inkscape.org/namespaces/inkscape"
   width="48"
   height="48"
   id="svg6050"
   version="1.1"
   inkscape:version="0.91 r13725"
   viewBox="0 0 48 48"
   sodipodi:docname="space_ship.svg">
  <defs
     id="defs6052" />
  <sodipodi:namedview
     id="base"
     pagecolor="#ffffff"
     bordercolor="#666666"
     borderopacity="1.0"
     inkscape:pageopacity="0.0"
     inkscape:pageshadow="2"
     inkscape:zoom="7"
     inkscape:cx="30.437678"
     inkscape:cy="23.054"
     inkscape:current-layer="layer1"
     showgrid="true"
     inkscape:grid-bbox="true"
     inkscape:document-units="px"
     inkscape:window-width="1086"
     inkscape:window-height="1001"
     inkscape:window-x="772"
     inkscape:window-y="0"
     inkscape:window-maximized="0" />
  <metadata
     id="metadata6055">
    <rdf:RDF>
      <cc:Work
         rdf:about="">
        <dc:format>image/svg+xml</dc:format>
        <dc:type
           rdf:resource="http://purl.org/dc/dcmitype/StillImage" />
        <dc:title></dc:title>
      </cc:Work>
    </rdf:RDF>
  </metadata>
  <g
     id="layer1"
     inkscape:label="Layer 1"
     inkscape:groupmode="layer">
    <g
       id="g4272"
       transform="matrix(1.4949083,0,0,-1.4949083,1.597113,47.745507)">
      <path
         d="M 0,0 -0.983,-0.022 -1,1 C -1,6.022 0.011,7.076 2.156,8.146 2.668,8.4 3.196,8.633 3.772,9.074 L 4.989,7.52 C 4.261,6.96 3.589,6.625 3.048,6.355 1.761,5.714 1.118,5.352 1.017,1.978 4.514,2.105 4.91,2.976 5.539,4.282 5.784,4.79 6.062,5.367 6.507,5.974 L 7.99,4.626 C 7.623,4.017 7.502,3.712 7.285,3.26 6.292,1.197 5.301,0 0,0"
         style="fill:#31353a;fill-opacity:1;fill-rule:nonzero;stroke:none"
         id="path4274"
         inkscape:connector-curvature="0" />
    </g>
    <g
       id="g4276"
       transform="matrix(1.4949083,0,0,-1.4949083,33.013628,11.897368)">
      <path
         d="m 0,0 c -1.104,0 -2.002,-0.898 -2.002,-2.002 0,-1.104 0.898,-2.003 2.002,-2.003 1.104,0 2.002,0.899 2.002,2.003 C 2.002,-0.898 1.104,0 0,0 m 0,-6.013 c -2.211,0 -4.011,1.799 -4.011,4.011 0,2.211 1.8,4.011 4.011,4.011 2.211,0 4.011,-1.8 4.011,-4.011 0,-2.212 -1.8,-4.011 -4.011,-4.011"
         style="fill:#31353a;fill-opacity:1;fill-rule:nonzero;stroke:none"
         id="path4278"
         inkscape:connector-curvature="0" />
    </g>
    <g
       id="g4280"
       transform="matrix(1.4949083,0,0,-1.4949083,11.983736,29.41829)">
      <path
         d="m 0,0 c 0.213,-0.244 2.991,-3.325 4.83,-5.363 0.113,-0.125 0.192,-0.277 0.231,-0.44 l 0.898,-3.799 2.11,2.318 0,5.226 c 0,0.301 0.136,0.585 0.368,0.775 0.405,0.331 1.328,0.834 2.869,1.695 2.064,1.154 5.454,2.736 6.693,3.837 1.678,1.491 2.235,2.483 2.852,4.142 1.177,3.17 1.247,7.445 1.214,9.289 -1.741,0.012 -5.549,-0.133 -9.24,-1.511 C 11.167,15.549 9.847,14.596 8.547,13.08 7.447,11.796 6.201,9.152 5.2,7.154 4.608,5.974 4.098,4.955 3.658,4.238 3.476,3.943 3.153,3.762 2.806,3.762 l -5.689,0 L -5.13,1.387 -0.549,0.339 C -0.332,0.289 -0.139,0.169 0,0 m 5.364,-12.43 c -0.104,0 -0.209,0.017 -0.31,0.049 -0.332,0.109 -0.583,0.382 -0.663,0.721 l -1.217,5.147 -2.26,2.506 c -1.084,1.203 -1.762,1.954 -2.168,2.456 l -5.967,1.365 c -0.344,0.078 -0.622,0.332 -0.729,0.669 -0.108,0.336 -0.03,0.704 0.204,0.969 l 3.665,3.973 c 0.19,0.214 0.462,0.337 0.748,0.337 l 5.563,0 c 0.347,0.622 0.755,1.436 1.181,2.288 1.106,2.205 2.358,4.862 3.618,6.331 1.511,1.763 3.13,2.927 5.097,3.661 5.384,2.011 10.98,1.603 10.98,1.603 0.499,-0.038 0.895,-0.437 0.925,-0.937 C 24.048,18.445 24.405,12.216 22.726,7.695 22.019,5.794 21.301,4.508 19.327,2.754 17.926,1.508 14.546,-0.067 12.281,-1.333 11.45,-1.798 10.567,-2.274 10.069,-2.584 l 0,-5.16 c 0,-0.292 -0.128,-0.569 -0.349,-0.759 L 6.015,-12.188 C 5.831,-12.347 5.599,-12.43 5.364,-12.43"
         style="fill:#31353a;fill-opacity:1;fill-rule:nonzero;stroke:none"
         id="path4282"
         inkscape:connector-curvature="0" />
    </g>
    <g
       id="g5946"
       transform="matrix(1.4949083,0,0,-1.4949083,1.597113,47.745507)">
      <path
         d="M 0,0 -0.983,-0.022 -1,1 C -1,6.022 0.011,7.076 2.156,8.146 2.668,8.4 3.196,8.633 3.772,9.074 L 4.989,7.52 C 4.261,6.96 3.589,6.625 3.048,6.355 1.761,5.714 1.118,5.352 1.017,1.978 4.514,2.105 4.91,2.976 5.539,4.282 5.784,4.79 6.062,5.367 6.507,5.974 L 7.99,4.626 C 7.623,4.017 7.502,3.712 7.285,3.26 6.292,1.197 5.301,0 0,0"
         style="fill:#31353a;fill-opacity:1;fill-rule:nonzero;stroke:none"
         id="path5948"
         inkscape:connector-curvature="0" />
    </g>
    <g
       id="g5950"
       transform="matrix(1.4949083,0,0,-1.4949083,33.013628,11.897368)">
      <path
         d="m 0,0 c -1.104,0 -2.002,-0.898 -2.002,-2.002 0,-1.104 0.898,-2.003 2.002,-2.003 1.104,0 2.002,0.899 2.002,2.003 C 2.002,-0.898 1.104,0 0,0 m 0,-6.013 c -2.211,0 -4.011,1.799 -4.011,4.011 0,2.211 1.8,4.011 4.011,4.011 2.211,0 4.011,-1.8 4.011,-4.011 0,-2.212 -1.8,-4.011 -4.011,-4.011"
         style="fill:#31353a;fill-opacity:1;fill-rule:nonzero;stroke:none"
         id="path5952"
         inkscape:connector-curvature="0" />
    </g>
    <g
       id="g5954"
       transform="matrix(1.4949083,0,0,-1.4949083,11.983736,29.41829)">
      <path
         d="m 0,0 c 0.213,-0.244 2.991,-3.325 4.83,-5.363 0.113,-0.125 0.192,-0.277 0.231,-0.44 l 0.898,-3.799 2.11,2.318 0,5.226 c 0,0.301 0.136,0.585 0.368,0.775 0.405,0.331 1.328,0.834 2.869,1.695 2.064,1.154 5.454,2.736 6.693,3.837 1.678,1.491 2.235,2.483 2.852,4.142 1.177,3.17 1.247,7.445 1.214,9.289 -1.741,0.012 -5.549,-0.133 -9.24,-1.511 C 11.167,15.549 9.847,14.596 8.547,13.08 7.447,11.796 6.201,9.152 5.2,7.154 4.608,5.974 4.098,4.955 3.658,4.238 3.476,3.943 3.153,3.762 2.806,3.762 l -5.689,0 L -5.13,1.387 -0.549,0.339 C -0.332,0.289 -0.139,0.169 0,0 m 5.364,-12.43 c -0.104,0 -0.209,0.017 -0.31,0.049 -0.332,0.109 -0.583,0.382 -0.663,0.721 l -1.217,5.147 -2.26,2.506 c -1.084,1.203 -1.762,1.954 -2.168,2.456 l -5.967,1.365 c -0.344,0.078 -0.622,0.332 -0.729,0.669 -0.108,0.336 -0.03,0.704 0.204,0.969 l 3.665,3.973 c 0.19,0.214 0.462,0.337 0.748,0.337 l 5.563,0 c 0.347,0.622 0.755,1.436 1.181,2.288 1.106,2.205 2.358,4.862 3.618,6.331 1.511,1.763 3.13,2.927 5.097,3.661 5.384,2.011 10.98,1.603 10.98,1.603 0.499,-0.038 0.895,-0.437 0.925,-0.937 C 24.048,18.445 24.405,12.216 22.726,7.695 22.019,5.794 21.301,4.508 19.327,2.754 17.926,1.508 14.546,-0.067 12.281,-1.333 11.45,-1.798 10.567,-2.274 10.069,-2.584 l 0,-5.16 c 0,-0.292 -0.128,-0.569 -0.349,-0.759 L 6.015,-12.188 C 5.831,-12.347 5.599,-12.43 5.364,-12.43"
         style="fill:#31353a;fill-opacity:1;fill-rule:nonzero;stroke:none"
         id="path5956"
         inkscape:connector-curvature="0" />
    </g>
  </g>
</svg>
