<?xml version="1.0" encoding="UTF-8" standalone="no"?>
<!-- Created with Inkscape (http://www.inkscape.org/) -->

<svg
   xmlns:dc="http://purl.org/dc/elements/1.1/"
   xmlns:cc="http://creativecommons.org/ns#"
   xmlns:rdf="http://www.w3.org/1999/02/22-rdf-syntax-ns#"
   xmlns:svg="http://www.w3.org/2000/svg"
   xmlns="http://www.w3.org/2000/svg"
   xmlns:sodipodi="http://sodipodi.sourceforge.net/DTD/sodipodi-0.dtd"
   xmlns:inkscape="http://www.inkscape.org/namespaces/inkscape"
   width="48"
   height="48"
   id="svg6050"
   version="1.1"
   inkscape:version="0.91 r13725"
   viewBox="0 0 48 48"
   sodipodi:docname="tile_view.svg">
  <defs
     id="defs6052" />
  <sodipodi:namedview
     id="base"
     pagecolor="#ffffff"
     bordercolor="#666666"
     borderopacity="1.0"
     inkscape:pageopacity="0.0"
     inkscape:pageshadow="2"
     inkscape:zoom="7"
     inkscape:cx="30.437678"
     inkscape:cy="23.054"
     inkscape:current-layer="layer1"
     showgrid="true"
     inkscape:grid-bbox="true"
     inkscape:document-units="px"
     inkscape:window-width="1086"
     inkscape:window-height="1001"
     inkscape:window-x="772"
     inkscape:window-y="0"
     inkscape:window-maximized="0" />
  <metadata
     id="metadata6055">
    <rdf:RDF>
      <cc:Work
         rdf:about="">
        <dc:format>image/svg+xml</dc:format>
        <dc:type
           rdf:resource="http://purl.org/dc/dcmitype/StillImage" />
        <dc:title></dc:title>
      </cc:Work>
    </rdf:RDF>
  </metadata>
  <g
     id="layer1"
     inkscape:label="Layer 1"
     inkscape:groupmode="layer">
    <path
       d="M 18,3 3,3 3,18 18,18 18,3 Z M 18,21 3,21 C 1.344,21 -4.9999999e-8,19.656 -4.9999999e-8,18 l 0,-15 C -4.9999999e-8,1.3425 1.344,0 3,0 l 15,0 c 1.6575,0 3,1.3425 3,3 l 0,15 c 0,1.656 -1.3425,3 -3,3 m 0,9 -15,0 0,15 15,0 0,-15 z M 18,48 3,48 C 1.344,48 -4.9999999e-8,46.656 -4.9999999e-8,45 l 0,-15 C -4.9999999e-8,28.3425 1.344,27 3,27 l 15,0 c 1.6575,0 3,1.3425 3,3 l 0,15 c 0,1.656 -1.3425,3 -3,3 M 45,3 30,3 30,18 45,18 45,3 Z m 0,18 -15,0 c -1.656,0 -3,-1.344 -3,-3 L 27,3 c 0,-1.6575 1.344,-3 3,-3 l 15,0 c 1.6575,0 3,1.3425 3,3 l 0,15 c 0,1.656 -1.3425,3 -3,3 m 0,9 -15,0 0,15 15,0 0,-15 z m 0,18 -15,0 c -1.656,0 -3,-1.344 -3,-3 l 0,-15 c 0,-1.6575 1.344,-3 3,-3 l 15,0 c 1.6575,0 3,1.3425 3,3 l 0,15 c 0,1.656 -1.3425,3 -3,3"
       style="fill:#31353a;fill-opacity:1;fill-rule:evenodd;stroke:none"
       id="path3986"
       inkscape:connector-curvature="0" />
    <path
       d="M 18,3 3,3 3,18 18,18 18,3 Z M 18,21 3,21 C 1.344,21 -4.9999999e-8,19.656 -4.9999999e-8,18 l 0,-15 C -4.9999999e-8,1.3425 1.344,0 3,0 l 15,0 c 1.6575,0 3,1.3425 3,3 l 0,15 c 0,1.656 -1.3425,3 -3,3 m 0,9 -15,0 0,15 15,0 0,-15 z M 18,48 3,48 C 1.344,48 -4.9999999e-8,46.656 -4.9999999e-8,45 l 0,-15 C -4.9999999e-8,28.3425 1.344,27 3,27 l 15,0 c 1.6575,0 3,1.3425 3,3 l 0,15 c 0,1.656 -1.3425,3 -3,3 M 45,3 30,3 30,18 45,18 45,3 Z m 0,18 -15,0 c -1.656,0 -3,-1.344 -3,-3 L 27,3 c 0,-1.6575 1.344,-3 3,-3 l 15,0 c 1.6575,0 3,1.3425 3,3 l 0,15 c 0,1.656 -1.3425,3 -3,3 m 0,9 -15,0 0,15 15,0 0,-15 z m 0,18 -15,0 c -1.656,0 -3,-1.344 -3,-3 l 0,-15 c 0,-1.6575 1.344,-3 3,-3 l 15,0 c 1.6575,0 3,1.3425 3,3 l 0,15 c 0,1.656 -1.3425,3 -3,3"
       style="fill:#31353a;fill-opacity:1;fill-rule:evenodd;stroke:none"
       id="path5660"
       inkscape:connector-curvature="0" />
  </g>
</svg>
