<?xml version="1.0" encoding="UTF-8" standalone="no"?>
<!-- Created with Inkscape (http://www.inkscape.org/) -->

<svg
   xmlns:dc="http://purl.org/dc/elements/1.1/"
   xmlns:cc="http://creativecommons.org/ns#"
   xmlns:rdf="http://www.w3.org/1999/02/22-rdf-syntax-ns#"
   xmlns:svg="http://www.w3.org/2000/svg"
   xmlns="http://www.w3.org/2000/svg"
   xmlns:sodipodi="http://sodipodi.sourceforge.net/DTD/sodipodi-0.dtd"
   xmlns:inkscape="http://www.inkscape.org/namespaces/inkscape"
   width="48"
   height="48"
   id="svg6050"
   version="1.1"
   inkscape:version="0.91 r13725"
   viewBox="0 0 48 48"
   sodipodi:docname="undo.svg">
  <defs
     id="defs6052" />
  <sodipodi:namedview
     id="base"
     pagecolor="#ffffff"
     bordercolor="#666666"
     borderopacity="1.0"
     inkscape:pageopacity="0.0"
     inkscape:pageshadow="2"
     inkscape:zoom="7"
     inkscape:cx="30.437678"
     inkscape:cy="23.054"
     inkscape:current-layer="layer1"
     showgrid="true"
     inkscape:grid-bbox="true"
     inkscape:document-units="px"
     inkscape:window-width="1086"
     inkscape:window-height="1001"
     inkscape:window-x="772"
     inkscape:window-y="0"
     inkscape:window-maximized="0" />
  <metadata
     id="metadata6055">
    <rdf:RDF>
      <cc:Work
         rdf:about="">
        <dc:format>image/svg+xml</dc:format>
        <dc:type
           rdf:resource="http://purl.org/dc/dcmitype/StillImage" />
        <dc:title></dc:title>
      </cc:Work>
    </rdf:RDF>
  </metadata>
  <g
     id="layer1"
     inkscape:label="Layer 1"
     inkscape:groupmode="layer">
    <g
       id="g4366"
       transform="matrix(1.4999125,0,0,-1.4999125,20.950786,25.771894)">
      <path
         d="m 0,0 0.002,0 c 10.007,-0.006 13.831,-3.385 16.015,-6.369 -0.32,2.391 -1.252,5.272 -3.282,7.626 C 10.037,4.385 5.69,6.033 0,6.033 c -0.553,0 -1,0.448 -1,1 L -1,11.526 -11.389,2.984 -1,-5.638 -1,-1 c 0,0.266 0.106,0.521 0.294,0.708 C -0.519,-0.105 -0.265,0 0,0 m 16.973,-12.267 c -0.011,0 -0.023,0 -0.035,10e-4 -0.505,0.017 -0.825,0.41 -0.868,0.914 -0.034,0.371 -1.061,9.346 -15.07,9.336 L 1,-7.755 C 1,-8.142 0.777,-8.494 0.427,-8.659 0.08,-8.825 -0.337,-8.774 -0.635,-8.527 L -13.603,2.216 c -0.232,0.19 -0.366,0.475 -0.365,0.774 10e-4,0.3 0.136,0.584 0.368,0.774 L -0.632,14.406 C -0.333,14.65 0.08,14.697 0.429,14.534 0.777,14.368 1,14.017 1,13.631 L 1,8.018 C 6.812,7.833 11.343,5.964 14.261,2.55 c 4.748,-5.556 3.688,-13.63 3.638,-13.966 -0.074,-0.49 -0.433,-0.851 -0.926,-0.851"
         style="fill:#31353a;fill-opacity:1;fill-rule:nonzero;stroke:none"
         id="path4368"
         inkscape:connector-curvature="0" />
    </g>
  </g>
</svg>
