<?xml version="1.0" encoding="UTF-8" standalone="no"?>
<!-- Created with Inkscape (http://www.inkscape.org/) -->

<svg
   xmlns:dc="http://purl.org/dc/elements/1.1/"
   xmlns:cc="http://creativecommons.org/ns#"
   xmlns:rdf="http://www.w3.org/1999/02/22-rdf-syntax-ns#"
   xmlns:svg="http://www.w3.org/2000/svg"
   xmlns="http://www.w3.org/2000/svg"
   xmlns:sodipodi="http://sodipodi.sourceforge.net/DTD/sodipodi-0.dtd"
   xmlns:inkscape="http://www.inkscape.org/namespaces/inkscape"
   width="48"
   height="48"
   id="svg6050"
   version="1.1"
   inkscape:version="0.91 r13725"
   viewBox="0 0 48 48"
   sodipodi:docname="wallet.svg">
  <defs
     id="defs6052" />
  <sodipodi:namedview
     id="base"
     pagecolor="#ffffff"
     bordercolor="#666666"
     borderopacity="1.0"
     inkscape:pageopacity="0.0"
     inkscape:pageshadow="2"
     inkscape:zoom="7"
     inkscape:cx="30.437678"
     inkscape:cy="23.054"
     inkscape:current-layer="layer1"
     showgrid="true"
     inkscape:grid-bbox="true"
     inkscape:document-units="px"
     inkscape:window-width="1086"
     inkscape:window-height="1001"
     inkscape:window-x="772"
     inkscape:window-y="0"
     inkscape:window-maximized="0" />
  <metadata
     id="metadata6055">
    <rdf:RDF>
      <cc:Work
         rdf:about="">
        <dc:format>image/svg+xml</dc:format>
        <dc:type
           rdf:resource="http://purl.org/dc/dcmitype/StillImage" />
        <dc:title></dc:title>
      </cc:Work>
    </rdf:RDF>
  </metadata>
  <g
     id="layer1"
     inkscape:label="Layer 1"
     inkscape:groupmode="layer">
    <g
       id="g4312"
       transform="matrix(1.4992972,0,0,-1.4992972,45.001406,41.251663)">
      <path
         d="m 0,0 c 0,-0.552 -0.448,-1 -1,-1 l -26.015,0 c -0.551,0 -1,0.448 -1,1 l 0,15.994 c 0,0.552 0.449,1 1,1 l 25.002,0 C -1.031,16.994 0,17.329 0,17.991 L 0,0 Z m -23.113,24.009 22.062,-4.465 c 0.008,-0.004 -0.164,-0.56 -0.965,-0.55 l -22.01,0 0,4.019 c 0,0.522 0.402,0.952 0.913,0.996 m 25.094,-5.58 c 0.015,0.739 -0.184,2.464 -2.432,3.064 l -22.367,4.498 -0.208,0.022 c -1.655,0 -3,-1.346 -3,-3 l 0,-4.022 -1,0.002 c -1.649,-0.007 -2.989,-1.348 -2.989,-2.999 l 0,-15.994 c 0,-1.654 1.346,-3 3,-3 L -1,-3 c 1.654,0 3,1.346 3,3"
         style="fill:#31353a;fill-opacity:1;fill-rule:nonzero;stroke:none"
         id="path4314"
         inkscape:connector-curvature="0" />
    </g>
    <g
       id="g4316"
       transform="matrix(1.4992972,0,0,-1.4992972,8.9994411,26.272497)">
      <path
         d="m 0,0 c 1.105,0 2,-0.896 2,-2 0,-1.105 -0.895,-2 -2,-2 -1.104,0 -2,0.895 -2,2 0,1.104 0.896,2 2,2"
         style="fill:#31353a;fill-opacity:1;fill-rule:evenodd;stroke:none"
         id="path4318"
         inkscape:connector-curvature="0" />
    </g>
  </g>
</svg>
