<?xml version="1.0" encoding="UTF-8" standalone="no"?>
<!-- Created with Inkscape (http://www.inkscape.org/) -->

<svg
   xmlns:dc="http://purl.org/dc/elements/1.1/"
   xmlns:cc="http://creativecommons.org/ns#"
   xmlns:rdf="http://www.w3.org/1999/02/22-rdf-syntax-ns#"
   xmlns:svg="http://www.w3.org/2000/svg"
   xmlns="http://www.w3.org/2000/svg"
   xmlns:sodipodi="http://sodipodi.sourceforge.net/DTD/sodipodi-0.dtd"
   xmlns:inkscape="http://www.inkscape.org/namespaces/inkscape"
   width="48"
   height="48"
   id="svg6050"
   version="1.1"
   inkscape:version="0.91 r13725"
   viewBox="0 0 48 48"
   sodipodi:docname="wrench.svg">
  <defs
     id="defs6052" />
  <sodipodi:namedview
     id="base"
     pagecolor="#ffffff"
     bordercolor="#666666"
     borderopacity="1.0"
     inkscape:pageopacity="0.0"
     inkscape:pageshadow="2"
     inkscape:zoom="7"
     inkscape:cx="30.437678"
     inkscape:cy="23.054"
     inkscape:current-layer="layer1"
     showgrid="true"
     inkscape:grid-bbox="true"
     inkscape:document-units="px"
     inkscape:window-width="1086"
     inkscape:window-height="1001"
     inkscape:window-x="772"
     inkscape:window-y="0"
     inkscape:window-maximized="0" />
  <metadata
     id="metadata6055">
    <rdf:RDF>
      <cc:Work
         rdf:about="">
        <dc:format>image/svg+xml</dc:format>
        <dc:type
           rdf:resource="http://purl.org/dc/dcmitype/StillImage" />
        <dc:title></dc:title>
      </cc:Work>
    </rdf:RDF>
  </metadata>
  <g
     id="layer1"
     inkscape:label="Layer 1"
     inkscape:groupmode="layer">
    <g
       id="g4228"
       transform="matrix(1.4985483,0,0,-1.4985483,42.435139,23.859886)">
      <path
         d="m 0,0 -0.372,-0.433 c -1.116,-1.134 -2.577,-1.677 -4.113,-1.677 -0.76,0 -1.785,0.143 -2.476,0.431 -0.625,0.26 -1.206,0.635 -1.725,1.107 l -12.818,-12.925 c -0.376,-0.382 -0.876,-0.592 -1.408,-0.592 -0.532,0 -1.033,0.21 -1.409,0.592 l -1.408,1.428 c -0.777,0.788 -0.777,2.069 -0.001,2.857 l 12.525,12.776 c -0.42,0.612 -0.706,1.278 -0.876,1.968 l -0.001,0 c -0.482,1.95 -0.201,4.645 1.313,6.19 l 0.431,0.434 c 1.299,1.318 4.671,1.707 6.537,1.822 L -9.468,9.743 C -9.796,9.364 -9.779,8.792 -9.43,8.434 L -3.632,2.486 C -3.28,2.125 -2.712,2.104 -2.334,2.439 L 1.748,6.115 C 1.626,4.135 1.242,1.259 0,0 M 3.147,9.158 C 2.81,9.314 2.411,9.255 2.129,9.007 l -5.04,-4.528 -4.551,4.669 4.506,5.204 c 0.245,0.283 0.304,0.673 0.151,1.016 -0.152,0.344 -0.489,0.554 -0.859,0.554 l -0.272,0 c -2.785,0 -7.592,-0.24 -9.739,-2.417 l -0.433,-0.43 c -2.29,-2.337 -2.697,-6.169 -1.491,-9.081 L -27.138,-7.784 c -1.556,-1.578 -1.556,-4.135 0,-5.713 l 1.408,-1.428 c 0.778,-0.789 1.798,-1.184 2.818,-1.184 1.019,0 2.039,0.395 2.817,1.184 l 11.71,11.804 c 1.107,-0.599 2.625,-0.99 3.9,-0.99 2.042,0 3.979,0.825 5.454,2.321 l 0.426,0.432 C 3.727,1.006 3.691,6.058 3.701,8.28 3.702,8.658 3.485,9.002 3.147,9.158"
         style="fill:#31353a;fill-opacity:1;fill-rule:nonzero;stroke:none"
         id="path4230"
         inkscape:connector-curvature="0" />
    </g>
    <g
       id="g5902"
       transform="matrix(1.4985483,0,0,-1.4985483,42.435139,23.859886)">
      <path
         d="m 0,0 -0.372,-0.433 c -1.116,-1.134 -2.577,-1.677 -4.113,-1.677 -0.76,0 -1.785,0.143 -2.476,0.431 -0.625,0.26 -1.206,0.635 -1.725,1.107 l -12.818,-12.925 c -0.376,-0.382 -0.876,-0.592 -1.408,-0.592 -0.532,0 -1.033,0.21 -1.409,0.592 l -1.408,1.428 c -0.777,0.788 -0.777,2.069 -0.001,2.857 l 12.525,12.776 c -0.42,0.612 -0.706,1.278 -0.876,1.968 l -0.001,0 c -0.482,1.95 -0.201,4.645 1.313,6.19 l 0.431,0.434 c 1.299,1.318 4.671,1.707 6.537,1.822 L -9.468,9.743 C -9.796,9.364 -9.779,8.792 -9.43,8.434 L -3.632,2.486 C -3.28,2.125 -2.712,2.104 -2.334,2.439 L 1.748,6.115 C 1.626,4.135 1.242,1.259 0,0 M 3.147,9.158 C 2.81,9.314 2.411,9.255 2.129,9.007 l -5.04,-4.528 -4.551,4.669 4.506,5.204 c 0.245,0.283 0.304,0.673 0.151,1.016 -0.152,0.344 -0.489,0.554 -0.859,0.554 l -0.272,0 c -2.785,0 -7.592,-0.24 -9.739,-2.417 l -0.433,-0.43 c -2.29,-2.337 -2.697,-6.169 -1.491,-9.081 L -27.138,-7.784 c -1.556,-1.578 -1.556,-4.135 0,-5.713 l 1.408,-1.428 c 0.778,-0.789 1.798,-1.184 2.818,-1.184 1.019,0 2.039,0.395 2.817,1.184 l 11.71,11.804 c 1.107,-0.599 2.625,-0.99 3.9,-0.99 2.042,0 3.979,0.825 5.454,2.321 l 0.426,0.432 C 3.727,1.006 3.691,6.058 3.701,8.28 3.702,8.658 3.485,9.002 3.147,9.158"
         style="fill:#31353a;fill-opacity:1;fill-rule:nonzero;stroke:none"
         id="path5904"
         inkscape:connector-curvature="0" />
    </g>
  </g>
</svg>
