<?xml version="1.0" encoding="UTF-8" standalone="no"?>
<!-- Created with Inkscape (http://www.inkscape.org/) -->

<svg
   xmlns:dc="http://purl.org/dc/elements/1.1/"
   xmlns:cc="http://creativecommons.org/ns#"
   xmlns:rdf="http://www.w3.org/1999/02/22-rdf-syntax-ns#"
   xmlns:svg="http://www.w3.org/2000/svg"
   xmlns="http://www.w3.org/2000/svg"
   xmlns:sodipodi="http://sodipodi.sourceforge.net/DTD/sodipodi-0.dtd"
   xmlns:inkscape="http://www.inkscape.org/namespaces/inkscape"
   width="48"
   height="48"
   id="svg6050"
   version="1.1"
   inkscape:version="0.91 r13725"
   viewBox="0 0 48 48"
   sodipodi:docname="zoom_out.svg">
  <defs
     id="defs6052" />
  <sodipodi:namedview
     id="base"
     pagecolor="#ffffff"
     bordercolor="#666666"
     borderopacity="1.0"
     inkscape:pageopacity="0.0"
     inkscape:pageshadow="2"
     inkscape:zoom="7"
     inkscape:cx="30.437678"
     inkscape:cy="23.054"
     inkscape:current-layer="layer1"
     showgrid="true"
     inkscape:grid-bbox="true"
     inkscape:document-units="px"
     inkscape:window-width="1086"
     inkscape:window-height="1001"
     inkscape:window-x="772"
     inkscape:window-y="0"
     inkscape:window-maximized="0" />
  <metadata
     id="metadata6055">
    <rdf:RDF>
      <cc:Work
         rdf:about="">
        <dc:format>image/svg+xml</dc:format>
        <dc:type
           rdf:resource="http://purl.org/dc/dcmitype/StillImage" />
        <dc:title></dc:title>
      </cc:Work>
    </rdf:RDF>
  </metadata>
  <g
     id="layer1"
     inkscape:label="Layer 1"
     inkscape:groupmode="layer">
    <g
       id="g3494"
       transform="matrix(1.4950032,0,0,-1.4950032,47.56159,47.474503)">
      <path
         d="m 0,0 c -0.391,-0.391 -1.024,-0.391 -1.414,0 l -10.075,10.137 c -0.39,0.391 -0.39,1.024 0,1.415 0.391,0.39 1.024,0.39 1.414,0 L 0,1.414 C 0.391,1.024 0.391,0.391 0,0"
         style="fill:#31353a;fill-opacity:1;fill-rule:evenodd;stroke:none"
         id="path3496"
         inkscape:connector-curvature="0" />
    </g>
    <g
       id="g3498"
       transform="matrix(1.4950032,0,0,-1.4950032,19.435042,35.967164)">
      <path
         d="m 0,0 c -6.048,0 -11,4.952 -11,11 0,6.048 4.952,11 11,11 C 6.048,22 11,17.048 11,11 11,4.952 6.048,0 0,0 M 0.017,24 C -7.172,24 -13,18.172 -13,10.983 -13,3.794 -7.172,-2.034 0.017,-2.034 c 7.189,0 12.986,5.828 12.986,13.017 C 13.003,18.172 7.206,24 0.017,24"
         style="fill:#31353a;fill-opacity:1;fill-rule:evenodd;stroke:none"
         id="path3500"
         inkscape:connector-curvature="0" />
    </g>
    <g
       id="g3502"
       transform="matrix(1.4950032,0,0,-1.4950032,11.960025,18.027125)">
      <path
         d="m 0,0 10,0 c 0.552,0 1,-0.448 1,-1 0,-0.552 -0.448,-1 -1,-1 L 0,-2 c -0.552,0 -1,0.448 -1,1 0,0.552 0.448,1 1,1"
         style="fill:#31353a;fill-opacity:1;fill-rule:evenodd;stroke:none"
         id="path3504"
         inkscape:connector-curvature="0" />
    </g>
  </g>
</svg>
