<?xml version="1.0" encoding="UTF-8" standalone="no"?>
<!-- Created with Inkscape (http://www.inkscape.org/) -->

<svg
   xmlns:dc="http://purl.org/dc/elements/1.1/"
   xmlns:cc="http://creativecommons.org/ns#"
   xmlns:rdf="http://www.w3.org/1999/02/22-rdf-syntax-ns#"
   xmlns:svg="http://www.w3.org/2000/svg"
   xmlns="http://www.w3.org/2000/svg"
   xmlns:sodipodi="http://sodipodi.sourceforge.net/DTD/sodipodi-0.dtd"
   xmlns:inkscape="http://www.inkscape.org/namespaces/inkscape"
   width="48"
   height="48"
   id="svg6050"
   version="1.1"
   inkscape:version="0.91 r13725"
   viewBox="0 0 48 48"
   sodipodi:docname="avatar.svg">
  <defs
     id="defs6052" />
  <sodipodi:namedview
     id="base"
     pagecolor="#ffffff"
     bordercolor="#666666"
     borderopacity="1.0"
     inkscape:pageopacity="0.0"
     inkscape:pageshadow="2"
     inkscape:zoom="7"
     inkscape:cx="30.437678"
     inkscape:cy="23.054"
     inkscape:current-layer="layer1"
     showgrid="true"
     inkscape:grid-bbox="true"
     inkscape:document-units="px"
     inkscape:window-width="1086"
     inkscape:window-height="1001"
     inkscape:window-x="772"
     inkscape:window-y="0"
     inkscape:window-maximized="0" />
  <metadata
     id="metadata6055">
    <rdf:RDF>
      <cc:Work
         rdf:about="">
        <dc:format>image/svg+xml</dc:format>
        <dc:type
           rdf:resource="http://purl.org/dc/dcmitype/StillImage" />
        <dc:title></dc:title>
      </cc:Work>
    </rdf:RDF>
  </metadata>
  <g
     id="layer1"
     inkscape:label="Layer 1"
     inkscape:groupmode="layer">
    <g
       id="g3546"
       transform="matrix(1.5007504,0,0,-1.5007504,24,-3.968e-7)">
      <path
         d="m 0,0 c -4.416,0 -9.004,-3.686 -9.004,-6.996 l 0,-4.997 c 0,-2.184 0.997,-6.602 3.794,-8.847 l -8.783,-4.144 c 0,0 -1.999,-0.891 -1.999,-1.999 l 0,-3.001 c 0,-1.105 0.895,-2 1.999,-2 l 27.986,0 c 1.104,0 1.999,0.895 1.999,2 l 0,3.001 c 0,1.174 -1.999,1.999 -1.999,1.999 l -8.703,4.126 c 2.77,2.181 3.708,6.464 3.708,8.865 l 0,4.997 C 8.998,-3.686 4.415,0 0,0 m 0,-2 c 3.396,0 6.998,-2.86 6.998,-4.996 l 0,-4.997 c 0,-1.924 -0.8,-5.604 -2.946,-7.293 -0.547,-0.431 -0.831,-1.115 -0.749,-1.807 0.082,-0.692 0.519,-1.291 1.152,-1.582 l 8.703,-4.127 c 0.068,-0.031 0.834,-0.16 0.834,-1.229 l 10e-4,-1.952 -27.985,-0.001 0,2.029 c 0,0.795 0.597,1.044 0.835,1.154 l 8.783,4.145 c 0.629,0.289 1.064,0.884 1.149,1.572 0.084,0.687 -0.193,1.37 -0.733,1.804 -2.078,1.668 -3.046,5.334 -3.046,7.287 l 0,4.997 C -7.004,-4.906 -3.366,-2 0,-2"
         style="fill:#31353a;fill-opacity:1;fill-rule:nonzero;stroke:none"
         id="path3548"
         inkscape:connector-curvature="0" />
    </g>
  </g>
</svg>
