<?xml version="1.0" encoding="UTF-8" standalone="no"?>
<!-- Created with Inkscape (http://www.inkscape.org/) -->

<svg
   xmlns:dc="http://purl.org/dc/elements/1.1/"
   xmlns:cc="http://creativecommons.org/ns#"
   xmlns:rdf="http://www.w3.org/1999/02/22-rdf-syntax-ns#"
   xmlns:svg="http://www.w3.org/2000/svg"
   xmlns="http://www.w3.org/2000/svg"
   xmlns:sodipodi="http://sodipodi.sourceforge.net/DTD/sodipodi-0.dtd"
   xmlns:inkscape="http://www.inkscape.org/namespaces/inkscape"
   width="48"
   height="48"
   id="svg6050"
   version="1.1"
   inkscape:version="0.91 r13725"
   viewBox="0 0 48 48"
   sodipodi:docname="bag_2.svg">
  <defs
     id="defs6052" />
  <sodipodi:namedview
     id="base"
     pagecolor="#ffffff"
     bordercolor="#666666"
     borderopacity="1.0"
     inkscape:pageopacity="0.0"
     inkscape:pageshadow="2"
     inkscape:zoom="7"
     inkscape:cx="30.437678"
     inkscape:cy="23.054"
     inkscape:current-layer="layer1"
     showgrid="true"
     inkscape:grid-bbox="true"
     inkscape:document-units="px"
     inkscape:window-width="1086"
     inkscape:window-height="1001"
     inkscape:window-x="772"
     inkscape:window-y="0"
     inkscape:window-maximized="0" />
  <metadata
     id="metadata6055">
    <rdf:RDF>
      <cc:Work
         rdf:about="">
        <dc:format>image/svg+xml</dc:format>
        <dc:type
           rdf:resource="http://purl.org/dc/dcmitype/StillImage" />
        <dc:title></dc:title>
      </cc:Work>
    </rdf:RDF>
  </metadata>
  <g
     id="layer1"
     inkscape:label="Layer 1"
     inkscape:groupmode="layer">
    <g
       id="g4420"
       transform="matrix(1.4973792,0,0,-1.4973792,15.015564,21.029049)">
      <path
         d="m 0,0 c 1.105,0 2,-0.895 2,-2 0,-1.104 -0.895,-2 -2,-2 -1.104,0 -2,0.896 -2,2 0,1.105 0.896,2 2,2"
         style="fill:#31353a;fill-opacity:1;fill-rule:evenodd;stroke:none"
         id="path4422"
         inkscape:connector-curvature="0" />
    </g>
    <g
       id="g4424"
       transform="matrix(1.4973792,0,0,-1.4973792,32.984114,21.029049)">
      <path
         d="m 0,0 c 1.105,0 2,-0.895 2,-2 0,-1.104 -0.895,-2 -2,-2 -1.104,0 -2,0.896 -2,2 0,1.105 0.896,2 2,2"
         style="fill:#31353a;fill-opacity:1;fill-rule:evenodd;stroke:none"
         id="path4426"
         inkscape:connector-curvature="0" />
    </g>
    <g
       id="g4428"
       transform="matrix(1.4973792,0,0,-1.4973792,3.5358154,45.005241)">
      <path
         d="m 0,0 27.266,0.014 c 0.293,0 0.393,0.163 0.38,0.291 l -2.604,15.727 c -0.128,1.1 -1.117,1.983 -2.169,1.983 l -18.602,0 C 3.22,18.015 2.23,17.132 2.11,16.087 L -0.304,0.334 C -0.344,0.092 -0.172,0 0,0 m 27.175,-2 0,0 -27.299,0 c -0.726,0 -1.291,0.221 -1.68,0.655 -0.412,0.462 -0.574,1.116 -0.481,1.947 L 0.13,16.356 c 0.226,1.998 2.087,3.659 4.141,3.659 l 18.602,0 c 2.055,0 3.915,-1.661 4.148,-3.702 L 29.627,0.57 C 29.722,-0.361 29.396,-0.922 29.107,-1.24 28.793,-1.587 28.203,-2 27.175,-2"
         style="fill:#31353a;fill-opacity:1;fill-rule:nonzero;stroke:none"
         id="path4430"
         inkscape:connector-curvature="0" />
    </g>
    <g
       id="g4432"
       transform="matrix(1.4973792,0,0,-1.4973792,32.981958,25.542294)">
      <path
         d="m 0,0 c -0.553,0 -1,0.447 -1,1 l 0,8.682 c 0,2.964 -2.005,5.376 -4.968,5.376 -2.963,0 -5.029,-2.412 -5.029,-5.376 l 0,-8.617 c 0,-0.552 -0.447,-1 -1,-1 -0.553,0 -1,0.448 -1,1 l 0,8.617 c 0,4.067 2.964,7.376 7.029,7.376 C -1.901,17.058 1,13.749 1,9.682 L 1,1 C 1,0.447 0.553,0 0,0"
         style="fill:#31353a;fill-opacity:1;fill-rule:nonzero;stroke:none"
         id="path4434"
         inkscape:connector-curvature="0" />
    </g>
  </g>
</svg>
