<?xml version="1.0" encoding="UTF-8" standalone="no"?>
<!-- Created with Inkscape (http://www.inkscape.org/) -->

<svg
   xmlns:dc="http://purl.org/dc/elements/1.1/"
   xmlns:cc="http://creativecommons.org/ns#"
   xmlns:rdf="http://www.w3.org/1999/02/22-rdf-syntax-ns#"
   xmlns:svg="http://www.w3.org/2000/svg"
   xmlns="http://www.w3.org/2000/svg"
   xmlns:sodipodi="http://sodipodi.sourceforge.net/DTD/sodipodi-0.dtd"
   xmlns:inkscape="http://www.inkscape.org/namespaces/inkscape"
   width="48"
   height="48"
   id="svg6050"
   version="1.1"
   inkscape:version="0.91 r13725"
   viewBox="0 0 48 48"
   sodipodi:docname="briefcase.svg">
  <defs
     id="defs6052" />
  <sodipodi:namedview
     id="base"
     pagecolor="#ffffff"
     bordercolor="#666666"
     borderopacity="1.0"
     inkscape:pageopacity="0.0"
     inkscape:pageshadow="2"
     inkscape:zoom="7"
     inkscape:cx="30.437678"
     inkscape:cy="23.054"
     inkscape:current-layer="layer1"
     showgrid="true"
     inkscape:grid-bbox="true"
     inkscape:document-units="px"
     inkscape:window-width="1086"
     inkscape:window-height="1001"
     inkscape:window-x="772"
     inkscape:window-y="0"
     inkscape:window-maximized="0" />
  <metadata
     id="metadata6055">
    <rdf:RDF>
      <cc:Work
         rdf:about="">
        <dc:format>image/svg+xml</dc:format>
        <dc:type
           rdf:resource="http://purl.org/dc/dcmitype/StillImage" />
        <dc:title></dc:title>
      </cc:Work>
    </rdf:RDF>
  </metadata>
  <g
     id="layer1"
     inkscape:label="Layer 1"
     inkscape:groupmode="layer">
    <g
       id="g4396"
       transform="matrix(1.4999438,0,0,-1.4999438,45.000112,8.9752133)">
      <path
         d="m 0,0 -28,0 c -1.1,0 -2,-0.9 -2,-2 l 0,-20.971 c 0,-1.099 0.9,-2 2,-2 l 28,0 c 1.1,0 2,0.901 2,2 L 2,-2 C 2,-0.9 1.1,0 0,0 m 0,-22.971 -28,0 0,20.971 28,0 0,-20.971 z"
         style="fill:#31353a;fill-opacity:1;fill-rule:nonzero;stroke:none"
         id="path4398"
         inkscape:connector-curvature="0" />
    </g>
    <g
       id="g4400"
       transform="matrix(1.4999438,0,0,-1.4999438,33.019642,11.734809)">
      <path
         d="m 0,0 -2,0 0,3.777 c 0,0.552 -0.448,1 -1,1 l -6.014,0 c -0.552,0 -1,-0.448 -1,-1 l 0,-3.527 -2,0 0,3.527 c 0,1.655 1.346,3 3,3 l 6.014,0 c 1.654,0 3,-1.345 3,-3 L 0,0 Z"
         style="fill:#31353a;fill-opacity:1;fill-rule:nonzero;stroke:none"
         id="path4402"
         inkscape:connector-curvature="0" />
    </g>
    <path
       d="m 47.9982,25.485693 -20.858218,0 0,-2.999887 20.858218,0 0,2.999887 z"
       style="fill:#31353a;fill-opacity:1;fill-rule:nonzero;stroke:none"
       id="path4404"
       inkscape:connector-curvature="0" />
    <path
       d="m 20.81172,25.485693 -20.8117198,0 0,-2.999887 20.8117198,0 0,2.999887 z"
       style="fill:#31353a;fill-opacity:1;fill-rule:nonzero;stroke:none"
       id="path4406"
       inkscape:connector-curvature="0" />
    <g
       id="g4408"
       transform="matrix(1.4999438,0,0,-1.4999438,22.494956,20.951207)">
      <path
         d="m 0,0 0,-5.036 1.994,0 L 1.992,0 0,0 Z m 1.992,-7.036 -1.992,0 c -1.103,0 -2,0.897 -2,2 L -2,0 c 0,1.102 0.897,2 2,2 l 1.992,0 c 1.103,0 2,-0.898 2,-2 l 0,-5.036 c 0,-1.103 -0.897,-2 -2,-2"
         style="fill:#31353a;fill-opacity:1;fill-rule:nonzero;stroke:none"
         id="path4410"
         inkscape:connector-curvature="0" />
    </g>
  </g>
</svg>
