<?xml version="1.0" encoding="UTF-8" standalone="no"?>
<!-- Created with Inkscape (http://www.inkscape.org/) -->

<svg
   xmlns:dc="http://purl.org/dc/elements/1.1/"
   xmlns:cc="http://creativecommons.org/ns#"
   xmlns:rdf="http://www.w3.org/1999/02/22-rdf-syntax-ns#"
   xmlns:svg="http://www.w3.org/2000/svg"
   xmlns="http://www.w3.org/2000/svg"
   xmlns:sodipodi="http://sodipodi.sourceforge.net/DTD/sodipodi-0.dtd"
   xmlns:inkscape="http://www.inkscape.org/namespaces/inkscape"
   width="48"
   height="48"
   id="svg6050"
   version="1.1"
   inkscape:version="0.91 r13725"
   viewBox="0 0 48 48"
   sodipodi:docname="camera_video.svg">
  <defs
     id="defs6052" />
  <sodipodi:namedview
     id="base"
     pagecolor="#ffffff"
     bordercolor="#666666"
     borderopacity="1.0"
     inkscape:pageopacity="0.0"
     inkscape:pageshadow="2"
     inkscape:zoom="7"
     inkscape:cx="30.437678"
     inkscape:cy="23.054"
     inkscape:current-layer="layer1"
     showgrid="true"
     inkscape:grid-bbox="true"
     inkscape:document-units="px"
     inkscape:window-width="1086"
     inkscape:window-height="1001"
     inkscape:window-x="772"
     inkscape:window-y="0"
     inkscape:window-maximized="0" />
  <metadata
     id="metadata6055">
    <rdf:RDF>
      <cc:Work
         rdf:about="">
        <dc:format>image/svg+xml</dc:format>
        <dc:type
           rdf:resource="http://purl.org/dc/dcmitype/StillImage" />
        <dc:title></dc:title>
      </cc:Work>
    </rdf:RDF>
  </metadata>
  <g
     id="layer1"
     inkscape:label="Layer 1"
     inkscape:groupmode="layer">
    <g
       id="g3542"
       transform="matrix(1.5,0,0,-1.5,46.4235,8.96925)">
      <path
         d="m 0,0 c -0.213,0 -0.634,-0.063 -0.874,-0.302 l -8.061,-4.765 0,3.996 c 0,1.143 -0.928,2.07 -2.073,2.07 l -17.865,0 c -1.146,0 -2.071,-0.927 -2.071,-2.07 l -0.005,-17.898 c 0,-1.143 0.926,-2.071 2.071,-2.071 l 17.866,0 c 1.146,0 2.072,0.928 2.072,2.071 l 0.005,3.929 8.217,-4.791 c 0.241,-0.24 0.508,-0.209 0.722,-0.209 0.222,0 0.387,0.068 0.407,0.077 0.389,0.162 0.64,0.537 0.64,0.958 l 0,17.968 c 0,0.422 -0.251,0.799 -0.64,0.958 C 0.389,-0.069 0.223,0 0,0 m -11.008,-1.001 c 0.04,0 0.073,-0.031 0.073,-0.07 l 0,-3.996 c 0,-0.74 0.408,-1.419 1.062,-1.766 0.294,-0.157 0.616,-0.234 0.938,-0.234 0.392,0 0.845,0.115 1.182,0.343 l 6.804,3.851 0,-14.262 -6.841,3.735 c -0.343,0.239 -0.743,0.36 -1.145,0.36 -0.317,0 -0.633,-0.075 -0.924,-0.225 -0.661,-0.345 -1.076,-1.028 -1.076,-1.772 l -0.005,-3.932 c 0,-0.039 -0.032,-0.071 -0.072,-0.071 l -17.866,0 c -0.04,0 -0.071,0.032 -0.071,0.07 l 0.005,17.899 c 0,0.039 0.031,0.07 0.071,0.07 l 17.865,0"
         style="fill:#31353a;fill-opacity:1;fill-rule:nonzero;stroke:none"
         id="path3544"
         inkscape:connector-curvature="0" />
    </g>
  </g>
</svg>
