<?xml version="1.0" encoding="UTF-8" standalone="no"?>
<!-- Created with Inkscape (http://www.inkscape.org/) -->

<svg
   xmlns:dc="http://purl.org/dc/elements/1.1/"
   xmlns:cc="http://creativecommons.org/ns#"
   xmlns:rdf="http://www.w3.org/1999/02/22-rdf-syntax-ns#"
   xmlns:svg="http://www.w3.org/2000/svg"
   xmlns="http://www.w3.org/2000/svg"
   xmlns:sodipodi="http://sodipodi.sourceforge.net/DTD/sodipodi-0.dtd"
   xmlns:inkscape="http://www.inkscape.org/namespaces/inkscape"
   width="48"
   height="48"
   id="svg6050"
   version="1.1"
   inkscape:version="0.91 r13725"
   viewBox="0 0 48 48"
   sodipodi:docname="column_chart.svg">
  <defs
     id="defs6052" />
  <sodipodi:namedview
     id="base"
     pagecolor="#ffffff"
     bordercolor="#666666"
     borderopacity="1.0"
     inkscape:pageopacity="0.0"
     inkscape:pageshadow="2"
     inkscape:zoom="7"
     inkscape:cx="30.437678"
     inkscape:cy="23.054"
     inkscape:current-layer="layer1"
     showgrid="true"
     inkscape:grid-bbox="true"
     inkscape:document-units="px"
     inkscape:window-width="1086"
     inkscape:window-height="1001"
     inkscape:window-x="772"
     inkscape:window-y="0"
     inkscape:window-maximized="0" />
  <metadata
     id="metadata6055">
    <rdf:RDF>
      <cc:Work
         rdf:about="">
        <dc:format>image/svg+xml</dc:format>
        <dc:type
           rdf:resource="http://purl.org/dc/dcmitype/StillImage" />
        <dc:title></dc:title>
      </cc:Work>
    </rdf:RDF>
  </metadata>
  <g
     id="layer1"
     inkscape:label="Layer 1"
     inkscape:groupmode="layer">
    <g
       id="g3844"
       transform="matrix(1.5,0,0,-1.5,12.75294,14.999244)">
      <path
         d="m 0,0 -7.002,0 c -0.553,0 -1,-0.447 -1,-1 l 0,-20 c 0,-0.553 0.447,-1 1,-1 L 0,-22 c 0.553,0 1,0.447 1,1 L 1,-1 C 1,-0.447 0.553,0 0,0 m -1,-20 -5.002,0 0,18 5.002,0 0,-18 z"
         style="fill:#31353a;fill-opacity:1;fill-rule:nonzero;stroke:none"
         id="path3846"
         inkscape:connector-curvature="0" />
    </g>
    <g
       id="g3848"
       transform="matrix(1.5,0,0,-1.5,29.23854,23.917944)">
      <path
         d="m 0,0 -7.003,0 c -0.552,0 -1,-0.447 -1,-1 l 0,-14.054 c 0,-0.553 0.448,-1 1,-1 l 7.003,0 c 0.553,0 1,0.447 1,1 L 1,-1 C 1,-0.447 0.553,0 0,0 m -1,-14.054 -5.003,0 0,12.055 5.003,0 0,-12.055 z"
         style="fill:#31353a;fill-opacity:1;fill-rule:nonzero;stroke:none"
         id="path3850"
         inkscape:connector-curvature="0" />
    </g>
    <g
       id="g3852"
       transform="matrix(1.5,0,0,-1.5,45.75006,0)">
      <path
         d="m 0,0 -6.992,0 c -0.552,0 -1,-0.447 -1,-1 l 0,-30 c 0,-0.552 0.448,-1 1,-1 L 0,-32 c 0.553,0 1,0.448 1,1 L 1,-1 C 1,-0.447 0.553,0 0,0 m -1,-30 -4.992,0 0,28 4.992,0 0,-28 z"
         style="fill:#31353a;fill-opacity:1;fill-rule:nonzero;stroke:none"
         id="path3854"
         inkscape:connector-curvature="0" />
    </g>
    <g
       id="g5518"
       transform="matrix(1.5,0,0,-1.5,12.75294,14.999244)">
      <path
         d="m 0,0 -7.002,0 c -0.553,0 -1,-0.447 -1,-1 l 0,-20 c 0,-0.553 0.447,-1 1,-1 L 0,-22 c 0.553,0 1,0.447 1,1 L 1,-1 C 1,-0.447 0.553,0 0,0 m -1,-20 -5.002,0 0,18 5.002,0 0,-18 z"
         style="fill:#31353a;fill-opacity:1;fill-rule:nonzero;stroke:none"
         id="path5520"
         inkscape:connector-curvature="0" />
    </g>
    <g
       id="g5522"
       transform="matrix(1.5,0,0,-1.5,29.23854,23.917944)">
      <path
         d="m 0,0 -7.003,0 c -0.552,0 -1,-0.447 -1,-1 l 0,-14.054 c 0,-0.553 0.448,-1 1,-1 l 7.003,0 c 0.553,0 1,0.447 1,1 L 1,-1 C 1,-0.447 0.553,0 0,0 m -1,-14.054 -5.003,0 0,12.055 5.003,0 0,-12.055 z"
         style="fill:#31353a;fill-opacity:1;fill-rule:nonzero;stroke:none"
         id="path5524"
         inkscape:connector-curvature="0" />
    </g>
    <g
       id="g5526"
       transform="matrix(1.5,0,0,-1.5,45.75006,0)">
      <path
         d="m 0,0 -6.992,0 c -0.552,0 -1,-0.447 -1,-1 l 0,-30 c 0,-0.552 0.448,-1 1,-1 L 0,-32 c 0.553,0 1,0.448 1,1 L 1,-1 C 1,-0.447 0.553,0 0,0 m -1,-30 -4.992,0 0,28 4.992,0 0,-28 z"
         style="fill:#31353a;fill-opacity:1;fill-rule:nonzero;stroke:none"
         id="path5528"
         inkscape:connector-curvature="0" />
    </g>
  </g>
</svg>
