<?xml version="1.0" encoding="UTF-8" standalone="no"?>
<!-- Created with Inkscape (http://www.inkscape.org/) -->

<svg
   xmlns:dc="http://purl.org/dc/elements/1.1/"
   xmlns:cc="http://creativecommons.org/ns#"
   xmlns:rdf="http://www.w3.org/1999/02/22-rdf-syntax-ns#"
   xmlns:svg="http://www.w3.org/2000/svg"
   xmlns="http://www.w3.org/2000/svg"
   xmlns:sodipodi="http://sodipodi.sourceforge.net/DTD/sodipodi-0.dtd"
   xmlns:inkscape="http://www.inkscape.org/namespaces/inkscape"
   width="48"
   height="48"
   id="svg6050"
   version="1.1"
   inkscape:version="0.91 r13725"
   viewBox="0 0 48 48"
   sodipodi:docname="direction_sign.svg">
  <defs
     id="defs6052" />
  <sodipodi:namedview
     id="base"
     pagecolor="#ffffff"
     bordercolor="#666666"
     borderopacity="1.0"
     inkscape:pageopacity="0.0"
     inkscape:pageshadow="2"
     inkscape:zoom="7"
     inkscape:cx="30.437678"
     inkscape:cy="23.054"
     inkscape:current-layer="layer1"
     showgrid="true"
     inkscape:grid-bbox="true"
     inkscape:document-units="px"
     inkscape:window-width="1086"
     inkscape:window-height="1001"
     inkscape:window-x="772"
     inkscape:window-y="0"
     inkscape:window-maximized="0" />
  <metadata
     id="metadata6055">
    <rdf:RDF>
      <cc:Work
         rdf:about="">
        <dc:format>image/svg+xml</dc:format>
        <dc:type
           rdf:resource="http://purl.org/dc/dcmitype/StillImage" />
        <dc:title></dc:title>
      </cc:Work>
    </rdf:RDF>
  </metadata>
  <g
     id="layer1"
     inkscape:label="Layer 1"
     inkscape:groupmode="layer">
    <g
       id="g4854"
       transform="matrix(1.4999981,0,0,-1.4999981,23.307984,4.4999943)">
      <path
         d="M 0,0 -0.031,2.063 C -0.031,2.58 -0.479,3 -1.031,3 -1.583,3 -1.969,2.58 -1.969,2.063 L -2,-0.013 0,0 Z"
         style="fill:#31353a;fill-opacity:1;fill-rule:nonzero;stroke:none"
         id="path4856"
         inkscape:connector-curvature="0" />
    </g>
    <g
       id="g4858"
       transform="matrix(1.4999981,0,0,-1.4999981,20.288907,24.937529)">
      <path
         d="m 0,0 0,-14.438 c 0,-0.517 0.448,-0.937 1,-0.937 0.552,0 1,0.42 1,0.937 L 2,0 0,0 Z"
         style="fill:#31353a;fill-opacity:1;fill-rule:nonzero;stroke:none"
         id="path4860"
         inkscape:connector-curvature="0" />
    </g>
    <g
       id="g4862"
       transform="matrix(1.4999981,0,0,-1.4999981,5.2730862,22.499972)">
      <path
         d="M 0,0 19.936,0 24.602,5 19.936,10 0,10 0,0 Z M 20.371,-2 -1,-2 c -0.553,0 -1,0.447 -1,1 l 0,12 c 0,0.553 0.447,1 1,1 l 21.371,0 c 0.277,0 0.542,-0.115 0.731,-0.317 l 5.598,-6 c 0.359,-0.385 0.359,-0.981 0,-1.366 l -5.598,-6 C 20.913,-1.885 20.648,-2 20.371,-2"
         style="fill:#31353a;fill-opacity:1;fill-rule:nonzero;stroke:none"
         id="path4864"
         inkscape:connector-curvature="0" />
    </g>
  </g>
</svg>
