<?xml version="1.0" encoding="UTF-8" standalone="no"?>
<!-- Created with Inkscape (http://www.inkscape.org/) -->

<svg
   xmlns:dc="http://purl.org/dc/elements/1.1/"
   xmlns:cc="http://creativecommons.org/ns#"
   xmlns:rdf="http://www.w3.org/1999/02/22-rdf-syntax-ns#"
   xmlns:svg="http://www.w3.org/2000/svg"
   xmlns="http://www.w3.org/2000/svg"
   xmlns:sodipodi="http://sodipodi.sourceforge.net/DTD/sodipodi-0.dtd"
   xmlns:inkscape="http://www.inkscape.org/namespaces/inkscape"
   width="48"
   height="48"
   id="svg6050"
   version="1.1"
   inkscape:version="0.91 r13725"
   viewBox="0 0 48 48"
   sodipodi:docname="dropbox.svg">
  <defs
     id="defs6052" />
  <sodipodi:namedview
     id="base"
     pagecolor="#ffffff"
     bordercolor="#666666"
     borderopacity="1.0"
     inkscape:pageopacity="0.0"
     inkscape:pageshadow="2"
     inkscape:zoom="7"
     inkscape:cx="30.437678"
     inkscape:cy="23.054"
     inkscape:current-layer="layer1"
     showgrid="true"
     inkscape:grid-bbox="true"
     inkscape:document-units="px"
     inkscape:window-width="1086"
     inkscape:window-height="1001"
     inkscape:window-x="772"
     inkscape:window-y="0"
     inkscape:window-maximized="0" />
  <metadata
     id="metadata6055">
    <rdf:RDF>
      <cc:Work
         rdf:about="">
        <dc:format>image/svg+xml</dc:format>
        <dc:type
           rdf:resource="http://purl.org/dc/dcmitype/StillImage" />
        <dc:title></dc:title>
      </cc:Work>
    </rdf:RDF>
  </metadata>
  <g
     id="layer1"
     inkscape:label="Layer 1"
     inkscape:groupmode="layer">
    <g
       id="g4930"
       transform="matrix(1.5014373,0,0,-1.5014373,4.0490603,10.80849)">
      <path
         d="M 0,0 4.484,-3.768 11.589,0.856 7.14,4.456 0,0 Z M 14.985,0.856 22.09,-3.768 26.575,0 19.436,4.456 14.985,0.856 Z m -8.719,-5.85 7.021,-4.4 7.022,4.4 -7.022,4.569 -7.021,-4.569 z m 8.771,-5.663 3.983,-3.061 6.813,4.542 -3.733,2.945 -7.063,-4.426 z m -14.317,1.479 6.812,-4.541 4.002,3.064 -7.061,4.424 -3.753,-2.947 z m 18.259,-6.769 c -0.215,0 -0.431,0.069 -0.61,0.207 l -5.083,3.907 -5.106,-3.908 C 7.84,-16 7.372,-16.016 7.018,-15.779 l -8.556,5.703 c -0.267,0.178 -0.432,0.472 -0.444,0.793 -0.013,0.32 0.128,0.628 0.381,0.825 l 4.423,3.475 -5.163,4.337 c -0.245,0.206 -0.377,0.517 -0.353,0.836 0.022,0.32 0.196,0.609 0.467,0.779 L 6.686,6.53 c 0.36,0.227 0.827,0.197 1.158,-0.071 l 5.443,-4.404 5.444,4.404 c 0.332,0.268 0.796,0.297 1.159,0.071 L 28.802,0.969 C 29.073,0.799 29.247,0.51 29.27,0.19 29.293,-0.129 29.161,-0.44 28.916,-0.646 l -5.166,-4.339 4.403,-3.474 c 0.252,-0.198 0.393,-0.505 0.38,-0.825 -0.012,-0.32 -0.178,-0.614 -0.444,-0.792 l -8.556,-5.703 c -0.168,-0.113 -0.361,-0.168 -0.554,-0.168"
         style="fill:#31353a;fill-opacity:1;fill-rule:nonzero;stroke:none"
         id="path4932"
         inkscape:connector-curvature="0" />
    </g>
    <g
       id="g4934"
       transform="matrix(1.5014373,0,0,-1.5014373,23.998839,47.224195)">
      <path
         d="m 0,0 c -0.182,0 -0.363,0.049 -0.523,0.148 l -10.062,5.701 c -0.296,0.182 -0.477,0.505 -0.477,0.852 l 0,4.011 c 0,0.553 0.448,1 1,1 0.553,0 1,-0.447 1,-1 l 0,-3.451 9.061,-5.087 8.945,5.086 0,4.145 c 0,0.553 0.448,1 1,1 0.553,0 1,-0.447 1,-1 l 0,-4.704 c 0,-0.347 -0.179,-0.669 -0.475,-0.851 L 0.524,0.148 C 0.363,0.05 0.182,0 0,0"
         style="fill:#31353a;fill-opacity:1;fill-rule:nonzero;stroke:none"
         id="path4936"
         inkscape:connector-curvature="0" />
    </g>
    <g
       id="g4938"
       transform="matrix(1.5014373,0,0,-1.5014373,23.903587,46.626179)">
      <path
         d="m 0,0 c -0.553,0 -1,0.447 -1,1 l 0,12.064 c 0,0.552 0.447,1 1,1 0.553,0 1,-0.448 1,-1 L 1,1 C 1,0.447 0.553,0 0,0"
         style="fill:#31353a;fill-opacity:1;fill-rule:nonzero;stroke:none"
         id="path4940"
         inkscape:connector-curvature="0" />
    </g>
  </g>
</svg>
