<?xml version="1.0" encoding="UTF-8" standalone="no"?>
<!-- Created with Inkscape (http://www.inkscape.org/) -->

<svg
   xmlns:dc="http://purl.org/dc/elements/1.1/"
   xmlns:cc="http://creativecommons.org/ns#"
   xmlns:rdf="http://www.w3.org/1999/02/22-rdf-syntax-ns#"
   xmlns:svg="http://www.w3.org/2000/svg"
   xmlns="http://www.w3.org/2000/svg"
   xmlns:sodipodi="http://sodipodi.sourceforge.net/DTD/sodipodi-0.dtd"
   xmlns:inkscape="http://www.inkscape.org/namespaces/inkscape"
   width="48"
   height="48"
   id="svg6050"
   version="1.1"
   inkscape:version="0.91 r13725"
   viewBox="0 0 48 48"
   sodipodi:docname="envelope_empty.svg">
  <defs
     id="defs6052" />
  <sodipodi:namedview
     id="base"
     pagecolor="#ffffff"
     bordercolor="#666666"
     borderopacity="1.0"
     inkscape:pageopacity="0.0"
     inkscape:pageshadow="2"
     inkscape:zoom="7"
     inkscape:cx="30.437678"
     inkscape:cy="23.054"
     inkscape:current-layer="layer1"
     showgrid="true"
     inkscape:grid-bbox="true"
     inkscape:document-units="px"
     inkscape:window-width="1086"
     inkscape:window-height="1001"
     inkscape:window-x="772"
     inkscape:window-y="0"
     inkscape:window-maximized="0" />
  <metadata
     id="metadata6055">
    <rdf:RDF>
      <cc:Work
         rdf:about="">
        <dc:format>image/svg+xml</dc:format>
        <dc:type
           rdf:resource="http://purl.org/dc/dcmitype/StillImage" />
        <dc:title></dc:title>
      </cc:Work>
    </rdf:RDF>
  </metadata>
  <g
     id="layer1"
     inkscape:label="Layer 1"
     inkscape:groupmode="layer">
    <g
       id="g4942"
       transform="matrix(1.4995782,0,0,-1.4995782,3.0936857,46.919259)">
      <path
         d="m 0,0 13.068,12.034 c 0.227,0.183 0.495,0.279 0.778,0.279 0.287,0 0.574,-0.101 0.766,-0.25 L 27.539,0.435 c 0.489,0.455 0.951,0.936 1.369,1.456 L 15.889,13.602 c -1.178,0.923 -2.868,0.963 -4.116,-0.043 L -1.378,1.449 C -1.127,1.081 -0.809,0.746 -0.565,0.503 -0.386,0.324 -0.189,0.166 0,0"
         style="fill:#31353a;fill-opacity:1;fill-rule:nonzero;stroke:none"
         id="path4944"
         inkscape:connector-curvature="0" />
    </g>
    <g
       id="g4946"
       transform="matrix(1.4995782,0,0,-1.4995782,44.991182,45.000843)">
      <path
         d="m 0,0 -28,0 0,14.984 1.199,1.182 0.046,0 12.109,11.579 c 0.19,0.189 0.441,0.294 0.708,0.294 0.267,0 0.518,-0.105 0.708,-0.294 l 11.293,-10.761 -0.031,0 L 0,14.984 0,0 Z m 1.603,16.166 0.004,0 -0.027,0.027 c -0.102,0.135 -0.223,0.254 -0.356,0.36 l -13.04,12.607 c -1.132,1.131 -3.11,1.133 -4.244,0 L -29.098,16.651 C -29.38,16.389 -30,15.68 -30,14.984 L -30,0 c 0,-1.1 0.9,-2 2,-2 l 28,0 c 1.1,0 2,0.9 2,2 l 0,14.984 c 0,0.444 -0.151,0.85 -0.397,1.182"
         style="fill:#31353a;fill-opacity:1;fill-rule:nonzero;stroke:none"
         id="path4948"
         inkscape:connector-curvature="0" />
    </g>
    <g
       id="g4950"
       transform="matrix(1.4995782,0,0,-1.4995782,14.905924,35.534761)">
      <path
         d="m 0,0 c -0.235,0 -0.472,0.082 -0.661,0.25 l -8.735,7.706 c -0.415,0.365 -0.454,0.997 -0.088,1.411 0.367,0.415 1,0.453 1.411,0.089 L 0.661,1.75 C 1.076,1.385 1.115,0.753 0.75,0.339 0.552,0.114 0.276,0 0,0"
         style="fill:#31353a;fill-opacity:1;fill-rule:nonzero;stroke:none"
         id="path4952"
         inkscape:connector-curvature="0" />
    </g>
    <g
       id="g4954"
       transform="matrix(1.4995782,0,0,-1.4995782,33.369451,35.628479)">
      <path
         d="m 0,0 c -0.275,0 -0.551,0.113 -0.748,0.336 -0.366,0.413 -0.329,1.046 0.084,1.412 L 8.09,9.517 C 8.502,9.883 9.136,9.847 9.502,9.433 9.868,9.019 9.831,8.387 9.418,8.021 L 0.664,0.252 C 0.474,0.083 0.236,0 0,0"
         style="fill:#31353a;fill-opacity:1;fill-rule:nonzero;stroke:none"
         id="path4956"
         inkscape:connector-curvature="0" />
    </g>
  </g>
</svg>
