<?xml version="1.0" encoding="UTF-8" standalone="no"?>
<!-- Created with Inkscape (http://www.inkscape.org/) -->

<svg
   xmlns:dc="http://purl.org/dc/elements/1.1/"
   xmlns:cc="http://creativecommons.org/ns#"
   xmlns:rdf="http://www.w3.org/1999/02/22-rdf-syntax-ns#"
   xmlns:svg="http://www.w3.org/2000/svg"
   xmlns="http://www.w3.org/2000/svg"
   xmlns:sodipodi="http://sodipodi.sourceforge.net/DTD/sodipodi-0.dtd"
   xmlns:inkscape="http://www.inkscape.org/namespaces/inkscape"
   width="48"
   height="48"
   id="svg6050"
   version="1.1"
   inkscape:version="0.91 r13725"
   viewBox="0 0 48 48"
   sodipodi:docname="globe.svg">
  <defs
     id="defs6052" />
  <sodipodi:namedview
     id="base"
     pagecolor="#ffffff"
     bordercolor="#666666"
     borderopacity="1.0"
     inkscape:pageopacity="0.0"
     inkscape:pageshadow="2"
     inkscape:zoom="7"
     inkscape:cx="30.437678"
     inkscape:cy="23.054"
     inkscape:current-layer="layer1"
     showgrid="true"
     inkscape:grid-bbox="true"
     inkscape:document-units="px"
     inkscape:window-width="1086"
     inkscape:window-height="1001"
     inkscape:window-x="772"
     inkscape:window-y="0"
     inkscape:window-maximized="0" />
  <metadata
     id="metadata6055">
    <rdf:RDF>
      <cc:Work
         rdf:about="">
        <dc:format>image/svg+xml</dc:format>
        <dc:type
           rdf:resource="http://purl.org/dc/dcmitype/StillImage" />
        <dc:title></dc:title>
      </cc:Work>
    </rdf:RDF>
  </metadata>
  <g
     id="layer1"
     inkscape:label="Layer 1"
     inkscape:groupmode="layer">
    <g
       id="g4648"
       transform="matrix(1.5012558,0,0,-1.5012558,20.959807,42.04812)">
      <path
         d="M 0,0 C -1.951,0 -3.847,0.366 -5.635,1.089 -6.146,1.295 -6.394,1.878 -6.187,2.391 -5.98,2.902 -5.396,3.15 -4.885,2.942 -3.337,2.317 -1.693,2 0,2 c 7.574,0 13.072,5.497 13.072,13.071 0,4.558 -2.411,8.699 -6.45,11.074 -0.476,0.281 -0.635,0.894 -0.355,1.37 0.279,0.476 0.892,0.636 1.369,0.355 4.656,-2.74 7.436,-7.524 7.436,-12.799 C 15.072,6.339 8.733,0 0,0"
         style="fill:#31353a;fill-opacity:1;fill-rule:nonzero;stroke:none"
         id="path4650"
         inkscape:connector-curvature="0" />
    </g>
    <g
       id="g4652"
       transform="matrix(1.5012558,0,0,-1.5012558,20.949598,2.9773363)">
      <path
         d="m 0,0 c -6.084,0 -11.015,-4.961 -11.015,-11.044 0,-6.083 4.931,-10.982 11.015,-10.982 6.083,0 11.013,4.899 11.013,10.982 C 11.013,-4.961 6.083,0 0,0 m 0,-2 c 4.97,0 9.013,-4.074 9.013,-9.044 0,-4.97 -4.043,-8.982 -9.013,-8.982 -4.971,0 -9.015,4.012 -9.015,8.982 0,4.97 4.044,9.044 9.015,9.044"
         style="fill:#31353a;fill-opacity:1;fill-rule:nonzero;stroke:none"
         id="path4654"
         inkscape:connector-curvature="0" />
    </g>
    <g
       id="g4656"
       transform="matrix(1.5012558,0,0,-1.5012558,23.967843,46.405209)">
      <path
         d="m 0,0 c 0,-0.587 -0.444,-1.062 -0.992,-1.062 -0.549,0 -0.994,0.475 -0.994,1.062 l 0,3.598 c 0,0.588 0.445,1.063 0.994,1.063 C -0.444,4.661 0,4.186 0,3.598 L 0,0 Z"
         style="fill:#31353a;fill-opacity:1;fill-rule:nonzero;stroke:none"
         id="path4658"
         inkscape:connector-curvature="0" />
    </g>
    <g
       id="g4660"
       transform="matrix(1.5012558,0,0,-1.5012558,30.058258,46.501746)">
      <path
         d="m 0,0 c 0,-0.551 -0.468,-0.998 -1.045,-0.998 l -7.901,0 c -0.577,0 -1.045,0.447 -1.045,0.998 0,0.551 0.468,0.998 1.045,0.998 l 7.901,0 C -0.468,0.998 0,0.551 0,0"
         style="fill:#31353a;fill-opacity:1;fill-rule:nonzero;stroke:none"
         id="path4662"
         inkscape:connector-curvature="0" />
    </g>
  </g>
</svg>
