<?xml version="1.0" encoding="UTF-8" standalone="no"?>
<!-- Created with Inkscape (http://www.inkscape.org/) -->

<svg
   xmlns:dc="http://purl.org/dc/elements/1.1/"
   xmlns:cc="http://creativecommons.org/ns#"
   xmlns:rdf="http://www.w3.org/1999/02/22-rdf-syntax-ns#"
   xmlns:svg="http://www.w3.org/2000/svg"
   xmlns="http://www.w3.org/2000/svg"
   xmlns:sodipodi="http://sodipodi.sourceforge.net/DTD/sodipodi-0.dtd"
   xmlns:inkscape="http://www.inkscape.org/namespaces/inkscape"
   width="48"
   height="48"
   id="svg6050"
   version="1.1"
   inkscape:version="0.91 r13725"
   viewBox="0 0 48 48"
   sodipodi:docname="in.svg">
  <defs
     id="defs6052" />
  <sodipodi:namedview
     id="base"
     pagecolor="#ffffff"
     bordercolor="#666666"
     borderopacity="1.0"
     inkscape:pageopacity="0.0"
     inkscape:pageshadow="2"
     inkscape:zoom="7"
     inkscape:cx="30.437678"
     inkscape:cy="23.054"
     inkscape:current-layer="layer1"
     showgrid="true"
     inkscape:grid-bbox="true"
     inkscape:document-units="px"
     inkscape:window-width="1086"
     inkscape:window-height="1001"
     inkscape:window-x="772"
     inkscape:window-y="0"
     inkscape:window-maximized="0" />
  <metadata
     id="metadata6055">
    <rdf:RDF>
      <cc:Work
         rdf:about="">
        <dc:format>image/svg+xml</dc:format>
        <dc:type
           rdf:resource="http://purl.org/dc/dcmitype/StillImage" />
        <dc:title></dc:title>
      </cc:Work>
    </rdf:RDF>
  </metadata>
  <g
     id="layer1"
     inkscape:label="Layer 1"
     inkscape:groupmode="layer">
    <g
       id="g3742"
       transform="matrix(1.4995164,0,0,-1.4995164,12.011606,44.99323)">
      <path
         d="m 0,0 0,15.101 2.013,0.003 0,-13.895 c 0,-0.668 0.542,-1.21 1.21,-1.21 l 17.554,0 c 0.668,0 1.209,0.542 1.209,1.21 L 21.955,26.78 c 0,0.668 -0.541,1.21 -1.21,1.21 l -17.522,0 c -0.668,0 -1.21,-0.542 -1.21,-1.21 l 0,-3.78 C 2.013,22.34 1.182,22 1,22 l 0,0 c -0.177,0 -1,0.359 -1,1 l 0,5 c 0,1.105 0.895,2 2,2 l 20,0 c 1.104,0 2,-0.895 2,-2 L 24,0 c 0,-1.105 -0.896,-2 -2,-2 L 2,-2 C 0.895,-2 0,-1.105 0,0"
         style="fill:#31353a;fill-opacity:1;fill-rule:evenodd;stroke:none"
         id="path3744"
         inkscape:connector-curvature="0" />
    </g>
    <g
       id="g3856"
       transform="matrix(1.4995164,0,0,-1.4995164,26.021888,33.561061)">
      <path
         d="m 0,0 c 0.256,0 0.512,0.098 0.707,0.293 l 5.907,6.063 -5.907,6.062 c -0.391,0.391 -1.023,0.391 -1.414,0 -0.391,-0.39 -0.391,-1.023 0,-1.414 L 3.942,6.356 -0.707,1.707 C -1.098,1.316 -1.098,0.684 -0.707,0.293 -0.512,0.098 -0.256,0 0,0"
         style="fill:#31353a;fill-opacity:1;fill-rule:nonzero;stroke:none"
         id="path3858"
         inkscape:connector-curvature="0" />
    </g>
    <g
       id="g3860"
       transform="matrix(1.4995164,0,0,-1.4995164,1.4995165,25.483622)">
      <path
         d="m 0,0 20.862,0 c 0.552,0 1,0.448 1,1 0,0.552 -0.448,1 -1,1 L 0,2 C -0.553,2 -1,1.552 -1,1 -1,0.448 -0.553,0 0,0"
         style="fill:#31353a;fill-opacity:1;fill-rule:nonzero;stroke:none"
         id="path3862"
         inkscape:connector-curvature="0" />
    </g>
    <g
       id="g3864"
       transform="matrix(1.4995164,0,0,-1.4995164,15.010639,44.99323)">
      <path
         d="m 0,0 0,9.03 2.013,0.003 0,-7.824 c 0,-0.668 0.542,-1.21 1.21,-1.21 l 15.554,0 c 0.668,0 1.209,0.542 1.209,1.21 L 19.955,26.78 c 0,0.668 -0.541,1.21 -1.21,1.21 l -15.522,0 c -0.668,0 -1.21,-0.542 -1.21,-1.21 L 2.013,19 0,19 0,28 c 0,1.105 0.895,2 2,2 l 18,0 c 1.104,0 2,-0.895 2,-2 L 22,0 c 0,-1.105 -0.896,-2 -2,-2 L 2,-2 C 0.895,-2 0,-1.105 0,0"
         style="fill:#31353a;fill-opacity:1;fill-rule:evenodd;stroke:none"
         id="path3866"
         inkscape:connector-curvature="0" />
    </g>
    <g
       id="g5424"
       transform="matrix(1.4995164,0,0,-1.4995164,12.011606,44.99323)">
      <path
         d="m 0,0 0,15.101 2.013,0.003 0,-13.895 c 0,-0.668 0.542,-1.21 1.21,-1.21 l 17.554,0 c 0.668,0 1.209,0.542 1.209,1.21 L 21.955,26.78 c 0,0.668 -0.541,1.21 -1.21,1.21 l -17.522,0 c -0.668,0 -1.21,-0.542 -1.21,-1.21 l 0,-3.78 C 2.013,22.34 1.182,22 1,22 l 0,0 c -0.177,0 -1,0.359 -1,1 l 0,5 c 0,1.105 0.895,2 2,2 l 20,0 c 1.104,0 2,-0.895 2,-2 L 24,0 c 0,-1.105 -0.896,-2 -2,-2 L 2,-2 C 0.895,-2 0,-1.105 0,0"
         style="fill:#31353a;fill-opacity:1;fill-rule:evenodd;stroke:none"
         id="path5426"
         inkscape:connector-curvature="0" />
    </g>
    <g
       id="g5530"
       transform="matrix(1.4995164,0,0,-1.4995164,26.021888,33.561061)">
      <path
         d="m 0,0 c 0.256,0 0.512,0.098 0.707,0.293 l 5.907,6.063 -5.907,6.062 c -0.391,0.391 -1.023,0.391 -1.414,0 -0.391,-0.39 -0.391,-1.023 0,-1.414 L 3.942,6.356 -0.707,1.707 C -1.098,1.316 -1.098,0.684 -0.707,0.293 -0.512,0.098 -0.256,0 0,0"
         style="fill:#31353a;fill-opacity:1;fill-rule:nonzero;stroke:none"
         id="path5532"
         inkscape:connector-curvature="0" />
    </g>
    <g
       id="g5534"
       transform="matrix(1.4995164,0,0,-1.4995164,1.4995165,25.483622)">
      <path
         d="m 0,0 20.862,0 c 0.552,0 1,0.448 1,1 0,0.552 -0.448,1 -1,1 L 0,2 C -0.553,2 -1,1.552 -1,1 -1,0.448 -0.553,0 0,0"
         style="fill:#31353a;fill-opacity:1;fill-rule:nonzero;stroke:none"
         id="path5536"
         inkscape:connector-curvature="0" />
    </g>
    <g
       id="g5538"
       transform="matrix(1.4995164,0,0,-1.4995164,15.010639,44.99323)">
      <path
         d="m 0,0 0,9.03 2.013,0.003 0,-7.824 c 0,-0.668 0.542,-1.21 1.21,-1.21 l 15.554,0 c 0.668,0 1.209,0.542 1.209,1.21 L 19.955,26.78 c 0,0.668 -0.541,1.21 -1.21,1.21 l -15.522,0 c -0.668,0 -1.21,-0.542 -1.21,-1.21 L 2.013,19 0,19 0,28 c 0,1.105 0.895,2 2,2 l 18,0 c 1.104,0 2,-0.895 2,-2 L 22,0 c 0,-1.105 -0.896,-2 -2,-2 L 2,-2 C 0.895,-2 0,-1.105 0,0"
         style="fill:#31353a;fill-opacity:1;fill-rule:evenodd;stroke:none"
         id="path5540"
         inkscape:connector-curvature="0" />
    </g>
  </g>
</svg>
