<?xml version="1.0" encoding="UTF-8" standalone="no"?>
<!-- Created with Inkscape (http://www.inkscape.org/) -->

<svg
   xmlns:dc="http://purl.org/dc/elements/1.1/"
   xmlns:cc="http://creativecommons.org/ns#"
   xmlns:rdf="http://www.w3.org/1999/02/22-rdf-syntax-ns#"
   xmlns:svg="http://www.w3.org/2000/svg"
   xmlns="http://www.w3.org/2000/svg"
   xmlns:sodipodi="http://sodipodi.sourceforge.net/DTD/sodipodi-0.dtd"
   xmlns:inkscape="http://www.inkscape.org/namespaces/inkscape"
   width="48"
   height="48"
   id="svg6050"
   version="1.1"
   inkscape:version="0.91 r13725"
   viewBox="0 0 48 48"
   sodipodi:docname="magnet.svg">
  <defs
     id="defs6052" />
  <sodipodi:namedview
     id="base"
     pagecolor="#ffffff"
     bordercolor="#666666"
     borderopacity="1.0"
     inkscape:pageopacity="0.0"
     inkscape:pageshadow="2"
     inkscape:zoom="7"
     inkscape:cx="30.437678"
     inkscape:cy="23.054"
     inkscape:current-layer="layer1"
     showgrid="true"
     inkscape:grid-bbox="true"
     inkscape:document-units="px"
     inkscape:window-width="1086"
     inkscape:window-height="1001"
     inkscape:window-x="772"
     inkscape:window-y="0"
     inkscape:window-maximized="0" />
  <metadata
     id="metadata6055">
    <rdf:RDF>
      <cc:Work
         rdf:about="">
        <dc:format>image/svg+xml</dc:format>
        <dc:type
           rdf:resource="http://purl.org/dc/dcmitype/StillImage" />
        <dc:title></dc:title>
      </cc:Work>
    </rdf:RDF>
  </metadata>
  <g
     id="layer1"
     inkscape:label="Layer 1"
     inkscape:groupmode="layer">
    <g
       id="g5154"
       transform="matrix(1.4975665,0,0,-1.4975665,41.984276,2.9951323)">
      <path
         d="m 0,0 -5.008,0 0,-4.083 -0.011,0 0,-11.427 c 0,-4.119 -2.588,-7.458 -6.708,-7.458 -4.119,0 -7.27,3.339 -7.27,7.458 l 0,11.427 -0.003,0 0,4.083 -5.008,0 0,-4.083 0,-11.886 c 0,-6.662 5.326,-12.083 11.989,-12.083 6.663,0 12.021,5.421 12.021,12.083 l 0,11.886 L 0,-4.083 0,0 Z m 2.002,-15.969 c 0,-7.778 -6.243,-14.083 -14.021,-14.083 -7.777,0 -13.989,6.305 -13.989,14.083 l 0,12.828 c -0.001,0.02 -0.012,0.037 -0.012,0.058 l 0,4.083 c 0,0.553 0.447,1 1,1 L -18,2 c 0.552,0 1,-0.447 1,-1 l 0,-0.906 0.003,0 0,-15.604 c 0,-3.01 2.261,-5.458 5.27,-5.458 3.01,0 4.708,2.448 4.708,5.458 l 0,12.422 c 0,0.002 -10e-4,0.003 -10e-4,0.005 l 0,4.083 c 0,0.553 0.447,1 1,1 L 1,2 C 1.552,2 2,1.553 2,1 l 0,-0.906 0.002,0 0,-16.063 z"
         style="fill:#31353a;fill-opacity:1;fill-rule:evenodd;stroke:none"
         id="path5156"
         inkscape:connector-curvature="0" />
    </g>
    <path
       d="m 4.5326551,9.0015713 10.4829649,0 0,2.9951327 -10.4829649,0 0,-2.9951327 z"
       style="fill:#31353a;fill-opacity:1;fill-rule:evenodd;stroke:none"
       id="path5158"
       inkscape:connector-curvature="0" />
    <path
       d="m 32.986418,9.0015713 10.482965,0 0,2.9951327 -10.482965,0 0,-2.9951327 z"
       style="fill:#31353a;fill-opacity:1;fill-rule:evenodd;stroke:none"
       id="path5160"
       inkscape:connector-curvature="0" />
  </g>
</svg>
