<?xml version="1.0" encoding="UTF-8" standalone="no"?>
<!-- Created with Inkscape (http://www.inkscape.org/) -->

<svg
   xmlns:dc="http://purl.org/dc/elements/1.1/"
   xmlns:cc="http://creativecommons.org/ns#"
   xmlns:rdf="http://www.w3.org/1999/02/22-rdf-syntax-ns#"
   xmlns:svg="http://www.w3.org/2000/svg"
   xmlns="http://www.w3.org/2000/svg"
   xmlns:sodipodi="http://sodipodi.sourceforge.net/DTD/sodipodi-0.dtd"
   xmlns:inkscape="http://www.inkscape.org/namespaces/inkscape"
   width="48"
   height="48"
   id="svg6050"
   version="1.1"
   inkscape:version="0.91 r13725"
   viewBox="0 0 48 48"
   sodipodi:docname="moustache.svg">
  <defs
     id="defs6052" />
  <sodipodi:namedview
     id="base"
     pagecolor="#ffffff"
     bordercolor="#666666"
     borderopacity="1.0"
     inkscape:pageopacity="0.0"
     inkscape:pageshadow="2"
     inkscape:zoom="7"
     inkscape:cx="30.437678"
     inkscape:cy="23.054"
     inkscape:current-layer="layer1"
     showgrid="true"
     inkscape:grid-bbox="true"
     inkscape:document-units="px"
     inkscape:window-width="1086"
     inkscape:window-height="1001"
     inkscape:window-x="772"
     inkscape:window-y="0"
     inkscape:window-maximized="0" />
  <metadata
     id="metadata6055">
    <rdf:RDF>
      <cc:Work
         rdf:about="">
        <dc:format>image/svg+xml</dc:format>
        <dc:type
           rdf:resource="http://purl.org/dc/dcmitype/StillImage" />
        <dc:title></dc:title>
      </cc:Work>
    </rdf:RDF>
  </metadata>
  <g
     id="layer1"
     inkscape:label="Layer 1"
     inkscape:groupmode="layer">
    <g
       id="g5280"
       transform="matrix(1.4981191,0,0,-1.4981191,23.941124,24.649435)">
      <path
         d="m 0,0 c 0.031,0 0.115,-0.003 0.145,-0.006 0.001,0 0.146,-0.011 0.146,-0.012 0.011,-0.001 0.094,-0.011 0.103,-0.013 0.723,-0.103 1.394,-0.692 2.413,-1.584 0.334,-0.294 0.703,-0.617 1.108,-0.953 1.087,-0.901 2.44,-2.021 4.9,-2.021 1.666,0 3.305,0.738 4.275,1.928 0.638,0.78 0.969,1.71 0.99,2.774 -0.469,-0.146 -1.04,-0.256 -1.697,-0.256 -0.864,0 -1.737,0.194 -2.593,0.575 C 8.376,1.06 7.406,2.592 6.55,3.53 5.47,4.714 4.754,5.439 3.672,5.448 2.23,5.448 1.299,4.54 0.722,3.857 0.533,3.635 0.259,3.507 -0.031,3.507 c -0.29,0 -0.565,0.129 -0.753,0.351 C -1.363,4.544 -2.297,5.456 -3.716,5.456 -4.813,5.448 -5.51,4.729 -6.56,3.555 -7.405,2.61 -8.363,1.071 -9.786,0.44 c -0.856,-0.381 -1.722,-0.575 -2.572,-0.575 -0.637,0 -1.189,0.107 -1.644,0.251 -10e-4,-1.085 0.316,-2.028 0.948,-2.813 0.935,-1.161 2.532,-1.883 4.17,-1.883 2.312,0 3.59,0.998 4.827,1.963 l 0.097,0.075 c 0.501,0.392 0.944,0.773 1.334,1.107 0.891,0.766 1.479,1.272 2.114,1.384 0,0 0.302,0.051 0.512,0.051 m 8.815,-6.589 c -3.167,0 -4.964,1.488 -6.154,2.474 -0.421,0.348 -0.804,0.684 -1.152,0.989 -0.528,0.464 -1.187,1.042 -1.417,1.122 -0.007,0 -0.116,0.005 -0.123,0.006 C -0.068,-2.001 -0.16,-2.02 -0.17,-2.021 -0.329,-2.085 -0.892,-2.569 -1.344,-2.958 -1.755,-3.31 -2.222,-3.713 -2.752,-4.126 L -2.848,-4.2 c -1.359,-1.061 -3.05,-2.38 -6.036,-2.38 -2.219,0 -4.404,1.004 -5.706,2.621 -0.872,1.084 -1.79,2.97 -1.208,5.796 0.07,0.342 0.313,0.622 0.638,0.738 0.328,0.118 0.688,0.054 0.957,-0.168 0.019,-0.014 0.705,-0.542 1.845,-0.542 0.574,0 1.172,0.136 1.776,0.405 1.036,0.46 1.773,1.753 2.554,2.626 1.068,1.193 2.276,2.544 4.271,2.56 1.377,0 2.619,-0.509 3.727,-1.516 C 1.073,6.942 2.306,7.448 3.647,7.448 5.682,7.433 6.916,6.08 8.005,4.886 8.8,4.015 9.551,2.723 10.586,2.262 11.19,1.993 11.795,1.857 12.383,1.857 c 1.183,0 1.921,0.541 1.951,0.565 0.275,0.203 0.635,0.256 0.953,0.132 0.317,-0.125 0.553,-0.403 0.616,-0.739 0.535,-2.795 -0.404,-4.669 -1.287,-5.75 -1.337,-1.636 -3.56,-2.654 -5.801,-2.654"
         style="fill:#31353a;fill-opacity:1;fill-rule:nonzero;stroke:none"
         id="path5282"
         inkscape:connector-curvature="0" />
    </g>
  </g>
</svg>
