<?xml version="1.0" encoding="UTF-8" standalone="no"?>
<!-- Created with Inkscape (http://www.inkscape.org/) -->

<svg
   xmlns:dc="http://purl.org/dc/elements/1.1/"
   xmlns:cc="http://creativecommons.org/ns#"
   xmlns:rdf="http://www.w3.org/1999/02/22-rdf-syntax-ns#"
   xmlns:svg="http://www.w3.org/2000/svg"
   xmlns="http://www.w3.org/2000/svg"
   xmlns:sodipodi="http://sodipodi.sourceforge.net/DTD/sodipodi-0.dtd"
   xmlns:inkscape="http://www.inkscape.org/namespaces/inkscape"
   width="48"
   height="48"
   id="svg6050"
   version="1.1"
   inkscape:version="0.91 r13725"
   viewBox="0 0 48 48"
   sodipodi:docname="notes_2.svg">
  <defs
     id="defs6052" />
  <sodipodi:namedview
     id="base"
     pagecolor="#ffffff"
     bordercolor="#666666"
     borderopacity="1.0"
     inkscape:pageopacity="0.0"
     inkscape:pageshadow="2"
     inkscape:zoom="7"
     inkscape:cx="30.437678"
     inkscape:cy="23.054"
     inkscape:current-layer="layer1"
     showgrid="true"
     inkscape:grid-bbox="true"
     inkscape:document-units="px"
     inkscape:window-width="1086"
     inkscape:window-height="1001"
     inkscape:window-x="772"
     inkscape:window-y="0"
     inkscape:window-maximized="0" />
  <metadata
     id="metadata6055">
    <rdf:RDF>
      <cc:Work
         rdf:about="">
        <dc:format>image/svg+xml</dc:format>
        <dc:type
           rdf:resource="http://purl.org/dc/dcmitype/StillImage" />
        <dc:title></dc:title>
      </cc:Work>
    </rdf:RDF>
  </metadata>
  <g
     id="layer1"
     inkscape:label="Layer 1"
     inkscape:groupmode="layer">
    <g
       id="g4114"
       transform="matrix(1.4993343,0,0,-1.4993343,9.7570139,34.479003)">
      <path
         d="m 0,0 c -3.048,0 -5.52,-2.019 -5.52,-4.508 0,-2.491 2.472,-4.51 5.52,-4.51 3.049,0 5.519,2.019 5.519,4.51 C 5.519,-2.019 3.049,0 0,0 m 0.022,-2.01 c 2.079,0 3.529,-1.317 3.529,-2.499 0,-1.182 -1.45,-2.5 -3.529,-2.5 -2.08,0 -3.53,1.318 -3.53,2.5 0,1.182 1.45,2.499 3.53,2.499"
         style="fill:#31353a;fill-opacity:1;fill-rule:nonzero;stroke:none"
         id="path4116"
         inkscape:connector-curvature="0" />
    </g>
    <g
       id="g4118"
       transform="matrix(1.4993343,0,0,-1.4993343,38.244485,26.982476)">
      <path
         d="m 0,0 c -3.048,0 -5.52,-2.019 -5.52,-4.508 0,-2.49 2.472,-4.509 5.52,-4.509 3.049,0 5.519,2.019 5.519,4.509 C 5.519,-2.019 3.049,0 0,0 m -0.01,-2.01 c 2.061,0 3.498,-1.317 3.498,-2.499 0,-1.182 -1.437,-2.5 -3.498,-2.5 -2.061,0 -3.498,1.318 -3.498,2.5 0,1.182 1.437,2.499 3.498,2.499"
         style="fill:#31353a;fill-opacity:1;fill-rule:nonzero;stroke:none"
         id="path4120"
         inkscape:connector-curvature="0" />
    </g>
    <g
       id="g4122"
       transform="matrix(1.4993343,0,0,-1.4993343,46.45364,1.1997791)">
      <path
         d="m 0,0 c 0.132,-0.536 -0.186,-1.076 -0.711,-1.206 l -18.974,-4.939 c -0.525,-0.13 -1.059,0.199 -1.191,0.735 -0.133,0.536 0.185,1.076 0.711,1.206 l 18.974,4.94 C -0.666,0.865 -0.133,0.536 0,0"
         style="fill:#31353a;fill-opacity:1;fill-rule:evenodd;stroke:none"
         id="path4124"
         inkscape:connector-curvature="0" />
    </g>
    <g
       id="g4126"
       transform="matrix(1.4993343,0,0,-1.4993343,44.985612,1.413e-7)">
      <path
         d="m 0,0 c 0.552,0 1,-0.448 1,-1 l 0,-21 c 0,-0.552 -0.448,-1 -1,-1 -0.552,0 -1,0.448 -1,1 l 0,21 c 0,0.552 0.448,1 1,1"
         style="fill:#31353a;fill-opacity:1;fill-rule:evenodd;stroke:none"
         id="path4128"
         inkscape:connector-curvature="0" />
    </g>
    <g
       id="g4130"
       transform="matrix(1.4993343,0,0,-1.4993343,16.498261,7.6840881)">
      <path
         d="m 0,0 c 0.552,0 1,-0.448 1,-1 l 0,-21 c 0,-0.552 -0.448,-1 -1,-1 -0.552,0 -1,0.448 -1,1 l 0,21 c 0,0.552 0.448,1 1,1"
         style="fill:#31353a;fill-opacity:1;fill-rule:evenodd;stroke:none"
         id="path4132"
         inkscape:connector-curvature="0" />
    </g>
    <g
       id="g5788"
       transform="matrix(1.4993343,0,0,-1.4993343,9.7570139,34.479003)">
      <path
         d="m 0,0 c -3.048,0 -5.52,-2.019 -5.52,-4.508 0,-2.491 2.472,-4.51 5.52,-4.51 3.049,0 5.519,2.019 5.519,4.51 C 5.519,-2.019 3.049,0 0,0 m 0.022,-2.01 c 2.079,0 3.529,-1.317 3.529,-2.499 0,-1.182 -1.45,-2.5 -3.529,-2.5 -2.08,0 -3.53,1.318 -3.53,2.5 0,1.182 1.45,2.499 3.53,2.499"
         style="fill:#31353a;fill-opacity:1;fill-rule:nonzero;stroke:none"
         id="path5790"
         inkscape:connector-curvature="0" />
    </g>
    <g
       id="g5792"
       transform="matrix(1.4993343,0,0,-1.4993343,38.244485,26.982476)">
      <path
         d="m 0,0 c -3.048,0 -5.52,-2.019 -5.52,-4.508 0,-2.49 2.472,-4.509 5.52,-4.509 3.049,0 5.519,2.019 5.519,4.509 C 5.519,-2.019 3.049,0 0,0 m -0.01,-2.01 c 2.061,0 3.498,-1.317 3.498,-2.499 0,-1.182 -1.437,-2.5 -3.498,-2.5 -2.061,0 -3.498,1.318 -3.498,2.5 0,1.182 1.437,2.499 3.498,2.499"
         style="fill:#31353a;fill-opacity:1;fill-rule:nonzero;stroke:none"
         id="path5794"
         inkscape:connector-curvature="0" />
    </g>
    <g
       id="g5796"
       transform="matrix(1.4993343,0,0,-1.4993343,46.45364,1.1997791)">
      <path
         d="m 0,0 c 0.132,-0.536 -0.186,-1.076 -0.711,-1.206 l -18.974,-4.939 c -0.525,-0.13 -1.059,0.199 -1.191,0.735 -0.133,0.536 0.185,1.076 0.711,1.206 l 18.974,4.94 C -0.666,0.865 -0.133,0.536 0,0"
         style="fill:#31353a;fill-opacity:1;fill-rule:evenodd;stroke:none"
         id="path5798"
         inkscape:connector-curvature="0" />
    </g>
    <g
       id="g5800"
       transform="matrix(1.4993343,0,0,-1.4993343,44.985612,1.413e-7)">
      <path
         d="m 0,0 c 0.552,0 1,-0.448 1,-1 l 0,-21 c 0,-0.552 -0.448,-1 -1,-1 -0.552,0 -1,0.448 -1,1 l 0,21 c 0,0.552 0.448,1 1,1"
         style="fill:#31353a;fill-opacity:1;fill-rule:evenodd;stroke:none"
         id="path5802"
         inkscape:connector-curvature="0" />
    </g>
    <g
       id="g5804"
       transform="matrix(1.4993343,0,0,-1.4993343,16.498261,7.6840881)">
      <path
         d="m 0,0 c 0.552,0 1,-0.448 1,-1 l 0,-21 c 0,-0.552 -0.448,-1 -1,-1 -0.552,0 -1,0.448 -1,1 l 0,21 c 0,0.552 0.448,1 1,1"
         style="fill:#31353a;fill-opacity:1;fill-rule:evenodd;stroke:none"
         id="path5806"
         inkscape:connector-curvature="0" />
    </g>
  </g>
</svg>
