<?xml version="1.0" encoding="UTF-8" standalone="no"?>
<!-- Created with Inkscape (http://www.inkscape.org/) -->

<svg
   xmlns:dc="http://purl.org/dc/elements/1.1/"
   xmlns:cc="http://creativecommons.org/ns#"
   xmlns:rdf="http://www.w3.org/1999/02/22-rdf-syntax-ns#"
   xmlns:svg="http://www.w3.org/2000/svg"
   xmlns="http://www.w3.org/2000/svg"
   xmlns:sodipodi="http://sodipodi.sourceforge.net/DTD/sodipodi-0.dtd"
   xmlns:inkscape="http://www.inkscape.org/namespaces/inkscape"
   width="48"
   height="48"
   id="svg6050"
   version="1.1"
   inkscape:version="0.91 r13725"
   viewBox="0 0 48 48"
   sodipodi:docname="notebook.svg">
  <defs
     id="defs6052" />
  <sodipodi:namedview
     id="base"
     pagecolor="#ffffff"
     bordercolor="#666666"
     borderopacity="1.0"
     inkscape:pageopacity="0.0"
     inkscape:pageshadow="2"
     inkscape:zoom="7"
     inkscape:cx="30.437678"
     inkscape:cy="23.054"
     inkscape:current-layer="layer1"
     showgrid="true"
     inkscape:grid-bbox="true"
     inkscape:document-units="px"
     inkscape:window-width="1086"
     inkscape:window-height="1001"
     inkscape:window-x="772"
     inkscape:window-y="0"
     inkscape:window-maximized="0" />
  <metadata
     id="metadata6055">
    <rdf:RDF>
      <cc:Work
         rdf:about="">
        <dc:format>image/svg+xml</dc:format>
        <dc:type
           rdf:resource="http://purl.org/dc/dcmitype/StillImage" />
        <dc:title></dc:title>
      </cc:Work>
    </rdf:RDF>
  </metadata>
  <g
     id="layer1"
     inkscape:label="Layer 1"
     inkscape:groupmode="layer">
    <g
       id="g4986"
       transform="matrix(1.5,0,0,-1.5,39.80457,0)">
      <path
         d="m 0,0 -19.937,0 c -1.438,0 -2.064,-1.063 -2.064,-2.063 l 0,-27.937 c 0,-1.657 1.298,-2 2.017,-2 L 0,-32 c 1.657,0 3,1.343 3,3 L 3,-3 C 3,-1.343 1.657,0 0,0 m 0,-2 c 0.552,0 1,-0.448 1,-1 l 0,-26 c 0,-0.552 -0.448,-1 -1,-1 l -19.984,0 -0.017,0 0,27.937 c 0,0.024 0.002,0.043 0.005,0.061 0.016,10e-4 0.035,0.002 0.059,0.002 L 0,-2"
         style="fill:#31353a;fill-opacity:1;fill-rule:nonzero;stroke:none"
         id="path4988"
         inkscape:connector-curvature="0" />
    </g>
    <g
       id="g4990"
       transform="matrix(1.5,0,0,-1.5,12.72693,10.530744)">
      <path
         d="m 0,0 c 0,-0.541 -0.438,-0.98 -0.979,-0.98 l -4.062,0 c -0.541,0 -0.98,0.439 -0.98,0.98 0,0.541 0.439,0.979 0.98,0.979 l 4.062,0 C -0.438,0.979 0,0.541 0,0"
         style="fill:#31353a;fill-opacity:1;fill-rule:nonzero;stroke:none"
         id="path4992"
         inkscape:connector-curvature="0" />
    </g>
    <g
       id="g4994"
       transform="matrix(1.5,0,0,-1.5,12.86757,19.504644)">
      <path
         d="m 0,0 c 0,-0.541 -0.438,-0.979 -0.979,-0.979 l -4.062,0 c -0.541,0 -0.98,0.438 -0.98,0.979 0,0.541 0.439,0.98 0.98,0.98 l 4.062,0 C -0.438,0.98 0,0.541 0,0"
         style="fill:#31353a;fill-opacity:1;fill-rule:nonzero;stroke:none"
         id="path4996"
         inkscape:connector-curvature="0" />
    </g>
    <g
       id="g4998"
       transform="matrix(1.5,0,0,-1.5,12.83529,28.510356)">
      <path
         d="m 0,0 c 0,-0.541 -0.438,-0.98 -0.979,-0.98 l -4.062,0 c -0.541,0 -0.98,0.439 -0.98,0.98 0,0.541 0.439,0.979 0.98,0.979 l 4.062,0 C -0.438,0.979 0,0.541 0,0"
         style="fill:#31353a;fill-opacity:1;fill-rule:nonzero;stroke:none"
         id="path5000"
         inkscape:connector-curvature="0" />
    </g>
    <g
       id="g5002"
       transform="matrix(1.5,0,0,-1.5,12.83529,37.471056)">
      <path
         d="m 0,0 c 0,-0.541 -0.438,-0.979 -0.979,-0.979 l -4.062,0 c -0.541,0 -0.98,0.438 -0.98,0.979 0,0.541 0.439,0.98 0.98,0.98 l 4.062,0 C -0.438,0.98 0,0.541 0,0"
         style="fill:#31353a;fill-opacity:1;fill-rule:nonzero;stroke:none"
         id="path5004"
         inkscape:connector-curvature="0" />
    </g>
    <path
       d="m 36.80487,45.9369 -3,0 0,-44.625 3,0 0,44.625 z"
       style="fill:#31353a;fill-opacity:1;fill-rule:nonzero;stroke:none"
       id="path5006"
       inkscape:connector-curvature="0" />
  </g>
</svg>
