<?xml version="1.0" encoding="UTF-8" standalone="no"?>
<!-- Created with Inkscape (http://www.inkscape.org/) -->

<svg
   xmlns:dc="http://purl.org/dc/elements/1.1/"
   xmlns:cc="http://creativecommons.org/ns#"
   xmlns:rdf="http://www.w3.org/1999/02/22-rdf-syntax-ns#"
   xmlns:svg="http://www.w3.org/2000/svg"
   xmlns="http://www.w3.org/2000/svg"
   xmlns:sodipodi="http://sodipodi.sourceforge.net/DTD/sodipodi-0.dtd"
   xmlns:inkscape="http://www.inkscape.org/namespaces/inkscape"
   width="48"
   height="48"
   id="svg6050"
   version="1.1"
   inkscape:version="0.91 r13725"
   viewBox="0 0 48 48"
   sodipodi:docname="printer.svg">
  <defs
     id="defs6052" />
  <sodipodi:namedview
     id="base"
     pagecolor="#ffffff"
     bordercolor="#666666"
     borderopacity="1.0"
     inkscape:pageopacity="0.0"
     inkscape:pageshadow="2"
     inkscape:zoom="7"
     inkscape:cx="30.437678"
     inkscape:cy="23.054"
     inkscape:current-layer="layer1"
     showgrid="true"
     inkscape:grid-bbox="true"
     inkscape:document-units="px"
     inkscape:window-width="1086"
     inkscape:window-height="1001"
     inkscape:window-x="772"
     inkscape:window-y="0"
     inkscape:window-maximized="0" />
  <metadata
     id="metadata6055">
    <rdf:RDF>
      <cc:Work
         rdf:about="">
        <dc:format>image/svg+xml</dc:format>
        <dc:type
           rdf:resource="http://purl.org/dc/dcmitype/StillImage" />
        <dc:title></dc:title>
      </cc:Work>
    </rdf:RDF>
  </metadata>
  <g
     id="layer1"
     inkscape:label="Layer 1"
     inkscape:groupmode="layer">
    <g
       id="g4382"
       transform="matrix(1.4998125,0,0,-1.4998125,37.498853,14.951859)">
      <path
         d="m 0,0 c -0.553,0 -1,0.447 -1,1 l 0,6.983 -16.001,0 0,-6.983 c 0,-0.553 -0.447,-1 -1,-1 -0.553,0 -1,0.447 -1,1 l 0,8.952 L 1,9.952 1,1 C 1,0.447 0.553,0 0,0"
         style="fill:#31353a;fill-opacity:1;fill-rule:nonzero;stroke:none"
         id="path4384"
         inkscape:connector-curvature="0" />
    </g>
    <path
       d="m 12.00024,44.97615 23.9985,0 0,-16.515936 -23.9985,0 0,16.515936 z m 26.998125,2.998125 -29.9977504,0 0,-22.515186 29.9977504,0 0,22.515186 z"
       style="fill:#31353a;fill-opacity:1;fill-rule:nonzero;stroke:none"
       id="path4386"
       inkscape:connector-curvature="0" />
    <g
       id="g4388"
       transform="matrix(1.4998125,0,0,-1.4998125,44.656918,38.976144)">
      <path
         d="m 0,0 -4.773,0 c -0.552,0 -1,0.447 -1,1 0,0.553 0.448,1 1,1 L 0,2 c 0.126,0 0.229,0.102 0.229,0.229 l 0,13.56 c 0,0.127 -0.103,0.229 -0.229,0.229 l -27.546,0 c -0.126,0 -0.229,-0.102 -0.229,-0.229 l 0,-13.56 C -27.775,2.102 -27.672,2 -27.546,2 l 4.772,0 c 0.553,0 1,-0.447 1,-1 0,-0.553 -0.447,-1 -1,-1 l -4.772,0 c -1.229,0 -2.229,1 -2.229,2.229 l 0,13.56 c 0,1.229 1,2.229 2.229,2.229 l 27.546,0 c 1.229,0 2.229,-1 2.229,-2.229 l 0,-13.56 C 2.229,1 1.229,0 0,0"
         style="fill:#31353a;fill-opacity:1;fill-rule:nonzero;stroke:none"
         id="path4390"
         inkscape:connector-curvature="0" />
    </g>
    <g
       id="g4392"
       transform="matrix(1.4998125,0,0,-1.4998125,37.498013,17.975325)">
      <path
         d="M 0,0 1,0 C 1.552,0 2,-0.448 2,-1 2,-1.552 1.552,-2 1,-2 l -1,0 c -0.552,0 -1,0.448 -1,1 0,0.552 0.448,1 1,1"
         style="fill:#31353a;fill-opacity:1;fill-rule:evenodd;stroke:none"
         id="path4394"
         inkscape:connector-curvature="0" />
    </g>
  </g>
</svg>
