<?xml version="1.0" encoding="UTF-8" standalone="no"?>
<!-- Created with Inkscape (http://www.inkscape.org/) -->

<svg
   xmlns:dc="http://purl.org/dc/elements/1.1/"
   xmlns:cc="http://creativecommons.org/ns#"
   xmlns:rdf="http://www.w3.org/1999/02/22-rdf-syntax-ns#"
   xmlns:svg="http://www.w3.org/2000/svg"
   xmlns="http://www.w3.org/2000/svg"
   xmlns:sodipodi="http://sodipodi.sourceforge.net/DTD/sodipodi-0.dtd"
   xmlns:inkscape="http://www.inkscape.org/namespaces/inkscape"
   width="48"
   height="48"
   id="svg6050"
   version="1.1"
   inkscape:version="0.91 r13725"
   viewBox="0 0 48 48"
   sodipodi:docname="puzzle.svg">
  <defs
     id="defs6052" />
  <sodipodi:namedview
     id="base"
     pagecolor="#ffffff"
     bordercolor="#666666"
     borderopacity="1.0"
     inkscape:pageopacity="0.0"
     inkscape:pageshadow="2"
     inkscape:zoom="7"
     inkscape:cx="30.437678"
     inkscape:cy="23.054"
     inkscape:current-layer="layer1"
     showgrid="true"
     inkscape:grid-bbox="true"
     inkscape:document-units="px"
     inkscape:window-width="1086"
     inkscape:window-height="1001"
     inkscape:window-x="772"
     inkscape:window-y="0"
     inkscape:window-maximized="0" />
  <metadata
     id="metadata6055">
    <rdf:RDF>
      <cc:Work
         rdf:about="">
        <dc:format>image/svg+xml</dc:format>
        <dc:type
           rdf:resource="http://purl.org/dc/dcmitype/StillImage" />
        <dc:title></dc:title>
      </cc:Work>
    </rdf:RDF>
  </metadata>
  <g
     id="layer1"
     inkscape:label="Layer 1"
     inkscape:groupmode="layer">
    <g
       id="g4300"
       transform="matrix(1.4988056,0,0,-1.4988056,8.2112073,18.530109)">
      <path
         d="M 0,0 -3.372,-3.371 C -3.518,-3.517 -3.518,-3.76 -3.37,-3.908 l 13.637,-13.637 c 0.191,-0.189 0.341,-0.191 0.537,0.002 l 13.635,13.637 c 0.147,0.147 0.147,0.388 -0.001,0.536 l -4.809,4.807 c -0.301,0.3 -0.379,0.759 -0.193,1.142 0.185,0.383 0.588,0.61 1.016,0.558 l 0.152,-0.02 c 0.084,-0.011 0.168,-0.025 0.256,-0.025 1.93,0 3.499,1.568 3.499,3.497 0,1.931 -1.569,3.501 -3.499,3.501 -1.928,0 -3.498,-1.57 -3.498,-3.501 0,-0.08 0.013,-0.158 0.024,-0.236 L 17.407,6.174 C 17.452,5.752 17.227,5.348 16.844,5.165 16.464,4.983 16.006,5.062 15.706,5.36 l -4.904,4.908 C 10.61,10.457 10.46,10.459 10.265,10.266 L 7.229,7.231 c 2.603,-0.645 4.356,-2.999 4.356,-5.798 0,-3.291 -2.497,-6.005 -5.79,-6.005 C 2.997,-4.572 0.644,-2.601 0,0 m 10.534,-19.654 c -0.634,0 -1.23,0.246 -1.68,0.693 L -4.786,-5.32 c -0.923,0.927 -0.923,2.435 -0.002,3.361 L 0.209,3.037 C 0.518,3.346 0.991,3.419 1.379,3.217 1.766,3.015 1.977,2.585 1.9,2.155 1.85,1.869 1.826,1.64 1.826,1.433 c 0,-2.188 1.78,-4.005 3.969,-4.005 2.19,0 3.79,1.817 3.79,4.005 0,2.19 -1.6,3.971 -3.79,3.971 C 5.59,5.404 5.361,5.381 5.075,5.33 4.642,5.25 4.216,5.465 4.014,5.852 3.812,6.239 3.885,6.713 4.193,7.022 l 4.66,4.66 c 0.902,0.898 2.462,0.896 3.361,0.002 l 3.411,-3.413 c 0.712,2.212 2.79,3.819 5.235,3.819 3.033,0 5.499,-2.468 5.499,-5.501 0,-2.445 -1.605,-4.523 -3.819,-5.234 l 3.314,-3.312 c 0.924,-0.928 0.924,-2.436 0,-3.362 l -13.638,-13.64 c -0.451,-0.449 -1.048,-0.695 -1.682,-0.695"
         style="fill:#31353a;fill-opacity:1;fill-rule:nonzero;stroke:none"
         id="path4302"
         inkscape:connector-curvature="0" />
    </g>
  </g>
</svg>
