<?xml version="1.0" encoding="UTF-8" standalone="no"?>
<!-- Created with Inkscape (http://www.inkscape.org/) -->

<svg
   xmlns:dc="http://purl.org/dc/elements/1.1/"
   xmlns:cc="http://creativecommons.org/ns#"
   xmlns:rdf="http://www.w3.org/1999/02/22-rdf-syntax-ns#"
   xmlns:svg="http://www.w3.org/2000/svg"
   xmlns="http://www.w3.org/2000/svg"
   xmlns:sodipodi="http://sodipodi.sourceforge.net/DTD/sodipodi-0.dtd"
   xmlns:inkscape="http://www.inkscape.org/namespaces/inkscape"
   width="48"
   height="48"
   id="svg6050"
   version="1.1"
   inkscape:version="0.91 r13725"
   viewBox="0 0 48 48"
   sodipodi:docname="smile.svg">
  <defs
     id="defs6052" />
  <sodipodi:namedview
     id="base"
     pagecolor="#ffffff"
     bordercolor="#666666"
     borderopacity="1.0"
     inkscape:pageopacity="0.0"
     inkscape:pageshadow="2"
     inkscape:zoom="7"
     inkscape:cx="30.437678"
     inkscape:cy="23.054"
     inkscape:current-layer="layer1"
     showgrid="true"
     inkscape:grid-bbox="true"
     inkscape:document-units="px"
     inkscape:window-width="1086"
     inkscape:window-height="1001"
     inkscape:window-x="772"
     inkscape:window-y="0"
     inkscape:window-maximized="0" />
  <metadata
     id="metadata6055">
    <rdf:RDF>
      <cc:Work
         rdf:about="">
        <dc:format>image/svg+xml</dc:format>
        <dc:type
           rdf:resource="http://purl.org/dc/dcmitype/StillImage" />
        <dc:title></dc:title>
      </cc:Work>
    </rdf:RDF>
  </metadata>
  <g
     id="layer1"
     inkscape:label="Layer 1"
     inkscape:groupmode="layer">
    <g
       id="g5408"
       transform="matrix(1.5,0,0,-1.5,23.7396,39.07008)">
      <path
         d="m 0,0 c -6.108,0 -8.67,5.512 -8.776,5.748 -0.228,0.504 -0.005,1.096 0.499,1.323 0.504,0.227 1.093,0.004 1.322,-0.496 C -6.869,6.387 -4.798,2 0.004,2 0.035,2 0.066,2.001 0.098,2.001 5.201,2.061 7.247,6.523 7.268,6.567 7.491,7.071 8.08,7.301 8.588,7.073 9.092,6.849 9.319,6.258 9.094,5.753 8.991,5.521 6.492,0.076 0.121,0.001 0.081,0.001 0.04,0 0,0"
         style="fill:#31353a;fill-opacity:1;fill-rule:nonzero;stroke:none"
         id="path5410"
         inkscape:connector-curvature="0" />
    </g>
    <g
       id="g5412"
       transform="matrix(1.5,0,0,-1.5,24,0)">
      <path
         d="m 0,0 c -8.837,0 -16,-7.163 -16,-16 0,-8.837 7.163,-16 16,-16 8.837,0 16,7.163 16,16 C 16,-7.163 8.837,0 0,0 m 0,-2 c 7.72,0 14,-6.28 14,-14 0,-7.72 -6.28,-14 -14,-14 -7.72,0 -14,6.28 -14,14 0,7.72 6.28,14 14,14"
         style="fill:#31353a;fill-opacity:1;fill-rule:nonzero;stroke:none"
         id="path5414"
         inkscape:connector-curvature="0" />
    </g>
    <g
       id="g5416"
       transform="matrix(1.5,0,0,-1.5,13.48344,19.49964)">
      <path
         d="M 0,0 C 0,-1.101 0.893,-1.995 1.995,-1.995 3.097,-1.995 3.99,-1.101 3.99,0 3.99,1.101 3.097,1.994 1.995,1.994 0.893,1.994 0,1.101 0,0"
         style="fill:#31353a;fill-opacity:1;fill-rule:nonzero;stroke:none"
         id="path5418"
         inkscape:connector-curvature="0" />
    </g>
    <g
       id="g5420"
       transform="matrix(1.5,0,0,-1.5,28.48344,19.49964)">
      <path
         d="M 0,0 C 0,-1.101 0.893,-1.995 1.995,-1.995 3.097,-1.995 3.99,-1.101 3.99,0 3.99,1.101 3.097,1.994 1.995,1.994 0.893,1.994 0,1.101 0,0"
         style="fill:#31353a;fill-opacity:1;fill-rule:nonzero;stroke:none"
         id="path5422"
         inkscape:connector-curvature="0" />
    </g>
  </g>
</svg>
