<?xml version="1.0" encoding="UTF-8" standalone="no"?>
<!-- Created with Inkscape (http://www.inkscape.org/) -->

<svg
   xmlns:dc="http://purl.org/dc/elements/1.1/"
   xmlns:cc="http://creativecommons.org/ns#"
   xmlns:rdf="http://www.w3.org/1999/02/22-rdf-syntax-ns#"
   xmlns:svg="http://www.w3.org/2000/svg"
   xmlns="http://www.w3.org/2000/svg"
   xmlns:sodipodi="http://sodipodi.sourceforge.net/DTD/sodipodi-0.dtd"
   xmlns:inkscape="http://www.inkscape.org/namespaces/inkscape"
   width="48"
   height="48"
   id="svg6050"
   version="1.1"
   inkscape:version="0.91 r13725"
   viewBox="0 0 48 48"
   sodipodi:docname="twitter.svg">
  <defs
     id="defs6052" />
  <sodipodi:namedview
     id="base"
     pagecolor="#ffffff"
     bordercolor="#666666"
     borderopacity="1.0"
     inkscape:pageopacity="0.0"
     inkscape:pageshadow="2"
     inkscape:zoom="7"
     inkscape:cx="30.437678"
     inkscape:cy="23.054"
     inkscape:current-layer="layer1"
     showgrid="true"
     inkscape:grid-bbox="true"
     inkscape:document-units="px"
     inkscape:window-width="1086"
     inkscape:window-height="1001"
     inkscape:window-x="772"
     inkscape:window-y="0"
     inkscape:window-maximized="0" />
  <metadata
     id="metadata6055">
    <rdf:RDF>
      <cc:Work
         rdf:about="">
        <dc:format>image/svg+xml</dc:format>
        <dc:type
           rdf:resource="http://purl.org/dc/dcmitype/StillImage" />
        <dc:title></dc:title>
      </cc:Work>
    </rdf:RDF>
  </metadata>
  <g
     id="layer1"
     inkscape:label="Layer 1"
     inkscape:groupmode="layer">
    <g
       id="g4898"
       transform="matrix(1.4991813,0,0,-1.4991813,32.077195,4.4499263)">
      <path
         d="m 0,0 c -3.927,0 -7.181,-2.869 -7.682,-6.576 -3.213,0.645 -6.134,2.347 -8.234,4.842 -0.381,0.454 -0.942,0.713 -1.53,0.713 -0.052,0 -0.105,-0.002 -0.158,-0.006 -0.643,-0.051 -1.222,-0.41 -1.555,-0.962 -0.697,-1.157 -1.066,-2.483 -1.066,-3.833 0,-0.902 0.163,-1.78 0.469,-2.601 -0.327,-0.363 -0.515,-0.839 -0.515,-1.341 l 0,-0.071 c 0,-1.959 0.774,-3.776 2.06,-5.14 -0.074,-0.341 -0.058,-0.702 0.056,-1.046 0.443,-1.349 1.251,-2.512 2.298,-3.398 -0.704,-0.155 -1.429,-0.234 -2.17,-0.234 -0.391,0 -0.772,0.021 -1.132,0.065 -0.081,0.009 -0.16,0.014 -0.238,0.014 -0.84,0 -1.603,-0.53 -1.886,-1.337 -0.311,-0.885 0.034,-1.866 0.83,-2.362 2.954,-1.837 6.366,-2.808 9.866,-2.808 11.376,0 18.219,8.905 18.352,17.604 0.931,0.771 1.754,1.662 2.452,2.662 0.254,0.333 0.404,0.75 0.404,1.203 0,0.68 -0.34,1.282 -0.858,1.643 0.224,0.77 -0.033,1.603 -0.658,2.112 -0.365,0.296 -0.812,0.448 -1.262,0.448 -0.344,0 -0.689,-0.088 -0.999,-0.268 C 6.183,-1.058 5.476,-1.359 4.731,-1.576 3.385,-0.565 1.715,0 0,0 m 8.618,-4.612 0.005,0 M 0,-2 c 1.652,0 3.145,-0.676 4.195,-1.762 1.308,0.253 2.54,0.714 3.648,1.353 -0.429,-1.301 -1.34,-2.393 -2.526,-3.083 1.161,0.137 2.271,0.434 3.301,0.88 -0.772,-1.117 -1.745,-2.101 -2.868,-2.887 0.011,-0.238 0.017,-0.48 0.017,-0.72 0,-7.367 -5.782,-15.862 -16.354,-15.862 -3.245,0 -6.267,0.926 -8.809,2.507 0.449,-0.054 0.906,-0.079 1.369,-0.079 2.693,0 5.173,0.89 7.14,2.387 -2.516,0.043 -4.64,1.657 -5.369,3.87 0.351,-0.065 0.711,-0.1 1.082,-0.1 0.522,0 1.031,0.067 1.513,0.195 -2.629,0.511 -4.61,2.764 -4.61,5.466 l 0,0.071 c 0.775,-0.418 1.661,-0.669 2.604,-0.698 -1.543,1.001 -2.558,2.705 -2.558,4.64 0,1.022 0.285,1.98 0.779,2.801 2.834,-3.37 7.069,-5.589 11.846,-5.824 -0.098,0.407 -0.149,0.837 -0.149,1.27 0,3.08 2.573,5.575 5.749,5.575"
         style="fill:#31353a;fill-opacity:1;fill-rule:nonzero;stroke:none"
         id="path4900"
         inkscape:connector-curvature="0" />
    </g>
  </g>
</svg>
