<?xml version="1.0" encoding="UTF-8" standalone="no"?>
<!-- Created with Inkscape (http://www.inkscape.org/) -->

<svg
   xmlns:dc="http://purl.org/dc/elements/1.1/"
   xmlns:cc="http://creativecommons.org/ns#"
   xmlns:rdf="http://www.w3.org/1999/02/22-rdf-syntax-ns#"
   xmlns:svg="http://www.w3.org/2000/svg"
   xmlns="http://www.w3.org/2000/svg"
   xmlns:sodipodi="http://sodipodi.sourceforge.net/DTD/sodipodi-0.dtd"
   xmlns:inkscape="http://www.inkscape.org/namespaces/inkscape"
   width="48"
   height="48"
   id="svg6050"
   version="1.1"
   inkscape:version="0.91 r13725"
   viewBox="0 0 48 48"
   sodipodi:docname="twitter_2.svg">
  <defs
     id="defs6052" />
  <sodipodi:namedview
     id="base"
     pagecolor="#ffffff"
     bordercolor="#666666"
     borderopacity="1.0"
     inkscape:pageopacity="0.0"
     inkscape:pageshadow="2"
     inkscape:zoom="7"
     inkscape:cx="30.437678"
     inkscape:cy="23.054"
     inkscape:current-layer="layer1"
     showgrid="true"
     inkscape:grid-bbox="true"
     inkscape:document-units="px"
     inkscape:window-width="1086"
     inkscape:window-height="1001"
     inkscape:window-x="772"
     inkscape:window-y="0"
     inkscape:window-maximized="0" />
  <metadata
     id="metadata6055">
    <rdf:RDF>
      <cc:Work
         rdf:about="">
        <dc:format>image/svg+xml</dc:format>
        <dc:type
           rdf:resource="http://purl.org/dc/dcmitype/StillImage" />
        <dc:title></dc:title>
      </cc:Work>
    </rdf:RDF>
  </metadata>
  <g
     id="layer1"
     inkscape:label="Layer 1"
     inkscape:groupmode="layer">
    <g
       id="g4910"
       transform="matrix(1.4992504,0,0,-1.4992504,24.750399,-4.032e-7)">
      <path
         d="m 0,0 -3.655,0 c -1.105,0 -2,-0.896 -2,-2 0,-4.578 -2.551,-4.934 -3.332,-4.934 -1.101,0 -1.995,-0.889 -2,-1.99 l -0.02,-3.066 c -0.003,-0.532 0.207,-1.043 0.582,-1.421 0.376,-0.377 0.886,-0.589 1.418,-0.589 l 2.027,0 0,-9.332 c 0,-1.543 0.174,-2.738 0.534,-3.652 0.901,-2.295 3.043,-5.032 8.127,-5.032 1.258,0 2.456,0.132 3.558,0.393 l 0.221,0.052 c 0.934,0.219 2.126,0.493 3.406,1.103 0.697,0.332 1.14,1.034 1.14,1.806 l 0,4.666 c 0,0.757 -0.428,1.449 -1.105,1.788 -0.283,0.143 -0.589,0.212 -0.895,0.212 -0.424,0 -0.846,-0.135 -1.198,-0.399 -1.191,-0.891 -2.714,-1.078 -3.495,-1.078 -0.799,0 -1.097,0.29 -1.163,0.368 -0.034,0.157 -0.129,0.743 -0.129,2.406 l 0.007,6.704 4.982,0 c 1.104,0 2,0.895 2,2 l 0,2.999 c 0,1.104 -0.896,2 -2,2 L 2,-6.996 2,-2 C 2,-0.896 1.104,0 0,0 m 0,-2 0,-6.996 7.01,0 0,-2.999 -6.979,0 -0.01,-8.704 c 0,-1.618 0.084,-2.656 0.255,-3.117 0.267,-0.727 1.237,-1.657 3.037,-1.657 1.397,0 3.281,0.42 4.693,1.477 l 0,-4.666 c -1.178,-0.562 -2.273,-0.788 -3.227,-1.015 -0.955,-0.225 -1.989,-0.339 -3.098,-0.339 -1.236,0 -4.802,0.034 -6.266,3.763 -0.264,0.671 -0.395,1.646 -0.395,2.921 l 0,11.332 -4.027,0 0.02,3.066 c 1.333,0 5.332,0.81 5.332,6.934 L 0,-2"
         style="fill:#31353a;fill-opacity:1;fill-rule:nonzero;stroke:none"
         id="path4912"
         inkscape:connector-curvature="0" />
    </g>
  </g>
</svg>
