<?xml version="1.0" encoding="UTF-8" standalone="no"?>
<!-- Created with Inkscape (http://www.inkscape.org/) -->

<svg
   xmlns:dc="http://purl.org/dc/elements/1.1/"
   xmlns:cc="http://creativecommons.org/ns#"
   xmlns:rdf="http://www.w3.org/1999/02/22-rdf-syntax-ns#"
   xmlns:svg="http://www.w3.org/2000/svg"
   xmlns="http://www.w3.org/2000/svg"
   xmlns:sodipodi="http://sodipodi.sourceforge.net/DTD/sodipodi-0.dtd"
   xmlns:inkscape="http://www.inkscape.org/namespaces/inkscape"
   width="48"
   height="48"
   id="svg6050"
   version="1.1"
   inkscape:version="0.91 r13725"
   viewBox="0 0 48 48"
   sodipodi:docname="videotape.svg">
  <defs
     id="defs6052" />
  <sodipodi:namedview
     id="base"
     pagecolor="#ffffff"
     bordercolor="#666666"
     borderopacity="1.0"
     inkscape:pageopacity="0.0"
     inkscape:pageshadow="2"
     inkscape:zoom="7"
     inkscape:cx="30.437678"
     inkscape:cy="23.054"
     inkscape:current-layer="layer1"
     showgrid="true"
     inkscape:grid-bbox="true"
     inkscape:document-units="px"
     inkscape:window-width="1086"
     inkscape:window-height="1001"
     inkscape:window-x="772"
     inkscape:window-y="0"
     inkscape:window-maximized="0" />
  <metadata
     id="metadata6055">
    <rdf:RDF>
      <cc:Work
         rdf:about="">
        <dc:format>image/svg+xml</dc:format>
        <dc:type
           rdf:resource="http://purl.org/dc/dcmitype/StillImage" />
        <dc:title></dc:title>
      </cc:Work>
    </rdf:RDF>
  </metadata>
  <g
     id="layer1"
     inkscape:label="Layer 1"
     inkscape:groupmode="layer">
    <g
       id="g4530"
       transform="matrix(1.5,0,0,-1.5,37.5,8.2635)">
      <path
         d="M 0,0 2,0 C 2.552,0 3,-0.448 3,-1 L 3,-2 C 3,-2.552 2.552,-3 2,-3 l -2,0 c -0.552,0 -1,0.448 -1,1 l 0,1 c 0,0.552 0.448,1 1,1"
         style="fill:#31353a;fill-opacity:1;fill-rule:evenodd;stroke:none"
         id="path4532"
         inkscape:connector-curvature="0" />
    </g>
    <g
       id="g4534"
       transform="matrix(1.5,0,0,-1.5,37.5,17.2635)">
      <path
         d="M 0,0 2,0 C 2.552,0 3,-0.448 3,-1 L 3,-2 C 3,-2.552 2.552,-3 2,-3 l -2,0 c -0.552,0 -1,0.448 -1,1 l 0,1 c 0,0.552 0.448,1 1,1"
         style="fill:#31353a;fill-opacity:1;fill-rule:evenodd;stroke:none"
         id="path4536"
         inkscape:connector-curvature="0" />
    </g>
    <g
       id="g4538"
       transform="matrix(1.5,0,0,-1.5,37.5,26.263356)">
      <path
         d="M 0,0 2,0 C 2.552,0 3,-0.448 3,-1 L 3,-2 C 3,-2.552 2.552,-3 2,-3 l -2,0 c -0.552,0 -1,0.448 -1,1 l 0,1 c 0,0.552 0.448,1 1,1"
         style="fill:#31353a;fill-opacity:1;fill-rule:evenodd;stroke:none"
         id="path4540"
         inkscape:connector-curvature="0" />
    </g>
    <g
       id="g4542"
       transform="matrix(1.5,0,0,-1.5,37.5,35.2635)">
      <path
         d="M 0,0 2,0 C 2.552,0 3,-0.448 3,-1 L 3,-2 C 3,-2.552 2.552,-3 2,-3 l -2,0 c -0.552,0 -1,0.448 -1,1 l 0,1 c 0,0.552 0.448,1 1,1"
         style="fill:#31353a;fill-opacity:1;fill-rule:evenodd;stroke:none"
         id="path4544"
         inkscape:connector-curvature="0" />
    </g>
    <g
       id="g4546"
       transform="matrix(1.5,0,0,-1.5,7.5,8.2635)">
      <path
         d="M 0,0 2,0 C 2.552,0 3,-0.448 3,-1 L 3,-2 C 3,-2.552 2.552,-3 2,-3 l -2,0 c -0.552,0 -1,0.448 -1,1 l 0,1 c 0,0.552 0.448,1 1,1"
         style="fill:#31353a;fill-opacity:1;fill-rule:evenodd;stroke:none"
         id="path4548"
         inkscape:connector-curvature="0" />
    </g>
    <g
       id="g4550"
       transform="matrix(1.5,0,0,-1.5,7.5,17.2635)">
      <path
         d="M 0,0 2,0 C 2.552,0 3,-0.448 3,-1 L 3,-2 C 3,-2.552 2.552,-3 2,-3 l -2,0 c -0.552,0 -1,0.448 -1,1 l 0,1 c 0,0.552 0.448,1 1,1"
         style="fill:#31353a;fill-opacity:1;fill-rule:evenodd;stroke:none"
         id="path4552"
         inkscape:connector-curvature="0" />
    </g>
    <g
       id="g4554"
       transform="matrix(1.5,0,0,-1.5,7.5,26.263356)">
      <path
         d="M 0,0 2,0 C 2.552,0 3,-0.448 3,-1 L 3,-2 C 3,-2.552 2.552,-3 2,-3 l -2,0 c -0.552,0 -1,0.448 -1,1 l 0,1 c 0,0.552 0.448,1 1,1"
         style="fill:#31353a;fill-opacity:1;fill-rule:evenodd;stroke:none"
         id="path4556"
         inkscape:connector-curvature="0" />
    </g>
    <g
       id="g4558"
       transform="matrix(1.5,0,0,-1.5,7.5,35.2635)">
      <path
         d="M 0,0 2,0 C 2.552,0 3,-0.448 3,-1 L 3,-2 C 3,-2.552 2.552,-3 2,-3 l -2,0 c -0.552,0 -1,0.448 -1,1 l 0,1 c 0,0.552 0.448,1 1,1"
         style="fill:#31353a;fill-opacity:1;fill-rule:evenodd;stroke:none"
         id="path4560"
         inkscape:connector-curvature="0" />
    </g>
    <g
       id="g4562"
       transform="matrix(1.5,0,0,-1.5,45,0.7455)">
      <path
         d="m 0,0 -28,0 c -1.099,0 -2,-0.9 -2,-2 l 0,-27.006 c 0,-1.099 0.901,-2 2,-2 l 28,0 c 1.1,0 2,0.901 2,2 L 2,-2 C 2,-0.9 1.1,0 0,0 m 0,-29.006 -28,0 0,27.006 28,0 0,-27.006 z"
         style="fill:#31353a;fill-opacity:1;fill-rule:nonzero;stroke:none"
         id="path4564"
         inkscape:connector-curvature="0" />
    </g>
  </g>
</svg>
